<svg xmlns="http://www.w3.org/2000/svg" viewBox="0 0 36.23 61.65"><defs><style>.cls-1{fill:#3e566c;}</style></defs><g id="Layer_2" data-name="Layer 2"><g id="layer"><path class="cls-1" d="M36.23,31.28a4.78,4.78,0,0,1-.25.84,4.08,4.08,0,0,1-.65,1Q21.91,46.83,8.45,60.5a3.45,3.45,0,0,1-3.73,1A6.55,6.55,0,0,1,.14,56.7,3.23,3.23,0,0,1,1,53.45q10.7-11.18,21.37-22.36c.08-.08.15-.17.24-.27l-1.82-1.9L1,8.13A3.2,3.2,0,0,1,.17,4.8,6.57,6.57,0,0,1,5.09.11a3.28,3.28,0,0,1,3.25.94L35.1,28.26a4,4,0,0,1,1.13,2.2Z"/></g></g></svg>