<svg xmlns="http://www.w3.org/2000/svg" xmlns:xlink="http://www.w3.org/1999/xlink" viewBox="0 0 521.04 316.89"><defs><style>.cls-1{fill:url(#Áåçûìÿííûé_ãðàäèåíò_3);}.cls-2{fill:#01898c;}.cls-3{fill:#00666a;}.cls-4{fill:#f9ae28;}.cls-5{fill:#fff;}.cls-6{fill:url(#Áåçûìÿííûé_ãðàäèåíò_3-2);}.cls-7{fill:#f4a086;}.cls-8{fill:#f8b68f;}.cls-9{fill:#212b53;}.cls-10{fill:#043c5e;}.cls-11{fill:#63c1c5;}.cls-12{fill:url(#Áåçûìÿííûé_ãðàäèåíò_3-3);}.cls-13{fill:url(#Áåçûìÿííûé_ãðàäèåíò_3-4);}</style><linearGradient id="Áåçûìÿííûé_ãðàäèåíò_3" x1="11.76" y1="25.49" x2="173.93" y2="25.49" gradientTransform="translate(89.12)" gradientUnits="userSpaceOnUse"><stop offset="0" stop-color="#e0f0eb"/><stop offset="1" stop-color="#c0e4ef"/></linearGradient><linearGradient id="Áåçûìÿííûé_ãðàäèåíò_3-2" x1="-1009.64" y1="95.23" x2="-896.5" y2="95.23" gradientTransform="matrix(-1, 0, 0, 1, -571.69, 0)" xlink:href="#Áåçûìÿííûé_ãðàäèåíò_3"/><linearGradient id="Áåçûìÿííûé_ãðàäèåíò_3-3" x1="489.6" y1="100.86" x2="526.87" y2="100.86" gradientTransform="matrix(1, 0.1, -0.1, 1, -11, 66.18)" xlink:href="#Áåçûìÿííûé_ãðàäèåíò_3"/><linearGradient id="Áåçûìÿííûé_ãðàäèåíò_3-4" x1="471.97" y1="195.64" x2="479.7" y2="195.64" gradientTransform="matrix(1, 0, 0, 1, 0, 0)" xlink:href="#Áåçûìÿííûé_ãðàäèåíò_3"/></defs><g id="Layer_2" data-name="Layer 2"><g id="Ñëîé_1" data-name="Ñëîé 1"><path class="cls-1" d="M100.88,51H259.24s8.59-10.86,0-18.17c-4.74-4-10.33-3.62-14.4-2.43A4.74,4.74,0,0,1,239,26.65c-1-4.46-3.93-10.31-12.46-13.76-8.38-3.4-13.69,1.79-16.76,7.12a2.38,2.38,0,0,1-4.3-.44C202.79,11.16,193.52,0,163.08,0c-38.71,0-34.41,20.58-31,29.14a2,2,0,0,1-2.24,2.69c-6-1.28-17.06-2.93-22,1C100.88,38.28,100.88,51,100.88,51Z"/><path class="cls-2" d="M138.84,144.16s-18.65-74.53-71-87.93c-44.82,47.09.11,105.07.11,105.07l58.4,33.22Z"/><path class="cls-3" d="M115.33,92.81l-19,28.3L69.05,56.57c-.41-.12-.82-.24-1.24-.34-.17.18-.33.37-.51.55L81.93,91.35l-30-10c-.11.28-.2.56-.3.84l-.25.76L82.8,93.43,107.18,151,53.91,135.15c.26.68.51,1.34.77,2L108,153.05,125.34,194l1,.56.41-1.62L97.14,123l19.21-28.65Z"/><path class="cls-4" d="M116.8,173.59s-48.71-41.71-86.66-21.35C24.66,240,135.93,253.18,135.93,253.18Z"/><path class="cls-5" d="M30.14,152.24l-.06,1,70.13,51.24L54.59,216.9c.47.46.95.91,1.44,1.36L102,205.77l27.38,20-.61-2.54-53.32-39L69.7,148.79l-1.78-.43,5.55,34.49L31,151.81l-.84.43Z"/><path class="cls-6" d="M437.66,97.58c4.13,17.93-38.16,20.24-55.58,20.43a68,68,0,0,1-14.37-1.36c-14.74-3-47-10.84-42.47-21.51C331.08,81.38,348.61,91,348.61,91s-2.2-10.4,27.63-17.26,29.71,16,29.71,16S432.48,75.06,437.66,97.58Z"/><path class="cls-7" d="M363.3,73.25l2.78-9.65a2.94,2.94,0,0,0,1,.13A3,3,0,0,0,369.87,61a2.83,2.83,0,0,0,1.05-1.59l6.21,2.93s-2.87,10.69-6.92,14.3S353,90.2,353,90.2l-2.45-1Z"/><path class="cls-7" d="M349.85,89.65a5.12,5.12,0,0,1-2.36,1.56c-1.49.6-4.94,1-3.85,2.27,1.71.33,3.67.92,3.67.92a5.62,5.62,0,0,0,3.42-1.57L353,90.2s-.25-1.68-.25-1.76l-.73-.06A8.35,8.35,0,0,1,349.85,89.65Z"/><path class="cls-7" d="M349.54,90.48a1.37,1.37,0,0,1-.12.24c.23,0,.46,0,.68.08l2.43-.65c-.2-.44-.47-1.07-.48-1.12l-5.58.39s-.25.68.89,1A5.58,5.58,0,0,0,349.54,90.48Z"/><polygon class="cls-7" points="373.45 45.39 375.32 49.54 380.8 46.98 376.07 40.16 373.45 45.39"/><path class="cls-8" d="M366.81,34.85s1.21,10.74,3.65,11.78,5.33-2.6,5.33-2.6l2.75-6.36-8.72-3.75Z"/><path class="cls-9" d="M362.85,32.72s1.86,3.73,7.24,2.06c1.52,0,2.34,1.56,2.76,2.91.5,1.58.67.37,1.92,1.44L377,42.27s5-9.45-1.76-12.3S362.85,32.72,362.85,32.72Z"/><path class="cls-8" d="M374.37,37.5a1.33,1.33,0,0,0-1.42.88c-.28.62-.08,1.24.43,1.38a1.36,1.36,0,0,0,1.43-.88C375.09,38.25,374.89,37.63,374.37,37.5Z"/><path class="cls-2" d="M383,46.53c13.53,8,8.37,41.13,8.37,41.13H370.8s-.24-8.66-.51-17.81c-.21-6.93-.86-14.14,1-18.07C373.88,46.35,379.64,44.54,383,46.53Z"/><polygon class="cls-2" points="376.94 68.99 365.62 64.39 371.29 51.77 378.75 55.66 376.94 68.99"/><path class="cls-9" d="M395.9,159.73s-2.27,2.11-7.46,3.44c-1.14.29-2.38-.1-2.38,1.78h6.3l5.24-.9v.9h2.82s.79-4.62-.86-5.22Z"/><path class="cls-8" d="M396.46,156.41l-.56,3.32h0a3.21,3.21,0,0,0,3.47.12l.19-.12-.28-3.32Z"/><path class="cls-9" d="M391.37,87.66s2,6.92,2.43,23.84a23.92,23.92,0,0,0,2.5,9.83c5.92,12.24,3.24,35.91,3.24,35.91h-4.08L379.13,99.08l5.74-11.42Z"/><path class="cls-9" d="M373.69,161.73s-2.28,2.11-7.47,3.44c-1.14.29-2.37-.1-2.37,1.78h6.29l5.24-.9v.9h2.83s.79-4.62-.87-5.22Z"/><path class="cls-8" d="M374.24,158.41l-.55,3.32h0a3.19,3.19,0,0,0,3.46.12l.19-.12-.28-3.32Z"/><path class="cls-10" d="M370.8,87.66l2,71.75h4.31s6.06-19.95,4.73-33.72a22.3,22.3,0,0,1,1.63-11c6.39-14.81,5.38-27,5.38-27Z"/><polygon class="cls-8" points="55.25 210.11 66.23 238.03 62.42 235.31 51.06 222.18 51.67 215.34 55.25 210.11"/><path class="cls-3" d="M52.23,200.46c6.43,4.63,1.43,44.28,1.43,44.28l-25.73-5S29.94,199.51,52.23,200.46Z"/><path class="cls-7" d="M48.87,200.59l2.51-3.68,4.44,2.31-1.51,4.94-.14.06A14.07,14.07,0,0,0,48.87,200.59Z"/><path class="cls-8" d="M51.88,188l-1.24,6.82a1.07,1.07,0,0,1,.63,1.55,1.51,1.51,0,0,1,0,.52A8,8,0,0,0,57,199.74c4.46.18,3.82-8.67,3.82-8.67Z"/><path class="cls-9" d="M48.55,192.6a4.28,4.28,0,0,0-.65-2.12c-1.92-2.66.6-3.68,1.48-4s1.17-1.92,2.47-2.53c2-.92,3.28.82,4.4.88s2.12-1.22,3.51-.1.92,2.31,1.3,2.94,1.63-.58,2.77,1.41c1.74,3-3,3-3,3a8.51,8.51,0,0,1-5.72-1.62,1.12,1.12,0,0,0-1.35,0c-1,.89-2.36,6.52-2.36,6.52l-.89-1.17A3.13,3.13,0,0,1,48.55,192.6Z"/><path class="cls-8" d="M51,193.75a1.06,1.06,0,0,0,2.1-.33,1.06,1.06,0,1,0-2.1.33Z"/><path class="cls-9" d="M5.06,286.16s-2,2.2-3.33,7.23c-.28,1.11.1,2.3-1.73,2.3v-6.1l.88-5.08H0v-2.74s4.48-.76,5.06.84Z"/><path class="cls-8" d="M8.28,285.62l-3.22.54h0a3.1,3.1,0,0,1-.12-3.36l.12-.19,3.22-.79Z"/><path class="cls-9" d="M47,310s0,3.42,6.88,5.47c1.42.42,1,.84,1.22,1.43H47.2l-3.1-3.48-1,.83-2.23-2.19s1-3.18,2.74-3.21Z"/><path class="cls-8" d="M48.29,307,47,310h0a3.12,3.12,0,0,1-3.22-1l-.14-.17,1-3Z"/><path class="cls-9" d="M28.48,248.62a58.27,58.27,0,0,0,4.19,19,4.65,4.65,0,0,1-3.3,6.46c-14,2.94-21.94,7.66-21.94,7.66v4.82l32.72-4.48A11.49,11.49,0,0,0,50,271.87l1-10.12Z"/><path class="cls-10" d="M56.43,241.67s6.92,26.69,6.92,33.27-15.22,32.24-15.22,32.24H43.78s.77-16.26,3.72-29.74a7.73,7.73,0,0,0-2.22-7.27c-9.25-8.68-17.46-28.5-17.46-28.5Z"/><path class="cls-2" d="M46.34,221.31c-.66.34-1.76,3-2.4,6.08a27.88,27.88,0,0,0-7.88,1.78c-1.48-2.35-3.29-4.68-4.67-4.7-2.79-.06-8.5,5-8.86,6.08-.23.72.89,3.44,2.69,6.15a27.65,27.65,0,0,0-4.38,6.68c-2.72-.61-5.66-1-6.65,0-2,1.94-2.51,9.52-2,10.57.34.66,2.95,1.76,6,2.4a27.51,27.51,0,0,0,1.56,8.05c-2.27,1.45-4.43,3.18-4.46,4.5,0,2.8,5,8.51,6.09,8.87.67.21,3.07-.74,5.58-2.33a27.42,27.42,0,0,0,7.08,4.84c-.51,2.46-.72,4.93.14,5.83,1.94,2,9.52,2.5,10.57,2,.6-.3,1.54-2.44,2.19-5.12a27.62,27.62,0,0,0,8.75-1.74c1.34,2,2.83,3.69,4,3.71,2.8.06,8.5-5,8.87-6.08.2-.62-.6-2.72-2-5a27.55,27.55,0,0,0,4.88-7.56c2.33.44,4.59.59,5.44-.23,2-1.93,2.5-9.51,2-10.57-.3-.59-2.45-1.54-5.14-2.19a27.85,27.85,0,0,0-2-8.56c2.08-1.38,4-3,4-4.2.06-2.79-5-8.5-6.09-8.86-.67-.22-3.09.75-5.61,2.35A27.86,27.86,0,0,0,57,229.55c.56-2.61.85-5.32-.06-6.27C55,221.26,47.4,220.77,46.34,221.31ZM58.28,257.4a12.43,12.43,0,1,1-10-14.5A12.44,12.44,0,0,1,58.28,257.4Z"/><path class="cls-5" d="M63.2,258.21A17.7,17.7,0,1,1,49,237.58,17.72,17.72,0,0,1,63.2,258.21Zm-34.55-6.42a17.44,17.44,0,1,0,20.34-14A17.47,17.47,0,0,0,28.65,251.79Z"/><path class="cls-5" d="M45.36,229.35l-.11.33a25.77,25.77,0,0,1,5.51.41,25.37,25.37,0,0,1,4.38,48.66h0v.35a25.7,25.7,0,0,0-4.32-49.33A26,26,0,0,0,45.36,229.35Z"/><path class="cls-5" d="M23.57,266.63a25.22,25.22,0,0,1-2.39-16.23c0-.11.05-.22.07-.33l-.35.05c0,.07,0,.15,0,.22a25.54,25.54,0,0,0,2.39,16.38A1.68,1.68,0,0,1,23.57,266.63Z"/><path class="cls-8" d="M39.12,209.61l8.74,5.4-6.3,7.21-.9,20.52-3.39-.66S32,226.24,33,220.78,39.12,209.61,39.12,209.61Z"/><path class="cls-8" d="M40.66,242.74l0,4.07a3.36,3.36,0,0,1-.55,1.84c-.69,1-1.9,2.53-3,2.32-1.68-.33-3.65-4.2-3.65-4.2l3.86-4.69Z"/><path class="cls-9" d="M463.94,312.24a16,16,0,0,1-6.53,3c-1,.26-2.08-.09-2.08,1.56h5.51l4.59-.79v.79h2.47s.69-4.05-.76-4.56Z"/><path class="cls-8" d="M464.22,309.33l-.28,2.91h0a2.82,2.82,0,0,0,3,.1l.17-.1.52-2.91Z"/><path class="cls-9" d="M488,312.24a16.08,16.08,0,0,0,6.54,3c1,.26,2.08-.09,2.08,1.56h-5.51l-4.59-.79v.79h-2.48s-.69-4.05.76-4.56Z"/><path class="cls-8" d="M487.75,309.33l.27,2.91h0a2.82,2.82,0,0,1-3,.1l-.17-.1-.51-2.91Z"/><path class="cls-10" d="M465.76,230.64c-3,14.41-3.42,29.91-3.49,42.92a344.27,344.27,0,0,0,1.61,36.28h4.29l8.94-59.92s1,8.91,2.3,24c1,11.86,1.53,21.88,4.31,35.9H488s2.56-41.72,2.56-77.66C480.51,232.18,470.94,230.64,465.76,230.64Z"/><path class="cls-8" d="M446.59,168.35,444,165.68a.92.92,0,0,1-.23-.89l.19-.76a1,1,0,0,1,.44-.57l3.18-1.87a.94.94,0,0,1,1.16.16l.32.33a.94.94,0,0,1,.26.65v4.65Z"/><path class="cls-11" d="M446,168.36s4.91,18.76,8,25.7S467.6,212.8,467.6,212.8l6.83-14.1s-9.92-6.1-14.53-12-10.24-20-10.24-20Z"/><path class="cls-8" d="M507.6,165.92l2-3.17a.94.94,0,0,0,0-.92l-.36-.7a.9.9,0,0,0-.55-.46l-3.51-1.15a.93.93,0,0,0-1.09.41l-.24.39a.94.94,0,0,0-.12.69l1,4.54Z"/><path class="cls-11" d="M473.36,196.09c-8,4.22-7.56,35.07-7.56,35.07l25.23,2-1.57-25.26s10.9-11.74,13.79-20.83a182.65,182.65,0,0,0,4.94-21.7l-3.83,0s-6.59,16.31-10,20.85-14,10.41-14,10.41Z"/><path class="cls-12" d="M466.05,230.69c0-3.32.14-24.09,5-31.89-.08-.19-.15-.38-.22-.57-5.37,8.05-5.29,30.42-5.27,32.77Z"/><path class="cls-7" d="M478.42,196.12l-.58-4.36-4.95.07-.87,5,.1.11A14,14,0,0,1,478.42,196.12Z"/><path class="cls-8" d="M481.35,183.69l-2,6.58a1.06,1.06,0,0,0-1.24,1.09,1.25,1.25,0,0,0-.23.46,7.86,7.86,0,0,1-6.27,0c-4-1.83.49-9.37.49-9.37Z"/><path class="cls-9" d="M482.26,189.21a4.26,4.26,0,0,1,1.51-1.59c2.89-1.49,1.12-3.51.48-4.18s-.18-2.22-1.06-3.33c-1.35-1.7-3.27-.74-4.28-1.19s-1.33-2-3.06-1.65-1.84,1.63-2.46,2-1.18-1.24-3.08,0c-2.88,1.9,1.36,4,1.36,4a8.34,8.34,0,0,0,5.77,1.11,1.09,1.09,0,0,1,1.18.62c.53,1.24-.81,6.81-.81,6.81l1.31-.64A3.11,3.11,0,0,0,482.26,189.21Z"/><path class="cls-8" d="M479.6,189.14a1.05,1.05,0,1,1-.24-1.47A1,1,0,0,1,479.6,189.14Z"/><polygon class="cls-13" points="472.3 195.05 471.97 197.37 479.7 196.6 478.36 193.91 472.3 195.05"/><path class="cls-4" d="M458.47,90.92c-.63.78-.58,4.63.32,8.84a37.24,37.24,0,0,0-8.79,6.48c-3.12-2.11-6.62-4-8.34-3.3-3.49,1.44-7.85,10.76-7.68,12.35.1,1,3,3.78,6.67,6.15a37.35,37.35,0,0,0-1.81,10.67c-3.7.71-7.54,1.84-8.25,3.57-1.45,3.49,2.06,13.15,3.3,14.16.77.63,4.6.58,8.79-.31a37.34,37.34,0,0,0,6.3,9.12c-2,3-3.76,6.35-3.08,8,1.45,3.49,10.76,7.84,12.35,7.68.95-.1,3.41-2.58,5.65-5.91a37.63,37.63,0,0,0,11.4,2.15c.71,3.33,1.79,6.5,3.34,7.15,3.49,1.44,13.15-2.06,14.17-3.3.57-.7.58-3.87-.07-7.55a37.24,37.24,0,0,0,9.89-6.89c2.73,1.72,5.52,3,7,2.42,3.49-1.45,7.84-10.76,7.68-12.35-.09-.88-2.22-3.05-5.17-5.14a37.24,37.24,0,0,0,1.94-12c3.13-.72,6-1.76,6.62-3.23,1.45-3.49-2.06-13.15-3.3-14.16-.7-.57-3.88-.59-7.57.07a37.26,37.26,0,0,0-7.1-9.53c1.83-2.84,3.29-5.82,2.65-7.36C503.93,95.2,494.62,90.85,493,91c-.95.1-3.43,2.61-5.68,6a37.32,37.32,0,0,0-11.24-1.61c-.71-3.54-1.82-7.06-3.46-7.74C469.14,86.17,459.48,89.68,458.47,90.92Zm34.37,38.24a16.82,16.82,0,1,1-20.2-12.57A16.83,16.83,0,0,1,492.84,129.16Z"/><path class="cls-5" d="M499.38,127.5a23.94,23.94,0,1,1-28.75-17.89A24,24,0,0,1,499.38,127.5Zm-46.3,10.78A23.6,23.6,0,1,0,470.71,110,23.63,23.63,0,0,0,453.08,138.28Z"/><path class="cls-5" d="M461.61,101.41c0,.16,0,.32.05.48a34.31,34.31,0,0,1,38.87,55.42h0c.06.14.13.28.19.43a34.77,34.77,0,0,0-39.12-56.34Z"/><path class="cls-5" d="M454.84,159.42a34.11,34.11,0,0,1-11.76-18.8c0-.15-.06-.3-.1-.46l-.4.25.06.31a34.6,34.6,0,0,0,11.85,19Z"/></g></g></svg>