<svg xmlns="http://www.w3.org/2000/svg" viewBox="0 0 294.8 253.73"><defs><style>.cls-1{fill:#01898c;}.cls-2{fill:#212b53;}.cls-3{fill:#fff;}.cls-4{fill:#f8b68f;}.cls-5{fill:#043c5e;}.cls-6{fill:#f7a605;}.cls-7{fill:#f18812;}.cls-8{fill:#f9ae28;}.cls-9{fill:#f4a086;}.cls-10{fill:#b0d9c8;}.cls-11{fill:#11375b;}.cls-12{fill:#00666a;}</style></defs><g id="Layer_2" data-name="Layer 2"><g id="Ñëîé_1" data-name="Ñëîé 1"><polygon class="cls-1" points="158.65 253.28 106.9 92.41 109.84 92.41 161.59 253.28 158.65 253.28"/><polygon class="cls-1" points="131.89 253.28 80.14 92.41 83.08 92.41 134.84 253.28 131.89 253.28"/><polygon class="cls-1" points="123.25 134.18 123.25 136.58 95.52 136.57 95.05 134.17 123.25 134.18"/><polygon class="cls-1" points="117.52 118.59 117.52 120.99 89.79 120.98 89.32 118.58 117.52 118.59"/><polygon class="cls-1" points="112.78 103.01 112.78 105.41 85.05 105.39 84.58 102.99 112.78 103.01"/><polygon class="cls-1" points="128.3 149.97 128.3 152.37 100.57 152.35 100.1 149.96 128.3 149.97"/><polygon class="cls-1" points="133.04 165.76 133.04 168.16 105.31 168.14 104.84 165.74 133.04 165.76"/><polygon class="cls-1" points="137.94 182.16 139.06 184.56 111.34 184.55 110.86 182.15 137.94 182.16"/><polygon class="cls-1" points="143.14 198.56 144.26 200.96 116.53 200.95 116.06 198.55 143.14 198.56"/><polygon class="cls-1" points="148.01 214.6 149.13 217 121.4 216.99 120.93 214.59 148.01 214.6"/><polygon class="cls-1" points="152.04 230.99 153.16 233.39 125.44 233.37 124.96 230.98 152.04 230.99"/><path class="cls-1" d="M143.18,111.69l-2.43,6.42a2.13,2.13,0,0,0,.7,2.51,7.58,7.58,0,0,0,1.27.58c.44-.09,3.24-8.77,3.24-8.77l0-.05A2.31,2.31,0,0,0,143.18,111.69Z"/><polygon class="cls-2" points="142.72 121.2 145.96 112.43 146.39 112.68 143.12 121.37 142.72 121.2"/><polygon class="cls-3" points="142.22 114.23 142 114.81 143.12 115.03 143.33 114.46 142.22 114.23"/><polygon class="cls-3" points="141.75 115.47 141.53 116.05 142.66 116.27 142.87 115.7 141.75 115.47"/><path class="cls-4" d="M140.49,110.17l2.69,1.52h0a1.71,1.71,0,0,1-.59,1.74l-.1.08-3-.77Z"/><path class="cls-2" d="M119,69.62a15.44,15.44,0,0,1,3.36,7.94c.46,3.37-.8,8.71-.94,12.9A10.81,10.81,0,0,0,126,99.67l14.45,10.5-1,2.57s-19.77-3-25-11.82S108.13,72,108.13,72Z"/><path class="cls-4" d="M130.49,58.7l7.43,16.6s3.05.35,4.38,1.52c.69.62.66,1.84.47,2.87a1,1,0,0,1-1.68.59,7,7,0,0,0-2.56-1.62,3.09,3.09,0,0,1-2.38-1.61L125.49,60.33Z"/><path class="cls-4" d="M93,25.33l-3.8-3.25L92.16,6l4.58-2.34a1.33,1.33,0,0,0-1.63-.51A4.23,4.23,0,0,1,93,3.3s-.85-1.07.77-1.78c.91-.62,1.53,0,4.17-.11C98,1,94.47,0,94.47,0c-1.08-.35-3.86,1.8-3.86,1.8a1.81,1.81,0,0,0-.35.86l-.44,3S83.91,21.88,83.91,23.6s3.31,4.1,3.31,4.1Z"/><path class="cls-5" d="M113.49,71.29s2.29,2.76.91,9.17c-.87,4.09-4.73,9.24-7.31,12.79-1.86,2.55-1.9,5.75-1.34,8.84,2.12,11.78-1.27,26.16-1.27,26.16h-2.75s-4.12-21.07-5.35-35.88A42.68,42.68,0,0,1,101.12,69Z"/><rect class="cls-6" x="89.41" y="1.41" width="8.72" height="2.31" transform="matrix(0.99, -0.15, 0.15, 0.99, 0.62, 13.64)"/><rect class="cls-3" x="88.2" y="2.82" width="2.31" height="0.8" transform="translate(99.14 92.08) rotate(-98.35)"/><path class="cls-2" d="M89.29,4.39c-.64.09-1.17,0-1.32-1s.35-1.22,1-1.32Z"/><polygon class="cls-3" points="98.25 3.07 99.93 2.07 99.81 1.24 97.92 0.79 98.25 3.07"/><polygon class="cls-5" points="99.93 2.07 100.66 1.54 99.81 1.24 99.93 2.07"/><rect class="cls-7" x="89.78" y="2.81" width="8.43" height="0.52" transform="translate(0.55 13.66) rotate(-8.33)"/><rect class="cls-7" x="89.61" y="1.71" width="8.43" height="0.52" transform="translate(0.7 13.62) rotate(-8.33)"/><path class="cls-8" d="M120.23,38.73c4.91,3.61,10.69,21,10.69,21l-4.31,2.42-7-9.63s-.68,11.15,1,19.7c-.76,3.2-4.41,2.84-10.31,1.72a29.38,29.38,0,0,1-9.77-3.66s-.26-15.47-1-23.67.74-9.08-1.32-8.81C93.55,35.13,86,26.7,86,26.7l7-1.37,15.12,8.86A65.56,65.56,0,0,1,120.23,38.73Z"/><path class="cls-4" d="M111.67,18.21,108,21.82a6.32,6.32,0,0,0-1.73,5.87l.43,1.92Z"/><path class="cls-2" d="M116.08,16.85c8.86,0,5.09,17,5.09,17s-1.58,11-5.09,15.46c-3,3.83-9,2.68-11.9.84a10.88,10.88,0,0,0-4.6-1.7c-2.41-.29-5.28-1.35-5.28-5.71,0-4.09,4.89-7.26,8.11-9.53A10.58,10.58,0,0,0,106.58,27C107.61,22.85,110.13,16.85,116.08,16.85Z"/><path class="cls-1" d="M104,131.31H97.14c-.92.13-1.94.47-2.11,1.53a8.06,8.06,0,0,0-.1,1.39c.25.39,9.36-.05,9.36-.05l0,0A2.31,2.31,0,0,0,104,131.31Z"/><polygon class="cls-5" points="94.93 134.22 104.29 134.17 104.21 134.66 94.92 134.66 94.93 134.22"/><polygon class="cls-3" points="101.29 131.3 100.67 131.3 100.86 132.43 101.46 132.43 101.29 131.3"/><polygon class="cls-3" points="99.96 131.3 99.34 131.3 99.53 132.43 100.13 132.43 99.96 131.3"/><path class="cls-4" d="M104.48,128.25l-.47,3.06h0a1.76,1.76,0,0,1-1.85.06l-.1-.06-.33-3.06Z"/><path class="cls-4" d="M95.11,3.14a1.33,1.33,0,0,1,1.63.51l-3,1.56-.12-.06a14.51,14.51,0,0,0-2-.73A25.71,25.71,0,0,1,95.11,3.14Z"/><path class="cls-4" d="M275.13,5.29s-3.07,10.64-7.19,14.17-16,13.07-16,13.07l-3.89-.82L261.1,16,265.82.69Z"/><path class="cls-4" d="M252,32.53l-3.09,4.56c-1.39,1.75-5,1-7.22-.1a.5.5,0,0,1-.06-.86,68.5,68.5,0,0,1,7.13-4.65Z"/><polygon class="cls-9" points="274.62 140.08 276.89 145.14 280.57 141.82 277.97 134.45 274.62 140.08"/><path class="cls-4" d="M273.31,140.4a2.46,2.46,0,0,1-1.55-.14c-2.24-2.54-1.47-10-1.47-10l2.62-2.26,4,1.87,1,4.11a6.56,6.56,0,0,1-1,4.76h0A7,7,0,0,1,273.31,140.4Z"/><path class="cls-4" d="M272.71,167.22a5.8,5.8,0,0,1-2.72,1.94c-1.81.62-15.31-2.21-15.31-2.21l-2.71.28a6.85,6.85,0,0,1-4.29-.22l-4-1.53L267,165l8.92-11.07Z"/><path class="cls-8" d="M280.57,141.82s5.38,6.89,6.64,11.42,1.71,17,1.71,17H277.6s-3.25-5.89-5.78-11.23a6.17,6.17,0,0,1-.07-5.08c1.85-4.19,4.63-9.95,4.63-9.95Z"/><path class="cls-4" d="M274.82,245.65l-.89,2.33a3,3,0,0,1-1.23,1.56,12.06,12.06,0,0,1-3.09,1.4c1.8,1.54,4.66-.07,6.3-1.2a4,4,0,0,0,1.6-2.32l.38-1.77Z"/><path class="cls-5" d="M277.69,246.86a2.59,2.59,0,0,1,1,2.18c-.23,1.22-.54,4.07-.54,4.07H276.9l0-2.66c0-.17-2.69,2.66-3.14,2.66h-6.62s-.44-1.79,3.44-2.37S277.69,246.86,277.69,246.86Z"/><path class="cls-4" d="M287.7,245.65l-.9,2.33a3,3,0,0,1-1.22,1.56,12.16,12.16,0,0,1-3.1,1.4c1.8,1.54,4.67-.07,6.31-1.2a4.09,4.09,0,0,0,1.6-2.32l.37-1.77Z"/><path class="cls-5" d="M290.57,246.86a2.6,2.6,0,0,1,1,2.18c-.22,1.22-.54,4.07-.54,4.07h-1.25l0-2.66c0-.17-2.69,2.66-3.14,2.66h-6.62s-.44-1.79,3.45-2.37S290.57,246.86,290.57,246.86Z"/><path class="cls-2" d="M277.6,170.46s-5.62,8.42-.81,42C276,225.14,274.62,246,274.62,246h3.19s8.84-22.24,5.87-33.32c-.7-11,2-42.44,2-42.44Z"/><path class="cls-5" d="M288.92,170.26S294.8,175,294.8,182c0,5.51-2.66,16.92-4.18,24.39a17.39,17.39,0,0,0,.77,8.17c3.11,10.84-.67,31.44-.67,31.44h-3.17s-.18-10.6-4.51-34.35c-5-27.29-5.44-41.41-5.44-41.41Z"/><polygon class="cls-10" points="243.07 165.48 261.57 165.48 261.57 164.12 243.89 164.12 236.04 149.19 234.84 149.82 243.07 165.48"/><path class="cls-4" d="M285.7,154.45S279.79,168.2,277,168.2s-18.55-6.72-18.55-6.72l.41-2.35,16.05,2.72a71.16,71.16,0,0,0,2.41-8.14,4.47,4.47,0,0,1,3.46-3.45C284.53,149.54,285.7,154.45,285.7,154.45Z"/><path class="cls-2" d="M277.86,132.63s-1.75,1.05-7.12-2.38c-.82.21.49-7.52,7.43-5.25,4.86,1.59,4.63,6.29,4.4,8.89-.24,2.81,1.22,4.67,3.15,6.72,1.62,1.73,1.6,4.9,2.68,6.6,1.33,2.1,2.74,2,3.79,4.11a6.74,6.74,0,0,1-.22,7c-.84,1.14-2.8,3.88-5.89,2.9-1.74-.55-2.21-3.58-2.29-6.13a7.72,7.72,0,0,0-3-5.81c-1.67-1.33-3.49-3.15-4-5C275.91,140.45,277.86,132.63,277.86,132.63Z"/><path class="cls-4" d="M278.49,132.78a1.13,1.13,0,0,0-1.47.39,1,1,0,0,0,0,1.42,1.13,1.13,0,0,0,1.47-.39A1,1,0,0,0,278.49,132.78Z"/><path class="cls-4" d="M250,160.34a.78.78,0,0,1,.46-.8l3-1.31a3.31,3.31,0,0,1,2.36-.1l3,1,.4,0,.32,2.78-.94-.36-1.9-.68s-4.13,3.5-5.6.32c-.45,3.15-1.34,2.8-1.34,2.8Z"/><path class="cls-2" d="M280.52,129.92c-.59,2.15-3.65,3.18-6.83,2.3s-4.9-3.26-4.68-5.48c.3-2.92,3.66-3.18,6.83-2.3S281.11,127.77,280.52,129.92Z"/><path class="cls-11" d="M25.24,249.94H35.61c1.37.14,2.91.53,3.17,1.73a7,7,0,0,1,.15,1.58c-.37.43-14.11-.06-14.11-.06l-.06-.05C23.31,251.38,25.24,249.94,25.24,249.94Z"/><polygon class="cls-2" points="38.93 253.24 24.82 253.18 24.94 253.73 38.95 253.73 38.93 253.24"/><polygon class="cls-3" points="29.35 249.93 30.28 249.94 29.99 251.21 29.08 251.21 29.35 249.93"/><polygon class="cls-3" points="31.35 249.93 32.28 249.94 31.99 251.21 31.09 251.21 31.35 249.93"/><path class="cls-4" d="M24.53,246.49l.71,3.45h0A3.37,3.37,0,0,0,28,250l.16-.07.5-3.45Z"/><path class="cls-2" d="M1,249.94H11.39c1.37.14,2.91.53,3.17,1.73a7,7,0,0,1,.15,1.58c-.37.43-14.11-.06-14.11-.06l-.06-.05C-.91,251.38,1,249.94,1,249.94Z"/><polygon class="cls-2" points="14.71 253.24 0.6 253.18 0.72 253.73 14.73 253.73 14.71 253.24"/><polygon class="cls-3" points="5.13 249.93 6.06 249.94 5.77 251.21 4.87 251.21 5.13 249.93"/><polygon class="cls-3" points="7.13 249.93 8.06 249.94 7.77 251.21 6.87 251.21 7.13 249.93"/><path class="cls-4" d="M1.48,246.49,1,249.94H1A3.35,3.35,0,0,0,3.8,250l.16-.07,1.66-3.45Z"/><path class="cls-4" d="M16.94,130.41,8.41,136,11,142.72c0,.1.09.18.13.28.19,0,.37,0,.56,0h.18a6.58,6.58,0,0,1,5.44,3.3,11.33,11.33,0,0,0,4-1,4.23,4.23,0,0,0,1.9-1.44C24.19,139,16.94,130.41,16.94,130.41Z"/><path class="cls-4" d="M27.79,132.16s1.05,9.9-1.05,16.21c1,.85,4.56,4.69,5.69-.29s-1.27-17.67-1.27-17.67Z"/><polygon class="cls-2" points="22.67 131.46 20.67 132.75 21.38 134.25 23.54 133.3 22.67 131.46"/><path class="cls-2" d="M21.49,133.26c.2.46.22.89,0,1s-.49-.22-.69-.68-.22-.9,0-1S21.29,132.8,21.49,133.26Z"/><path class="cls-5" d="M46.9,124.15s0,0,0-.06A20.89,20.89,0,0,0,45,120.61a17.79,17.79,0,0,1-1.87-3L22.37,131.13l1.34,2.54L46.9,125.1A6,6,0,0,1,46.9,124.15Z"/><polygon class="cls-9" points="15.06 146.28 14.31 150.93 20.91 150.93 21.38 145.23 15.06 146.28"/><path class="cls-4" d="M32.09,157.83s7.8-2.48,10.24-5.82-1.69-21.6-1.69-21.6l.53-3.28a3.06,3.06,0,0,0-3-3.55l-2.08,0a1.19,1.19,0,0,0-1.1,1.67l2.74,6.16s2,13.84-.83,14.89a32.33,32.33,0,0,1-7.31,1.51Z"/><path class="cls-11" d="M17.45,146.28l-2-4.45,1.3-.82a2.46,2.46,0,0,0,1-2.86L16.34,134s4.06-.5,3.94-4.28c0-2-2.68-2-2.68-2a3.9,3.9,0,0,1-3.29,1.95c-1.07-.14-4,.26-6,3.71-1.33,2.32-.74,6,.42,8.68,1,2.45,3.68,3.81,6.31,4.22Z"/><path class="cls-2" d="M9.53,183.62A146.31,146.31,0,0,0,12,203.38a17.63,17.63,0,0,1-.6,9.08C6.73,226.28.21,247.07.21,247.07H6s13.15-24.57,16.54-36.75,4-16.06,4-16.06l-4-10.64Z"/><path class="cls-4" d="M14.37,139.76a1.89,1.89,0,0,0,1.08,2.07c.83.44,1.7.23,1.94-.47a1.88,1.88,0,0,0-1.08-2.07C15.48,138.85,14.61,139.06,14.37,139.76Z"/><path class="cls-3" d="M28.45,183.62H9.53V159.35a10.31,10.31,0,0,1,9.34-10.26L32,147.5s1.55,2.37,5.86,7.87a44.56,44.56,0,0,1-11.18,4.68Z"/><path class="cls-5" d="M9.53,183.62s2.67,9.67,12.53,20.51A12.68,12.68,0,0,1,25.74,214l-2,33.08H29.6s7.17-27.47,5.62-41a62,62,0,0,0-6.77-22.44Z"/><path class="cls-3" d="M43.72,121.9c1,2.11,2.4,3.56,3.09,3.23s.42-2.31-.6-4.43-2.4-3.55-3.09-3.22S42.71,119.79,43.72,121.9Z"/><path class="cls-4" d="M27,128.12l.17.08a2.62,2.62,0,0,0,2,.12l.11,0A3.57,3.57,0,0,0,31.49,126h0a.66.66,0,0,0-.76-.84l-1.31.28a2,2,0,0,0-1.25.84Z"/><polygon class="cls-9" points="187.4 116.06 179.18 137.54 174 133.69 185.58 114.17 187.4 116.06"/><path class="cls-9" d="M186.38,109.57a3.37,3.37,0,0,0-.74,2.26l-.36,3.11.42.48,1.46,1.29c-.06-.64-.13,0-.13,0l2.34-4.07s2.83-1.82-.74-4.49a1,1,0,0,0-1.17-.08A2.65,2.65,0,0,0,186.38,109.57Z"/><path class="cls-12" d="M169.26,153.06a135,135,0,0,0,9.92-15.51l-4.46-5.08-5.46,6.37Z"/><path class="cls-9" d="M156.41,246.17l2.62.46c.54-3.25,8.68-18.64,9.35-26.64a180,180,0,0,1,2.79-18.76l-8.75-2.6s-2.22,0,.21,18.09C157.16,223.91,155.69,240.22,156.41,246.17Z"/><path class="cls-4" d="M162.86,192.05s2.06,12.37,4.92,25.61c-3,8,1.57,30.29,1.65,30.21.34-.32,1.92,1.62,1.92,1.62s3.32-19.68,4.05-28.56.92-19.7.92-19.7Z"/><path class="cls-5" d="M169.06,246.63a2.9,2.9,0,0,0-1,2.4c.23,1.35.55,4.51.55,4.51h1.28l0-2.95c0-.19,2.75,2.95,3.22,2.95h6.78s.45-2-3.53-2.63S169.06,246.63,169.06,246.63Z"/><path class="cls-9" d="M159.33,244.38l-.18,2.81a2.64,2.64,0,0,0,.46,1.66,10.52,10.52,0,0,0,2,2.12c-2,.64-3.75-1.57-4.69-3a3.53,3.53,0,0,1-.51-2.41l.33-2.21Z"/><path class="cls-2" d="M156.41,245.93s-1.73.15-2,1.47-1.11,4-1.11,4l1,.75,1.33-2.64a39.85,39.85,0,0,0,3.31,4h7.4s0-2.45-4.63-2.57C157.38,250.87,156.41,245.93,156.41,245.93Z"/><polygon class="cls-4" points="196.04 115.02 187.82 136.51 182.64 132.65 194.22 113.13 196.04 115.02"/><path class="cls-4" d="M195,108.53a3.32,3.32,0,0,0-.74,2.27l-.36,3.1.42.48,1.45,1.29c0-.64-.12,0-.12,0L198,111.6s2.83-1.82-.74-4.49a1,1,0,0,0-1.17-.08A2.65,2.65,0,0,0,195,108.53Z"/><polygon class="cls-9" points="171.17 141.77 165.88 141.77 167.99 135.55 172.13 138.09 171.17 141.77"/><path class="cls-10" d="M178.21,148.47c0-.16-.06-.29-.09-.43,5.24-6.77,9.7-11.53,9.7-11.53l-4.46-5.08-10.14,9.63h-3a6,6,0,0,0-7.53,1c-1.28,1.32-2.13,4.9-1.28,8.69,2.37,10.45.52,16,.52,16l13.67,5.09s.31-9.08.52-15.45v0a7.11,7.11,0,0,1,1.11-3.48A6.21,6.21,0,0,0,178.21,148.47Z"/><path class="cls-4" d="M173,124.35l-8.69,3,.85,6.49.06.27.5.1.08,0h.08a6,6,0,0,1,4.06,4.07,10.34,10.34,0,0,0,3.76-.05,3.77,3.77,0,0,0,2-.85C177.55,133.46,173,124.35,173,124.35Z"/><path class="cls-2" d="M172.84,129.87c-2.34,1.15-1.79,13.2-2.2,21.41a9.33,9.33,0,0,1-7.9,8.73c-3.09.49-6.49.58-8.54-.59,1.35-1.11,8.66-11.86,6.32-26.1-.31-1.87-.35-7.09,2.81-9.93,3.51-3.14,10.74,1,10.74,1S176.05,128.3,172.84,129.87Z"/><path class="cls-5" d="M175.91,166.39s1.82,9.26,1.82,14.77c0,3-.75,22.1-.75,22.1s-13,.94-15.51.94c-.62-15.63-4.18-16.11-4.18-23.4,0-3.16,1.62-6.74,2.87-9a13.32,13.32,0,0,0,1.8-5.06l.08-.3Z"/></g></g></svg>