<svg xmlns="http://www.w3.org/2000/svg" viewBox="0 0 89.57 89.57"><defs><style>.cls-1{fill:#00666a;}.cls-2{fill:#fff;}</style></defs><g id="Layer_2" data-name="Layer 2"><g id="Ñëîé_1" data-name="Ñëîé 1"><path class="cls-1" d="M37.39,1.26c-.77.61-1.55,4.3-1.59,8.5A36.7,36.7,0,0,0,26,14.05c-2.51-2.68-5.45-5.25-7.24-4.94-3.64.63-9.8,8.57-10,10.13-.13,1,2,4.25,5,7.3a36.78,36.78,0,0,0-4,9.79c-3.69-.12-7.59.14-8.65,1.63C-1,41,.3,51,1.26,52.18c.61.77,4.27,1.54,8.46,1.59a36.57,36.57,0,0,0,4,10.06c-2.57,2.45-4.95,5.24-4.65,7,.63,3.65,8.57,9.8,10.13,10,.92.11,3.8-1.73,6.66-4.42a36.53,36.53,0,0,0,10.41,4.5c0,3.33.3,6.59,1.65,7.54,3,2.13,13,.86,14.22-.1.69-.55,1.39-3.56,1.56-7.21a36.85,36.85,0,0,0,10.92-4.44c2.23,2.22,4.61,4.07,6.14,3.8,3.65-.63,9.8-8.57,10-10.13.1-.85-1.46-3.38-3.83-6a36.45,36.45,0,0,0,4.44-11c3.14,0,6.11-.38,7-1.65,2.13-3,.86-13-.1-14.23-.55-.69-3.58-1.39-7.24-1.56a36.49,36.49,0,0,0-4.72-10.61c2.36-2.32,4.39-4.84,4.11-6.45-.63-3.64-8.57-9.8-10.13-10-.93-.12-3.83,1.74-6.7,4.46a36.52,36.52,0,0,0-10.37-4c.08-3.52-.22-7.12-1.64-8.13C48.6-1,38.63.3,37.39,1.26ZM62,45.13A16.45,16.45,0,1,1,45.39,28.8,16.44,16.44,0,0,1,62,45.13Z"/><path class="cls-2" d="M68.55,45A23.41,23.41,0,1,1,45,21.71,23.44,23.44,0,0,1,68.55,45Zm-46.49.34A23.08,23.08,0,1,0,45,22.05,23.11,23.11,0,0,0,22.06,45.29Z"/><path class="cls-2" d="M38.13,12a3.62,3.62,0,0,1-.06.46,34.1,34.1,0,0,1,7.27-.85A33.55,33.55,0,0,1,63.23,73.65h0a3.4,3.4,0,0,1,.09.46A34,34,0,0,0,38.13,12Z"/><path class="cls-2" d="M19.19,65.83A33.38,33.38,0,0,1,12,45.36c0-.15,0-.3,0-.45l-.44.14v.31A33.79,33.79,0,0,0,18.79,66Z"/></g></g></svg>