<svg xmlns="http://www.w3.org/2000/svg" viewBox="0 0 133.4 133.4"><defs><style>.cls-1{fill:#b0d9c8;}.cls-2{fill:#fff;}</style></defs><g id="Layer_2" data-name="Layer 2"><g id="Ñëîé_1" data-name="Ñëîé 1"><path class="cls-1" d="M105.64,121.94c.66-1.35-.7-7-3.41-12.8a55.91,55.91,0,0,0,10.69-12.38c5.24,2,11,3.66,13.26,2,4.62-3.27,7.88-18.31,7.11-20.58-.49-1.45-5.59-4.54-11.79-6.76a55.81,55.81,0,0,0-.9-16.17c5.17-2.27,10.39-5.2,10.86-8,.95-5.57-7.38-18.51-9.52-19.57-1.35-.67-6.92.68-12.74,3.38A55.53,55.53,0,0,0,97,19.92c1.94-5.09,3.38-10.51,1.83-12.7C95.54,2.6,80.5-.65,78.23.11,76.88.57,74.11,5,72,10.61a56.29,56.29,0,0,0-17.35.65c-2.15-4.62-4.78-8.9-7.26-9.32C41.77,1,28.83,9.32,27.77,11.46c-.6,1.21.43,5.84,2.6,11A55.72,55.72,0,0,0,18.22,35.8c-4.55-1.6-9-2.59-11-1.2C2.6,37.87-.65,52.9.11,55.17.53,56.42,4.36,58.88,9.37,61a56,56,0,0,0,1.16,18.2c-4.33,2.08-8.19,4.56-8.59,6.91-.95,5.58,7.38,18.51,9.52,19.57,1.22.61,5.86-.43,11-2.62A55.7,55.7,0,0,0,36,114.56c-1.73,4.76-2.87,9.59-1.42,11.62,3.27,4.62,18.3,7.88,20.57,7.11,1.36-.46,4.14-4.94,6.32-10.59a55.83,55.83,0,0,0,16.93-1.38c2.22,4.92,5,9.69,7.64,10.14C91.64,132.41,104.57,124.09,105.64,121.94ZM42.76,77.55A25.18,25.18,0,1,1,76.42,89.18,25.19,25.19,0,0,1,42.76,77.55Z"/><path class="cls-2" d="M33.77,82.15a35.83,35.83,0,1,1,47.9,16.54A35.86,35.86,0,0,1,33.77,82.15ZM97.76,51A35.33,35.33,0,1,0,81.45,98.24,35.36,35.36,0,0,0,97.76,51Z"/><path class="cls-2" d="M97.56,107.67c-.07-.23-.15-.45-.22-.68A51.36,51.36,0,0,1,22.17,39h0q-.23-.28-.42-.57a52,52,0,0,0,66.41,75.12A51.39,51.39,0,0,0,97.56,107.67Z"/><path class="cls-2" d="M88.17,20.75a51.1,51.1,0,0,1,23.42,23.53l.29.63c.16-.17.33-.33.5-.49-.06-.14-.12-.29-.19-.43a51.84,51.84,0,0,0-23.6-23.78Z"/></g></g></svg>