<svg xmlns="http://www.w3.org/2000/svg" viewBox="0 0 163.75 163.75"><defs><style>.cls-1{fill:#01898c;}.cls-2{fill:#fff;}</style></defs><g id="Layer_2" data-name="Layer 2"><g id="Ñëîé_1" data-name="Ñëîé 1"><path class="cls-1" d="M124.31,13.27c-1.8-.11-7.31,4-12.46,9.72a67.08,67.08,0,0,0-18.59-5.94c-.21-6.72-1.14-13.78-4-15.52C83.54-2,65.5,1.45,63.37,3.35,62,4.57,61,11.62,61.46,19.46A67,67,0,0,0,44.13,28c-4.91-4.62-10.58-9-13.83-8.21-6.56,1.56-16.87,16.76-17,19.62-.11,1.79,4,7.28,9.67,12.4a66.37,66.37,0,0,0-6.61,18.68c-6.5.25-13.12,1.21-14.8,3.94C-2,80.21,1.45,98.24,3.35,100.38c1.14,1.27,7.31,2.23,14.48,2a66.68,66.68,0,0,0,8.83,18.75c-4.07,4.52-7.54,9.41-6.84,12.33,1.56,6.57,16.76,16.88,19.62,17,1.61.09,6.21-3.2,10.84-8a67,67,0,0,0,20.35,7.1c.37,5.74,1.4,11.15,3.83,12.64,5.75,3.54,23.78.08,25.92-1.83,1.18-1,2.08-6.4,2-12.87a67,67,0,0,0,19.44-9.79c4.31,3.78,8.84,6.86,11.6,6.2,6.57-1.56,16.88-16.77,17-19.62.09-1.61-3.22-6.23-8-10.88a66.76,66.76,0,0,0,6.35-20.26c6-.34,11.87-1.34,13.43-3.88,3.54-5.75.08-23.79-1.83-25.92-1.14-1.28-7.36-2.24-14.58-2a66.47,66.47,0,0,0-9.45-18c4.37-4.74,8.31-10,7.57-13.14C142.37,23.74,127.16,13.43,124.31,13.27ZM105,103.08a30.06,30.06,0,1,1-3-42.4A30,30,0,0,1,105,103.08Z"/><path class="cls-2" d="M114.25,110.81A42.78,42.78,0,1,1,110,50.46,42.82,42.82,0,0,1,114.25,110.81ZM50.11,55.11a42.17,42.17,0,1,0,59.49-4.19A42.22,42.22,0,0,0,50.11,55.11Z"/><path class="cls-2" d="M112.41,28.81c-.21.19-.42.38-.64.56A61.31,61.31,0,0,1,72.31,143.73h0a7.74,7.74,0,0,1-.43.73A62.11,62.11,0,0,0,112.41,28.81Z"/><path class="cls-2" d="M21.36,79.81A61,61,0,0,1,36.25,43.07c.18-.21.37-.4.55-.61L36,42.14l-.37.41A61.77,61.77,0,0,0,20.58,79.6Q21,79.69,21.36,79.81Z"/></g></g></svg>