<svg xmlns="http://www.w3.org/2000/svg" viewBox="0 0 202.07 202.07"><defs><style>.cls-1{fill:#63c1c5;}.cls-2{fill:#fff;}</style></defs><g id="Layer_2" data-name="Layer 2"><g id="Ñëîé_1" data-name="Ñëîé 1"><path class="cls-1" d="M200.89,95.77c-1.17-1.9-9.26-4.61-18.71-5.81a82.79,82.79,0,0,0-7.09-23.14c6.69-5,13.23-10.89,13-15-.46-8.35-16.73-24.27-20.17-25.1-2.21-.54-10.09,3.42-17.75,9.44a82.88,82.88,0,0,0-21-11.6c1.23-8.26,1.67-17.12-1.41-19.88-6.23-5.58-29-5.34-32-3.49-1.9,1.16-4.59,9.21-5.8,18.62a82.91,82.91,0,0,0-23.68,6.46C61.44,19.83,55.78,13.76,51.81,14c-8.35.46-24.27,16.73-25.1,20.18-.5,2.05,2.89,9,8.2,16.14A82.56,82.56,0,0,0,22.07,72.53c-7.49-.94-14.92-1-17.4,1.75-5.58,6.23-5.34,29-3.49,32,1.05,1.7,7.65,4.06,15.82,5.39a82.52,82.52,0,0,0,7.14,25.73c-5.58,4.44-10.36,9.31-10.17,12.83.46,8.36,16.73,24.28,20.18,25.11,1.9.46,8-2.41,14.53-7A83.1,83.1,0,0,0,72.39,181.2c-.8,7.06-.74,13.85,1.89,16.2,6.23,5.58,29,5.34,32,3.49,1.71-1,4.07-7.69,5.4-15.88a82.85,82.85,0,0,0,25.12-7.85c4.6,5.91,9.74,11.14,13.43,10.93,8.36-.46,24.28-16.73,25.11-20.17.5-2.06-2.92-9.08-8.29-16.25a82.57,82.57,0,0,0,11.61-22.3c7.91,1.09,16.09,1.36,18.72-1.58C203,121.56,202.74,98.79,200.89,95.77ZM95.77,139.57a37.26,37.26,0,1,1,41.07-33A37.26,37.26,0,0,1,95.77,139.57Z"/><path class="cls-2" d="M94.45,154.45a53,53,0,1,1,58.45-47A53.08,53.08,0,0,1,94.45,154.45Zm11.4-104.67a52.27,52.27,0,1,0,46.3,57.62A52.32,52.32,0,0,0,105.85,49.78Z"/><path class="cls-2" d="M176.65,94.64c-.34-.08-.68-.16-1-.26A76,76,0,0,1,31.28,135h0c-.34,0-.69.06-1,.08A77,77,0,0,0,176.65,94.64Z"/><path class="cls-2" d="M60.38,38a75.66,75.66,0,0,1,47.93-10.81l1,.14c-.08-.34-.15-.68-.22-1-.23,0-.45-.06-.68-.09A76.59,76.59,0,0,0,60,37C60.16,37.32,60.27,37.64,60.38,38Z"/></g></g></svg>