<svg xmlns="http://www.w3.org/2000/svg" xmlns:xlink="http://www.w3.org/1999/xlink" viewBox="0 0 760 342.84"><defs><style>.cls-1{fill:url(#linear-gradient);}.cls-2{isolation:isolate;}.cls-3{opacity:0.34;}.cls-10,.cls-11,.cls-12,.cls-13,.cls-14,.cls-15,.cls-16,.cls-17,.cls-18,.cls-19,.cls-21,.cls-22,.cls-23,.cls-24,.cls-25,.cls-26,.cls-27,.cls-28,.cls-29,.cls-30,.cls-31,.cls-32,.cls-33,.cls-34,.cls-35,.cls-36,.cls-37,.cls-38,.cls-39,.cls-4,.cls-40,.cls-41,.cls-42,.cls-43,.cls-44,.cls-45,.cls-46,.cls-47,.cls-5,.cls-6,.cls-7,.cls-8,.cls-9{mix-blend-mode:overlay;}.cls-4{fill:url(#linear-gradient-2);}.cls-5{fill:url(#linear-gradient-3);}.cls-6{fill:url(#linear-gradient-4);}.cls-7{fill:url(#linear-gradient-5);}.cls-8{fill:url(#linear-gradient-6);}.cls-9{fill:url(#linear-gradient-7);}.cls-10{fill:url(#linear-gradient-8);}.cls-11{fill:url(#linear-gradient-9);}.cls-12{fill:url(#linear-gradient-10);}.cls-13{fill:url(#linear-gradient-11);}.cls-14{fill:url(#linear-gradient-12);}.cls-15{fill:url(#linear-gradient-13);}.cls-16{fill:url(#linear-gradient-14);}.cls-17{fill:url(#linear-gradient-15);}.cls-18{fill:url(#linear-gradient-16);}.cls-19{fill:url(#linear-gradient-17);}.cls-20{opacity:0.59;}.cls-21{fill:url(#linear-gradient-18);}.cls-22{fill:url(#linear-gradient-19);}.cls-23{fill:url(#linear-gradient-20);}.cls-24{fill:url(#linear-gradient-21);}.cls-25{fill:url(#linear-gradient-22);}.cls-26{fill:url(#linear-gradient-23);}.cls-27{fill:url(#linear-gradient-24);}.cls-28{fill:url(#linear-gradient-25);}.cls-29{fill:url(#linear-gradient-26);}.cls-30{fill:url(#linear-gradient-27);}.cls-31{fill:url(#linear-gradient-28);}.cls-32{fill:url(#linear-gradient-29);}.cls-33{fill:url(#linear-gradient-30);}.cls-34{fill:url(#linear-gradient-31);}.cls-35{fill:url(#linear-gradient-32);}.cls-36{fill:url(#linear-gradient-33);}.cls-37{fill:url(#linear-gradient-34);}.cls-38{fill:url(#linear-gradient-35);}.cls-39{fill:url(#linear-gradient-36);}.cls-40{fill:url(#linear-gradient-37);}.cls-41{fill:url(#linear-gradient-38);}.cls-42{fill:url(#linear-gradient-39);}.cls-43{fill:url(#linear-gradient-40);}.cls-44{fill:url(#linear-gradient-41);}.cls-45{fill:url(#linear-gradient-42);}.cls-46{fill:url(#linear-gradient-43);}.cls-47{fill:url(#linear-gradient-44);}.cls-48{mask:url(#mask);}.cls-49{fill:#cedde5;}.cls-50{fill:#aec6d3;}.cls-51{fill:#9baebe;}</style><linearGradient id="linear-gradient" y1="142.84" x2="760" y2="142.84" gradientUnits="userSpaceOnUse"><stop offset="0"/><stop offset="1" stop-color="#fff"/></linearGradient><linearGradient id="linear-gradient-2" x1="2098.5" y1="533.65" x2="2098.5" y2="799.23" gradientTransform="translate(2837.84 876.49) rotate(180)" gradientUnits="userSpaceOnUse"><stop offset="0" stop-color="#636363"/><stop offset="1" stop-color="#fff"/></linearGradient><linearGradient id="linear-gradient-3" x1="2146.42" y1="533.65" x2="2146.42" y2="782.82" xlink:href="#linear-gradient-2"/><linearGradient id="linear-gradient-4" x1="2194.33" y1="533.65" x2="2194.33" y2="817.51" xlink:href="#linear-gradient-2"/><linearGradient id="linear-gradient-5" x1="2242.24" y1="533.65" x2="2242.24" y2="719.35" xlink:href="#linear-gradient-2"/><linearGradient id="linear-gradient-6" x1="2290.15" y1="533.65" x2="2290.15" y2="755.37" xlink:href="#linear-gradient-2"/><linearGradient id="linear-gradient-7" x1="2338.06" y1="533.65" x2="2338.06" y2="799.23" xlink:href="#linear-gradient-2"/><linearGradient id="linear-gradient-8" x1="2385.97" y1="533.65" x2="2385.97" y2="783.74" xlink:href="#linear-gradient-2"/><linearGradient id="linear-gradient-9" x1="2433.88" y1="533.65" x2="2433.88" y2="771.68" xlink:href="#linear-gradient-2"/><linearGradient id="linear-gradient-10" x1="2481.8" y1="533.65" x2="2481.8" y2="717.69" xlink:href="#linear-gradient-2"/><linearGradient id="linear-gradient-11" x1="2529.71" y1="533.65" x2="2529.71" y2="754.37" xlink:href="#linear-gradient-2"/><linearGradient id="linear-gradient-12" x1="2577.62" y1="533.65" x2="2577.62" y2="771.68" xlink:href="#linear-gradient-2"/><linearGradient id="linear-gradient-13" x1="2625.53" y1="533.65" x2="2625.53" y2="706.77" xlink:href="#linear-gradient-2"/><linearGradient id="linear-gradient-14" x1="2673.44" y1="533.65" x2="2673.44" y2="757.47" xlink:href="#linear-gradient-2"/><linearGradient id="linear-gradient-15" x1="2721.35" y1="533.65" x2="2721.35" y2="817.51" xlink:href="#linear-gradient-2"/><linearGradient id="linear-gradient-16" x1="2769.26" y1="533.65" x2="2769.26" y2="790.65" xlink:href="#linear-gradient-2"/><linearGradient id="linear-gradient-17" x1="2817.18" y1="533.65" x2="2817.18" y2="781.54" xlink:href="#linear-gradient-2"/><linearGradient id="linear-gradient-18" x1="2088.34" y1="342.84" x2="2088.34" y2="180.95" gradientTransform="matrix(-1, 0, 0, 1, 2837.84, 0)" xlink:href="#linear-gradient-2"/><linearGradient id="linear-gradient-19" x1="2116.77" y1="342.84" x2="2116.77" y2="169.69" gradientTransform="matrix(-1, 0, 0, 1, 2837.84, 0)" xlink:href="#linear-gradient-2"/><linearGradient id="linear-gradient-20" x1="2145.19" y1="342.84" x2="2145.19" y2="190.15" gradientTransform="matrix(-1, 0, 0, 1, 2837.84, 0)" xlink:href="#linear-gradient-2"/><linearGradient id="linear-gradient-21" x1="2173.61" y1="342.84" x2="2173.61" y2="212.87" gradientTransform="matrix(-1, 0, 0, 1, 2837.84, 0)" xlink:href="#linear-gradient-2"/><linearGradient id="linear-gradient-22" x1="2202.04" y1="342.84" x2="2202.04" y2="250.9" gradientTransform="matrix(-1, 0, 0, 1, 2837.84, 0)" xlink:href="#linear-gradient-2"/><linearGradient id="linear-gradient-23" x1="2230.46" y1="342.84" x2="2230.46" y2="226.31" gradientTransform="matrix(-1, 0, 0, 1, 2837.84, 0)" xlink:href="#linear-gradient-2"/><linearGradient id="linear-gradient-24" x1="2258.88" y1="342.84" x2="2258.88" y2="209.37" gradientTransform="matrix(-1, 0, 0, 1, 2837.84, 0)" xlink:href="#linear-gradient-2"/><linearGradient id="linear-gradient-25" x1="2287.3" y1="342.84" x2="2287.3" y2="226.31" gradientTransform="matrix(-1, 0, 0, 1, 2837.84, 0)" xlink:href="#linear-gradient-2"/><linearGradient id="linear-gradient-26" x1="2315.73" y1="342.84" x2="2315.73" y2="250.9" gradientTransform="matrix(-1, 0, 0, 1, 2837.84, 0)" xlink:href="#linear-gradient-2"/><linearGradient id="linear-gradient-27" x1="2344.15" y1="342.84" x2="2344.15" y2="199.44" gradientTransform="matrix(-1, 0, 0, 1, 2837.84, 0)" xlink:href="#linear-gradient-2"/><linearGradient id="linear-gradient-28" x1="2372.57" y1="342.84" x2="2372.57" y2="174.18" gradientTransform="matrix(-1, 0, 0, 1, 2837.84, 0)" xlink:href="#linear-gradient-2"/><linearGradient id="linear-gradient-29" x1="2401" y1="342.84" x2="2401" y2="209.37" gradientTransform="matrix(-1, 0, 0, 1, 2837.84, 0)" xlink:href="#linear-gradient-2"/><linearGradient id="linear-gradient-30" x1="2429.42" y1="342.84" x2="2429.42" y2="226.43" gradientTransform="matrix(-1, 0, 0, 1, 2837.84, 0)" xlink:href="#linear-gradient-2"/><linearGradient id="linear-gradient-31" x1="2457.84" y1="342.84" x2="2457.84" y2="237.4" gradientTransform="matrix(-1, 0, 0, 1, 2837.84, 0)" xlink:href="#linear-gradient-2"/><linearGradient id="linear-gradient-32" x1="2486.26" y1="342.84" x2="2486.26" y2="225.21" gradientTransform="matrix(-1, 0, 0, 1, 2837.84, 0)" xlink:href="#linear-gradient-2"/><linearGradient id="linear-gradient-33" x1="2514.69" y1="342.84" x2="2514.69" y2="208.14" gradientTransform="matrix(-1, 0, 0, 1, 2837.84, 0)" xlink:href="#linear-gradient-2"/><linearGradient id="linear-gradient-34" x1="2543.11" y1="342.84" x2="2543.11" y2="193.52" gradientTransform="matrix(-1, 0, 0, 1, 2837.84, 0)" xlink:href="#linear-gradient-2"/><linearGradient id="linear-gradient-35" x1="2571.53" y1="342.84" x2="2571.53" y2="182.78" gradientTransform="matrix(-1, 0, 0, 1, 2837.84, 0)" xlink:href="#linear-gradient-2"/><linearGradient id="linear-gradient-36" x1="2599.95" y1="342.84" x2="2599.95" y2="193.96" gradientTransform="matrix(-1, 0, 0, 1, 2837.84, 0)" xlink:href="#linear-gradient-2"/><linearGradient id="linear-gradient-37" x1="2628.38" y1="342.84" x2="2628.38" y2="197.99" gradientTransform="matrix(-1, 0, 0, 1, 2837.84, 0)" xlink:href="#linear-gradient-2"/><linearGradient id="linear-gradient-38" x1="2656.8" y1="342.84" x2="2656.8" y2="229.52" gradientTransform="matrix(-1, 0, 0, 1, 2837.84, 0)" xlink:href="#linear-gradient-2"/><linearGradient id="linear-gradient-39" x1="2685.22" y1="342.84" x2="2685.22" y2="207.55" gradientTransform="matrix(-1, 0, 0, 1, 2837.84, 0)" xlink:href="#linear-gradient-2"/><linearGradient id="linear-gradient-40" x1="2713.65" y1="342.84" x2="2713.65" y2="214.37" gradientTransform="matrix(-1, 0, 0, 1, 2837.84, 0)" xlink:href="#linear-gradient-2"/><linearGradient id="linear-gradient-41" x1="2742.07" y1="342.84" x2="2742.07" y2="191.52" gradientTransform="matrix(-1, 0, 0, 1, 2837.84, 0)" xlink:href="#linear-gradient-2"/><linearGradient id="linear-gradient-42" x1="2770.49" y1="342.84" x2="2770.49" y2="190.15" gradientTransform="matrix(-1, 0, 0, 1, 2837.84, 0)" xlink:href="#linear-gradient-2"/><linearGradient id="linear-gradient-43" x1="2798.91" y1="342.84" x2="2798.91" y2="210.05" gradientTransform="matrix(-1, 0, 0, 1, 2837.84, 0)" xlink:href="#linear-gradient-2"/><linearGradient id="linear-gradient-44" x1="2827.34" y1="342.84" x2="2827.34" y2="241.19" gradientTransform="matrix(-1, 0, 0, 1, 2837.84, 0)" xlink:href="#linear-gradient-2"/><mask id="mask" x="0" y="-57.16" width="760" height="400" maskUnits="userSpaceOnUse"><rect class="cls-1" y="-57.16" width="760" height="400"/></mask></defs><g class="cls-2"><g id="Layer_2" data-name="Layer 2"><g id="Layer_1-2" data-name="Layer 1"><g class="cls-3"><rect class="cls-4" x="718.67" y="77.26" width="41.33" height="265.57"/><rect class="cls-5" x="670.76" y="93.66" width="41.33" height="249.17"/><rect class="cls-6" x="622.85" y="58.97" width="41.33" height="283.86"/><rect class="cls-7" x="574.94" y="157.14" width="41.33" height="185.69"/><rect class="cls-8" x="527.03" y="121.12" width="41.33" height="221.71"/><rect class="cls-9" x="479.12" y="77.26" width="41.33" height="265.57"/><rect class="cls-10" x="431.2" y="92.75" width="41.33" height="250.09"/><rect class="cls-11" x="383.29" y="104.81" width="41.33" height="238.02"/><rect class="cls-12" x="335.38" y="158.8" width="41.33" height="184.04"/><rect class="cls-13" x="287.47" y="122.12" width="41.33" height="220.71"/><rect class="cls-14" x="239.56" y="104.81" width="41.33" height="238.02"/><rect class="cls-15" x="191.65" y="169.72" width="41.33" height="173.11"/><rect class="cls-16" x="143.73" y="119.02" width="41.33" height="223.82"/><rect class="cls-17" x="95.82" y="58.97" width="41.33" height="283.86"/><rect class="cls-18" x="47.91" y="85.84" width="41.33" height="257"/><rect class="cls-19" y="94.95" width="41.33" height="247.89"/></g><g class="cls-20"><rect class="cls-21" x="738.99" y="180.95" width="21.01" height="161.89"/><rect class="cls-22" x="710.57" y="169.69" width="21.01" height="173.15"/><rect class="cls-23" x="682.15" y="190.15" width="21.01" height="152.69"/><rect class="cls-24" x="653.73" y="212.87" width="21.01" height="129.97"/><rect class="cls-25" x="625.3" y="250.9" width="21" height="91.93"/><rect class="cls-26" x="596.88" y="226.31" width="21.01" height="116.52"/><rect class="cls-27" x="568.46" y="209.37" width="21.01" height="133.47"/><rect class="cls-28" x="540.03" y="226.31" width="21.01" height="116.52"/><rect class="cls-29" x="511.61" y="250.9" width="21.01" height="91.93"/><rect class="cls-30" x="483.19" y="199.44" width="21.01" height="143.4"/><rect class="cls-31" x="454.77" y="174.18" width="21" height="168.65"/><rect class="cls-32" x="426.34" y="209.37" width="21.01" height="133.47"/><rect class="cls-33" x="397.92" y="226.43" width="21.01" height="116.41"/><rect class="cls-34" x="369.5" y="237.4" width="21.01" height="105.44"/><rect class="cls-35" x="341.07" y="225.21" width="21.01" height="117.63"/><rect class="cls-36" x="312.65" y="208.14" width="21.01" height="134.69"/><rect class="cls-37" x="284.23" y="193.52" width="21.01" height="149.32"/><rect class="cls-38" x="255.81" y="182.78" width="21.01" height="160.06"/><rect class="cls-39" x="227.38" y="193.96" width="21.01" height="148.88"/><rect class="cls-40" x="198.96" y="197.99" width="21.01" height="144.85"/><rect class="cls-41" x="170.54" y="229.52" width="21.01" height="113.32"/><rect class="cls-42" x="142.11" y="207.55" width="21.01" height="135.29"/><rect class="cls-43" x="113.69" y="214.37" width="21.01" height="128.47"/><rect class="cls-44" x="85.27" y="191.52" width="21.01" height="151.31"/><rect class="cls-45" x="56.85" y="190.15" width="21.01" height="152.69"/><rect class="cls-46" x="28.42" y="210.05" width="21.01" height="132.79"/><rect class="cls-47" y="241.19" width="21.01" height="101.65"/></g><g class="cls-48"><path class="cls-49" d="M760,165.26,689.61,134.7a8.66,8.66,0,0,0,.26-2A8.55,8.55,0,1,0,674,137.12l-85.41,74.71a8.53,8.53,0,0,0-13.18,3.1l-81.8-21.49a6.51,6.51,0,0,0,0-.77,8.55,8.55,0,1,0-17.1,0,8.36,8.36,0,0,0,.34,2.36L394,234.77a8.54,8.54,0,0,0-14.87,1.65l-81.67-18.84c0-.17,0-.34,0-.5a8.55,8.55,0,1,0-16.44,3.3l-83.85,53a8.51,8.51,0,0,0-14,1.92l-82-24.61a7.45,7.45,0,0,0,.08-1.06,8.55,8.55,0,1,0-17,1.53L0,281.7v3l85.36-30.85a8.54,8.54,0,0,0,15.09-.42l82,24.6a9.28,9.28,0,0,0-.07,1.06,8.55,8.55,0,1,0,16.44-3.3l83.85-53a8.54,8.54,0,0,0,14.24-2.42l81.67,18.84c0,.16,0,.33,0,.5a8.55,8.55,0,0,0,17.1,0,8.74,8.74,0,0,0-.34-2.36l82.89-39.74a8.54,8.54,0,0,0,14.77-1.41l81.79,21.5c0,.25,0,.5,0,.76a8.55,8.55,0,1,0,17.1,0A8.42,8.42,0,0,0,590.5,214l85.41-74.71a8.53,8.53,0,0,0,12.56-2L760,168.37ZM92.8,255.37a5.7,5.7,0,1,1,5.7-5.7A5.7,5.7,0,0,1,92.8,255.37Zm98.08,29.45a5.7,5.7,0,1,1,5.7-5.7A5.71,5.71,0,0,1,190.88,284.82Zm98.09-62a5.7,5.7,0,1,1,5.7-5.7A5.71,5.71,0,0,1,289,222.78Zm98.09,22.62a5.7,5.7,0,1,1,5.7-5.7A5.7,5.7,0,0,1,387.06,245.4Zm98.08-47a5.7,5.7,0,1,1,5.7-5.7A5.7,5.7,0,0,1,485.14,198.37Zm98.09,25.78a5.7,5.7,0,1,1,5.7-5.7A5.7,5.7,0,0,1,583.23,224.15Zm98.09-85.8a5.7,5.7,0,1,1,5.7-5.7A5.7,5.7,0,0,1,681.32,138.35Z"/><path class="cls-50" d="M760,33.48,689.65,14.1a8.44,8.44,0,0,0,0-.87A8.55,8.55,0,1,0,675,19.16L586.91,138.61a8.48,8.48,0,0,0-3.85-.93,8.58,8.58,0,0,0-8.22,6.2L493.5,134.8a8.55,8.55,0,1,0-16.37,3.87l-84,54.51a8.53,8.53,0,0,0-12.24-.35l-84.49-61.78a8.55,8.55,0,1,0-13.88,2L194.68,248.39a8.39,8.39,0,0,0-4-1,8.56,8.56,0,0,0-7,3.7l-82.81-38.5a8.37,8.37,0,0,0,.31-2.25,8.55,8.55,0,1,0-17.09,0,8.35,8.35,0,0,0,.28,2.13L0,250.25v3.12L85.52,215.1a8.53,8.53,0,0,0,14.14.1l82.81,38.5a8.81,8.81,0,0,0-.31,2.26A8.55,8.55,0,1,0,197,250.12L284.83,134.8a8.51,8.51,0,0,0,9.92-1.45l84.5,61.79a8.44,8.44,0,0,0-.91,3.82,8.55,8.55,0,1,0,16.39-3.4l84-54.5a8.53,8.53,0,0,0,14.5-3.43l81.34,9.08a8.55,8.55,0,1,0,14.67-6.41L677.29,20.85a8.51,8.51,0,0,0,11.59-4L760,36.43ZM92.62,216.06a5.7,5.7,0,1,1,5.71-5.7A5.71,5.71,0,0,1,92.62,216.06Zm98.09,45.6a5.7,5.7,0,1,1,5.7-5.7A5.71,5.71,0,0,1,190.71,261.66ZM288.8,132.93a5.7,5.7,0,1,1,5.7-5.7A5.7,5.7,0,0,1,288.8,132.93Zm98.08,71.73a5.7,5.7,0,1,1,5.7-5.7A5.71,5.71,0,0,1,386.88,204.66ZM485,141a5.7,5.7,0,1,1,5.7-5.7A5.71,5.71,0,0,1,485,141Zm98.09,11a5.7,5.7,0,1,1,5.7-5.7A5.7,5.7,0,0,1,583.06,151.93Zm98.08-133a5.7,5.7,0,1,1,5.7-5.7A5.71,5.71,0,0,1,681.14,18.93Z"/><path class="cls-51" d="M760,74.89l-70.52,4a8.54,8.54,0,0,0-14.27-4.24L590.68,12.39a8.41,8.41,0,0,0,.93-3.84,8.55,8.55,0,0,0-17.1,0,8.35,8.35,0,0,0,.51,2.88l-83.4,46.85a8.55,8.55,0,0,0-15.2,5.37,8.1,8.1,0,0,0,.17,1.65L394.25,96.51a8.54,8.54,0,1,0-14.55,8.93l-85.63,77.84a8.54,8.54,0,0,0-12.8,2.66L199.14,158.1a8.54,8.54,0,1,0-16,2.57L98.5,224.18a8.54,8.54,0,0,0-10.69-.87L0,131.92V136l85.77,89.26a8.54,8.54,0,1,0,14.45,1.17l84.61-63.52a8.54,8.54,0,0,0,13.41-2.13l82.13,27.84a7.53,7.53,0,0,0-.12,1.35A8.55,8.55,0,1,0,296,185.39l85.62-77.85a8.53,8.53,0,0,0,13.82-6.71,8.27,8.27,0,0,0-.16-1.66L477.6,68A8.54,8.54,0,0,0,493,60.77l83.4-46.85a8.52,8.52,0,0,0,12.58.77l84.53,62.22a8.41,8.41,0,0,0-.93,3.84,8.55,8.55,0,0,0,17,1l70.36-4ZM92.62,236.08a5.71,5.71,0,1,1,5.71-5.7A5.71,5.71,0,0,1,92.62,236.08Zm98.09-73.63a5.7,5.7,0,1,1,5.7-5.7A5.71,5.71,0,0,1,190.71,162.45ZM288.8,195.7a5.7,5.7,0,1,1,5.7-5.7A5.7,5.7,0,0,1,288.8,195.7Zm98.08-89.17a5.7,5.7,0,1,1,5.7-5.7A5.71,5.71,0,0,1,386.88,106.53ZM485,69.35a5.7,5.7,0,1,1,5.7-5.7A5.71,5.71,0,0,1,485,69.35Zm98.09-55.1a5.7,5.7,0,1,1,5.7-5.7A5.71,5.71,0,0,1,583.06,14.25Zm98.08,72.2a5.7,5.7,0,1,1,5.7-5.7A5.71,5.71,0,0,1,681.14,86.45Z"/></g></g></g></g></svg>