<svg xmlns="http://www.w3.org/2000/svg" viewBox="0 0 8646.3 4298.74"><defs><style>.cls-1{fill:#eaedf2;}.cls-2{fill:#f4f7fc;}.cls-3{fill:#dee0e6;}.cls-4{fill:#e8ebf0;}.cls-5{fill:#f7f7f7;}.cls-6{fill:#d7d9de;}.cls-7{fill:#e6e8ed;}.cls-8{fill:#eef0f5;}.cls-9{fill:#50483f;}.cls-10{fill:#afa499;}.cls-11{fill:#938b82;}.cls-12{fill:#635a51;}.cls-13{fill:#716960;}.cls-14{fill:#837a70;}.cls-15{fill:#00800c;}.cls-16{fill:#005708;}.cls-17{fill:#00680a;}.cls-18{fill:#005c09;}.cls-19{fill:#783b00;}.cls-20{fill:#914700;}.cls-21{fill:#333;}.cls-22{fill:#4d4d4d;}.cls-23{fill:#ede08e;}.cls-24{fill:#fbb03b;}.cls-25{fill:#e0e0e0;}.cls-26{fill:#f2f2f2;}.cls-27{fill:#009245;}.cls-28{fill:#ed1c24;}.cls-29{fill:#0071bc;}.cls-30{fill:#8cc63f;}</style></defs><g id="Layer_2" data-name="Layer 2"><g id="Layer_1-2" data-name="Layer 1"><rect class="cls-1" y="3748.74" width="8646.3" height="550"/><rect class="cls-2" y="336.71" width="8646.3" height="2862.03"/><rect class="cls-3" y="3198.74" width="8646.3" height="550"/><rect class="cls-4" width="8646.3" height="336.71"/><ellipse class="cls-5" cx="7138.98" cy="168.35" rx="473.95" ry="61.73"/><rect class="cls-6" x="4154.39" y="1584.73" width="857.91" height="1529.84"/><rect class="cls-6" x="96.07" y="2518.04" width="709.76" height="630.7"/><rect class="cls-6" x="8027.03" y="2506.54" width="523.2" height="642.2"/><rect class="cls-6" x="1969.37" y="742.45" width="810.64" height="2372.12"/><rect class="cls-7" x="2551.17" y="2443.24" width="860.02" height="705.5"/><rect class="cls-7" x="1393.72" y="1399.03" width="751.27" height="1715.53"/><rect class="cls-6" x="5322.98" y="1146.5" width="1010.85" height="1968.07"/><rect class="cls-7" x="7074.15" y="708.78" width="780.28" height="2405.79"/><rect class="cls-7" x="3645.02" y="2755.14" width="803.72" height="393.6"/><rect class="cls-7" x="452.01" y="2755.14" width="707.65" height="393.6"/><path class="cls-8" d="M0,336.71v2862H8646.3v-2862Zm5631.66,84.18V926h-2617V420.89Zm-5535.59,0h2822.5V926H96.07Zm0,2693.67V1010.13h2822.5V3114.56Zm2918.57,0V1010.13h2617V3114.56Zm5535.59,0H5727.73V1010.13h2822.5Zm0-2188.61H5727.73V420.89h2822.5Z"/><rect class="cls-7" x="6072.71" y="2351.84" width="726.48" height="796.9"/><rect class="cls-6" x="6549.75" y="2830.04" width="915.55" height="318.7"/><ellipse class="cls-5" cx="1507.32" cy="168.35" rx="473.95" ry="61.73"/><ellipse class="cls-5" cx="4323.15" cy="168.35" rx="473.95" ry="61.73"/><ellipse class="cls-3" cx="4323.15" cy="3948.74" rx="1642.83" ry="45"/><circle class="cls-9" cx="4564.65" cy="3924.57" r="24.17" transform="translate(-808 6639.9) rotate(-67.5)"/><circle class="cls-9" cx="4226.77" cy="3924.57" r="24.17" transform="translate(-1537.1 4138.26) rotate(-45)"/><path class="cls-10" d="M4373.46,3900.41a6,6,0,0,0,6-6V3593.09h32.5v301.34a6,6,0,0,0,6,6h146.75v6.31a14.52,14.52,0,0,1-14.52,14.52H4241.29a14.52,14.52,0,0,1-14.52-14.52v-6.31Z"/><circle class="cls-9" cx="4306.13" cy="3924.57" r="24.17" transform="translate(-1174.08 1946.63) rotate(-22.5)"/><circle class="cls-9" cx="4485.29" cy="3924.57" r="24.17" transform="translate(-781.7 1135.49) rotate(-13.28)"/><path class="cls-11" d="M4306.77,3900.41v6.31a14.52,14.52,0,0,0,14.53,14.52h148.83a14.52,14.52,0,0,0,14.52-14.52v-6.31Z"/><path class="cls-10" d="M4536.4,3163a672.67,672.67,0,0,0-2.24-126.65,20,20,0,0,0-19.89-17.56H4276.84A20,20,0,0,0,4257,3036a587.76,587.76,0,0,0-2.6,127c2.72,31,1,62.09-3.52,92.84-14.12,96.48-20.36,207.69-14.74,297.52h319.16c5.67-90.51-.72-202.72-15.06-299.71C4535.79,3223.58,4534.07,3193.2,4536.4,3163Z"/><path class="cls-11" d="M4543.93,3593.09H4247.5a32.05,32.05,0,0,1-32.06-32.05v0a32,32,0,0,1,36.66-31.64,980.69,980.69,0,0,0,287.21,0A32,32,0,0,1,4576,3561h0A32.05,32.05,0,0,1,4543.93,3593.09Z"/><ellipse class="cls-11" cx="4395.71" cy="3206.32" rx="95.31" ry="5.94"/><rect class="cls-12" x="3471.4" y="3348.74" width="1400" height="45" rx="5"/><path class="cls-13" d="M4781.4,3927.45c0,11.76,9,21.29,20,21.29s20-9.53,20-21.29V3393.74h-40Z"/><path class="cls-13" d="M3521.4,3927.45c0,11.76,8.95,21.29,20,21.29s20-9.53,20-21.29V3393.74h-40Z"/><path class="cls-13" d="M3781.4,3927.45c0,11.76,8.95,21.29,20,21.29s20-9.53,20-21.29V3393.74h-40Z"/><rect class="cls-9" x="3521.4" y="3393.74" width="300" height="520"/><rect class="cls-11" x="3746.58" y="2998.74" width="450" height="300" rx="10" transform="translate(7943.16 6297.48) rotate(180)"/><path class="cls-14" d="M3927.1,3348.74h89a5,5,0,0,0,5-5.5l-18.55-185.49a10,10,0,0,0-9.95-9h-41.9a10,10,0,0,0-10,9l-18.55,185.49A5,5,0,0,0,3927.1,3348.74Z"/><path class="cls-11" d="M3849.37,3706.24h196a2,2,0,0,1,2,2v13a0,0,0,0,1,0,0h-200a0,0,0,0,1,0,0v-13A2,2,0,0,1,3849.37,3706.24Z"/><path class="cls-11" d="M3872.37,3928.74h150a0,0,0,0,1,0,0v15a5,5,0,0,1-5,5h-140a5,5,0,0,1-5-5v-15A0,0,0,0,1,3872.37,3928.74Z"/><path class="cls-10" d="M4023.08,3903.74l-6.44-6.45,8.16-8.16,1.68-14.27-.4.39-9.44-9.44,9.44-9.45,2.3,2.3,2.3-19.49-4.6,4.6-9.44-9.45,9.44-9.45,5.62,5.62,1.32-11.27-.64-.64.82-.82,1.68-14.27-8.8,8.79-9.44-9.45,9.44-9.44,8.93,8.93,1.33-11.27-4-4,5-5,2.25-19.2-7.27-7.27,9.21-9.21,1.68-14.28-1.44,1.45-9.45-9.45,2.87-2.87h-18.34l2.88,2.87-9.45,9.45-9.45-9.45,2.87-2.87h-18.33l2.87,2.87-9.45,9.45-9.44-9.45,2.87-2.87h-18.34l2.87,2.87-9.45,9.45-9.44-9.45,2.87-2.87h-18.34l2.87,2.87-9.44,9.45-9.45-9.45,2.87-2.87H3891l2.88,2.87-9.45,9.45-9.45-9.45,2.88-2.87h-18.34l2.87,2.87-9.45,9.45-1.44-1.45,1.68,14.28,9.21,9.21-7.27,7.27,2.25,19.2,5,5-4,4,1.33,11.27,8.93-8.93,9.44,9.44-9.44,9.45-8.8-8.79,1.68,14.27.82.82-.64.64,1.32,11.27,5.62-5.62,9.44,9.45-9.44,9.45-4.6-4.6,2.3,19.49,2.3-2.3,9.44,9.45-9.44,9.44-.4-.39,1.68,14.27,8.16,8.16-6.44,6.45,2.48,21.08,3.92,3.92h12.68l9.4-9.41,9.41,9.41h12.67l9.41-9.4,9.41,9.4h12.67l9.41-9.41,9.4,9.41h12.68l9.41-9.4,9.4,9.4h12.68l3.92-3.92Zm-3.29-22.19-9.45,9.45-9.45-9.45,9.45-9.45Zm-56.68-69.27-9.45-9.45,9.45-9.44,9.44,9.44Zm15.74-3.15,9.45,9.45-9.45,9.44-9.44-9.44Zm-22,9.45-9.45,9.44-9.44-9.44,9.44-9.45Zm-25.19-6.3-9.45-9.45,9.45-9.44,9.45,9.44Zm-6.3,6.3-9.44,9.44-9.45-9.44,9.45-9.45Zm0,31.48-9.44,9.45-9.45-9.45,9.45-9.44Zm-3.15-15.74,9.45-9.45,9.45,9.45-9.45,9.45Zm25.19,6.3,9.45,9.44-9.45,9.45-9.44-9.45Zm6.3-6.3,9.45-9.45,9.44,9.45-9.44,9.45Zm25.19,6.3,9.45,9.44-9.45,9.45-9.44-9.45Zm6.3-6.3,9.45-9.45,9.44,9.45-9.44,9.45Zm0-31.49,9.45-9.44,9.44,9.44-9.44,9.45Zm0-31.49,9.45-9.44,9.44,9.44-9.44,9.45Zm3.15,15.75-9.45,9.44-9.44-9.44,9.44-9.45Zm-25.19-6.3-9.45-9.45,9.45-9.44,9.44,9.44Zm-6.3,6.3-9.45,9.44-9.44-9.44,9.44-9.45Zm-25.19-6.3-9.45-9.45,9.45-9.44,9.45,9.44Zm-6.3,6.3-9.44,9.44-9.45-9.44,9.45-9.45Zm-25.19-6.3-9.44-9.45,9.44-9.44,9.45,9.44Zm9.45,22-9.45,9.45-9.44-9.45,9.44-9.44Zm0,31.49-9.45,9.45-9.44-9.45,9.44-9.45Zm0,31.49-9.45,9.44-9.44-9.44,9.44-9.45Zm6.3,6.29,9.44,9.45-9.44,9.45-9.45-9.45Zm6.29-6.29,9.45-9.45,9.45,9.45-9.45,9.44Zm25.19,6.29,9.45,9.45-9.45,9.45-9.44-9.45Zm6.3-6.29,9.45-9.45,9.44,9.45-9.44,9.44Zm25.19,6.29,9.45,9.45-9.45,9.45-9.44-9.45Zm6.3-6.29,9.45-9.45,9.44,9.45-9.44,9.44Zm34.64-15.75-9.45,9.45-9.45-9.45,9.45-9.44Zm0-31.48-9.45,9.44-9.45-9.44,9.45-9.45Zm-9.45-22-9.45-9.44,9.45-9.45,9.45,9.45Zm25.19-25.19-9.45,9.45-9.44-9.45,9.44-9.44Zm-9.45-40.93,9.45,9.45-9.45,9.44-9.44-9.44Zm-6.29,25.19-9.45,9.45-9.45-9.45,9.45-9.45Zm-25.19-25.19,9.44,9.45-9.44,9.44-9.45-9.44Zm-6.3,25.19-9.45,9.45-9.44-9.45,9.44-9.45Zm-25.19-25.19,9.44,9.45-9.44,9.44-9.45-9.44Zm-6.3,25.19-9.45,9.45-9.44-9.45,9.44-9.45Zm-25.19-25.19,9.45,9.45-9.45,9.44-9.45-9.44Zm-6.3,25.19-9.44,9.45-9.45-9.45,9.45-9.45Zm-25.19-25.19,9.45,9.45-9.45,9.44-9.44-9.44Zm-6.29,25.19-9.45,9.45-9.45-9.45,9.45-9.45Zm-34.64-15.74,9.45-9.45,9.44,9.45-9.44,9.44Zm0,31.48,9.45-9.44,9.44,9.44-9.44,9.45Zm15.74,15.75,9.45-9.45,9.45,9.45-9.45,9.44Zm0,31.49,9.45-9.45,9.45,9.45-9.45,9.44Zm0,31.48,9.45-9.44,9.45,9.44-9.45,9.45Zm0,31.49,9.45-9.45,9.45,9.45-9.45,9.45Zm9.45,40.93-9.45-9.44,9.45-9.45,9.45,9.45Zm6.3-25.19,9.44-9.44,9.45,9.44-9.45,9.45Zm25.19,25.19-9.45-9.44,9.45-9.45,9.44,9.45Zm6.29-25.19,9.45-9.44,9.45,9.44-9.45,9.45Zm25.19,25.19-9.44-9.44,9.44-9.45,9.45,9.45Zm15.75-15.74-9.45-9.45,9.45-9.44,9.44,9.44Zm15.74,15.74-9.44-9.44,9.44-9.45,9.45,9.45Zm6.3-25.19,9.45-9.44,9.44,9.44-9.44,9.45Zm15.74,15.75,9.45-9.45,9.45,9.45-9.45,9.44Z"/><path class="cls-15" d="M4753.67,3475.38c2.17-3.47,12.75-.77,23.63,6a54.48,54.48,0,0,1,14.67,13.93,19.27,19.27,0,0,0,6,5.72c89.63,52.53,103.93,163.88,184.27,237.44a1.07,1.07,0,0,0,.94.26,1.12,1.12,0,0,0,.77-.6,338.93,338.93,0,0,0,18.44-48.69,3.26,3.26,0,0,0-.12-2.34c-3.93-8.27-19.73-19.13-28.49-35.76l0,0c-2.14-3.22-5.27-14-5.71-14.55-3.71-4.64-4-11.9-2.3-12.35,1.09-.32,3,2.29,3.8,5.91,1,5.38-2.62,4.07,2.85,16.74l0,0c3.88,9.13,10.43,16,11.31,17.18.07,0,0,0,0,0,8.92,9.89,15.79,15.32,19.47,20.25a.3.3,0,0,0,.52-.12c33.38-118.57,7.32-241.44,77.39-340.63a26.09,26.09,0,0,0,4.64-10.48,72,72,0,0,1,10.23-25.18c9.44-14.06,20.73-23,25.21-20s1.33,17.47-9,30.92c-6.61,8.62-13.95,11.37-22.63,18l-2.72,2.77c-82.28,111.19-30.45,246-85,382-4,10-8.61,18.52-10.05,26.94a1,1,0,0,0,1.77.69c10.66-16.78,30.47-14,76.12-27.22,0,0,0-.09.1,0,5.34-2.07,23.58-6.59,41.31-19.08h.1c26-18.05,16.33-18.83,24.88-28.13,5.68-5.92,12.37-8.54,14.06-6.67,2.59,2.78-6.51,16.18-18.74,20.52-3.85,1.25-17.56,16-27.73,20.67l0,.1c-31.34,18.37-63.25,21.61-87.18,29.69a33.9,33.9,0,0,0-23,35.25c1,10.92,2.36,24.94,4.21,39.6h-19.28c3.71-22.55,5.16-41.34,1.94-56.49-1.89-8.89-6.92-16.72-13.28-23.21-75.88-77.5-83.85-183.41-173.78-234l-2.77-1.09c-8-1.88-14-1.51-21.2-5.42C4758.17,3487.87,4751.51,3478.85,4753.67,3475.38Z"/><path class="cls-16" d="M4867.5,3573.61c-2.36,19.28,1.37,31.56-4.72,48.59-8.65,24.18-24.46,40.11-32,36.88s-5.41-25,4.73-48.59S4868.5,3565.48,4867.5,3573.61Z"/><path class="cls-16" d="M4883,3597.45c3.4,19.13,10.55,29.78,9.73,47.84-1.18,25.66-11.63,45.52-19.78,44.64s-12.5-22.31-9.72-47.84S4881.61,3589.39,4883,3597.45Z"/><path class="cls-17" d="M4839.52,3538.86c-14.5,12.93-19.8,24.61-35.61,33.39-22.46,12.46-44.85,14-48.37,6.59s12.42-22.34,35.62-33.38S4845.64,3533.41,4839.52,3538.86Z"/><path class="cls-17" d="M4834.75,3529.25c15.55-11.65,28.05-14.52,39.8-28.28,16.68-19.53,22.62-41.17,16.07-46.09s-24.36,7.74-39.79,28.27S4828.19,3534.16,4834.75,3529.25Z"/><path class="cls-18" d="M4852.09,3553.16c-7.47,17.93-7.19,30.76-17.64,45.52-14.84,21-34.36,32-40.74,26.9s1.52-25.52,17.64-45.52S4855.24,3545.6,4852.09,3553.16Z"/><path class="cls-17" d="M4848.33,3544.13c19.25-2.63,31.58.93,48.52-5.39,24.07-9,39.78-25,36.44-32.49s-25.06-5.07-48.52,5.39S4840.22,3545.24,4848.33,3544.13Z"/><path class="cls-17" d="M4826,3525.39c-15.38,4.3-23.52,11-38.37,11.76-21.08,1.07-38.16-5.9-38.08-12.63s17.25-12,38.36-11.76S4832.44,3523.58,4826,3525.39Z"/><path class="cls-15" d="M4816.28,3512.3c.69-16,5.37-25.4,2.74-40-3.74-20.78-14.41-35.83-21-34.22s-7.77,19.52-2.74,40S4816,3519,4816.28,3512.3Z"/><path class="cls-16" d="M4877.4,3587.45c17.19,9.05,25.15,19.11,42.62,23.82,24.8,6.68,46.9,2.77,48.53-5.26s-17.44-18.69-42.61-23.82S4870.16,3583.63,4877.4,3587.45Z"/><rect class="cls-19" x="4905.83" y="3814.18" width="162.54" height="34.04" rx="5"/><path class="cls-20" d="M5059.68,3848.22a135.79,135.79,0,0,1-32.49,83.23l-5.09,5.94a11.24,11.24,0,0,0-2.72,7.08,4.5,4.5,0,0,1-4.5,4.27h-55.32a4.49,4.49,0,0,1-4.49-4.26,11.32,11.32,0,0,0-2.72-7.09l-5.09-5.94a135.8,135.8,0,0,1-32.5-83.23Z"/><path class="cls-16" d="M5037.22,3467.93c13.26,22,15.4,38.74,31.92,56,23.47,24.47,51.12,35.11,58.44,27.15s-7-33-31.92-56S5031.63,3458.67,5037.22,3467.93Z"/><path class="cls-16" d="M5031.38,3505c6.24,24.87,3.36,41.56,14.11,62.87,15.28,30.27,38.59,48.55,47.92,43.08s3-33.61-14.12-62.87S5028.74,3494.55,5031.38,3505Z"/><path class="cls-16" d="M5037.24,3456.84c-22,13.12-31.83,26.93-54.52,34.34-32.23,10.53-61.63,6.9-64.34-3.57s21.7-25.84,54.52-34.34S5046.53,3451.31,5037.24,3456.84Z"/><path class="cls-17" d="M5052.16,3411c24.44,7.74,37.14,19,60.92,21,33.78,2.89,61.57-7.35,61.82-18.17s-27-20.2-60.92-21S5041.85,3407.7,5052.16,3411Z"/><path class="cls-17" d="M5052.72,3396.81c-25-5.63-41.63-2.34-63.2-12.57-30.63-14.52-49.48-37.37-44.25-46.84s33.53-3.83,63.2,12.57S5063.27,3399.18,5052.72,3396.81Z"/><path class="cls-18" d="M5044.75,3435c18.68,17.56,25.26,33.16,45.82,45.3,29.19,17.24,58.68,20,63.59,10.41s-15.61-29.92-45.82-45.31S5036.87,3427.57,5044.75,3435Z"/><path class="cls-17" d="M5044.39,3422.07c-24.6,7.23-37.53,18.17-61.35,19.7-33.83,2.18-61.4-8.64-61.43-19.46s27.45-19.63,61.35-19.7S5054.77,3419,5044.39,3422.07Z"/><path class="cls-17" d="M5061.23,3387.42c20.84-3.13,34.26.55,52.55-6.55,26-10.09,42.79-27.7,39.06-35.77s-27.26-5.14-52.56,6.55S5052.44,3388.74,5061.23,3387.42Z"/><path class="cls-15" d="M5065.82,3366.43c-9.44-18.84-20.18-27.69-24.91-46.74-6.72-27-2-50.93,6.75-52.53s19.9,19.33,24.91,46.74S5069.81,3374.38,5065.82,3366.43Z"/><path class="cls-16" d="M5032.76,3489.94c-15.81,20.19-20,36.6-38.46,51.7-26.26,21.44-55,28.66-61.29,19.88s10.91-31.94,38.46-51.7S5039.44,3481.43,5032.76,3489.94Z"/><path class="cls-16" d="M5071.05,3722.64c-11.53-4.61-19.72-4.31-29.25-10.85-13.53-9.29-20.79-21.66-17.56-25.78s16.32.73,29.24,10.85S5075.91,3724.58,5071.05,3722.64Z"/><path class="cls-16" d="M5076.34,3721.76c-4.54,11.55-10.36,17.32-12.12,28.74-2.49,16.22,1.55,30,6.76,30.45s10.64-12.4,12.12-28.74S5078.25,3716.88,5076.34,3721.76Z"/><path class="cls-17" d="M5097.08,3711c-5.62-11.06-12-16.25-14.81-27.45-4-15.9-1.33-30,3.82-31s11.77,11.32,14.81,27.45S5099.45,3715.69,5097.08,3711Z"/><path class="cls-17" d="M5103.8,3709.64c4.65,11.51,4.39,19.7,11,29.2,9.34,13.49,21.74,20.7,25.84,17.46s-.8-16.32-11-29.2S5101.83,3704.79,5103.8,3709.64Z"/><path class="cls-18" d="M5086.19,3716.45c-9.86-7.54-17.83-9.46-25.24-18.32-10.53-12.59-14.18-26.46-10-29.56s15.52,5.1,25.24,18.32S5090.35,3719.63,5086.19,3716.45Z"/><path class="cls-17" d="M5092.38,3715.61c-1.51,12.32-5.72,19.35-4.58,30.85,1.61,16.33,8.95,28.65,14.12,27.81s7.22-14.65,4.59-30.85S5093,3710.41,5092.38,3715.61Z"/><path class="cls-17" d="M5107.61,3704.84c-.14-10.2-2.95-16.32-1-25.62,2.78-13.2,9.87-22.61,14-21.46s4.59,12.61,1,25.61S5107.67,3709.14,5107.61,3704.84Z"/><path class="cls-15" d="M5117.28,3701c9.74,3,14.81,7.46,24.28,8.22,13.44,1.09,24.48-3,24.56-7.35s-10.8-8-24.28-8.23S5113.17,3699.72,5117.28,3701Z"/><path class="cls-16" d="M5060.88,3726.49c-8.4,9.14-15.91,12.42-21.67,22.44-8.18,14.23-9.37,28.52-4.68,30.84s14.4-7.73,21.67-22.44S5064.42,3722.64,5060.88,3726.49Z"/><path class="cls-17" d="M4864.06,3566c19.29,2.24,30.35,8.75,48.33,6.85,25.54-2.71,44.74-14.33,43.37-22.41s-23-11.14-48.33-6.85S4855.92,3565,4864.06,3566Z"/><path class="cls-16" d="M4983.26,3664.18c5.53,1,8.6,3.05,13.82,2.81,7.41-.34,13.15-3.36,12.89-5.71s-6.44-3.61-13.82-2.81S4980.93,3663.76,4983.26,3664.18Z"/><path class="cls-16" d="M4988.53,3670.49c5,2.55,7.33,5.43,12.39,6.73,7.18,1.85,13.55.65,14-1.68s-5.1-5.34-12.39-6.73S4986.42,3669.41,4988.53,3670.49Z"/><path class="cls-16" d="M4981.44,3662.58c-1,5.51-.15,9.12-2.2,13.92-2.91,6.83-7.75,11.14-9.86,10.08s-1.13-7.3,2.2-13.93S4981.87,3660.25,4981.44,3662.58Z"/><path class="cls-17" d="M4976,3653.51c4.79-2.91,8.47-3.38,12.23-7,5.35-5.14,7.66-11.2,5.92-12.79s-7.22,1.53-12.24,7S4974,3654.74,4976,3653.51Z"/><path class="cls-17" d="M4973.79,3651.38c-4.53,3.3-6.39,6.51-11.18,8.59-6.8,3-13.28,2.76-14.09.54s4.2-6.08,11.18-8.6S4975.7,3650,4973.79,3651.38Z"/><path class="cls-18" d="M4978.92,3658.19c5.59-.54,9.1.62,14.06-1,7.05-2.32,11.76-6.77,10.88-9s-7.17-1.74-14.06,1S4976.57,3658.42,4978.92,3658.19Z"/><path class="cls-17" d="M4976.75,3656.39c-2.36,5.09-2.42,8.79-5.6,12.94-4.52,5.88-10.27,8.86-12.06,7.31s.73-7.35,5.6-12.94S4977.74,3654.24,4976.75,3656.39Z"/><path class="cls-17" d="M4973.47,3648.62c2.49-3.88,5-5.56,6.49-9.59,2.09-5.74,1.61-11-.26-11.59s-4.77,3.75-6.49,9.6S4972.42,3650.26,4973.47,3648.62Z"/><path class="cls-15" d="M4970.67,3644.84c-4.46-1.16-7.46-.67-11.28-2.63-5.42-2.79-8.67-7-7.68-8.68s6.05-.49,11.29,2.63S4972.56,3645.33,4970.67,3644.84Z"/><path class="cls-16" d="M4986.25,3668.08c1,5.52,3.14,8.57,3,13.79-.25,7.41-3.2,13.18-5.56,13s-3.68-6.4-3-13.78S4985.81,3665.76,4986.25,3668.08Z"/><path class="cls-16" d="M5053.78,3728.34c-12.37-1-20.12,1.66-31.14-1.8-15.66-4.91-26.22-14.61-24.35-19.5s15.82-4.08,31.14,1.8S5059,3728.78,5053.78,3728.34Z"/><rect class="cls-21" x="4638.4" y="3323.74" width="100" height="25" rx="6.66" transform="translate(9376.8 6672.48) rotate(180)"/><path class="cls-22" d="M4631.52,3070.41h1.88v-28.53a28.17,28.17,0,0,1,28.13-28.14h30.4a28.17,28.17,0,0,1,28.13,28.14v281.86h-10V3041.88a18.16,18.16,0,0,0-18.13-18.14h-30.4a18.16,18.16,0,0,0-18.13,18.14v28.53h1.87a8.13,8.13,0,0,1,8.13,8.12v36.71a1,1,0,0,1-1,1h-28a1,1,0,0,1-1-1v-36.71A8.13,8.13,0,0,1,4631.52,3070.41Z"/><path class="cls-23" d="M4619.48,3131.21c3.29-2.28,6.32-6.34,6.32-10.56v-4.41h25v4.41c0,4.22,3,8.28,6.31,10.56a32.68,32.68,0,0,1,14.19,27c0,43.82-66,43.94-66,0A32.71,32.71,0,0,1,4619.48,3131.21Z"/><path class="cls-24" d="M3546.84,3204.74h141a2,2,0,0,1,2,2v4a2,2,0,0,1-2,2h-143a0,0,0,0,1,0,0v-6A2,2,0,0,1,3546.84,3204.74Z"/><path class="cls-24" d="M3544.84,3232.74h143a2,2,0,0,1,2,2v4a2,2,0,0,1-2,2h-141a2,2,0,0,1-2-2v-6A0,0,0,0,1,3544.84,3232.74Z"/><rect class="cls-25" x="3552.84" y="3212.74" width="132" height="5"/><rect class="cls-26" x="3552.84" y="3217.74" width="132" height="5"/><rect class="cls-25" x="3552.84" y="3222.74" width="132" height="5"/><rect class="cls-26" x="3552.84" y="3227.74" width="132" height="5"/><path class="cls-24" d="M3546.84,3204.74h6a0,0,0,0,1,0,0v36a0,0,0,0,1,0,0h-6a2,2,0,0,1-2-2v-32A2,2,0,0,1,3546.84,3204.74Z"/><path class="cls-27" d="M3565.07,3276.74h6a0,0,0,0,1,0,0v36a0,0,0,0,1,0,0h-6a2,2,0,0,1-2-2v-32A2,2,0,0,1,3565.07,3276.74Z"/><path class="cls-28" d="M3539.54,3312.74h141a2,2,0,0,1,2,2v4a2,2,0,0,1-2,2h-143a0,0,0,0,1,0,0v-6A2,2,0,0,1,3539.54,3312.74Z"/><path class="cls-28" d="M3537.54,3340.74h143a2,2,0,0,1,2,2v4a2,2,0,0,1-2,2h-141a2,2,0,0,1-2-2v-6A0,0,0,0,1,3537.54,3340.74Z"/><rect class="cls-25" x="3545.54" y="3320.74" width="132" height="5"/><rect class="cls-26" x="3545.54" y="3325.74" width="132" height="5"/><rect class="cls-25" x="3545.54" y="3330.74" width="132" height="5"/><rect class="cls-26" x="3545.54" y="3335.74" width="132" height="5"/><path class="cls-28" d="M3539.54,3312.74h6a0,0,0,0,1,0,0v36a0,0,0,0,1,0,0h-6a2,2,0,0,1-2-2v-32A2,2,0,0,1,3539.54,3312.74Z"/><path class="cls-29" d="M3529.37,3240.74h141a2,2,0,0,1,2,2v4a2,2,0,0,1-2,2h-143a0,0,0,0,1,0,0v-6A2,2,0,0,1,3529.37,3240.74Z"/><path class="cls-29" d="M3527.37,3268.74h143a2,2,0,0,1,2,2v4a2,2,0,0,1-2,2h-141a2,2,0,0,1-2-2v-6A0,0,0,0,1,3527.37,3268.74Z"/><rect class="cls-25" x="3535.37" y="3248.74" width="132" height="5"/><rect class="cls-26" x="3535.37" y="3253.74" width="132" height="5"/><rect class="cls-25" x="3535.37" y="3258.74" width="132" height="5"/><rect class="cls-26" x="3535.37" y="3263.74" width="132" height="5"/><path class="cls-29" d="M3529.37,3240.74h6a0,0,0,0,1,0,0v36a0,0,0,0,1,0,0h-6a2,2,0,0,1-2-2v-32A2,2,0,0,1,3529.37,3240.74Z"/><polygon class="cls-28" points="3567.78 3263.74 3560.31 3259.74 3552.84 3263.74 3552.84 3253.74 3567.78 3253.74 3567.78 3263.74"/><path class="cls-27" d="M3565.07,3276.74h141a2,2,0,0,1,2,2v4a2,2,0,0,1-2,2h-143a0,0,0,0,1,0,0v-6A2,2,0,0,1,3565.07,3276.74Z"/><path class="cls-27" d="M3563.07,3304.74h143a2,2,0,0,1,2,2v4a2,2,0,0,1-2,2h-141a2,2,0,0,1-2-2v-6A0,0,0,0,1,3563.07,3304.74Z"/><rect class="cls-25" x="3571.07" y="3284.74" width="132" height="5"/><rect class="cls-26" x="3571.07" y="3289.74" width="132" height="5"/><rect class="cls-25" x="3571.07" y="3294.74" width="132" height="5"/><rect class="cls-26" x="3571.07" y="3299.74" width="132" height="5"/><polygon class="cls-30" points="3640.01 3299.74 3632.54 3295.74 3625.07 3299.74 3625.07 3289.74 3640.01 3289.74 3640.01 3299.74"/></g></g></svg>