<svg xmlns="http://www.w3.org/2000/svg" viewBox="0 0 991.9 806.5"><defs><style>.cls-1{fill:#3e566c;}</style></defs><g id="Layer_2" data-name="Layer 2"><g id="Layer_1-2" data-name="Layer 1"><path class="cls-1" d="M528.65,767a12.33,12.33,0,0,1-2.64-.28,13.21,13.21,0,0,1-8.75-6.72L485,700.6a33.33,33.33,0,0,1-2.75-21.37l4-16a8.43,8.43,0,0,0-3.79-8.66l-46.59-25.59a43.07,43.07,0,0,1-14.95-15.19L397.76,570a2.7,2.7,0,0,0-1-1.21,3.49,3.49,0,0,0-1.1,1.06l-9.88,13.38a11.06,11.06,0,0,0-.55,10.76l21.1,35.61A48.72,48.72,0,0,0,417.8,642l46.1,32.42c5.87,4.12,9.75,11.62,9,17.42a8.12,8.12,0,0,1-5.15,7c-3.35,1.22-7.34,0-10.95-3.36l-6.14-5.7a10,10,0,0,0-2-1.47,39.1,39.1,0,0,0-.24,10.55l.64,5.45c.81,6.89-2.46,15.6-7.62,20.25l-29.66,26.75a18.68,18.68,0,0,1-21.21,2l-17.8-10.81c-5.53-3.35-5.63-7.49-5.42-9.11s1.37-5.6,7.57-7.42l40.86-12a3.3,3.3,0,0,0,2.22-1.75,3.34,3.34,0,0,0-.23-2.83L410,693.76a37.07,37.07,0,0,0-10.76-12l-6.36-4.09A78.78,78.78,0,0,1,377.46,664l-51.53-62.39a11.91,11.91,0,0,0-10.61-3.45l-37.86,9.71a47.81,47.81,0,0,1-21.19-.21l-7.48-2.08a7.09,7.09,0,0,0-7.8,3.56l-4.78,10.09a34,34,0,0,1-15.53,14.91l-40.25,17.11a20.8,20.8,0,0,0-9.6,10.08l-3.47,9.42c-2.37,6.44-9.08,12.88-15.62,15L88.89,706a54.05,54.05,0,0,1-21,1.71l-13.28-2A19.11,19.11,0,0,1,39.4,690.73l-2-12a9.17,9.17,0,0,0-7.06-6.81l-17.66-2.32A14.56,14.56,0,0,1,.12,653.35L2.49,634.9a55.23,55.23,0,0,1,7.26-19.73L58.7,540a17.58,17.58,0,0,1,20.08-6.69L152.05,560a6.23,6.23,0,0,0,7.43-3l13.11-26.24c1.73-3.46,1.89-9.84.32-13.38l-25.56-57.78c-1.7-3.85-1.54-7.81.44-10.85s5.54-4.79,9.75-4.79H200.6a37.52,37.52,0,0,0,15.57-4.24l74.76-43.9a153,153,0,0,1,18-8.78l29.89-11.77A9.1,9.1,0,0,0,344,367l-2.79-34.42a19,19,0,0,1,11.17-18.17l14-5.74a12.78,12.78,0,0,1,17.66,9.17l11.65,50.8a6.27,6.27,0,0,0,6.54,4.66l60.59-6.61a39.08,39.08,0,0,1,20.95,4.38l3.44,2a2.72,2.72,0,0,0,2.35.4,2.68,2.68,0,0,0,1.34-2L508,304.62c1.67-6.57,7.51-13.8,13.57-16.83l40.75-20.38c3.13-1.56,6-6.18,6-9.68v-1a3.08,3.08,0,0,0-3.9-3.29l-38,6.44a15.47,15.47,0,0,1-17.34-11.41l-9.45-38.77c-1.64-6.73.51-15.78,5-21.06l28.12-33.14a3.54,3.54,0,0,0,.67-1,3.48,3.48,0,0,0-1.16-.4l-11.52-2.35a35.51,35.51,0,0,0-6.47-.77l-.05.08-36.34,59A21.42,21.42,0,0,0,475.7,224L484,256.84a32.73,32.73,0,0,1-2.79,21.38l-34.14,61.46c-3.32,6-10.89,11.37-17.62,12.56l-19.16,3.4a14.61,14.61,0,0,1-16.88-11.72l-10.54-57.41a5.61,5.61,0,0,0-6-4.44L339,286.56a12.53,12.53,0,0,1-14.31-13.67l3.45-47.82c.49-6.81,5.09-14.9,10.69-18.81l49.45-34.52a56.73,56.73,0,0,0,12.05-12.31l64.73-97A56,56,0,0,1,480.27,48l51.61-30.83c6-3.6,15.31-4,21.6-.9L656.11,66.5c6.58,3.21,11.14,11.44,10.4,18.72l-2,19.58a14.67,14.67,0,0,1-15.87,13.08l-30.28-2.75,27.25,27.25a2.84,2.84,0,0,0,4.79-.47l30.92-46.23c2.12-3.15,2.9-9.3,1.65-12.89l-5.24-15a51,51,0,0,1-2-21c.65-4.27,2.93-7.43,6.25-8.67s7.17-.35,10.5,2.47l23,19.43a4.53,4.53,0,0,0,6.53-.64l40.16-50.2A15.5,15.5,0,0,1,782.73,6l79.7,53.13a114.87,114.87,0,0,1,15.58,13l65.55,67.41a43.61,43.61,0,0,1,9.92,18.86l31.83,159.55a13.51,13.51,0,0,1-11.95,16.28l-75.11,8.09a9.4,9.4,0,0,0-7.37,6.68l-17.41,83.54c-.73,3.51,1.06,8.86,3.76,11.22L901.44,465a12.92,12.92,0,0,1-.15,20l-91.21,77.47c-5.11,4.34-14,7.05-20.66,6.31L755.84,565A42.68,42.68,0,0,0,739.43,567l-26.82,10.16a14.45,14.45,0,0,1-18.67-8.49l-4.4-11.85c-1.22-3.31-5.53-6.72-9-7.16l-15.63-2a9.14,9.14,0,0,0-8.54,4.81l-20.23,45.16a53,53,0,0,0-3.29,9l4.56,44.79a16.76,16.76,0,0,1-11.83,17.4l-24.36,6.9a143.28,143.28,0,0,0-17.39,6.43l-24,11.05a5.42,5.42,0,0,0-2.69,6.8L567.19,725a18.17,18.17,0,0,1-5.64,20.49l-24.78,18.74A13.52,13.52,0,0,1,528.65,767ZM396.81,559.09c.24,0,.47,0,.71,0,3.61.27,6.81,2.58,8.8,6.33l23.12,43.78a33.43,33.43,0,0,0,11.05,11.23l46.59,25.59a18.16,18.16,0,0,1,8.52,19.46l-4,16A23.94,23.94,0,0,0,493.48,696l32.28,59.37a3.57,3.57,0,0,0,2.3,1.89,3.6,3.6,0,0,0,2.87-.77l24.78-18.74a8.44,8.44,0,0,0,2.52-9.12l-10.09-24.85a15.14,15.14,0,0,1,7.61-19.23l24-11a153.07,153.07,0,0,1,18.81-7l24.35-6.9a7.14,7.14,0,0,0,4.84-7.11l-4.59-45.13c-.33-3.28,2.77-10.63,4.12-13.64l20.23-45.16a18.77,18.77,0,0,1,18.57-10.45l15.63,2a22.17,22.17,0,0,1,16.91,13.39L703,565.33a4.75,4.75,0,0,0,6.17,2.81L736,558a52.69,52.69,0,0,1,20.92-2.64l33.57,3.74A20.83,20.83,0,0,0,803.82,555L895,477.55a3.27,3.27,0,0,0,0-5.31L870.85,451c-5.36-4.69-8.31-13.5-6.85-20.47L881.4,347a19.06,19.06,0,0,1,15.82-14.33l.52,4.81-.52-4.81,75.1-8.09a3.85,3.85,0,0,0,3.5-4.77L944,160.28a34,34,0,0,0-7.37-14L871.07,78.87a105.48,105.48,0,0,0-14-11.65l-79.7-53.13a5.9,5.9,0,0,0-7.63,1.18L729.57,65.48a14.21,14.21,0,0,1-20.34,2L686.27,48a6.92,6.92,0,0,0-.74-.53,4.57,4.57,0,0,0-.19.82,40.9,40.9,0,0,0,1.52,16.3l5.23,15c2.27,6.51,1.1,15.74-2.74,21.47l-30.92,46.22a12.46,12.46,0,0,1-19.67,1.93L608.9,119.36c-4.55-4.55-3.82-8.25-3-10s3.21-4.74,9.64-4.15l33.94,3.08a5,5,0,0,0,5.37-4.42l2-19.59a10.17,10.17,0,0,0-5-9L549.23,24.91c-3.32-1.62-9.22-1.38-12.39.51L485.23,56.26A46.13,46.13,0,0,0,473.1,67.81l-64.73,97a66.1,66.1,0,0,1-14.57,14.87l-49.44,34.52c-3.17,2.21-6.3,7.73-6.58,11.57l-3.44,47.83a2.88,2.88,0,0,0,3.51,3.36l37.88-4.49a15.35,15.35,0,0,1,16.68,12.3L403,342.17a4.91,4.91,0,0,0,5.67,3.94l19.17-3.39c3.8-.68,9-4.36,10.84-7.74l34.14-61.46a23.34,23.34,0,0,0,1.87-14.3l-8.32-32.89c-1.64-6.48-.23-15.65,3.28-21.34L507,144.28c.78-1.26,2.83-4.61,15.63-2l11.52,2.34c4.21.86,7.3,3.3,8.48,6.69s.25,7.21-2.54,10.49L512,194.94c-2.44,2.88-3.85,8.84-3,12.51l9.45,38.77a5.73,5.73,0,0,0,6.33,4.16l38-6.44A12.72,12.72,0,0,1,578,256.77v1a21.81,21.81,0,0,1-11.33,18.34l-40.74,20.37c-3.5,1.75-7.56,6.79-8.53,10.57L500.31,373.9a11.79,11.79,0,0,1-17.88,7.56l-3.45-2a30.07,30.07,0,0,0-15.08-3.15l-60.59,6.6a15.9,15.9,0,0,1-17-12.11L374.64,320a3.12,3.12,0,0,0-4.57-2.37l-14,5.73a9.34,9.34,0,0,0-5.18,8.44l2.79,34.42a18.74,18.74,0,0,1-11.27,18.08L312.5,396.1a143.24,143.24,0,0,0-16.67,8.11l-74.76,43.91a47,47,0,0,1-20.47,5.56H157.54c-1.14,0-1.59.32-1.64.4s-.16.62.3,1.66l25.56,57.77c2.76,6.24,2.54,15.54-.51,21.63l-13.12,26.23a15.86,15.86,0,0,1-19.4,7.72L75.46,542.35a7.89,7.89,0,0,0-8.65,2.88L17.86,620.45a45.28,45.28,0,0,0-5.77,15.69L9.72,654.58A4.88,4.88,0,0,0,13.91,660l17.66,2.32a18.79,18.79,0,0,1,15.35,14.79l2,12a9.47,9.47,0,0,0,7.12,7l13.28,2a44.23,44.23,0,0,0,16.59-1.35l62.85-20.21c3.65-1.17,8.18-5.51,9.5-9.11l3.47-9.41c2.32-6.3,8.73-13,14.9-15.65l40.25-17.1a24.77,24.77,0,0,0,10.57-10.15L232.24,605a16.73,16.73,0,0,1,19.14-8.75l7.48,2.08a38.3,38.3,0,0,0,16.2.16l37.86-9.7a21.28,21.28,0,0,1,20.47,6.66l51.53,62.39a70.22,70.22,0,0,0,13.19,11.7l6.36,4.08a46.53,46.53,0,0,1,14.19,15.79l7.8,15.59a12.64,12.64,0,0,1-7.92,18.2l-39.63,11.66L395.63,745a9,9,0,0,0,9.7-.91L435,717.35c2.79-2.51,4.93-8.2,4.49-11.93l-.64-5.45c-.64-5.42-.36-13.05,1.4-17.17a7.61,7.61,0,0,1,5.46-4.48c3.55-.75,7.77.83,11.55,4.35l5.4,5a13.25,13.25,0,0,0-4.31-5.39l-46.11-32.41A58.68,58.68,0,0,1,398,634.51l-21.1-35.61A20.46,20.46,0,0,1,378,577.45l9.89-13.38A11.24,11.24,0,0,1,396.81,559.09Zm236,47.83Z"/><path class="cls-1" d="M228.55,431a16.19,16.19,0,0,1-2-.13l-76.61-10c-6.25-.82-8-3.79-8.38-6.14s.38-5.73,6.07-8.43l20.49-9.73-.94-.42a12.23,12.23,0,0,1-4.94-19l5.83-7.78A190.24,190.24,0,0,1,181,354.25l12.7-13.17a3.65,3.65,0,0,0,1.26-2.74,1.44,1.44,0,0,0-.81-1.07c-5.2-3.12-10.07-10.47-11.33-17.11l-8-42a15.91,15.91,0,0,1,10.72-17.93l33.79-10.64a18.54,18.54,0,0,1,20.08,7.08l6.68,10c4.06,6.1,3.85,15.5-.48,21.4l-9.84,13.43c-2.22,3-3.17,9-2,12.59l21,63a34.45,34.45,0,0,1-.79,21.5l-9,21.63A18.33,18.33,0,0,1,228.55,431ZM157.9,412.21l69.92,9.09a8.48,8.48,0,0,0,8.22-4.75l9-21.63a25.22,25.22,0,0,0,.54-14.72l-21-63c-2.19-6.59-.75-15.78,3.35-21.38l9.85-13.42a10.09,10.09,0,0,0,.23-10.31l-6.68-10a8.79,8.79,0,0,0-9.12-3.22l-33.8,10.64a6.28,6.28,0,0,0-4.12,6.89l8,42c.81,4.23,4.26,9.09,6.81,10.62a11,11,0,0,1,5.42,8.1,13.09,13.09,0,0,1-3.89,10.73L188,361a181.15,181.15,0,0,0-12.13,14.26L170,383a2.61,2.61,0,0,0,1.14,4.38l1.69.76c5.85,2.61,6.53,6.72,6.54,8.37s-.56,5.76-6.35,8.52Z"/><path class="cls-1" d="M111,376.64a16.66,16.66,0,0,1-15.52-10.93l-3.37-9.77a19.2,19.2,0,0,1,6.18-20.44l45.57-34.72a15.55,15.55,0,0,1,20.68,2L175,314.45a17.54,17.54,0,0,1,1.12,21.13l-17.78,24.9h0c-3.87,5.41-11.73,10.34-18.29,11.45l-26.4,4.5A15.79,15.79,0,0,1,111,376.64Zm42.07-69.25a5.52,5.52,0,0,0-3.34,1.09L104.2,343.2a9.53,9.53,0,0,0-2.9,9.59l3.37,9.76a7,7,0,0,0,7.3,4.34l26.41-4.5a22.13,22.13,0,0,0,12-7.54h0L168.2,330a7.85,7.85,0,0,0-.49-9.08l-10.36-11.67A5.71,5.71,0,0,0,153.11,307.39Zm1.24,50.27h0Z"/><path class="cls-1" d="M180.66,97.49H141A33.37,33.37,0,0,1,120.9,89.7l-8-7.28a21.4,21.4,0,0,1-5.7-20.76l7.91-26c2-6.67,8.56-13.27,15.19-15.37a18.07,18.07,0,0,1,19.9,7.32L154,33.5a27.52,27.52,0,0,0,11.8,9.37l27.68,9.61a14.75,14.75,0,0,1,9.13,18.45L198,85A19.15,19.15,0,0,1,180.66,97.49ZM135.19,29.24a6.5,6.5,0,0,0-1.94.28c-3.54,1.12-7.75,5.39-8.84,9l-7.91,26a12,12,0,0,0,3,10.8l8,7.27A24.06,24.06,0,0,0,141,87.81h39.67a9.51,9.51,0,0,0,8.1-5.87h0l4.61-14a5,5,0,0,0-3.12-6.29L162.57,52a36.71,36.71,0,0,1-16.81-13.35l-3.71-5.89A8.45,8.45,0,0,0,135.19,29.24Z"/><path class="cls-1" d="M314.52,702.54a13.66,13.66,0,0,1-3.86-.56l-6.9-2a16.42,16.42,0,0,1-11.47-17.58l2.3-17.26c1-7.3,7.37-14.17,14.57-15.65l4.59-.94a11.86,11.86,0,0,1,14.71,12.74l-1.75,29.39a12.64,12.64,0,0,1-5.17,9.7A12.13,12.13,0,0,1,314.52,702.54Zm2.08-44.62a4.2,4.2,0,0,0-.9.1l-4.59.94a9.81,9.81,0,0,0-6.93,7.44l-2.29,17.26a6.82,6.82,0,0,0,4.57,7h0l6.9,2a2.6,2.6,0,0,0,3.69-2.6l1.75-29.39a2.78,2.78,0,0,0-.71-2.31A2.24,2.24,0,0,0,316.6,657.92Z"/><path class="cls-1" d="M318.72,657.14c-5.77,0-9.28-7.12-10.55-13.21a40.5,40.5,0,0,1,2.14-21.14l2.43-5.73h0c2.05-4.82,4.77-7,8.11-6.34s5.13,3.58,5.33,8.81l.88,22.91c.09,2.59,0,9-3.44,12.53A6.8,6.8,0,0,1,318.72,657.14Zm1.46-9.27h0Z"/><path class="cls-1" d="M582.89,800.79c-.68,0-1.36,0-2-.09l-14.28-1.38c-8.12-.78-14-5.5-14-11.22a8.47,8.47,0,0,1,2.76-6.15c2.68-2.54,7.17-3.92,12-3.67l24.22,1.26c4.84.25,8.43,2.26,9.85,5.52,1.24,2.85.62,6.09-1.73,8.89C596.25,798,589.32,800.79,582.89,800.79Zm-19.72-12.41a10.61,10.61,0,0,0,4.34,1.31h0l14.28,1.38a16.08,16.08,0,0,0,8.6-1.9L566.83,788A10.05,10.05,0,0,0,563.17,788.38Z"/><path class="cls-1" d="M213.82,683A15.45,15.45,0,0,1,203,678.29h0a12.09,12.09,0,0,1-3.61-9.79,13,13,0,0,1,6-9.43l2.51-1.64a13,13,0,0,1,11.35-1.82,10.46,10.46,0,0,1,6.56,6.78c2.05,6.15.21,13.77-4.29,17.74A11.64,11.64,0,0,1,213.82,683Zm-3.93-11.5c2,2,4.46,2.16,5.31,1.41,1.43-1.26,2.4-4.77,1.51-7.42-.19-.57-.44-.66-.56-.7a3.67,3.67,0,0,0-2.88.77l-2.51,1.65a3.45,3.45,0,0,0-1.7,2.33,2.42,2.42,0,0,0,.83,2Z"/><path class="cls-1" d="M535,763.49a12.4,12.4,0,0,1-2.64-.28,13.21,13.21,0,0,1-8.75-6.72l-32.28-59.37a33.34,33.34,0,0,1-2.75-21.37l4-16a8.42,8.42,0,0,0-3.79-8.65l-46.59-25.59a43,43,0,0,1-14.95-15.2l-23.12-43.77a2.7,2.7,0,0,0-1-1.21,3.49,3.49,0,0,0-1.1,1.05l-9.88,13.39a11.06,11.06,0,0,0-.55,10.76l21.1,35.61a48.72,48.72,0,0,0,11.47,12.4l46.1,32.41c5.87,4.13,9.75,11.62,9,17.43a8.13,8.13,0,0,1-5.15,7c-3.35,1.22-7.34,0-10.95-3.36l-6.14-5.7a10.54,10.54,0,0,0-2-1.48,39.13,39.13,0,0,0-.24,10.55l.64,5.46c.81,6.89-2.46,15.6-7.62,20.25l-29.66,26.75a18.65,18.65,0,0,1-21.2,2L379.1,739c-5.53-3.36-5.63-7.49-5.42-9.11s1.37-5.6,7.57-7.42l40.86-12a3,3,0,0,0,2-4.58l-7.79-15.59a37.1,37.1,0,0,0-10.76-12l-6.36-4.08a79.1,79.1,0,0,1-15.43-13.68l-51.53-62.39a11.85,11.85,0,0,0-10.61-3.45l-37.86,9.7a47.66,47.66,0,0,1-21.19-.21l-7.48-2.07a7.08,7.08,0,0,0-7.8,3.56l-4.78,10.09A34,34,0,0,1,227,630.68l-40.24,17.11a20.78,20.78,0,0,0-9.61,10.08l-3.47,9.42c-2.37,6.44-9.08,12.87-15.62,15L95.19,702.47a54.25,54.25,0,0,1-21,1.71l-13.27-2a19.11,19.11,0,0,1-15.24-15l-2-12a9.16,9.16,0,0,0-7.06-6.81L19,666.14A14.56,14.56,0,0,1,6.42,649.87l2.37-18.45a55.16,55.16,0,0,1,7.26-19.73l49-75.22a17.59,17.59,0,0,1,20.08-6.7l73.27,26.75a6.23,6.23,0,0,0,7.43-3l13.11-26.23c1.74-3.46,1.89-9.84.32-13.38l-25.56-57.78c-1.7-3.85-1.54-7.81.44-10.86s5.54-4.79,9.75-4.79H206.9a37.47,37.47,0,0,0,15.57-4.23l74.76-43.9a153,153,0,0,1,18-8.78l29.89-11.78a9.08,9.08,0,0,0,5.17-8.3l-2.79-34.41a19,19,0,0,1,11.17-18.18l14-5.73a12.77,12.77,0,0,1,17.67,9.16L402,365.18a6.25,6.25,0,0,0,6.54,4.65l60.59-6.61a39.27,39.27,0,0,1,21,4.38l3.44,2a2.2,2.2,0,0,0,3.69-1.56l17.08-66.88c1.67-6.57,7.51-13.81,13.57-16.84l40.75-20.37a12.43,12.43,0,0,0,6-9.68v-1a3.08,3.08,0,0,0-3.9-3.28l-38,6.44A15.47,15.47,0,0,1,515.36,245l-9.45-38.77c-1.64-6.73.51-15.78,5-21.06L539,152.06a3.82,3.82,0,0,0,.66-1,4,4,0,0,0-1.16-.4L527,148.28a33.77,33.77,0,0,0-6.47-.77l0,.08-36.34,59a21.41,21.41,0,0,0-2.14,13.9l8.32,32.88a32.73,32.73,0,0,1-2.79,21.38L453.39,336.2c-3.32,6-10.89,11.37-17.61,12.56l-19.17,3.4a14.62,14.62,0,0,1-16.88-11.72L389.19,283a5.62,5.62,0,0,0-6-4.45l-37.88,4.5A12.53,12.53,0,0,1,331,269.41l3.45-47.82c.49-6.82,5.09-14.9,10.69-18.81l49.45-34.53A56.69,56.69,0,0,0,406.62,156l64.73-97a56,56,0,0,1,15.22-14.48l51.61-30.84c6-3.59,15.31-4,21.6-.89L662.42,63c6.57,3.22,11.13,11.44,10.39,18.72l-2,19.59a14.69,14.69,0,0,1-15.87,13.08l-30.28-2.76L651.9,138.9a3.28,3.28,0,0,0,2.53,1.09,3.24,3.24,0,0,0,2.26-1.56L687.61,92.2c2.12-3.16,2.9-9.3,1.65-12.89l-5.24-15a51,51,0,0,1-1.95-21c.65-4.27,2.93-7.43,6.25-8.67s7.17-.35,10.5,2.46l23,19.43a4.52,4.52,0,0,0,6.53-.63l40.16-50.2A15.5,15.5,0,0,1,789,2.55l79.7,53.13a113.61,113.61,0,0,1,15.58,13l65.55,67.41a43.51,43.51,0,0,1,9.92,18.85l31.83,159.55a13.52,13.52,0,0,1-12,16.29l-75.11,8.08a9.44,9.44,0,0,0-7.37,6.69l-17.41,83.54c-.73,3.51,1.06,8.86,3.76,11.22l24.21,21.2a12.93,12.93,0,0,1-.15,20L816.38,558.9c-5.11,4.35-14,7.06-20.66,6.32l-33.57-3.75a42.52,42.52,0,0,0-16.42,2.08l-26.82,10.16a14.45,14.45,0,0,1-18.67-8.49l-4.39-11.85a12.8,12.8,0,0,0-9-7.16l-15.63-2a9.14,9.14,0,0,0-8.54,4.81l-20.23,45.15a53,53,0,0,0-3.29,9l4.56,44.78a16.77,16.77,0,0,1-11.83,17.41l-24.36,6.9a144.92,144.92,0,0,0-17.39,6.42l-24,11.06a5.42,5.42,0,0,0-2.69,6.8l10.08,24.84A18.15,18.15,0,0,1,567.85,742L543.07,760.7A13.46,13.46,0,0,1,535,763.49ZM403.11,555.61c.24,0,.47,0,.71,0,3.61.27,6.81,2.58,8.8,6.33l23.12,43.77A33.37,33.37,0,0,0,446.79,617l46.59,25.59A18.15,18.15,0,0,1,501.9,662l-4,16.05a24,24,0,0,0,1.85,14.42l32.28,59.37a3.27,3.27,0,0,0,5.17,1.12L562,734.25a8.45,8.45,0,0,0,2.52-9.13l-10.09-24.84a15.14,15.14,0,0,1,7.61-19.23l24-11a153.07,153.07,0,0,1,18.81-7l24.35-6.9a7.14,7.14,0,0,0,4.84-7.12l-4.59-45.13c-.33-3.27,2.77-10.63,4.12-13.63l20.23-45.16a18.77,18.77,0,0,1,18.57-10.45l15.63,2A22.17,22.17,0,0,1,704.92,550l4.39,11.85a4.78,4.78,0,0,0,6.17,2.81L742.3,554.5a52.51,52.51,0,0,1,20.92-2.64l33.57,3.74a20.89,20.89,0,0,0,13.33-4.07l91.21-77.46a3.3,3.3,0,0,0,0-5.32l-24.22-21.2c-5.36-4.7-8.31-13.5-6.85-20.48l17.4-83.53a19.1,19.1,0,0,1,15.82-14.34L904,334l-.52-4.81,75.1-8.08a3.85,3.85,0,0,0,3.5-4.77L950.29,156.8a33.84,33.84,0,0,0-7.37-14L877.37,75.39a105.48,105.48,0,0,0-14-11.65L783.67,10.61A5.9,5.9,0,0,0,776,11.79L735.87,62a14.2,14.2,0,0,1-20.34,2l-23-19.43a4.44,4.44,0,0,0-.74-.53,4.43,4.43,0,0,0-.19.81,41,41,0,0,0,1.52,16.31l5.23,15c2.28,6.51,1.1,15.73-2.73,21.46l-30.93,46.23a12.46,12.46,0,0,1-19.67,1.93L615.2,115.88c-4.55-4.55-3.82-8.26-3-10.06s3.2-4.73,9.63-4.15l33.94,3.09a5,5,0,0,0,5.38-4.42l2-19.59a10.17,10.17,0,0,0-5-9L555.53,21.43c-3.32-1.63-9.22-1.38-12.39.51l-51.6,30.84A46,46,0,0,0,479.4,64.32l-64.73,97a66.27,66.27,0,0,1-14.56,14.87l-49.45,34.52c-3.17,2.21-6.3,7.72-6.58,11.57l-3.44,47.83a3.21,3.21,0,0,0,.84,2.64,3.25,3.25,0,0,0,2.67.72L382,269a15.37,15.37,0,0,1,16.68,12.31l10.54,57.41a4.91,4.91,0,0,0,5.67,3.94l19.17-3.4c3.8-.67,9-4.36,10.84-7.73L479.07,270a23.37,23.37,0,0,0,1.87-14.31l-8.32-32.88c-1.64-6.48-.23-15.65,3.28-21.34l37.4-60.72c.78-1.26,2.83-4.6,15.63-2l11.52,2.34c4.21.86,7.3,3.29,8.48,6.69s.25,7.21-2.54,10.49l-28.12,33.14c-2.44,2.88-3.85,8.84-2.95,12.51l9.44,38.77a5.74,5.74,0,0,0,6.33,4.16l38-6.45a12.75,12.75,0,0,1,15.19,12.83v1A21.83,21.83,0,0,1,573,272.58L532.21,293c-3.5,1.75-7.56,6.79-8.53,10.57l-17.07,66.88A11.79,11.79,0,0,1,488.73,378l-3.45-2a30.06,30.06,0,0,0-15.08-3.16l-60.59,6.61a15.91,15.91,0,0,1-17-12.11l-11.65-50.81a3.43,3.43,0,0,0-1.66-2.38,3.47,3.47,0,0,0-2.91,0l-14,5.74a9.33,9.33,0,0,0-5.18,8.44L360,362.75a18.75,18.75,0,0,1-11.27,18.09L318.8,392.61a143.31,143.31,0,0,0-16.67,8.12l-74.76,43.9a46.82,46.82,0,0,1-20.47,5.57H163.84c-1.14,0-1.59.32-1.64.4s-.16.61.3,1.66L188.06,510c2.76,6.24,2.54,15.53-.51,21.63l-13.12,26.23a15.87,15.87,0,0,1-19.4,7.72L81.77,538.86a7.92,7.92,0,0,0-8.66,2.89L24.16,617a45.2,45.2,0,0,0-5.77,15.69L16,651.1a4.88,4.88,0,0,0,4.19,5.45l17.66,2.31a18.81,18.81,0,0,1,15.35,14.8l2,12a9.48,9.48,0,0,0,7.12,7l13.28,2a44.23,44.23,0,0,0,16.59-1.36l62.85-20.2c3.65-1.17,8.18-5.51,9.5-9.11l3.47-9.42c2.32-6.29,8.73-13,14.9-15.64l40.25-17.11a24.65,24.65,0,0,0,10.57-10.15l4.77-10.08a16.73,16.73,0,0,1,19.14-8.75l7.48,2.08a38.47,38.47,0,0,0,16.2.16l37.86-9.71A21.29,21.29,0,0,1,339.69,592l51.54,62.39a69.6,69.6,0,0,0,13.19,11.7l6.36,4.08A46.51,46.51,0,0,1,425,686l7.8,15.59a12.64,12.64,0,0,1-7.92,18.2L385.21,731.4l16.72,10.14a9,9,0,0,0,9.7-.92l29.66-26.75c2.79-2.51,4.93-8.2,4.49-11.93l-.64-5.46c-.64-5.41-.36-13,1.4-17.16a7.59,7.59,0,0,1,5.46-4.48c3.55-.75,7.77.83,11.55,4.35l5.4,5a13.29,13.29,0,0,0-4.31-5.38l-46.1-32.42A58.24,58.24,0,0,1,404.31,631l-21.1-35.6A20.46,20.46,0,0,1,384.29,574l9.89-13.39A11.23,11.23,0,0,1,403.11,555.61Zm236,47.83Z"/><path class="cls-1" d="M234.85,427.54a14.53,14.53,0,0,1-2-.13l-76.61-10c-6.25-.81-8-3.78-8.38-6.14s.38-5.72,6.07-8.43l20.49-9.73-.94-.42a12.22,12.22,0,0,1-4.94-19l5.83-7.78a190.39,190.39,0,0,1,12.9-15.18L200,337.6a3.65,3.65,0,0,0,1.26-2.74,1.43,1.43,0,0,0-.81-1.07c-5.2-3.12-10.07-10.48-11.33-17.11l-8-41.95a15.91,15.91,0,0,1,10.72-17.93l33.79-10.64a18.54,18.54,0,0,1,20.08,7.07l6.68,10c4.06,6.09,3.85,15.49-.48,21.4l-9.84,13.42c-2.22,3-3.16,9-2,12.6l21,63a34.53,34.53,0,0,1-.78,21.5l-9,21.63A18.35,18.35,0,0,1,234.85,427.54ZM164.2,408.73l69.92,9.09a8.5,8.5,0,0,0,8.22-4.75l9-21.63a25.25,25.25,0,0,0,.54-14.73l-21-63c-2.19-6.59-.75-15.78,3.35-21.38l9.85-13.42a10.09,10.09,0,0,0,.23-10.31l-6.68-10a8.78,8.78,0,0,0-9.12-3.21L194.74,266a6.28,6.28,0,0,0-4.12,6.89l8,41.95c.81,4.22,4.26,9.09,6.81,10.62a11,11,0,0,1,5.42,8.1A13.09,13.09,0,0,1,207,344.32l-12.69,13.16a180.56,180.56,0,0,0-12.12,14.25l-5.83,7.79a2.61,2.61,0,0,0,1.14,4.38l1.69.75c5.85,2.62,6.53,6.73,6.54,8.37s-.56,5.77-6.35,8.52Z"/><path class="cls-1" d="M117.34,373.16a16.66,16.66,0,0,1-15.52-10.93l-3.37-9.77A19.19,19.19,0,0,1,104.63,332L150.2,297.3a15.55,15.55,0,0,1,20.68,2L181.25,311a17.56,17.56,0,0,1,1.12,21.14L164.59,357h0a31.57,31.57,0,0,1-18.29,11.46l-26.4,4.49A14.75,14.75,0,0,1,117.34,373.16Zm42.08-69.25a5.46,5.46,0,0,0-3.35,1.09L110.5,339.72a9.52,9.52,0,0,0-2.9,9.58l3.37,9.77a7,7,0,0,0,7.3,4.33l26.41-4.49a22.19,22.19,0,0,0,12-7.54h0l17.78-24.9a7.86,7.86,0,0,0-.49-9.08l-10.36-11.66A5.67,5.67,0,0,0,159.42,303.91Zm1.23,50.27h0Z"/><path class="cls-1" d="M187,94H147.29a33.4,33.4,0,0,1-20.09-7.79l-8-7.27a21.4,21.4,0,0,1-5.7-20.76l7.91-26c2-6.67,8.56-13.28,15.19-15.37a18.07,18.07,0,0,1,19.9,7.32L160.25,30a27.37,27.37,0,0,0,11.8,9.37L199.73,49a14.75,14.75,0,0,1,9.13,18.45l-4.61,14A19.14,19.14,0,0,1,187,94ZM141.49,25.76a6.5,6.5,0,0,0-1.94.28c-3.54,1.12-7.75,5.39-8.84,9L122.8,61a12,12,0,0,0,3,10.8l8,7.28a24,24,0,0,0,13.56,5.26H187a9.51,9.51,0,0,0,8.1-5.87h0l4.61-14a5,5,0,0,0-3.12-6.29l-27.68-9.61a36.67,36.67,0,0,1-16.81-13.36l-3.71-5.88A8.42,8.42,0,0,0,141.49,25.76Z"/><path class="cls-1" d="M320.82,699.06a14,14,0,0,1-3.86-.56l-6.9-2a16.42,16.42,0,0,1-11.47-17.58l2.3-17.27c1-7.29,7.37-14.16,14.57-15.64l4.59-.94a11.86,11.86,0,0,1,14.71,12.74L333,687.18a12.66,12.66,0,0,1-5.17,9.71A12.13,12.13,0,0,1,320.82,699.06Zm2.08-44.62a4.2,4.2,0,0,0-.9.1l-4.59.94a9.81,9.81,0,0,0-6.93,7.44l-2.29,17.26a6.82,6.82,0,0,0,4.57,7h0l6.9,2a2.6,2.6,0,0,0,3.69-2.6l1.75-29.39a2.76,2.76,0,0,0-.71-2.31A2.24,2.24,0,0,0,322.9,654.44Z"/><path class="cls-1" d="M325,653.65c-5.76,0-9.28-7.11-10.54-13.21a40.37,40.37,0,0,1,2.13-21.13l2.43-5.73h0c2-4.82,4.77-7,8.11-6.34s5.13,3.58,5.33,8.81l.88,22.91c.1,2.59,0,9-3.44,12.52A6.8,6.8,0,0,1,325,653.65Zm1.46-9.27h0Z"/><path class="cls-1" d="M589.19,797.31c-.68,0-1.36,0-2-.09l-14.28-1.38c-8.12-.78-14-5.5-14-11.23a8.46,8.46,0,0,1,2.76-6.14c2.68-2.55,7.17-3.92,12-3.67l24.22,1.26c4.84.25,8.43,2.26,9.85,5.52,1.25,2.85.62,6.09-1.73,8.89C602.55,794.55,595.62,797.31,589.19,797.31Zm-19.72-12.42a10.44,10.44,0,0,0,4.34,1.32h0l14.29,1.37a16,16,0,0,0,8.59-1.89l-23.56-1.23A10.08,10.08,0,0,0,569.47,784.89Z"/><path class="cls-1" d="M220.12,679.47a15.44,15.44,0,0,1-10.78-4.67h0a12.11,12.11,0,0,1-3.6-9.79,12.93,12.93,0,0,1,6-9.43l2.51-1.65a13,13,0,0,1,11.35-1.81,10.5,10.5,0,0,1,6.57,6.78c2,6.14.2,13.77-4.3,17.74A11.64,11.64,0,0,1,220.12,679.47ZM216.19,668c2,2,4.47,2.16,5.31,1.42,1.43-1.26,2.4-4.77,1.52-7.42-.2-.57-.45-.66-.57-.7a3.63,3.63,0,0,0-2.88.77l-2.51,1.64a3.49,3.49,0,0,0-1.7,2.34,2.4,2.4,0,0,0,.83,2Z"/><path class="cls-1" d="M534.16,772.68a12.33,12.33,0,0,1-2.64-.28,13.29,13.29,0,0,1-8.76-6.72l-32.27-59.37a33.35,33.35,0,0,1-2.75-21.37l4-16.05a8.38,8.38,0,0,0-3.79-8.65l-46.58-25.59a43,43,0,0,1-14.95-15.2l-23.12-43.77c-.46-.88-.89-1.18-1-1.21a3.37,3.37,0,0,0-1.1,1l-9.88,13.38a11,11,0,0,0-.55,10.77l21.1,35.61a49.05,49.05,0,0,0,11.47,12.4l46.1,32.41c5.87,4.13,9.75,11.62,9,17.42a8.14,8.14,0,0,1-5.15,7c-3.35,1.21-7.34,0-11-3.37l-6.13-5.7a10.41,10.41,0,0,0-2-1.47,39.12,39.12,0,0,0-.24,10.55l.64,5.45c.81,6.9-2.46,15.6-7.62,20.25L417.32,757a18.7,18.7,0,0,1-21.21,2l-17.8-10.81c-5.53-3.35-5.63-7.48-5.42-9.11s1.37-5.59,7.57-7.42l40.86-12a3,3,0,0,0,2-4.58l-7.8-15.59a37,37,0,0,0-10.75-12l-6.36-4.08A79.1,79.1,0,0,1,383,669.73l-51.54-62.39a11.86,11.86,0,0,0-10.6-3.46L283,613.59a47.66,47.66,0,0,1-21.19-.21l-7.48-2.08a7.1,7.1,0,0,0-7.8,3.57L241.72,625a34,34,0,0,1-15.53,14.92L185.94,657a20.78,20.78,0,0,0-9.6,10.09l-3.47,9.41c-2.37,6.44-9.09,12.88-15.62,15L94.4,711.65a53.86,53.86,0,0,1-21,1.71l-13.28-2a19.14,19.14,0,0,1-15.24-15l-2-12a9.16,9.16,0,0,0-7.06-6.8l-17.66-2.32A14.57,14.57,0,0,1,5.63,659.05L8,640.61a55.16,55.16,0,0,1,7.26-19.73l48.95-75.22A17.57,17.57,0,0,1,84.29,539l73.26,26.75a6.26,6.26,0,0,0,7.44-3l13.11-26.23c1.73-3.47,1.88-9.85.32-13.39l-25.56-57.77c-1.7-3.86-1.54-7.81.44-10.86s5.54-4.79,9.75-4.79h43.06a37.66,37.66,0,0,0,15.57-4.23l74.75-43.91a153,153,0,0,1,18-8.77L344.35,381a9.09,9.09,0,0,0,5.17-8.3l-2.79-34.41a19,19,0,0,1,11.17-18.18l14-5.74a12.78,12.78,0,0,1,17.66,9.17l11.65,50.81a6.26,6.26,0,0,0,6.54,4.65l60.59-6.61a39.23,39.23,0,0,1,20.94,4.38l3.45,2a2.74,2.74,0,0,0,2.34.4,2.7,2.7,0,0,0,1.35-2l17.07-66.89c1.68-6.56,7.52-13.8,13.58-16.83l40.75-20.37a12.43,12.43,0,0,0,6-9.68v-1a3.09,3.09,0,0,0-3.9-3.29l-38,6.44a15.47,15.47,0,0,1-17.34-11.41l-9.45-38.77c-1.64-6.72.5-15.77,5-21.05l28.12-33.14a3.68,3.68,0,0,0,.67-1,3.73,3.73,0,0,0-1.16-.4l-11.52-2.34a33.77,33.77,0,0,0-6.47-.77l0,.08-36.35,59a21.44,21.44,0,0,0-2.13,13.89l8.32,32.89a32.69,32.69,0,0,1-2.79,21.37L452.6,345.39c-3.32,6-10.89,11.37-17.62,12.56l-19.16,3.39a14.6,14.6,0,0,1-16.88-11.72l-10.54-57.4a5.61,5.61,0,0,0-6-4.45l-37.88,4.49a12.51,12.51,0,0,1-14.31-13.66l3.45-47.83c.49-6.81,5.09-14.9,10.69-18.81l49.44-34.52a56.55,56.55,0,0,0,12.06-12.31l64.73-97a56,56,0,0,1,15.22-14.48l51.61-30.84c6-3.6,15.3-4,21.6-.9L661.62,72.2c6.57,3.22,11.14,11.44,10.39,18.72l-2,19.59a14.68,14.68,0,0,1-15.87,13.07l-30.28-2.75,27.25,27.25a2.84,2.84,0,0,0,4.78-.46l30.93-46.23c2.11-3.16,2.9-9.31,1.65-12.9l-5.24-15a51,51,0,0,1-2-21c.65-4.27,2.93-7.43,6.25-8.68s7.17-.35,10.5,2.47l23,19.43a4.52,4.52,0,0,0,6.53-.63l40.16-50.21a15.5,15.5,0,0,1,20.56-3.19l79.7,53.13a114.21,114.21,0,0,1,15.58,13l65.55,67.41A43.5,43.5,0,0,1,959,164.09l31.84,159.55a13.51,13.51,0,0,1-12,16.28L903.76,348a9.41,9.41,0,0,0-7.37,6.69L879,438.23c-.73,3.52,1.06,8.86,3.75,11.23L907,470.66a12.93,12.93,0,0,1-.15,20l-91.21,77.46c-5.11,4.34-14,7-20.66,6.31l-33.58-3.74a42.68,42.68,0,0,0-16.41,2.07l-26.82,10.16a14.42,14.42,0,0,1-18.67-8.49l-4.4-11.85c-1.22-3.3-5.53-6.71-9-7.15l-15.63-1.95a9.13,9.13,0,0,0-8.54,4.8l-20.23,45.16a52.67,52.67,0,0,0-3.29,9.05l4.56,44.78a16.78,16.78,0,0,1-11.83,17.41l-24.36,6.9A143.23,143.23,0,0,0,589.31,688l-24,11.06a5.42,5.42,0,0,0-2.69,6.8l10.08,24.84a18.16,18.16,0,0,1-5.64,20.48l-24.79,18.74A13.5,13.5,0,0,1,534.16,772.68ZM402.32,564.8c.24,0,.47,0,.71,0,3.61.27,6.81,2.58,8.79,6.34L435,614.93A33.37,33.37,0,0,0,446,626.17l46.58,25.59a18.14,18.14,0,0,1,8.53,19.45l-4,16A23.94,23.94,0,0,0,499,701.68l32.28,59.38a3.26,3.26,0,0,0,5.17,1.11l24.78-18.74a8.45,8.45,0,0,0,2.52-9.12l-10.09-24.84a15.14,15.14,0,0,1,7.61-19.23l24-11.06a151.4,151.4,0,0,1,18.81-6.94l24.35-6.9a7.15,7.15,0,0,0,4.84-7.12l-4.59-45.13c-.33-3.28,2.77-10.63,4.12-13.64L653,554.3a18.77,18.77,0,0,1,18.57-10.46l15.63,2a22.15,22.15,0,0,1,16.91,13.39L708.52,571a4.76,4.76,0,0,0,6.17,2.8l26.82-10.16A52.87,52.87,0,0,1,762.43,561L796,564.79a20.84,20.84,0,0,0,13.33-4.08l91.2-77.46a3.27,3.27,0,0,0,0-5.31l-24.21-21.2c-5.36-4.7-8.31-13.5-6.86-20.48l17.41-83.54a19.07,19.07,0,0,1,15.82-14.33l.52,4.81-.52-4.81,75.1-8.09a3.84,3.84,0,0,0,3.5-4.77L949.49,166a34,34,0,0,0-7.36-14L876.58,84.57a106.25,106.25,0,0,0-14-11.65l-79.7-53.13A5.9,5.9,0,0,0,775.24,21l-40.16,50.2a14.2,14.2,0,0,1-20.34,2l-23-19.43a5.45,5.45,0,0,0-.74-.53,4.43,4.43,0,0,0-.19.81,41,41,0,0,0,1.52,16.31l5.23,15c2.27,6.5,1.1,15.73-2.74,21.46L663.94,153a12.48,12.48,0,0,1-19.67,1.93l-29.86-29.86c-4.55-4.56-3.82-8.26-3-10.06s3.21-4.74,9.63-4.15L655,114a5,5,0,0,0,5.37-4.43l2-19.58a10.18,10.18,0,0,0-5-9L554.74,30.61c-3.32-1.62-9.22-1.38-12.39.52L490.74,62a46.13,46.13,0,0,0-12.13,11.55l-64.74,97a65.85,65.85,0,0,1-14.56,14.87L349.87,219.9c-3.17,2.21-6.3,7.72-6.58,11.57l-3.45,47.82a3.3,3.3,0,0,0,.84,2.65,3.23,3.23,0,0,0,2.68.71l37.88-4.49a15.36,15.36,0,0,1,16.68,12.31l10.54,57.41a4.91,4.91,0,0,0,5.67,3.94l19.17-3.4c3.8-.67,9-4.36,10.84-7.73l34.14-61.46a23.37,23.37,0,0,0,1.87-14.31L471.83,232c-1.64-6.48-.23-15.66,3.28-21.35L512.51,150c.78-1.26,2.83-4.6,15.63-2l11.52,2.35c4.21.85,7.3,3.29,8.47,6.68s.26,7.22-2.53,10.5l-28.12,33.14c-2.44,2.88-3.85,8.84-3,12.5L524,251.92a5.72,5.72,0,0,0,6.32,4.16l38-6.44a12.73,12.73,0,0,1,15.18,12.83v1a21.81,21.81,0,0,1-11.33,18.33l-40.74,20.38c-3.5,1.74-7.56,6.78-8.53,10.57L505.82,379.6a11.79,11.79,0,0,1-17.89,7.56l-3.44-2A30.1,30.1,0,0,0,469.41,382l-60.59,6.61a15.93,15.93,0,0,1-17-12.11l-11.64-50.81a3.13,3.13,0,0,0-4.57-2.37l-14,5.74a9.32,9.32,0,0,0-5.18,8.44l2.79,34.41A18.73,18.73,0,0,1,347.9,390L318,401.8a143.31,143.31,0,0,0-16.67,8.12l-74.76,43.9a47,47,0,0,1-20.47,5.57H163.05c-1.14,0-1.59.31-1.64.39s-.16.62.3,1.66l25.56,57.78c2.75,6.23,2.54,15.53-.51,21.63l-13.12,26.23a15.87,15.87,0,0,1-19.4,7.72L81,548.05a7.89,7.89,0,0,0-8.65,2.89L23.37,626.16a45.15,45.15,0,0,0-5.77,15.68l-2.37,18.45a4.87,4.87,0,0,0,4.19,5.44l17.66,2.32a18.79,18.79,0,0,1,15.34,14.79l2,12a9.45,9.45,0,0,0,7.12,7l13.28,2a44,44,0,0,0,16.59-1.35l62.85-20.2c3.65-1.17,8.18-5.52,9.5-9.11l3.47-9.42c2.32-6.29,8.72-13,14.9-15.64L222.41,631A24.57,24.57,0,0,0,233,620.81l4.78-10.09A16.72,16.72,0,0,1,256.89,602l7.48,2.08a38.47,38.47,0,0,0,16.2.16l37.86-9.71a21.29,21.29,0,0,1,20.46,6.66l51.54,62.4a70.17,70.17,0,0,0,13.19,11.69l6.36,4.09a46.43,46.43,0,0,1,14.19,15.79L432,710.73a12.64,12.64,0,0,1-7.91,18.19l-39.63,11.67,16.71,10.14a9.06,9.06,0,0,0,9.71-.92l29.66-26.75c2.79-2.52,4.93-8.21,4.49-11.94l-.64-5.45c-.64-5.41-.36-13,1.4-17.16A7.57,7.57,0,0,1,451.2,684c3.56-.76,7.77.83,11.56,4.34l5.4,5a13.19,13.19,0,0,0-4.32-5.38l-46.1-32.42a58.37,58.37,0,0,1-14.22-15.38l-21.1-35.61a20.46,20.46,0,0,1,1.08-21.45l9.89-13.38A11.23,11.23,0,0,1,402.32,564.8Zm236,47.83Z"/><path class="cls-1" d="M234.06,436.73a14.42,14.42,0,0,1-2-.13l-76.61-10c-6.25-.81-8-3.79-8.38-6.14s.38-5.72,6.07-8.43l20.49-9.73-.94-.42a12.22,12.22,0,0,1-4.94-19l5.83-7.79A192,192,0,0,1,186.5,360l12.69-13.16a3.67,3.67,0,0,0,1.27-2.75,1.44,1.44,0,0,0-.81-1.07c-5.2-3.12-10.07-10.47-11.33-17.1l-8-41.95A15.94,15.94,0,0,1,191,266l33.8-10.64a18.54,18.54,0,0,1,20.08,7.08l6.68,10c4.06,6.09,3.85,15.49-.48,21.4l-9.84,13.42c-2.22,3-3.17,9-2,12.59l21,63a34.48,34.48,0,0,1-.79,21.51l-9,21.63A18.35,18.35,0,0,1,234.06,436.73Zm-70.65-18.82,69.91,9.1a8.5,8.5,0,0,0,8.23-4.75l9-21.63a25.25,25.25,0,0,0,.54-14.73l-21-63c-2.19-6.59-.75-15.77,3.35-21.37l9.85-13.43a10.13,10.13,0,0,0,.23-10.31l-6.69-10a8.78,8.78,0,0,0-9.11-3.22L194,275.21a6.29,6.29,0,0,0-4.12,6.9l8,41.95c.81,4.22,4.26,9.09,6.81,10.61a11,11,0,0,1,5.42,8.11,13.06,13.06,0,0,1-3.89,10.72l-12.69,13.17a181,181,0,0,0-12.13,14.25l-5.82,7.78a2.61,2.61,0,0,0,1.14,4.39l1.68.75c5.86,2.62,6.53,6.73,6.55,8.37s-.56,5.77-6.35,8.52Z"/><path class="cls-1" d="M116.55,382.34A16.65,16.65,0,0,1,101,371.41l-3.37-9.76a19.18,19.18,0,0,1,6.18-20.44l45.57-34.72a15.53,15.53,0,0,1,20.68,2l10.36,11.66a17.55,17.55,0,0,1,1.13,21.14L163.8,366.18h0c-3.87,5.41-11.73,10.34-18.29,11.46l-26.4,4.49A15.79,15.79,0,0,1,116.55,382.34Zm42.07-69.25a5.52,5.52,0,0,0-3.34,1.09L109.71,348.9a9.51,9.51,0,0,0-2.9,9.59l3.36,9.77a7,7,0,0,0,7.31,4.33l26.4-4.49a22.12,22.12,0,0,0,12-7.55h0l17.79-24.89a7.86,7.86,0,0,0-.49-9.08l-10.36-11.66A5.7,5.7,0,0,0,158.62,313.09Zm1.24,50.28h0Z"/><path class="cls-1" d="M186.17,103.19H146.49a33.37,33.37,0,0,1-20.08-7.79l-8-7.27a21.41,21.41,0,0,1-5.69-20.77l7.91-26c2-6.66,8.56-13.27,15.18-15.36a18,18,0,0,1,19.91,7.32l3.71,5.88a27.37,27.37,0,0,0,11.8,9.37l27.68,9.62a14.75,14.75,0,0,1,9.13,18.45l-4.61,14A19.14,19.14,0,0,1,186.17,103.19ZM140.69,34.94a6.18,6.18,0,0,0-1.93.29c-3.54,1.11-7.75,5.38-8.84,9l-7.91,26A12,12,0,0,0,125,81l8,7.27a24,24,0,0,0,13.56,5.26h39.68a9.5,9.5,0,0,0,8.1-5.86h0l4.61-14a5,5,0,0,0-3.12-6.29l-27.68-9.62a36.58,36.58,0,0,1-16.81-13.35l-3.71-5.88A8.44,8.44,0,0,0,140.69,34.94Z"/><path class="cls-1" d="M320,708.24a13.78,13.78,0,0,1-3.87-.56l-6.9-2a16.42,16.42,0,0,1-11.46-17.58l2.29-17.26a19.47,19.47,0,0,1,14.58-15.64l4.59-1A11.87,11.87,0,0,1,334,667l-1.76,29.39a12.6,12.6,0,0,1-5.17,9.71A12.09,12.09,0,0,1,320,708.24Zm2.08-44.62a5,5,0,0,0-.9.1l-4.59.95a9.8,9.8,0,0,0-6.93,7.43l-2.29,17.27a6.81,6.81,0,0,0,4.57,7h0l6.9,2a2.58,2.58,0,0,0,3.68-2.59l1.76-29.39a2.79,2.79,0,0,0-.71-2.32A2.24,2.24,0,0,0,322.11,663.62Z"/><path class="cls-1" d="M324.23,662.84c-5.77,0-9.28-7.12-10.55-13.21a40.46,40.46,0,0,1,2.14-21.13l2.43-5.74h0c2-4.81,4.77-7,8.11-6.33s5.13,3.57,5.33,8.8l.88,22.92c.09,2.59,0,9-3.45,12.52A6.76,6.76,0,0,1,324.23,662.84Zm1.46-9.27h0Z"/><path class="cls-1" d="M588.4,806.5a19.24,19.24,0,0,1-2-.1L572.1,805c-8.12-.78-14-5.5-14-11.23a8.46,8.46,0,0,1,2.76-6.14c2.68-2.55,7.17-3.92,12-3.67l24.22,1.25c4.84.26,8.43,2.27,9.85,5.52,1.24,2.86.61,6.1-1.73,8.89C601.76,803.73,594.83,806.5,588.4,806.5Zm-19.72-12.42a10.61,10.61,0,0,0,4.34,1.31h0l14.28,1.37a16,16,0,0,0,8.6-1.9l-23.56-1.22A10.05,10.05,0,0,0,568.68,794.08Z"/><path class="cls-1" d="M219.33,688.66A15.4,15.4,0,0,1,208.55,684h0a12.13,12.13,0,0,1-3.61-9.8,13,13,0,0,1,6-9.43l2.5-1.64a13,13,0,0,1,11.36-1.82,10.5,10.5,0,0,1,6.56,6.79c2,6.14.21,13.77-4.29,17.73A11.6,11.6,0,0,1,219.33,688.66Zm-3.93-11.51c2,2,4.46,2.16,5.31,1.42,1.42-1.26,2.4-4.78,1.51-7.42-.19-.58-.44-.67-.56-.71a3.69,3.69,0,0,0-2.88.78l-2.51,1.64a3.45,3.45,0,0,0-1.7,2.33,2.4,2.4,0,0,0,.83,2Z"/></g></g></svg>