<svg xmlns="http://www.w3.org/2000/svg" viewBox="0 0 759.3 808"><defs><style>.cls-1{fill:#3e566c;}</style></defs><g id="Layer_2" data-name="Layer 2"><g id="Layer_1-2" data-name="Layer 1"><path class="cls-1" d="M735.36,775.55a8.52,8.52,0,0,1-8.51,8.51H320.46a42.13,42.13,0,0,0,4.06-20.78l-14-228.51H697.22a38.18,38.18,0,0,1,38.14,38.13V775.55Zm-366-346.86H416l3.34,82.13h-53.2l3.25-82.13Zm122.3,0h46.62l3.34,82.13h-53.2l3.24-82.13Zm123.8,0h46.62l3.33,82.13H612.23l3.24-82.13ZM295.73,778.33a18,18,0,0,1-13.25,5.73H42.12A18.2,18.2,0,0,1,24,764.79l1.64-27.38H298.13c.27,0,.54,0,.81,0l1.69,27.39a18,18,0,0,1-4.9,13.58ZM28.75,685h267l1.75,28.5H27.05l1.7-28.5ZM45.39,406.78H278.61l7.18,116.75L294.25,661H30.18L45.39,406.78Zm3.14-52.45H275.39l1.75,28.51H46.83l1.7-28.51Zm1.64-27.4a18.22,18.22,0,0,1,18.16-17.1H255.55A18.22,18.22,0,0,1,273.7,326.9l.21,3.49H50l.2-3.46ZM697.22,510.82h-7.84l-3.5-86.55c0-.09,0-.18,0-.27a20.58,20.58,0,0,0-20.49-19.25H612.19a20.57,20.57,0,0,0-20.5,19.3c0,.08,0,.16,0,.25l-3.41,86.52H565.59l-3.52-86.55a1.69,1.69,0,0,0,0-.23,20.56,20.56,0,0,0-20.5-19.29H488.39a20.54,20.54,0,0,0-20.49,19.33,1.55,1.55,0,0,0,0,.22l-3.42,86.52H443.28l-3.51-86.55c0-.08,0-.16,0-.24a20.56,20.56,0,0,0-20.5-19.28H366.09a20.54,20.54,0,0,0-20.5,19.33c0,.07,0,.14,0,.22l-3.42,86.52H309L297.59,325.43a42.19,42.19,0,0,0-42-39.55H68.33a42.2,42.2,0,0,0-42.06,39.61l-.71,12a11.87,11.87,0,0,0-1,4.88,12.07,12.07,0,0,0,.54,3.58L.07,763.36A42.13,42.13,0,0,0,42.12,808H726.85a32.49,32.49,0,0,0,32.45-32.45V572.9a62.15,62.15,0,0,0-62.08-62.08Z"/><path class="cls-1" d="M155.59,214.6c-4.62-6.18-10.71-15.82-14.31-25.87a10.67,10.67,0,0,0-.45-1.31c-2.56-7.65-3.59-15.46-1.35-22.11,6.84-20.22,34.2-51.1,44.29-61.42a.6.6,0,0,1,.08-.08h0l0,0a8.54,8.54,0,0,0,.74-.84c.16-.19.3-.4.44-.6s.17-.22.25-.34l0,0,0-.05c2-3,4-6.28,6.07-9.7,3.47-5.75,6.92-11.85,10.24-18.14,1.93-3.66,3.79-7.32,5.54-10.9C212,53.43,215.42,45.41,218.17,39l1.37-3.2a70.14,70.14,0,0,1,2.67,26.85c-3.15,33.3-7.28,63.13-25.89,90.86-6.1,9.08-11.62,17.56-17.2,26.17l-.09.13-.06.1-.67,1c-8.49,13.08-16.16,24.91-22.71,33.68Zm-42.74,10.22c-23-19.08-46.47-55.55-44.1-90.74C70.43,111,79.41,96.21,88.93,86.83a80,80,0,0,0-.23,17.33c2.88,30.57,6.76,58.09,25,85.31q2.63,3.9,5.09,7.67c6.91,19.2,19.53,34.44,21.75,37a11.85,11.85,0,0,0,4.68,3.32,12,12,0,0,0,1.74,2.7c-8.57,1-21.36-4.75-34.14-15.37Zm.37-138.43c2,4.77,4.54,10.43,7.78,17,1.55,3.16,3.06,6.13,4.62,9.07,2.6,4.94,5.31,9.74,8,14.3a160.57,160.57,0,0,0-13.15,21.88c-4.54-14.42-6.37-29.72-8-46.79a56.15,56.15,0,0,1,.69-15.51Zm131.59-48c13.53,11.55,27.66,31.35,29.79,64.37a11.9,11.9,0,0,0,.71,3.34C276,148,249,189.48,221,212.82c-17.37,14.44-35,21.59-46,18.67-.56-.15-1.12-.34-1.69-.55,7.35-9.59,15.52-22.16,25.13-37l.68-1c5.58-8.6,11.09-17.06,17.14-26.08,21.74-32.4,26.38-65.33,29.84-101.95a94.4,94.4,0,0,0-1.23-26.53ZM180.07,256.05c16.93,0,36.79-8.67,56.22-24.83,34-28.31,66.6-80.28,62.66-132.6,0-.17,0-.34,0-.5a11.89,11.89,0,0,0-1-4c-4.34-38.62-22.77-61.69-37.94-74.43A99.2,99.2,0,0,0,224.93.5a12,12,0,0,0-8.48.61c-10.06,4.49-14.14,14-20.3,28.45-2.64,6.19-5.93,13.89-10.42,23.06-1.64,3.36-3.39,6.81-5.2,10.24-3.11,5.88-6.33,11.59-9.57,17-1.72,2.86-3.42,5.57-5.06,8.11-2.31,2.4-8.79,9.26-16.42,18.37-.9-1.64-1.81-3.3-2.7-5-1.44-2.72-2.84-5.48-4.28-8.41-3.69-7.54-6.4-13.89-8.58-19-5.11-12-8.81-20.64-18-24.7l-.2-.08a12,12,0,0,0-7.45-.59c-1.57.38-15.69,4-30.46,16.15C64.21,75.85,47.62,96.51,44.91,131.83a1.1,1.1,0,0,0,0,.18,1.48,1.48,0,0,0,0,.21c0,.38-.07.75-.09,1.14a7.85,7.85,0,0,0,0,.84c-2.13,43.22,24.72,85.73,52.77,109,16.59,13.78,33.09,21,47.55,21A39.39,39.39,0,0,0,155.18,263a38.44,38.44,0,0,0,9.36-3.91h0c.68-.4,2.22-1.34,6.42-3.94a44.63,44.63,0,0,0,9.12.93Z"/></g></g></svg>