<svg xmlns="http://www.w3.org/2000/svg" viewBox="0 0 840.65 834.76"><defs><style>.cls-1{fill:none;stroke:#3e566c;stroke-linecap:round;stroke-linejoin:round;stroke-width:24px;}</style></defs><g id="Layer_2" data-name="Layer 2"><g id="Layer_1-2" data-name="Layer 1"><g id="The_position" data-name="The position"><path class="cls-1" d="M443.32,686.3l-.84,109.11a26.88,26.88,0,0,1-27,26.6L38.6,819.12a26.88,26.88,0,0,1-26.6-27l1.73-226a26.88,26.88,0,0,1,27-26.59H175.67"/><line class="cls-1" x1="13.1" y1="662.76" x2="105.73" y2="663.47"/><path class="cls-1" d="M127.71,539.36l.26-33.95c.12-16.62,11.17-30.89,26.72-37"/><path class="cls-1" d="M124.29,717.14h0A18.54,18.54,0,0,1,106,698.53l.54-70.11a18.55,18.55,0,0,1,18.62-18.34h0a18.53,18.53,0,0,1,18.33,18.62l-.54,70.11A18.52,18.52,0,0,1,124.29,717.14Z"/><path class="cls-1" d="M350.28,676.59l-.1,23.81a18.52,18.52,0,0,1-18.61,18.33h0a18.53,18.53,0,0,1-18.33-18.62l.26-35.05"/><line class="cls-1" x1="143.17" y1="663.75" x2="313.5" y2="665.06"/><g id="presentation_skills" data-name="presentation skills"><path class="cls-1" d="M177.55,227.55v16.56c0,14-16.88,25.46-37.52,25.46h0c-20.63,0-37.51-11.45-37.51-25.46V227.55"/><path class="cls-1" d="M140,14.57h0c-47.09,0-86.09,35.76-90.33,81l-.4,0h0c-15.77,0-28.67,12.68-28.67,28.18s12.9,28.19,28.67,28.19h0l.4,0c4.24,45.26,43.24,81,90.33,81h0c47.1,0,86.09-35.75,90.33-81l.4,0c15.77,0,28.67-12.69,28.67-28.19s-12.9-28.18-28.67-28.18l-.4,0"/><path class="cls-1" d="M194.14,60v54.35a18.08,18.08,0,0,0,20.77,17.83c8.94-1.33,15.3-9.46,15.3-18.49V36.16a21.59,21.59,0,0,0-21.59-21.59H140c-82.5,5.92-90.14,80.72-90.17,81h0v18.76a18.08,18.08,0,0,0,20.77,17.83c8.94-1.33,15.3-9.46,15.3-18.49V85.06s55.56,18,108.21-16.35"/><path class="cls-1" d="M133.8,406.14H32.63A20.63,20.63,0,0,1,12,385.51V331.87c0-48.78,40.48-88.86,90.52-90.28"/></g><g id="presentation_skills-2" data-name="presentation skills"><path class="cls-1" d="M735.38,225v16.57c0,14-16.89,25.46-37.52,25.46h0c-20.63,0-37.51-11.46-37.51-25.46V225"/><path class="cls-1" d="M697.86,12h0c-47.09,0-86.09,35.76-90.33,81l-.4,0h0c-15.77,0-28.67,12.68-28.67,28.18s12.9,28.19,28.67,28.19h0l.4,0c4.24,45.26,43.24,81,90.33,81h0c47.1,0,86.09-35.76,90.33-81l.4,0c15.77,0,28.67-12.69,28.67-28.19S804.36,93,788.59,93l-.4,0"/><path class="cls-1" d="M752,57.43v54.36a18.09,18.09,0,0,0,20.77,17.83c8.94-1.34,15.3-9.46,15.3-18.5V33.59A21.59,21.59,0,0,0,766.44,12H697.85c-82.49,5.92-90.13,80.72-90.16,81h0v18.77a18.08,18.08,0,0,0,20.77,17.83c8.94-1.34,15.3-9.46,15.3-18.5V82.49s55.56,18,108.2-16.35"/><path class="cls-1" d="M735.38,239c51.29,0,93.27,40.65,93.27,90.32v53.64A20.63,20.63,0,0,1,808,403.57H714.83"/></g><g id="presentation_skills-3" data-name="presentation skills"><path class="cls-1" d="M457.71,442.14v18.22c0,15.41-18.58,28-41.28,28h0c-22.71,0-41.29-12.61-41.29-28V442.14"/><path class="cls-1" d="M416.43,207.75h0c-51.83,0-94.75,39.35-99.41,89.16l-.44,0h0c-17.36,0-31.55,13.95-31.55,31s14.19,31,31.55,31h0l.44,0c4.66,49.81,47.58,89.16,99.41,89.16h0c51.82,0,94.74-39.35,99.4-89.16l.45,0c17.35,0,31.55-14,31.55-31s-14.2-31-31.55-31l-.45,0"/><rect class="cls-1" x="400.78" y="511.18" width="34.32" height="100.55" rx="17.16"/><path class="cls-1" d="M476,257.74v59.82a19.89,19.89,0,0,0,22.86,19.62c9.83-1.47,16.83-10.41,16.83-20.35V231.51a23.76,23.76,0,0,0-23.76-23.76H416.42c-90.78,6.51-99.2,88.83-99.23,89.16h0v20.65a19.89,19.89,0,0,0,22.86,19.62c9.84-1.47,16.83-10.41,16.83-20.35V285.32S418,305.11,476,267.33"/><path class="cls-1" d="M275.53,556.93c0-53.68,44.54-97.78,99.61-99.34"/><path class="cls-1" d="M457.71,457.54c56.46,0,102.65,44.73,102.65,99.39"/></g><g id="search"><circle class="cls-1" cx="423.91" cy="403.57" r="251.97"/><path class="cls-1" d="M607.44,667.23,730.9,802.39c21.19,22.54,53.34,27.07,71.43,10.06h0c18.09-17,15.56-49.37-5.64-71.91L672.51,607.4"/></g><path class="cls-1" d="M644.94,524.64l38,41.31a23.54,23.54,0,0,1-1.39,33.16L597,676.86a23.52,23.52,0,0,1-33.15-1.39l-38-41.37"/></g></g></g></svg>