<svg xmlns="http://www.w3.org/2000/svg" viewBox="0 0 122.97 36.19"><defs><style>.cls-1{fill:#dbdbdb;}.cls-1,.cls-2,.cls-3,.cls-4{fill-rule:evenodd;}.cls-2,.cls-5{fill:#77b6e5;}.cls-3{fill:#a2daf9;}.cls-4{fill:#edebeb;}</style></defs><g id="Layer_2" data-name="Layer 2"><g id="illustration"><path class="cls-1" d="M106.15,18.36H10.63L0,22.49v3.78c25.7,7.21,33.66,9.79,39.48,9.79H98.07c3.68,0,12.79.13,18.5-1.85,7.23-2.49,9.33-8.3,1-10.11C115.37,21.32,112.93,18.36,106.15,18.36Z"/><polygon class="cls-2" points="2.15 0 13.56 0 23.24 12.39 35.36 18.36 10.63 18.36 2.15 0"/><path class="cls-2" d="M122,30.75H16c24.14,6.77,11.83,5.31,82.09,5.31,3.68,0,12.79.13,18.5-1.85A11.73,11.73,0,0,0,122,30.75Z"/><polygon class="cls-3" points="1.65 26.73 1.65 21.85 0 22.49 0 26.27 1.65 26.73"/><path class="cls-2" d="M22.64,25.51,5.28,20.39H.82l10.62,6.32c9.94,0,7.88.13,10.5-.46Z"/><path class="cls-4" d="M10.7,18.36c20.43,6.29,28.36,9.09,33.68,9.09h53.4c3.36,0,11.66.13,16.86-1.84a12.88,12.88,0,0,0,2.94-1.54c-2.22-2.77-4.67-5.71-11.43-5.71Z"/><path class="cls-2" d="M117.17,24.1h.43c-.55-.69-1.12-1.39-1.76-2.06h-1.68l1.42,2.06Zm-2,0h-2.59V22h1.17l1.42,2.06Zm-3-2.06h-.74l-.46.47V24.1h1.2Z"/><path class="cls-5" d="M99.05,22.87v.65a1,1,0,0,1-2,0v-.65A1,1,0,0,1,99.05,22.87Z"/><path class="cls-5" d="M95.32,22.87v.65a1,1,0,0,1-2,0v-.65A1,1,0,0,1,95.32,22.87Z"/><path class="cls-5" d="M91.59,22.87v.65a1,1,0,0,1-2,0v-.65A1,1,0,0,1,91.59,22.87Z"/><path class="cls-5" d="M87.86,22.87v.65a1,1,0,0,1-2,0v-.65A1,1,0,0,1,87.86,22.87Z"/><path class="cls-5" d="M84.13,22.87v.65a1,1,0,0,1-2,0v-.65A1,1,0,0,1,84.13,22.87Z"/><path class="cls-5" d="M80.4,22.87v.65a1,1,0,0,1-2.05,0v-.65A1,1,0,0,1,80.4,22.87Z"/><path class="cls-5" d="M76.67,22.87v.65a1,1,0,0,1-2,0v-.65A1,1,0,0,1,76.67,22.87Z"/><path class="cls-5" d="M72.94,22.87v.65a1,1,0,0,1-2,0v-.65A1,1,0,0,1,72.94,22.87Z"/><path class="cls-5" d="M69.21,22.87v.65a1,1,0,0,1-2,0v-.65A1,1,0,0,1,69.21,22.87Z"/><path class="cls-5" d="M65.48,22.87v.65a1,1,0,0,1-2.05,0v-.65A1,1,0,0,1,65.48,22.87Z"/><path class="cls-5" d="M54.29,22.87v.65a1,1,0,0,1-2,0v-.65A1,1,0,0,1,54.29,22.87Z"/><path class="cls-5" d="M46.83,22.87v.65a1,1,0,0,1-2,0v-.65A1,1,0,0,1,46.83,22.87Z"/><path class="cls-5" d="M43.1,22.87v.65a1,1,0,0,1-2.05,0v-.65A1,1,0,0,1,43.1,22.87Z"/><path class="cls-5" d="M39.37,22.87v.65a1,1,0,0,1-2,0v-.65A1,1,0,0,1,39.37,22.87Z"/><polygon class="cls-3" points="9.45 0 13.56 0 23.24 12.39 35.36 18.36 20.67 18.36 9.45 0"/><polygon class="cls-3" points="19.9 26.71 21.94 26.25 22.64 25.51 5.28 20.39 19.9 26.71"/><path class="cls-2" d="M89.92,36.06c5.29-3.09.35-8.45-7.64-8.6C72.07,27.26,48,30.13,46,33.73c-.5.92-.23,2.33,1.56,2.33Z"/><path class="cls-3" d="M87.84,36.06c5-1.61,2.24-6.89-5-7-9.3-.16-31.22,2.18-33,5.11-.46.75-.21,1.9,1.42,1.9Z"/><polygon class="cls-3" points="86.21 30.99 55.88 22.01 48.38 12.81 45.73 12.81 50.41 24.23 61.8 34.24 86.21 34.24 86.21 30.99"/><polygon class="cls-2" points="84.71 33.82 54.14 22.72 47.27 12.81 45.73 12.81 50.41 24.23 61.8 34.24 84.71 34.24 84.71 33.82"/></g></g></svg>