<svg xmlns="http://www.w3.org/2000/svg" viewBox="0 0 84.45 121.39"><defs><style>.cls-1{fill:#c6c6c6;}.cls-1,.cls-2,.cls-4,.cls-5,.cls-6,.cls-7,.cls-8{fill-rule:evenodd;}.cls-2{fill:#ef7878;}.cls-3,.cls-5{fill:#f98585;}.cls-4{fill:#ff9292;}.cls-6{fill:#ffe8c7;}.cls-7{fill:#fff2dc;}.cls-8{fill:#dddcdb;}</style></defs><g id="Layer_2" data-name="Layer 2"><g id="illustration"><polygon class="cls-1" points="38.81 101.14 37.05 110.11 36.55 110.08 38.32 101.09 38.81 101.14"/><polygon class="cls-2" points="12.17 66 34.48 121.33 34.8 121.2 12.48 65.87 12.17 66"/><polygon class="cls-2" points="27.16 87.53 38.29 103.21 38.57 103.02 27.43 87.34 27.16 87.53"/><rect class="cls-3" x="39.7" y="98.92" width="4.99" height="2.02" rx="0.25"/><polygon class="cls-4" points="57.26 87.53 46.13 103.21 45.85 103.02 56.99 87.34 57.26 87.53"/><polygon class="cls-4" points="72.25 66 49.94 121.33 49.62 121.2 71.94 65.87 72.25 66"/><path class="cls-5" d="M9.31,11.11C2.37,18-1.36,28.42.46,39.87,3.22,57.26,22.31,80.19,32.46,95H52C62.1,80.19,81.2,57.26,84,39.87,85.78,28.42,82.05,18,75.11,11.11,60.28-3.7,24.14-3.7,9.31,11.11Z"/><path class="cls-6" d="M20.16,11.11C3.18,36.42,24.44,70.53,35.68,95H48.74C60.13,70.2,81.2,36.35,64.26,11.11,54.32-3.7,30.1-3.7,20.16,11.11Z"/><path class="cls-5" d="M33.58,11.11C27,36.34,35.2,70.2,39.65,95h5.12c4.47-24.93,12.69-58.66,6.07-83.89C47-3.7,37.47-3.7,33.58,11.11Z"/><path class="cls-7" d="M44.77,95h4C60.13,70.2,81.2,36.35,64.26,11.11,59.29,3.7,50.75,0,42.21,0c3.34,0,6.68,3.7,8.63,11.11C57.46,36.34,49.22,70.2,44.77,95Z"/><path class="cls-4" d="M42.24,94.72V0c9.66,0,11,24.29,11,34,0,19.54-5.05,41.63-8.49,60.75Z"/><path class="cls-4" d="M48.74,95H52C62.1,80.19,81.2,57.26,84,39.87,87.41,18.13,72.32,0,42.21,0c8.54,0,17.08,3.7,22.05,11.11C81.24,36.42,60,70.53,48.74,95Z"/><polygon class="cls-2" points="27.16 87.53 57.26 87.53 51.96 95 32.46 95 27.16 87.53"/><polygon class="cls-5" points="42.24 87.53 57.26 87.53 51.96 95 42.24 95 42.24 87.53"/><polygon class="cls-8" points="45.61 101.14 47.37 110.11 47.87 110.08 46.1 101.09 45.61 101.14"/><path class="cls-5" d="M36.55,110.05c.16,0,11.41,0,11.43.11l2,11.08a.11.11,0,0,1-.11.13h0c-.18,0-15.39.07-15.39-.11,0,0,2-11.1,2-11.1a.12.12,0,0,1,.11-.11Z"/><path class="cls-4" d="M42.24,100.94v-2h2.19a.25.25,0,0,1,.25.25v1.52a.25.25,0,0,1-.25.25Z"/><path class="cls-1" d="M38.73,100.71c7.08,0,7.24-.27,7.38.42l.49,2.53c0,.22-.18.42-.42.42-7.37,0-8.5.27-8.37-.42l.5-2.53C38.36,100.9,38.5,100.71,38.73,100.71Z"/><path class="cls-8" d="M42.24,104.08v-3.37h3.45c.23,0,.37.2.42.42l.49,2.53c0,.22-.18.42-.42.42Z"/><path class="cls-4" d="M42.24,121.37V110.05h5.63c.14,0,2.06,11,2.09,11.19a.11.11,0,0,1-.11.13H42.24Z"/><polygon class="cls-2" points="44.74 110.05 45.54 121.37 38.88 121.37 39.67 110.05 44.74 110.05"/><polygon class="cls-5" points="42.24 121.37 42.24 110.05 44.74 110.05 45.54 121.37 42.24 121.37"/></g></g></svg>