<svg xmlns="http://www.w3.org/2000/svg" viewBox="0 0 3330.02 383.35"><defs><style>.cls-1{fill:#f0fcff;}.cls-2{fill:#c7f4ff;}</style></defs><g id="Layer_2" data-name="Layer 2"><g id="illustration"><path class="cls-1" d="M2039.15,200.49c-.39-.4-.77-.79-1.14-1.2-.21.41-.44.8-.69,1.2h-37.57a22,22,0,0,1,29.63-30.77,35.44,35.44,0,0,1,69.49-2.15,22.35,22.35,0,0,1,6.51,2.85,25.85,25.85,0,0,1,47.11,14.72c0,.11,0,.21,0,.31a13.68,13.68,0,0,1,20.29,15Z"/><path class="cls-1" d="M1883.76,198.31a24.3,24.3,0,0,0,.39-4.3,23.87,23.87,0,0,0-44.84-11.39,20.83,20.83,0,0,0-24.64-4A26.53,26.53,0,0,0,1785,165.53a30.53,30.53,0,0,0-59.56,4.84,25.45,25.45,0,0,0-3.28-.23A23.87,23.87,0,0,0,1698.32,194a24.3,24.3,0,0,0,.39,4.3Z"/><path class="cls-1" d="M2936.12,242.63a21.73,21.73,0,0,0-21.73,21.73h43.46A21.73,21.73,0,0,0,2936.12,242.63Z"/><path class="cls-1" d="M2779.64,253.26A21.72,21.72,0,0,0,2757.91,275h43.46A21.72,21.72,0,0,0,2779.64,253.26Z"/><path class="cls-1" d="M3259.14,361.62a21.73,21.73,0,0,0-21.73,21.73h43.46A21.73,21.73,0,0,0,3259.14,361.62Z"/><path class="cls-1" d="M1713.7,346.1A21.73,21.73,0,0,0,1692,367.83h43.46A21.73,21.73,0,0,0,1713.7,346.1Z"/><path class="cls-1" d="M2403.39,72.21a21.73,21.73,0,0,0-21.73,21.73h43.45A21.72,21.72,0,0,0,2403.39,72.21Z"/><path class="cls-1" d="M3308.29,229.4a21.73,21.73,0,0,0-21.73,21.73H3330A21.73,21.73,0,0,0,3308.29,229.4Z"/><path class="cls-1" d="M3106.69,106.23a20.64,20.64,0,0,0-14,5.42A29.28,29.28,0,0,0,3038.52,127h88.94A20.76,20.76,0,0,0,3106.69,106.23Z"/><path class="cls-1" d="M2631,66.93a20.66,20.66,0,0,0-14,5.42,29.27,29.27,0,0,0-54.21,15.35h88.94A20.77,20.77,0,0,0,2631,66.93Z"/><path class="cls-1" d="M1972.94,86.56A20.62,20.62,0,0,0,1959,92a29.28,29.28,0,0,0-54.22,15.35h88.94A20.77,20.77,0,0,0,1972.94,86.56Z"/><path class="cls-1" d="M2349.65,205.49a20.67,20.67,0,0,0-14,5.42,29.28,29.28,0,0,0-54.22,15.36h88.94A20.77,20.77,0,0,0,2349.65,205.49Z"/><path class="cls-2" d="M2197.88,127.72a3.37,3.37,0,1,0,3.36,3.37A3.36,3.36,0,0,0,2197.88,127.72Z"/><path class="cls-2" d="M2178.55,141.42a2.5,2.5,0,1,0,2.5,2.5A2.5,2.5,0,0,0,2178.55,141.42Z"/><path class="cls-2" d="M2219.64,147.05a2.89,2.89,0,0,0-4.22-3.91,4.65,4.65,0,0,0-.64-.61,4.94,4.94,0,1,0,1.57,5.44A2.89,2.89,0,0,0,2219.64,147.05Z"/><path class="cls-1" d="M474.22,64.59A28.22,28.22,0,0,1,526.78,46a24.61,24.61,0,0,1,29.13-4.77,31.37,31.37,0,0,1,35-15.44,36.11,36.11,0,0,1,70.43,5.73,27.58,27.58,0,0,1,3.88-.27A28.18,28.18,0,0,1,693,64.59Z"/><path class="cls-1" d="M1350.26,68a24.94,24.94,0,0,0,.41-4.44,24.64,24.64,0,0,0-46.3-11.76,21.49,21.49,0,0,0-25.44-4.16,27.42,27.42,0,0,0-30.6-13.49,31.53,31.53,0,0,0-61.5,5,25,25,0,0,0-3.38-.24,24.64,24.64,0,0,0-24.64,24.64,24,24,0,0,0,.41,4.44Z"/><path class="cls-1" d="M1585.42,90.31a19.76,19.76,0,0,0-13.35,5.18,28,28,0,0,0-51.85,14.68h85.06A19.86,19.86,0,0,0,1585.42,90.31Z"/><path class="cls-1" d="M65.19,131.88a19.74,19.74,0,0,0-13.34,5.18A28,28,0,0,0,0,151.74H85.06A19.87,19.87,0,0,0,65.19,131.88Z"/></g></g></svg>