<svg xmlns="http://www.w3.org/2000/svg" viewBox="0 0 179.75 187.38"><defs><style>.cls-1{fill:#a1d2f7;}.cls-2{fill:#bbe5ff;}.cls-3{fill:#d2f1ff;}.cls-4{fill:#f5f5f5;}</style></defs><g id="Layer_2" data-name="Layer 2"><g id="illustration"><polygon class="cls-1" points="104.78 106.97 179.75 187.38 179.68 180.39 134.91 108.9 110.49 101.65 104.78 106.97"/><polygon class="cls-2" points="121.55 124.95 179.75 187.38 179.68 180.39 151.68 135.68 121.55 124.95"/><polygon class="cls-1" points="112.11 105.13 144.26 0 138.24 3.55 98.71 78.07 104.65 102.85 112.11 105.13"/><polygon class="cls-2" points="119.3 81.62 144.26 0 138.24 3.55 113.52 50.16 119.3 81.62"/><polygon class="cls-1" points="107.12 99.82 0 124.54 6.08 127.98 90.39 124.95 108.87 107.42 107.12 99.82"/><polygon class="cls-2" points="83.16 105.35 0 124.54 6.08 127.98 58.81 126.08 83.16 105.35"/><polygon class="cls-3" points="95.39 106.85 99.19 94.41 111.86 91.49 120.72 101 116.92 113.43 104.25 116.36 95.39 106.85"/><rect class="cls-4" x="104.77" y="92.66" width="6.57" height="22.52" transform="translate(-22.93 176.86) rotate(-72.99)"/></g></g></svg>