<svg xmlns="http://www.w3.org/2000/svg" viewBox="0 0 499.22 253.49"><defs><style>.cls-1{fill:#90bc4a;}.cls-2{fill:#89af41;}.cls-3{fill:#b2877f;}.cls-4{fill:#a3786d;}.cls-5{fill:#7e9e39;}.cls-6{fill:#ead9ce;}.cls-7{fill:#fff4e6;}.cls-8{fill:#3d838e;}.cls-9{fill:#58b5bc;}.cls-10{fill:#448d99;}.cls-11{fill:#72c5ce;}</style></defs><g id="Layer_2" data-name="Layer 2"><g id="illustration"><polygon class="cls-1" points="34.64 90.38 46.93 84.32 54.01 62.33 61.08 84.32 57.43 40.83 54.01 30.18 34.64 90.38"/><polygon class="cls-2" points="77.12 134.18 78.08 145.6 78.08 145.63 81.32 147.22 81.31 147.19 77.12 134.18"/><path class="cls-3" d="M56.35,225c0-5.83-4.73-9.91-10.56-9.91v38.37H56.35Z"/><path class="cls-4" d="M61.55,215.12v-7.83L54,203.57l-8.22,4.05v7.5c5.83,0,10.56,4.08,10.56,9.91v28.46h5.2V215.12Z"/><polygon class="cls-1" points="34.64 90.36 34.64 90.36 34.64 90.36 54.01 30.16 57.43 40.8 54.01 0 26.74 84.77 23.11 96.04 34.64 90.36"/><polygon class="cls-1" points="26.69 147.22 41.19 102.16 27.09 113.83 25.83 117.75 19.55 137.26 14.28 153.64 26.53 147.6 26.65 147.24 26.69 147.22"/><polygon class="cls-1" points="0 230.19 29.33 215.74 36.33 212.29 45.79 207.62 54.01 203.57 61.55 207.29 108.02 230.19 84.2 218.45 80.19 170.69 52.74 149.99 16.02 180.39 12.68 190.76 0 230.19"/><polygon class="cls-1" points="69.91 141.55 66.64 102.51 53.09 92.3 41.19 102.16 26.69 147.22 54.03 133.75 78.08 145.6 78.08 145.58 69.91 141.55"/><polygon class="cls-1" points="46.93 84.3 54.01 80.81 61.08 84.3 61.08 84.3 54.01 62.31 46.93 84.3"/><polygon class="cls-2" points="57.43 40.8 61.08 84.3 61.08 84.3 65.28 86.37 62.84 57.25 73.51 90.42 84.9 96.04 66.99 40.36 65.78 36.6 54.01 0 57.43 40.8"/><polygon class="cls-2" points="73.37 90.36 80.83 113.21 66.64 102.51 69.91 141.55 78.08 145.58 77.12 134.15 81.31 147.17 81.31 147.17 93.6 153.22 93.73 153.29 92.91 150.74 73.51 90.42 62.84 57.25 65.28 86.37 73.37 90.36"/><polygon class="cls-2" points="84.2 218.45 108.02 230.19 91.66 179.34 80.19 170.69 84.2 218.45"/><polygon class="cls-5" points="46.93 84.3 34.64 90.36 34.64 90.36 34.64 90.36 28.48 109.51 27.18 113.55 27.09 113.83 27.09 113.83 41.19 102.16 53.09 92.3 66.64 102.51 80.83 113.21 73.37 90.36 65.28 86.37 61.08 84.3 54.01 80.81 46.93 84.3"/><polygon class="cls-5" points="82.55 150.74 81.54 147.63 81.41 147.24 81.32 147.2 81.32 147.2 78.08 145.6 54.03 133.75 26.69 147.22 26.65 147.24 26.53 147.6 20.08 167.66 15.97 180.43 16.02 180.39 52.74 149.99 80.19 170.69 91.66 179.34 91.66 179.34 91.95 179.56 88.07 167.66 87.99 167.43 82.55 150.74"/><polygon class="cls-6" points="271.09 231 265.43 231 265.43 234.35 265.43 253.07 271.09 253.07 271.09 231"/><polygon class="cls-7" points="271.09 231 271.09 253.07 276.76 253.07 276.76 234.35 276.76 231 271.09 231"/><polygon class="cls-8" points="251.05 200.46 270.57 200.46 282.92 185.98 263.4 185.98 251.05 200.46"/><polygon class="cls-8" points="288.81 185.98 276.46 200.46 295.99 200.46 308.33 185.98 288.81 185.98"/><polygon class="cls-8" points="272.65 204.95 257.43 222.9 276.95 222.9 292.17 204.95 272.65 204.95"/><polygon class="cls-8" points="333.74 185.98 314.22 185.98 301.88 200.46 321.39 200.46 322.16 199.56 333.74 185.98"/><polygon class="cls-8" points="298.06 204.95 282.84 222.9 301.98 222.9 317.5 204.95 298.06 204.95"/><polygon class="cls-8" points="232.02 222.9 251.54 222.9 266.75 204.95 247.24 204.95 232.02 222.9"/><path class="cls-9" d="M221.62,227.38h76.47L302,222.9H282.84l15.22-18H317.5l3.89-4.49H301.88L314.22,186h19.52l-11.58,13.59,15.44-17.84-76.27-.24L254,190Zm48.95-26.92H251.05L263.4,186h19.52Zm-19,22.44H232l15.21-18h19.53Zm25.41,0H257.43l15.22-18h19.52Zm19-22.44H276.46L288.81,186h19.52Z"/><polygon class="cls-10" points="276.76 231 301.71 231 298.09 227.38 221.62 227.38 225.24 231 265.43 231 271.09 231 276.76 231"/><polygon class="cls-6" points="347.57 231 341.9 231 341.9 234.35 341.9 253.07 347.57 253.07 347.57 231"/><polygon class="cls-7" points="347.57 231 347.57 253.07 353.23 253.07 353.23 234.35 353.23 231 347.57 231"/><polygon class="cls-8" points="365.29 185.98 352.94 200.46 372.46 200.46 384.81 185.98 365.29 185.98"/><polygon class="cls-8" points="410.22 185.98 390.7 185.98 378.35 200.46 397.86 200.46 398.63 199.57 410.22 185.98"/><polygon class="cls-8" points="333.9 222.9 353.42 222.9 368.64 204.95 349.12 204.95 333.9 222.9"/><polygon class="cls-8" points="393.98 204.95 374.53 204.95 359.31 222.9 378.45 222.9 393.98 204.95"/><polygon class="cls-8" points="327.53 200.46 347.05 200.46 359.39 185.98 339.87 185.98 327.53 200.46"/><polygon class="cls-8" points="323.71 204.95 308.49 222.9 328.01 222.9 343.23 204.95 323.71 204.95"/><path class="cls-9" d="M322.16,199.57l-.77.89L317.5,205,302,222.9l-3.89,4.48h76.48l3.88-4.48H359.31l15.22-18H394l3.88-4.49H378.35L390.7,186h19.52l-11.59,13.59,15.44-17.84-76.27-.24-.2.24ZM359.39,186l-12.34,14.48H327.53L339.87,186ZM328,222.9H308.49l15.22-18h19.52Zm25.41,0H333.9l15.22-18h19.52Zm19-22.44H352.94L365.29,186h19.52Z"/><polygon class="cls-10" points="307.9 231 341.9 231 347.57 231 353.23 231 378.19 231 374.57 227.38 304.35 227.38 298.09 227.38 301.71 231 307.9 231"/><polygon class="cls-6" points="424.04 231 418.38 231 418.38 234.35 418.38 253.07 424.04 253.07 424.04 231"/><polygon class="cls-7" points="424.04 253.07 429.71 253.07 429.71 234.35 429.71 231 424.04 231 424.04 253.07"/><polygon class="cls-8" points="429.41 200.46 448.94 200.46 461.28 185.98 441.76 185.98 429.41 200.46"/><polygon class="cls-8" points="404.49 222.9 419.7 204.95 400.18 204.95 384.96 222.9 404.49 222.9"/><polygon class="cls-8" points="470.53 204.95 451.01 204.95 435.79 222.9 455.31 222.9 470.53 204.95"/><polygon class="cls-8" points="486.69 185.98 467.17 185.98 454.83 200.46 474.35 200.46 486.69 185.98"/><polygon class="cls-8" points="404 200.46 423.52 200.46 435.87 185.98 416.35 185.98 404 200.46"/><polygon class="cls-8" points="429.9 222.9 445.12 204.95 425.6 204.95 410.38 222.9 429.9 222.9"/><path class="cls-9" d="M398.63,199.57l-.77.89L394,205l-15.53,18-3.88,4.48H457.3l38.89-45.64-81.91-.25-.21.24ZM435.87,186l-12.35,14.48H404L416.35,186Zm13.06,14.48H429.41L441.76,186h19.52ZM400.18,205H419.7l-15.21,18H385Zm25.42,0h19.52l-15.22,18H410.38ZM451,205h19.52l-15.22,18H435.79Zm3.82-4.49L467.17,186h19.52l-12.34,14.48Z"/><polygon class="cls-10" points="380.83 227.38 374.57 227.38 378.19 231 384.38 231 418.38 231 424.04 231 429.71 231 460.85 231 457.3 227.38 380.83 227.38"/><polygon class="cls-11" points="457.3 227.38 460.85 231 475.14 213.79 477.52 210.92 494.87 190.01 499.21 184.77 496.19 181.74 457.3 227.38"/></g></g></svg>