<svg xmlns="http://www.w3.org/2000/svg" viewBox="0 0 366.3 167.96"><defs><style>.cls-1{fill:#3d838e;}.cls-2{fill:#58b5bc;}.cls-3{fill:#bad670;}.cls-4{fill:#d3ea8c;}.cls-5{fill:#9cb557;}</style></defs><g id="Layer_2" data-name="Layer 2"><g id="Layer_1-2" data-name="Layer 1"><polygon class="cls-1" points="224.8 1.6 224.8 33.2 1.1 33.5 0.8 1.6 224.8 1.6"/><path class="cls-2" d="M225.8.1,0,0V35.2H225.8ZM3,4.5H18.4V30.4H3Zm20.1,0H38.5V30.4H23.1Zm20.7,0H59.2V30.4H43.8ZM64,4.5H79.4V30.4H64Zm20.6,0H100V30.4H84.6Zm20.1,0h15.4V30.4H104.7Zm20.7,0h15.4V30.4H125.4Zm20.2,0H161V30.4H145.6Zm20.5,0h15.4V30.4H166.1Zm20.7,0h15.4V30.4H186.8Zm20.2,0h15.4V30.4H207Z"/><path class="cls-3" d="M224,28.34a44.78,44.78,0,0,0-5.7,7.3,60.23,60.23,0,0,0-3,5.6,43.35,43.35,0,0,0-4.1,18.4v5.9l-4,4.6a52.77,52.77,0,0,0-7.6,11.6,65,65,0,0,0-2.7,6.6c-.2.7-.5,1.5-.7,2.2s-.3,1.2-.5,1.8a51.07,51.07,0,0,0-1.4,10.3v1.9a52,52,0,0,0,3.2,17.9v.1a47,47,0,0,0,2.5,5.7,56.43,56.43,0,0,0,4,6.7,49.67,49.67,0,0,0,5.9,7,33.28,33.28,0,0,0,3.9,3.6h0c10.5,8.9,24.4,11.2,39.7,11.2a60.89,60.89,0,0,0,28.9-7.4l.1-1.3h1.1l4.3-2.3v.2A59.44,59.44,0,0,0,302.3,132l6.1-8.2,10.7.9c1.2.1,2.3.1,3.4.1,19.3,0,33-10.9,33-29,0-16.3-11-30.2-28.2-32.4l-12.8-1.6-1.6-7.1-1-4.7h0c-2.2-10-15.7-27.8-40-36.9a53.06,53.06,0,0,0-9.7-.9h0c-29.3,8-33.4,36.1-33.8,47.3,6.4-1,13.2-.3,18.6,2.9a56.71,56.71,0,0,0-30.7,13.7,64.87,64.87,0,0,0-10.8,12.6,135.39,135.39,0,0,0-8.8,15.8,36.86,36.86,0,0,1,1.8-19.2,40.89,40.89,0,0,1,11.1-16.6c.6-.5,1.1-1,1.7-1.5v-4.4A50.79,50.79,0,0,1,262,12.34a52.63,52.63,0,0,0-35.8,14C225.3,27,224.7,27.74,224,28.34Zm96.9,81.8a26.78,26.78,0,0,1,1.1-4.9,16.18,16.18,0,0,1,2.7-5,11.33,11.33,0,0,1,2.5,5.3,16.39,16.39,0,0,1,.3,5.4,19.09,19.09,0,0,1-1.4,5.2,11.56,11.56,0,0,1-3.6,4.6,17.42,17.42,0,0,1-1.6-5.5,21.75,21.75,0,0,1,0-5.1Zm-49.7,32a16.81,16.81,0,0,1-3.2-.9,11.81,11.81,0,0,1-2.9-1.6,12.27,12.27,0,0,1-2.9-2.7,7.65,7.65,0,0,1,3.9-1.1,9.52,9.52,0,0,1,6.8,2.8,8.43,8.43,0,0,1,2.1,3.5,8.12,8.12,0,0,1-3.8,0Zm7-7.8a12,12,0,0,1-2.8-2.7,11.65,11.65,0,0,1-1.7-2.8,16,16,0,0,1-1-3.1,12.86,12.86,0,0,1-.3-3.9,7.73,7.73,0,0,1,3.7,1.9,9.41,9.41,0,0,1,3.1,6.7,6.19,6.19,0,0,1-1,3.9Zm17.3-87.5a10.55,10.55,0,0,1-1.2,5.5,13.73,13.73,0,0,1-7.6,6.6,9.75,9.75,0,0,1-5.6.5,21.55,21.55,0,0,1,2.4-4.8,19.93,19.93,0,0,1,6.9-6,25.91,25.91,0,0,1,5.1-1.8Zm-16.6,4.9a15,15,0,0,1-.7,5.1,10.26,10.26,0,0,1-3,4.6,18,18,0,0,1-2.2-4.9,23.38,23.38,0,0,1-.7-4.5,23.72,23.72,0,0,1,.3-4.6,16.41,16.41,0,0,1,1.7-5,9.91,9.91,0,0,1,3.4,4.4,13.58,13.58,0,0,1,1.2,4.9Zm-25.2,14.9a33.26,33.26,0,0,1,35.7,7.3c4.5,4.4,7.7,10.1,8.3,16.2a64,64,0,0,0-13.1-10,46,46,0,0,0-28.8-5.9,62.75,62.75,0,0,0-16,4.1c2.9-5.3,8.1-9.3,13.9-11.7Z"/><path class="cls-4" d="M283.7,54.74a15.45,15.45,0,0,0-2.4,4.8,11.81,11.81,0,0,0,5.6-.5,13.53,13.53,0,0,0,7.5-6.6,10.2,10.2,0,0,0,1.2-5.4,23,23,0,0,0-5,1.8,19.67,19.67,0,0,0-3.8,2.6A14,14,0,0,0,283.7,54.74Z"/><path class="cls-4" d="M274.3,42.34a18,18,0,0,0-1.7,5.1,17.53,17.53,0,0,0-.3,4.6,22.23,22.23,0,0,0,.7,4.5,18,18,0,0,0,2.2,4.9,11.48,11.48,0,0,0,3-4.6,12.39,12.39,0,0,0,.7-5.1,14.64,14.64,0,0,0-1.2-5A9.91,9.91,0,0,0,274.3,42.34Z"/><path class="cls-5" d="M275.9,14.06l-4-.9h-.2c24.3,9.1,37.8,26.9,40,36.9h0l1,4.7,1.6,7.1,12.8,1.6c17.2,2.2,28.2,16.1,28.2,32.4,0,18-13.7,29-33,29-1.1,0-2.2,0-3.4-.1l-10.7-.9-6.1,8.2A61.3,61.3,0,0,1,287.7,146c-.2,7.9-.5,13.5-.5,22a72.53,72.53,0,0,0,9.1-2.6l8.8-18.1,3.6-1.1-6.2,16.5a45.59,45.59,0,0,0,11-8,38.87,38.87,0,0,0,4.6-5.3c1.4.1,2.8.2,4.2.2a43.42,43.42,0,0,0,6.3-.5,42.49,42.49,0,0,0,18.7-8.5c11.5-9,19-23.4,19-37.5,0-14.5-8-27.2-20.1-34.5a46.6,46.6,0,0,0-16.2-6,9.85,9.85,0,0,0-1.7-.2,9.36,9.36,0,0,0-.4-1.6c-1.9-7.2-6.4-15.7-13.6-23.7l-.8-.9A75.69,75.69,0,0,0,275.9,14.06Z"/><path class="cls-4" d="M270.7,74.84a46,46,0,0,1,13.9,5.3,64,64,0,0,1,13.1,10c-.6-6.1-3.8-11.8-8.3-16.2a33.45,33.45,0,0,0-35.7-7.3c-5.8,2.3-11,6.3-13.9,11.7a67.19,67.19,0,0,1,16-4.1A46.55,46.55,0,0,1,270.7,74.84Z"/><path class="cls-4" d="M228.2,64.24l-20.4,9.2,3.3-4.1v-2c-.6.5-1.2,1-1.7,1.5a41.57,41.57,0,0,0-11.1,16.6,37,37,0,0,0-1.8,19.2,162.81,162.81,0,0,1,8.8-15.8,64.87,64.87,0,0,1,10.8-12.6,56.59,56.59,0,0,1,13.7-8.9,62.39,62.39,0,0,1,17-4.8c-5.4-3.2-12.2-4-18.6-2.9A35.3,35.3,0,0,0,228.2,64.24Z"/><path class="cls-4" d="M211.1,62.94v6.4l-3.3,4.1,20.4-9.2a35.29,35.29,0,0,1,0-4.6c.4-11.1,4.5-39.3,33.8-47.3h-.1A51.09,51.09,0,0,0,211.1,62.94Z"/><path class="cls-5" d="M270,136.6a9.37,9.37,0,0,0-3.7-.7,7.39,7.39,0,0,0-3.9,1.1,15,15,0,0,0,2.9,2.7,26.94,26.94,0,0,0,2.9,1.6,14.57,14.57,0,0,0,7.1,1,7,7,0,0,0-2.1-3.5A8,8,0,0,0,270,136.6Z"/><path class="cls-5" d="M276,123.6a8.18,8.18,0,0,0-3.7-1.9,12.86,12.86,0,0,0,.3,3.9,14,14,0,0,0,2.7,5.9,12,12,0,0,0,2.8,2.7,7,7,0,0,0,.9-4,8.89,8.89,0,0,0-3-6.6Z"/><path class="cls-5" d="M322.5,120.6a12.52,12.52,0,0,0,3.6-4.6,13.42,13.42,0,0,0,1.4-5.2,16.39,16.39,0,0,0-.3-5.4,13.6,13.6,0,0,0-2.5-5.3,16.18,16.18,0,0,0-2.7,5,22.3,22.3,0,0,0-1.1,9.9A17.27,17.27,0,0,0,322.5,120.6Z"/></g></g></svg>