<svg xmlns="http://www.w3.org/2000/svg" viewBox="0 0 735.7 413.4"><defs><style>.cls-1{fill:none;}.cls-2{fill:#eef7fb;}.cls-3{fill:#c9d772;}.cls-4{fill:#bbe3f9;}.cls-5{fill:#a1cff0;}.cls-6{fill:#cbda7b;}.cls-7{fill:#7d5d5d;}.cls-8{fill:#8d7272;}.cls-9{fill:#735757;}.cls-10{fill:#fac489;}.cls-11,.cls-72{isolation:isolate;}.cls-11{opacity:0.12;}.cls-12{fill:#806363;}.cls-13{fill:#4d9ea7;}.cls-14{fill:#f6c69d;}.cls-15{fill:#765857;}.cls-16{fill:#448c98;}.cls-17{fill:#fbd8ba;}.cls-18{fill:#eeb07a;}.cls-19{fill:#fdf0e5;}.cls-20{fill:#9e8585;}.cls-21{fill:#846a6a;}.cls-22{fill:#58b7bb;}.cls-23{fill:#9c8081;}.cls-24{fill:#b29796;}.cls-25{fill:#e47373;}.cls-26{fill:#e9e9e9;}.cls-27{fill:#cdcccb;}.cls-28{fill:#c56566;}.cls-29{fill:#b5b4b4;}.cls-30{fill:#dbdad9;}.cls-31{fill:#b5a3a4;}.cls-32{fill:#685050;}.cls-33{fill:#61615f;}.cls-34{fill:#8c8c8c;}.cls-35{fill:#f4f4f4;}.cls-36{fill:#8b8b8b;}.cls-37{fill:#a8a8a8;}.cls-38{fill:#acacac;}.cls-39{fill:#c0bdbd;}.cls-40{fill:#9b9692;}.cls-41{fill:silver;}.cls-42{fill:#dadada;}.cls-43{fill:#7f7f7e;}.cls-44{fill:#6c6c6b;}.cls-45{fill:#aeacab;}.cls-46{fill:#c4c1c2;}.cls-47{fill:#a3a3a3;}.cls-48{fill:#d5d5d5;}.cls-49{fill:#b7b6b6;}.cls-50{fill:#cdcdcc;}.cls-51{fill:#5db2b6;}.cls-52{fill:#c6c5c5;}.cls-53{fill:#989898;}.cls-54{fill:#b8d271;}.cls-55{fill:#d1df8c;}.cls-56{fill:#9bb456;}.cls-57{fill:#9f827f;}.cls-58{fill:#957a74;}.cls-59{fill:#9dc345;}.cls-60{fill:#accb53;}.cls-61{fill:#b1867f;}.cls-62{fill:#a2786d;}.cls-63{fill:#8ac274;}.cls-64{fill:#81be6c;}.cls-65{fill:#79b264;}.cls-66{fill:#3e828d;}.cls-67{fill:#58b4ba;}.cls-68{fill:#fff;}.cls-69{fill:#cb8356;}.cls-70{fill:#623e3b;}.cls-71{fill:#c29177;}.cls-72{opacity:0.1;}.cls-73{fill:#c4e3f0;}.cls-74{fill:#eb624e;}.cls-75{fill:#40403f;}.cls-76{fill:#9c9c9a;}.cls-77{fill:#e9b89e;}.cls-78{fill:#cd9a24;}.cls-79{fill:#6292b1;}.cls-80{fill:#3f3f3e;}.cls-81{fill:#4b4a49;}</style></defs><g id="Layer_2" data-name="Layer 2"><g id="Layer_1-2" data-name="Layer 1"><path class="cls-1" d="M75.9,303.7l2.9,5.1,1.2,2v-7.2C78.7,303.7,77.3,303.7,75.9,303.7Z"/><path class="cls-2" d="M116.6,294.2c-1.2.8-2.4,1.4-3.6,2.1l-3.2,8.5c-1.4,3.7-2.7,7.5-3.8,11.2v.1c-.2.5-.3,1-.5,1.6l-.1.2c-.2.5-.3,1.1-.5,1.7-.1.2-.1.4-.2.6a132,132,0,0,0-3.7,22.5c5-.7,10-1.5,14.8-2.2Z"/><path class="cls-2" d="M98,313.7a.71.71,0,0,0,.8.7,1,1,0,0,0,.7-.4c2.3-4.4,7-14.4,7-14.4l.3-.7a58.84,58.84,0,0,1-9.1,2.6C97.7,305,97.8,309,98,313.7Z"/><path class="cls-2" d="M80,310.8c2.7,4.4,5.4,8.5,7.8,13.2a.48.48,0,0,0,.6.2,1.38,1.38,0,0,0,.3-.4c.7-8.5,1.4-14.8,2.1-21-3.6.5-7.2.7-10.8.9Z"/><path class="cls-2" d="M83.2,331.9l-.2-.6c-.9-2.3-1.9-4.6-2.9-6.8v20.7l6.3-.6A62.21,62.21,0,0,0,83.2,331.9Z"/><path class="cls-3" d="M131.3,350.9H115.6l.2-10.3c-4.8.8-9.8,1.5-14.8,2.2-.2,2.9-.3,5.9-.3,8.8v10.6h30.6Z"/><path class="cls-3" d="M86.6,362.2l.1-8.2a59.16,59.16,0,0,0-.4-9.4c-2.1.2-4.2.5-6.3.6-9.1.9-18,1.4-26.2,1.4H48.9a12.18,12.18,0,0,0-12.2,12.2v3.3Z"/><path class="cls-3" d="M416.1,362.2h2v-1.9c-.6.2-1.3.3-2,.5v1.4Z"/><path class="cls-3" d="M411.2,362.2v-.6a79.34,79.34,0,0,1-9.8.6Z"/><path class="cls-4" d="M115.7,350.9l.9-39.6h14.8v-9.1H116.8l.1-5.6h14.4V283.3a26.35,26.35,0,0,1-2.8-.2,43.8,43.8,0,0,1-12,11.1l-.7,46.4Z"/><polygon class="cls-5" points="131.3 311.3 116.6 311.3 115.7 350.9 131.3 350.9 131.3 311.3"/><polygon class="cls-5" points="116.9 296.5 116.8 302.2 131.3 302.2 131.3 296.5 116.9 296.5"/><path class="cls-6" d="M131.3,370.2v-8H100.7c0,3.6-.1,6.2-.1,8.2a29,29,0,0,1,13.1,13.7A20.16,20.16,0,0,1,131.3,374v-3.8Z"/><path class="cls-6" d="M39.1,402.6h0A12.93,12.93,0,0,1,52,389.7h7.4a28.88,28.88,0,0,1,27.2-22.5l.1-5H0v51.2H44.9A12.81,12.81,0,0,1,39.1,402.6Z"/><path class="cls-6" d="M408.4,389.3a37.76,37.76,0,0,0-2.1-8c0-.1-.1-.3-.1-.4-1.8-4.4-3.7-8.3-5.7-12.6-.7-1.6-1.5-3.5-2.3-5.3v7.3h0v19.4h-247v.1h261c.1-.2.1-.4.2-.5Z"/><path class="cls-6" d="M416.3,369a.47.47,0,0,0,.5.5.55.55,0,0,0,.5-.3l.8-1.6v-5.4h-2C416.1,364.2,416.2,366.4,416.3,369Z"/><path class="cls-6" d="M401.4,362.2c.8,1.3,1.5,2.5,2,3.4,2,3.4,3.7,5.6,5.9,3.7,1.1-1,1.6-3.5,1.9-7.1Z"/><polygon class="cls-7" points="489.8 11.9 471 11.9 471 7.4 470.9 7.4 470.9 28.4 489.8 28.4 489.8 11.9"/><polygon class="cls-8" points="471 7.3 489.9 7.3 489.9 7.4 493 7.4 493 0 467.8 0 467.8 7.4 470.9 7.4 471 7.4 471 7.3"/><polygon class="cls-9" points="471 7.3 471 7.4 471 11.9 489.8 11.9 489.9 11.9 489.9 7.4 489.9 7.3 471 7.3"/><polygon class="cls-8" points="523.8 65.8 523.8 60.8 517.4 64.5 517.4 56.8 552.3 36 588.6 57 588.6 64.5 580.9 60.2 580.9 65.9 580.9 95 641.8 95 645.8 95 668.9 95 668.9 81.5 668.9 28.4 653 28.4 648.8 28.4 489.8 28.4 470.9 28.4 432.5 28.4 432.4 95 523.8 95 523.8 65.8"/><polygon class="cls-7" points="523.8 101.6 523.8 95 432.4 95 432.3 95 432.3 101.6 523.8 101.6"/><polygon class="cls-7" points="580.9 101.6 646 101.6 661.1 101.6 668.9 101.6 668.9 95 645.8 95 641.8 95 580.9 95 580.9 101.6"/><path class="cls-10" d="M432.4,268.9H655.2l9.3-22.7h0l1.8-4.3.2-.5h-7.3l9.7-23.8V107.4h-88v10.4H523.8V107.4H432.3V270.3l.1.1h0ZM600.6,128.2l3.6,3.6h0l-3.6-3.6,53-.1v54h-53Zm0,72.1,3.6,3.6h0l-3.6-3.6,53-.1v54h-53Zm-67.5-72.1,3.6,3.6h0l-3.6-3.6,38.7-.1v54H533.1V128.2Zm0,72.4,3.6,3.6h0l-3.6-3.6,38.7-.1v54H533.1V200.6Zm-81.8-72.4,3.7,3.6h0l-3.5-3.6,52.9-.1v54h-53Zm0,72.1,3.7,3.6h0l-3.5-3.6,52.9-.1v54h-53Z"/><path class="cls-8" d="M432.3,373a28.25,28.25,0,0,1,2.9-.2,24.23,24.23,0,0,1,12.3,3.4h14.2a34.17,34.17,0,0,1,48.2-2.8,37,37,0,0,1,2.8,2.8h14.2v-.3h0V310h50.9l-.5.5V376h0v.3h91.5V361.1H657.4v2.6H596.2v-5h4.4V310.2l3.6,3.6h0l-3.5-3.6,44.1-.1,1.7-4.1h-.2a6.21,6.21,0,0,1-5.9-4.4,6.21,6.21,0,0,1-5.9,4.4h-1.8a6.23,6.23,0,0,1-6.2-6.2,6.23,6.23,0,0,1-6.2,6.2h-1.8a6.21,6.21,0,0,1-5.9-4.4,6.21,6.21,0,0,1-5.9,4.4H605a6.23,6.23,0,0,1-6.2-6.2,6.23,6.23,0,0,1-6.2,6.2h-1.8a6.21,6.21,0,0,1-5.9-4.4A6.21,6.21,0,0,1,579,306h-1.8a6.23,6.23,0,0,1-6.2-6.2,6.23,6.23,0,0,1-6.2,6.2H563a6.21,6.21,0,0,1-5.9-4.4,6.21,6.21,0,0,1-5.9,4.4h-1.8a6.23,6.23,0,0,1-6.2-6.2A6.23,6.23,0,0,1,537,306h-1.8a6.21,6.21,0,0,1-5.9-4.4,6.21,6.21,0,0,1-5.9,4.4H522a6.23,6.23,0,0,1-6.2-6.2,6.23,6.23,0,0,1-6.2,6.2h-1.8a6.21,6.21,0,0,1-5.9-4.4A6.21,6.21,0,0,1,496,306h-1.8a6.23,6.23,0,0,1-6.2-6.2,6.23,6.23,0,0,1-6.2,6.2H480a6.21,6.21,0,0,1-5.9-4.4,6.21,6.21,0,0,1-5.9,4.4H467a28.64,28.64,0,0,1,1.5,4.1h35.8v48.5h3.4v5H446.5v-5h4.9v-13a27.51,27.51,0,0,1-11.6,2.8,25.28,25.28,0,0,1-2.8-.1,36.38,36.38,0,0,1-4.6,5Z"/><path class="cls-7" d="M668.9,376.2H577.4v13H526.9v-13H512.7a32.89,32.89,0,0,1,7.3,13H670.5v-.1h-1.6Z"/><path class="cls-7" d="M456,384.8a34.76,34.76,0,0,1,5.7-8.6H447.5A25,25,0,0,1,456,384.8Z"/><rect class="cls-7" x="432.3" y="101.6" width="91.5" height="0.5"/><rect class="cls-11" x="432.3" y="101.6" width="91.5" height="0.5"/><polygon class="cls-7" points="646 101.6 580.9 101.6 580.9 102 641.8 102 645.8 102 668.9 102 668.9 101.6 661.1 101.6 646 101.6"/><polygon class="cls-11" points="646 101.6 580.9 101.6 580.9 102 641.8 102 645.8 102 668.9 102 668.9 101.6 661.1 101.6 646 101.6"/><polygon class="cls-10" points="641.8 102 580.9 102 580.9 107.4 646 107.4 661.1 107.4 668.9 107.4 668.9 102 645.8 102 641.8 102"/><polygon class="cls-11" points="641.8 102 580.9 102 580.9 107.4 646 107.4 661.1 107.4 668.9 107.4 668.9 102 645.8 102 641.8 102"/><rect class="cls-10" x="432.3" y="102" width="91.5" height="5.4"/><rect class="cls-11" x="432.3" y="102" width="91.5" height="5.4"/><path class="cls-12" d="M536.2,318.9h26.2C553.8,318.9,538.8,318.8,536.2,318.9Z"/><polygon class="cls-12" points="568.5 376 577.3 376 577.3 310.5 568.5 318.9 568.5 376"/><polygon class="cls-12" points="535.8 318.9 526.9 310.1 526.9 310.1 526.9 376 535.8 376 535.8 318.9"/><rect class="cls-13" x="538.8" y="321.9" width="26.7" height="54"/><rect class="cls-13" x="568.5" y="318.9" height="57"/><polygon class="cls-14" points="538.8 321.9 535.8 321.9 535.8 318.9 535.8 318.9 535.8 376 538.8 376 538.8 321.9"/><polygon class="cls-14" points="568.5 318.9 568.4 318.9 568.4 321.9 565.5 321.9 565.5 376 568.5 376 568.5 318.9"/><path class="cls-14" d="M535.8,321.9h32.6v-3H535.8v3Z"/><path class="cls-15" d="M535.8,318.9h.4c2.7-.1,17.6,0,26.2,0h6.2l8.8-8.5.5-.5H527l8.8,9Z"/><path class="cls-10" d="M523.8,107.4v10.4H581V65.9L552.6,49.6,523.8,65.8v41.6Zm13.3-43.2,3.6,3.6h0l-3.6-3.6,32-.1V90.4h-32Z"/><path class="cls-16" d="M541.1,90.4h24V68.2h-24l-.4-.4h0l.4.4Zm2.7-19.6h18.5V90.2H543.8Z"/><rect class="cls-13" x="543.8" y="70.8" width="18.5" height="19.4"/><polygon class="cls-17" points="565.1 68.2 565.1 90.4 565.4 90.4 569.1 90.4 569.1 64.2 565.1 68.2"/><polygon class="cls-18" points="565.1 68.2 569.1 64.2 569.1 64.1 537.2 64.2 540.7 67.8 541.1 68.2 565.1 68.2"/><polygon class="cls-17" points="541.1 90.4 541.1 68.2 540.7 67.8 537.1 64.2 537.1 90.4 541.1 90.4"/><polygon class="cls-10" points="580.9 65.9 580.9 60.2 552.4 44.2 523.8 60.8 523.8 65.8 552.5 49.6 580.9 65.9"/><polygon class="cls-11" points="580.9 65.9 580.9 60.2 552.4 44.2 523.8 60.8 523.8 65.8 552.5 49.6 580.9 65.9"/><rect class="cls-19" x="418.1" y="14.7" width="14.2" height="66.8"/><path class="cls-17" d="M418.1,367.6c1.6-3.3,3.9-8.1,3.9-8.1l.2-.5c-1.4.5-2.8.9-4.2,1.3v7.3Z"/><path class="cls-17" d="M424.2,362.9c-1,2.5-1.8,5-2.6,7.6h0a9.29,9.29,0,0,1-.4,1.3c0,.2-.1.3-.1.5l-.3,1c0,.2-.1.3-.1.5h0c-.1.4-.2.7-.3,1.1-.5,1.7-.9,3-1.2,4a23.84,23.84,0,0,1,13.1-5.9V353.3a33.5,33.5,0,0,1-5.9,3.9Z"/><path class="cls-17" d="M432.3,270.3V81.6H418.1V260.5A50.81,50.81,0,0,1,432.3,270.3Z"/><polygon class="cls-19" points="683.1 81.5 683.1 14.7 668.9 14.7 668.9 28.4 668.9 81.5 683.1 81.5"/><path class="cls-16" d="M455.4,182.2h44.9v-50H455.4l-.4-.4h0l.4.4Zm1.6-28.3h1.6V135.5h38.3v18.4h2v2.3h-2V182H458.5V156.2H457Z"/><polygon class="cls-13" points="479.5 181.8 477.3 181.8 477.3 156.2 458.6 156.2 458.6 182 496.9 182 496.9 156.2 479.5 156.2 479.5 181.8"/><rect class="cls-13" x="458.6" y="135.6" width="38.3" height="18.4"/><polygon class="cls-17" points="500.3 132.2 500.3 182.2 500.6 182.2 504.3 182.2 504.3 128.2 500.3 132.2"/><polygon class="cls-18" points="500.3 132.2 504.3 128.2 504.3 128.1 451.4 128.2 455 131.8 455.4 132.2 500.3 132.2"/><polygon class="cls-17" points="455.4 182.2 455.4 132.2 455 131.8 451.3 128.2 451.3 182.2 455.4 182.2"/><rect class="cls-16" x="477.3" y="156.2" width="2.3" height="25.6"/><polygon class="cls-16" points="477.3 156.2 479.5 156.2 496.9 156.2 499 156.2 499 153.9 496.9 153.9 458.6 153.9 457 153.9 457 156.2 458.6 156.2 477.3 156.2"/><path class="cls-16" d="M537.1,182.2h30.7v-50H537.2l-.4-.4h0l.4.4Zm1.7-32.3h1.5V135.5h24.1v14.4h1.4v2.3h-1.4V182H540.3V152.2h-1.5Z"/><rect class="cls-13" x="540.3" y="152.2" width="24.1" height="29.8"/><rect class="cls-13" x="540.3" y="135.6" width="24.1" height="14.4"/><polygon class="cls-17" points="567.8 132.2 567.8 182.2 568.1 182.2 571.8 182.2 571.8 128.2 567.8 132.2"/><polygon class="cls-18" points="567.8 132.2 571.8 128.2 571.8 128.1 533.2 128.2 536.7 131.8 537.1 132.2 567.8 132.2"/><polygon class="cls-17" points="537.1 182.2 537.1 132.2 536.7 131.8 533.1 128.2 533.1 182.2 537.1 182.2"/><polygon class="cls-16" points="564.4 152.2 565.8 152.2 565.8 149.9 564.4 149.9 540.3 149.9 538.8 149.9 538.8 152.2 540.3 152.2 564.4 152.2"/><path class="cls-16" d="M537.1,254.5h30.7v-50H537.2l-.4-.4h0l.4.4Zm1.7-32.2h1.5V207.9h24.1v14.4h1.4v2.3h-1.4v29.8H540.3V224.6h-1.5Z"/><rect class="cls-13" x="540.3" y="207.9" width="24.1" height="14.4"/><rect class="cls-13" x="540.3" y="224.5" width="24.1" height="29.8"/><polygon class="cls-17" points="567.8 204.6 567.8 254.5 568.1 254.5 571.8 254.5 571.8 200.6 567.8 204.6"/><polygon class="cls-18" points="567.8 204.6 571.8 200.6 571.8 200.5 533.2 200.6 536.7 204.1 537.1 204.6 567.8 204.6"/><polygon class="cls-17" points="537.1 254.5 537.1 204.6 536.7 204.2 533.1 200.6 533.1 254.5 537.1 254.5"/><polygon class="cls-16" points="564.4 224.5 565.8 224.5 565.8 222.3 564.4 222.3 540.3 222.3 538.8 222.3 538.8 224.5 540.3 224.5 564.4 224.5"/><path class="cls-16" d="M604.6,182.2h44.9v-50H604.6l-.4-.4h0l.4.4Zm1.6-28.3h1.6V135.5h38.3v18.4h2v2.3h-2V182H607.8V156.2h-1.6Z"/><polygon class="cls-13" points="628.8 181.8 626.5 181.8 626.5 156.2 607.8 156.2 607.8 182 646.2 182 646.2 156.2 628.8 156.2 628.8 181.8"/><rect class="cls-13" x="607.8" y="135.6" width="38.3" height="18.4"/><polygon class="cls-17" points="649.5 132.2 649.5 182.2 649.9 182.2 653.5 182.2 653.5 128.2 649.5 132.2"/><polygon class="cls-18" points="649.5 132.2 653.5 128.2 653.5 128.1 600.7 128.2 604.2 131.8 604.6 132.2 649.5 132.2"/><polygon class="cls-17" points="604.6 182.2 604.6 132.2 604.2 131.8 600.6 128.2 600.6 182.2 604.6 182.2"/><rect class="cls-16" x="626.5" y="156.2" width="2.3" height="25.6"/><polygon class="cls-16" points="626.5 156.2 628.8 156.2 646.2 156.2 648.2 156.2 648.2 153.9 646.2 153.9 607.8 153.9 606.2 153.9 606.2 156.2 607.8 156.2 626.5 156.2"/><path class="cls-16" d="M455.4,254.3h44.9v-50H455.4l-.4-.5h0l.4.4ZM457,226h1.6V207.6h38.3V226h2v2.3h-2v25.8H458.5V228.3H457Z"/><polygon class="cls-13" points="479.5 253.9 477.3 253.9 477.3 228.3 458.6 228.3 458.6 254.1 496.9 254.1 496.9 228.3 479.5 228.3 479.5 253.9"/><rect class="cls-13" x="458.6" y="207.6" width="38.3" height="18.4"/><polygon class="cls-17" points="500.3 204.3 500.3 254.3 500.6 254.3 504.3 254.3 504.3 200.3 500.3 204.3"/><polygon class="cls-18" points="500.3 204.3 504.3 200.3 504.3 200.2 451.4 200.3 455 203.9 455.4 204.3 500.3 204.3"/><polygon class="cls-17" points="455.4 254.3 455.4 204.3 455 203.9 451.3 200.3 451.3 254.3 455.4 254.3"/><rect class="cls-16" x="477.3" y="228.3" width="2.3" height="25.6"/><polygon class="cls-16" points="477.3 228.3 479.5 228.3 496.9 228.3 499 228.3 499 226 496.9 226 458.6 226 457 226 457 228.3 458.6 228.3 477.3 228.3"/><path class="cls-16" d="M604.6,254.3h44.9v-50H604.6l-.4-.4h0l.4.4Zm1.6-28.3h1.6V207.6h38.3V226h2v2.3h-2v25.8H607.8V228.3h-1.6Z"/><polygon class="cls-13" points="628.8 253.9 626.5 253.9 626.5 228.3 607.8 228.3 607.8 254.1 646.2 254.1 646.2 228.3 628.8 228.3 628.8 253.9"/><rect class="cls-13" x="607.8" y="207.6" width="38.3" height="18.4"/><polygon class="cls-17" points="649.5 204.3 649.5 254.3 649.9 254.3 653.5 254.3 653.5 200.3 649.5 204.3"/><polygon class="cls-18" points="649.5 204.3 653.5 200.3 653.5 200.2 600.7 200.3 604.2 203.9 604.6 204.3 649.5 204.3"/><polygon class="cls-17" points="604.6 254.3 604.6 204.3 604.2 203.9 600.6 200.3 600.6 254.3 604.6 254.3"/><rect class="cls-16" x="626.5" y="228.3" width="2.3" height="25.6"/><polygon class="cls-16" points="626.5 228.3 628.8 228.3 646.2 228.3 648.2 228.3 648.2 226 646.2 226 607.8 226 606.2 226 606.2 228.3 607.8 228.3 626.5 228.3"/><path class="cls-16" d="M496.9,323l.1,1.8-.1.1v5.7h0l.1,3.5-.2.2v24.5h3.3V314.4h-31a26.35,26.35,0,0,1,.2,2.8v.5h27.5Z"/><path class="cls-16" d="M455.4,358.7h3.2v-18a40.31,40.31,0,0,1-3.2,2.6Z"/><polygon class="cls-13" points="463.1 358.7 468.7 358.7 496.9 330.5 496.9 324.8 463.1 358.7"/><path class="cls-13" d="M458.6,358.7h.9l37.4-37.4.1,1.7v-5.4H469.5a33.3,33.3,0,0,1-10.8,23.1v18Z"/><polygon class="cls-13" points="472.4 358.7 496.9 358.7 496.9 334.1 472.4 358.7"/><polygon class="cls-20" points="500.3 314.3 500.3 358.7 504.3 358.7 504.3 310.3 500.3 314.3"/><path class="cls-21" d="M504.3,310.3H468.5a25.75,25.75,0,0,1,.8,4h31Z"/><path class="cls-20" d="M455.4,358.7V343.3a32.58,32.58,0,0,1-4,2.4v13Z"/><polygon class="cls-22" points="496.9 324.8 497 324.8 496.9 323 496.9 321.3 459.5 358.7 463.1 358.7 496.9 324.8"/><polygon class="cls-22" points="468.7 358.7 472.4 358.7 496.9 334.1 497.1 334 497 330.5 496.9 330.5 468.7 358.7"/><polygon class="cls-16" points="646.2 322.3 646.4 321.8 646.2 321.8 646.2 322.3"/><polygon class="cls-16" points="604.6 358.7 607.8 358.7 607.8 317.6 641.8 317.6 643.1 314.3 604.6 314.3 604.2 313.8 604.2 313.9 604.6 314.3 604.6 358.7"/><polygon class="cls-13" points="617.5 358.7 640.8 335.3 644.8 325.7 611.8 358.7 617.5 358.7"/><polygon class="cls-13" points="631.3 358.7 638.3 341.4 621.1 358.7 631.3 358.7"/><polygon class="cls-13" points="645.7 321.8 645.7 323.4 646.2 322.3 646.2 321.8 645.7 321.8"/><polygon class="cls-13" points="640 321.8 641.8 317.6 607.8 317.6 607.8 358.7 608.2 358.7 645.1 321.8 640 321.8"/><polygon class="cls-21" points="643.1 314.3 644.8 310.2 600.7 310.3 604.2 313.8 604.6 314.3 643.1 314.3"/><polygon class="cls-20" points="604.6 358.7 604.6 314.3 604.2 313.9 600.6 310.3 600.6 358.7 604.6 358.7"/><polygon class="cls-22" points="645.1 321.8 608.2 358.7 611.8 358.7 644.8 325.7 645.7 323.4 645.7 321.8 645.1 321.8"/><polygon class="cls-22" points="621.1 358.7 638.3 341.4 640.8 335.3 617.5 358.7 621.1 358.7"/><polygon class="cls-17" points="675.6 361.1 668.9 361.1 668.9 376.2 668.9 389.1 670.5 389.1 675.6 389.1 675.6 368.8 675.6 361.1"/><polygon class="cls-17" points="668.9 81.5 668.9 95 668.9 101.6 668.9 102 668.9 107.4 668.9 217.6 683.1 182.9 683.1 81.5 668.9 81.5"/><rect class="cls-23" x="526.9" y="380.6" width="50.5" height="4.5"/><rect class="cls-24" x="526.9" y="385.1" width="50.5" height="4.1"/><polygon class="cls-8" points="526.9 380.6 577.4 380.6 577.4 380.2 577.4 376.2 577.4 376 577.3 376 568.5 376 568.5 376 565.5 376 538.8 376 535.8 376 526.9 376 526.9 376 526.9 376.2 526.9 380.2 526.9 380.6"/><path class="cls-25" d="M438.2,277.1a36,36,0,0,1,5.3,11.4c.1.4.2.7.3,1.1a18.66,18.66,0,0,1,2.5.4V277.1Z"/><path class="cls-26" d="M460.4,277.1H446.3V290a30.86,30.86,0,0,1,10,4h4.1Z"/><rect class="cls-25" x="460.4" y="277.1" width="13.6" height="16.9"/><polygon class="cls-26" points="488.1 294 488.1 277.1 474 277.1 474 294 474.5 294 488.1 294"/><rect class="cls-25" x="488.1" y="277.1" width="13.6" height="16.9"/><polygon class="cls-26" points="502.2 294 515.8 294 515.8 277.1 501.7 277.1 501.7 294 502.2 294"/><rect class="cls-25" x="515.8" y="277.1" width="13.6" height="16.9"/><polygon class="cls-26" points="529.9 294 543.5 294 543.5 277.1 529.4 277.1 529.4 294 529.9 294"/><rect class="cls-25" x="543.5" y="277.1" width="13.6" height="16.9"/><polygon class="cls-26" points="557.6 294 571.2 294 571.2 277.1 557.1 277.1 557.1 294 557.6 294"/><rect class="cls-25" x="571.2" y="277.1" width="13.6" height="16.9"/><polygon class="cls-26" points="585.3 294 598.9 294 598.9 277.1 584.8 277.1 584.8 294 585.3 294"/><rect class="cls-25" x="598.9" y="277.1" width="13.6" height="16.9"/><polygon class="cls-26" points="613 294 626.6 294 626.6 277.1 612.4 277.1 612.4 294 613 294"/><rect class="cls-25" x="626.6" y="277.1" width="13.6" height="16.9"/><polygon class="cls-25" points="654.2 287 656.4 281.8 654.2 281.8 654.2 287"/><polygon class="cls-26" points="640.7 294 651.4 294 654.2 287 654.2 281.8 650 281.8 651.9 277.1 640.1 277.1 640.1 294 640.7 294"/><path class="cls-27" d="M460.4,294h-4.1a25.92,25.92,0,0,1,4.1,3.1Z"/><path class="cls-28" d="M474.3,301.7a5.66,5.66,0,0,1-.3-1.8V294H460.4v3.1A27.56,27.56,0,0,1,467,306h1.3A6,6,0,0,0,474.3,301.7Z"/><path class="cls-27" d="M488.1,294H474v5.9a5.66,5.66,0,0,0,.3,1.8,6.21,6.21,0,0,0,5.9,4.4H482a6.23,6.23,0,0,0,6.2-6.2l-.1-5.9Z"/><path class="cls-28" d="M501.7,294.4V294H488.1v5.9a6.23,6.23,0,0,0,6.2,6.2H496a6.21,6.21,0,0,0,5.9-4.4,5.66,5.66,0,0,1-.3-1.8Z"/><path class="cls-27" d="M515.8,294H501.7v5.9a5.66,5.66,0,0,0,.3,1.8,6.21,6.21,0,0,0,5.9,4.4h1.8a6.23,6.23,0,0,0,6.2-6.2l-.1-5.9Z"/><path class="cls-28" d="M529.4,294.4V294H515.8v5.9a6.23,6.23,0,0,0,6.2,6.2h1.8a6.21,6.21,0,0,0,5.9-4.4,5.66,5.66,0,0,1-.3-1.8Z"/><path class="cls-27" d="M543.5,294H529.4v5.9a5.66,5.66,0,0,0,.3,1.8,6.21,6.21,0,0,0,5.9,4.4h1.8a6.23,6.23,0,0,0,6.2-6.2V294Z"/><path class="cls-28" d="M557.1,294.4V294H543.5v5.9a6.23,6.23,0,0,0,6.2,6.2h1.8a6.21,6.21,0,0,0,5.9-4.4,5.66,5.66,0,0,1-.3-1.8Z"/><path class="cls-27" d="M571.2,294H557.1v5.9a5.66,5.66,0,0,0,.3,1.8,6.21,6.21,0,0,0,5.9,4.4h1.8a6.23,6.23,0,0,0,6.2-6.2V294Z"/><path class="cls-28" d="M584.8,294.4V294H571.2v5.9a6.23,6.23,0,0,0,6.2,6.2h1.8a6.21,6.21,0,0,0,5.9-4.4,5.66,5.66,0,0,1-.3-1.8Z"/><path class="cls-27" d="M598.9,294H584.8v5.9a5.66,5.66,0,0,0,.3,1.8,6.21,6.21,0,0,0,5.9,4.4h1.8a6.23,6.23,0,0,0,6.2-6.2V294Z"/><path class="cls-28" d="M612.4,294.4V294H598.8v5.9a6.23,6.23,0,0,0,6.2,6.2h1.8a6.21,6.21,0,0,0,5.9-4.4,5.66,5.66,0,0,1-.3-1.8v-5.5Z"/><path class="cls-27" d="M626.6,294H612.5v5.9a5.66,5.66,0,0,0,.3,1.8,6.21,6.21,0,0,0,5.9,4.4h1.8a6.23,6.23,0,0,0,6.2-6.2V294Z"/><path class="cls-28" d="M640.1,294.4V294H626.5v5.9a6.23,6.23,0,0,0,6.2,6.2h1.8a6.21,6.21,0,0,0,5.9-4.4,5.66,5.66,0,0,1-.3-1.8v-5.5Z"/><path class="cls-27" d="M651.4,294H640.1v5.9a5.66,5.66,0,0,0,.3,1.8,6.21,6.21,0,0,0,5.9,4.4h.2Z"/><path class="cls-29" d="M438.2,277.1H651.8l2.1-5.2h-220l.5.6A33.15,33.15,0,0,1,438.2,277.1Z"/><path class="cls-30" d="M655.2,268.9H432.4v1.6a19.2,19.2,0,0,1,1.4,1.5H654Z"/><polygon class="cls-31" points="500.3 358.7 496.9 358.7 472.4 358.7 468.7 358.7 463.1 358.7 459.5 358.7 458.6 358.7 455.4 358.7 451.3 358.7 446.4 358.7 446.4 363.7 507.7 363.7 507.7 358.7 504.3 358.7 500.3 358.7"/><polygon class="cls-31" points="631.3 358.7 621.1 358.7 617.5 358.7 611.8 358.7 608.2 358.7 607.8 358.7 604.6 358.7 600.6 358.7 596.2 358.7 596.2 363.7 657.5 363.7 657.5 361.1 630.3 361.1 631.3 358.7"/><path class="cls-7" d="M170.2,209.9h-4.1a41.68,41.68,0,0,1,4.1,5.3v-9.3h0Z"/><path class="cls-7" d="M161.8,205.8h8.4v.1H173v-6.7H150.8A49.42,49.42,0,0,1,161.8,205.8Z"/><path class="cls-32" d="M170.2,205.9h0l-8.4-.1a41.67,41.67,0,0,1,4.3,4.1h4.1v-4Z"/><path class="cls-26" d="M176.7,234.4h0l25-17.1Z"/><path class="cls-26" d="M131.3,302.2v68.1h39.3V316h36.9l-.4.4v53.9h35.7l.1-99.9h0v-18h0V196l-66.2,44.8a48.57,48.57,0,0,1-9.1,23.4l45.8.1-3.2,3.2h0l3.3-3.2v32l-2.4-2.4,2.3,2.4-47.4.1v-.1l3.3-3.3h0l-3.4,3.3v-30c-8.1,10-19.9,17.1-33.1,17.1h-1.4l-.1,18.8Zm35.4,6.9v-2h43.8v8.8H166.7Z"/><path class="cls-8" d="M242.8,182.8v-7.9l-69.2,46.5a36.75,36.75,0,0,1,2.3,7.1Z"/><path class="cls-7" d="M242.8,189.2v-6.4l-66.9,45.6a41.13,41.13,0,0,1,.8,6l25-17Z"/><path class="cls-33" d="M242.6,383.6H210.7v6H166.4v-6H148.6a22.44,22.44,0,0,1,2.5,6h91.5Z"/><polygon class="cls-34" points="242.6 370.2 210.7 370.2 210.7 376.4 210.7 377 210.7 383.6 242.6 383.6 242.6 383.1 242.6 370.2"/><path class="cls-34" d="M166.4,377v-6.8H131.3V374h0a20.34,20.34,0,0,1,17.3,9.6h17.8Z"/><path class="cls-26" d="M242.8,189.3l-41.1,28.1-25,17.1a17.7,17.7,0,0,1,.1,2.3c0,1.3-.1,2.6-.2,3.9l66.2-44.8Z"/><path class="cls-11" d="M242.8,189.3l-41.1,28.1-25,17.1a17.7,17.7,0,0,1,.1,2.3c0,1.3-.1,2.6-.2,3.9l66.2-44.8Z"/><polygon class="cls-7" points="242.8 189.3 242.8 189.2 201.6 217.4 242.8 189.3"/><polygon class="cls-11" points="242.8 189.3 242.8 189.2 201.6 217.4 242.8 189.3"/><polygon class="cls-35" points="286.9 119.7 398.2 184.6 398.2 184.4 286.9 119.7"/><path class="cls-35" d="M242.7,370.2H398.2v-7.3a3.55,3.55,0,0,0-.4-.9c-.4,0-.9-.1-1.3-.1l-.9-.1c-.5-.1-1-.1-1.6-.2l-.8-.1-1.7-.3-.6-.1c-1.5-.4-3.1-.8-4.6-1.3l-.5-.2c-.6-.2-1.1-.4-1.7-.6l-.6-.2-1.6-.7-.5-.2-1.8-.9-.2-.1c-1.4-.8-2.7-1.6-4-2.5l-.1-.1c-.6-.4-1.1-.9-1.7-1.3l-.3-.2c-.5-.4-1-.9-1.6-1.3l-.2-.2a33.65,33.65,0,0,1-4.8-5.2c-1-.9-2-1.8-3-2.8H257.1v-7h.2V336h5V293.7l3.3,3.2h0l-3.2-3.2,100.6-.1h0c.3-.3.6-.5.9-.8l.7-.9v-4a30.49,30.49,0,0,1,5.6-17.3H242.7Z"/><polygon class="cls-35" points="242.8 189.2 242.8 189.3 242.8 195.9 242.7 252.3 261 252.3 261.3 140.2 261.3 140.1 297.3 160.3 297 252.3 307 252.3 307 185.1 310.2 188.3 310.2 188.3 307.1 185.1 378.7 185 378.7 185.1 378.7 252.3 398.1 252.3 398.2 190.4 242.8 100.6 242.8 94 242.8 94 242.8 174.9 242.8 182.8 242.8 189.2"/><polygon class="cls-8" points="407.8 184.4 411.4 177.7 353 143.7 339.8 136 242.8 79.6 242.8 87.5 407.8 184.4"/><polygon class="cls-7" points="242.8 94 286.9 119.7 398.2 184.4 398.2 184.4 407.8 184.4 242.8 87.5 242.8 88.4 242.8 94 242.8 94"/><polygon class="cls-36" points="242.6 383.6 242.6 389.6 244.1 389.6 398.2 389.6 398.2 383.6 244.1 383.6 242.6 383.6"/><polygon class="cls-37" points="242.7 370.2 242.6 370.2 242.6 383.1 242.6 383.6 244.1 383.6 398.2 383.6 398.2 383.1 398.2 370.2 398.1 370.2 244.1 370.2 242.7 370.2"/><polygon class="cls-2" points="398.7 190.7 398.7 184.9 398.2 184.6 398.2 190.4 398.7 190.7"/><polygon class="cls-11" points="398.7 190.7 398.7 184.9 398.2 184.6 398.2 190.4 398.7 190.7"/><polygon class="cls-35" points="286.9 119.7 242.8 94 242.8 100.6 398.2 190.4 398.2 184.6 286.9 119.7"/><polygon class="cls-11" points="286.9 119.7 242.8 94 242.8 100.6 398.2 190.4 398.2 184.6 286.9 119.7"/><polygon class="cls-7" points="242.8 94 242.8 94 286.9 119.7 242.8 94"/><polygon class="cls-11" points="242.8 94 242.8 94 286.9 119.7 242.8 94"/><path class="cls-16" d="M169.5,267.7v24.8l-.3.3h0l.3-.3h40.2V267.7l.4-.4h0l-.4.4ZM207.3,290H190.8v1.5h-2V290H172V270.1h16.7v-1.3h2v1.3h16.5Z"/><rect class="cls-13" x="190.7" y="270.1" width="16.5" height="19.9"/><rect class="cls-13" x="172" y="270.1" width="16.7" height="19.9"/><path class="cls-38" d="M169.2,292.8l.3-.3V267.7l-2.7-2.7-.9,1.2v29.9Z"/><path class="cls-38" d="M169.5,267.7h40.3l.4-.4,3.2-3.2-45.8-.1c-.2.3-.5.7-.7,1Z"/><polygon class="cls-39" points="209.7 292.4 209.8 292.5 209.8 292.5 211 293.7 213.4 296.1 213.4 264.1 210.1 267.4 209.7 267.7 209.7 292.4"/><polygon class="cls-39" points="209.8 292.5 209.8 292.5 169.5 292.5 169.2 292.8 165.9 296.1 165.9 296.2 213.3 296.1 211 293.7 209.8 292.5"/><polygon class="cls-16" points="190.7 268.8 188.7 268.8 188.7 270.1 188.7 290 188.7 291.4 190.7 291.4 190.7 290 190.7 270.1 190.7 268.8"/><rect class="cls-40" x="166.7" y="307" width="43.8" height="2"/><rect class="cls-41" x="166.7" y="309.1" width="43.8" height="6.8"/><path class="cls-42" d="M174.2,319.1h24C190.3,319,176.7,319,174.2,319.1Z"/><polygon class="cls-42" points="203.9 370.2 207 370.2 207 316.3 203.9 319.1 203.9 370.2"/><polygon class="cls-42" points="173.9 319.1 170.6 315.9 170.6 315.9 170.6 370.2 173.9 370.2 173.9 319.1"/><rect class="cls-43" x="203.8" y="319.1" height="51.1"/><rect class="cls-43" x="176.6" y="321.8" width="24.4" height="48.4"/><polygon class="cls-44" points="176.6 321.8 173.9 321.8 173.9 319.1 173.9 319.1 173.9 370.2 176.6 370.2 176.6 321.8"/><polygon class="cls-44" points="203.8 319.1 203.7 319.1 203.7 321.8 201.1 321.8 201.1 370.2 203.8 370.2 203.8 319.1"/><path class="cls-44" d="M173.9,321.8h29.9v-2.7H173.9Z"/><path class="cls-45" d="M173.9,319.1h.4c2.4-.1,16.1,0,24,0h5.6l3.2-2.8.4-.4H170.6l3.3,3.2Z"/><polygon class="cls-46" points="210.7 377 166.4 377 166.4 383.6 166.4 383.7 210.7 383.7 210.7 383.6 210.7 377"/><rect class="cls-47" x="166.4" y="383.7" width="44.3" height="6"/><polygon class="cls-48" points="210.7 376.4 210.7 370.2 210.7 370.2 207 370.2 203.9 370.2 203.8 370.2 201.1 370.2 176.6 370.2 173.9 370.2 170.6 370.2 166.4 370.2 166.4 370.2 166.4 376.4 166.4 377 210.7 377 210.7 376.4"/><path class="cls-16" d="M266,335.6h2.9V318.5h-1.4v-2h1.4V299.9h26.5V299h2v.9h46V299h2v.9h12.2c.6-1,1.3-2,2-3H266l-.4-.4h0l.4.4Z"/><path class="cls-13" d="M357.7,299.9H345.5v16.5h7.8a32.56,32.56,0,0,1,1.2-7.6,27.27,27.27,0,0,1,1-4.1A51.14,51.14,0,0,1,357.7,299.9Z"/><path class="cls-13" d="M345.6,335.6h12.5a35.41,35.41,0,0,1-4.7-17.1h-7.8Z"/><rect class="cls-13" x="297.5" y="318.5" width="46.1" height="17.1"/><rect class="cls-13" x="268.9" y="299.9" width="26.5" height="16.5"/><rect class="cls-13" x="268.9" y="318.5" width="26.5" height="17.1"/><rect class="cls-13" x="297.5" y="299.9" width="46.1" height="16.5"/><path class="cls-49" d="M359.7,296.9a23.69,23.69,0,0,1,3.4-3.7l-100.6.1,3.2,3.2.4.4Z"/><polygon class="cls-50" points="266 335.6 266 296.9 265.6 296.6 262.4 293.3 262.4 335.6 266 335.6"/><rect class="cls-16" x="295.4" y="318.5" width="2" height="17.1"/><polygon class="cls-16" points="295.4 316.5 297.5 316.5 297.5 299.9 297.5 299 295.4 299 295.4 299.9 295.4 316.5"/><rect class="cls-16" x="343.5" y="318.5" width="2" height="17.1"/><polygon class="cls-16" points="345.6 316.5 345.6 299.9 345.6 299 343.5 299 343.5 299.9 343.5 316.5 345.6 316.5"/><path class="cls-16" d="M343.5,316.5H267.4v2h85.9v-2Z"/><polygon class="cls-13" points="264.9 231.3 264.9 252.3 264.9 252.3 264.9 231.2 264.9 231.3"/><polygon class="cls-13" points="264.9 226.6 264.9 146.8 264.9 146.8 264.9 228.2 264.9 226.6"/><polygon class="cls-13" points="267.9 232.3 290.7 209.8 290.7 205.5 267.9 228.2 267.9 232.3"/><polygon class="cls-13" points="267.9 223.6 290.7 200.8 290.7 163.7 267.9 151.4 267.9 223.6"/><polygon class="cls-13" points="267.9 239.9 267.9 252.3 290.7 252.3 290.7 217.4 267.9 239.9"/><polygon class="cls-51" points="267.9 239.9 290.7 217.4 290.7 209.8 267.9 232.3 267.9 239.9"/><polygon class="cls-51" points="264.9 226.6 264.9 226.6 264.9 228.2 264.9 231.3 264.9 231.2 264.9 226.6"/><polygon class="cls-51" points="267.9 228.2 290.7 205.5 290.7 200.8 267.9 223.6 267.9 228.2"/><polygon class="cls-16" points="267.9 232.3 267.9 228.2 267.9 223.6 267.9 151.4 265.2 149.9 266.1 147.4 264.9 146.8 264.9 226.6 264.9 231.2 264.9 252.3 267.9 252.3 267.9 239.9 267.9 232.3"/><polygon class="cls-16" points="293.6 164.6 293.4 165.1 290.7 163.7 290.7 200.8 290.7 205.5 290.7 209.8 290.7 217.4 290.7 252.3 293.5 252.3 293.6 164.6"/><polygon class="cls-16" points="267.9 151.4 290.7 163.7 293.4 165.1 293.6 164.6 293.6 162 266.1 147.4 265.2 149.9 267.9 151.4"/><polygon class="cls-48" points="261.3 140.1 261.3 140.2 297.3 160.3 261.3 140.1"/><polygon class="cls-48" points="264.9 252.3 264.9 231.3 264.9 228.2 264.9 146.8 264.9 146.8 261.3 140.2 261 252.3 264.9 252.3"/><polygon class="cls-48" points="293.6 162 293.6 164.6 293.5 252.3 297 252.3 297.3 160.3 293.6 162"/><polygon class="cls-49" points="264.9 146.8 266.1 147.4 293.6 162 297.3 160.3 261.3 140.2 264.9 146.8"/><polygon class="cls-16" points="310.6 252.3 314.6 252.3 314.6 238.9 314.5 232.6 314.6 232.6 314.6 228.5 314.5 228.6 314.5 224 314.6 223.9 314.6 192 342.7 192 342.7 188.7 310.6 188.7 310.2 188.3 310.2 188.3 310.6 188.7 310.6 252.3"/><polygon class="cls-16" points="345.4 188.7 345.4 192 371.7 192 371.7 195.7 371.8 195.6 371.8 200.2 371.7 200.3 371.7 204.4 371.7 204.4 371.7 212 371.7 212.1 371.7 252.3 375.1 252.3 375.1 188.7 345.4 188.7"/><polygon class="cls-13" points="345.4 238.3 345.4 252.3 371.7 252.3 371.7 212.1 345.4 238.3"/><polygon class="cls-13" points="342.7 195.7 342.7 192 314.6 192 314.6 223.9 342.7 195.7"/><polygon class="cls-13" points="371.7 195.7 371.7 192 345.4 192 345.4 222 371.7 195.7"/><polygon class="cls-13" points="345.4 226.6 345.4 230.6 371.7 204.4 371.7 200.3 345.4 226.6"/><polygon class="cls-13" points="342.7 204.7 342.7 200.4 314.6 228.5 314.6 232.6 342.7 204.7"/><polygon class="cls-13" points="342.7 212.3 314.6 240.2 314.6 238.9 314.6 252.3 342.7 252.3 342.7 212.3"/><polygon class="cls-51" points="342.7 212.3 342.7 204.7 314.6 232.6 314.5 232.6 314.6 238.9 314.6 240.2 342.7 212.3"/><polygon class="cls-51" points="342.7 200.4 342.7 195.7 314.6 223.9 314.5 224 314.5 228.6 314.6 228.5 342.7 200.4"/><polygon class="cls-51" points="345.4 230.6 345.4 238.3 371.7 212.1 371.7 212 371.7 204.4 371.7 204.4 345.4 230.6"/><polygon class="cls-51" points="345.4 222 345.4 226.6 371.7 200.3 371.8 200.2 371.8 195.6 371.7 195.7 345.4 222"/><polygon class="cls-50" points="375.1 188.7 375.1 252.3 378.7 252.3 378.7 185.1 375.1 188.7"/><polygon class="cls-49" points="342.7 188.7 342.7 187.5 345.4 187.5 345.4 188.7 375.1 188.7 378.7 185.1 378.7 185 307.1 185.1 310.2 188.3 310.6 188.7 342.7 188.7"/><polygon class="cls-50" points="310.6 252.3 310.6 188.7 310.2 188.3 307 185.1 307 252.3 310.6 252.3"/><polygon class="cls-49" points="345.4 238.3 345.4 230.6 345.4 226.6 345.4 222 345.4 192 345.4 188.7 345.4 187.5 342.7 187.5 342.7 188.7 342.7 192 342.7 195.7 342.7 200.4 342.7 204.7 342.7 212.3 342.7 252.3 345.4 252.3 345.4 238.3"/><path class="cls-52" d="M242.7,255.6v14.7H370.3a34.85,34.85,0,0,1,28.6-14.5h0a36.83,36.83,0,0,1,6.6.6h.1l2.7.6a23.35,23.35,0,0,1,2.5.7v-2.1Z"/><polygon class="cls-53" points="375.1 252.3 371.7 252.3 345.4 252.3 342.7 252.3 314.6 252.3 310.6 252.3 307 252.3 297 252.3 293.5 252.3 290.7 252.3 267.9 252.3 264.9 252.3 264.9 252.3 261 252.3 242.7 252.3 242.7 252.3 242.7 254.3 242.7 255.6 410.9 255.6 410.9 254.3 410.9 252.3 398.1 252.3 378.7 252.3 375.1 252.3"/><path class="cls-52" d="M257.3,337.4v-1.6h-.2v7H363.6a36.38,36.38,0,0,1-4.3-5.4Z"/><path class="cls-53" d="M359.2,337.4a17.39,17.39,0,0,1-1.1-1.8H257.3v1.8Z"/><path class="cls-54" d="M24.1,279.2h0a57.37,57.37,0,0,0,7.2,7.6A64.71,64.71,0,0,1,24.1,279.2Z"/><path class="cls-54" d="M68.5,303.3l2,.2h0C69.8,303.4,69.2,303.4,68.5,303.3Z"/><path class="cls-54" d="M49.2,298.3c-.8-.4-1.6-.7-2.4-1.1C47.6,297.6,48.4,297.9,49.2,298.3Z"/><path class="cls-54" d="M43,295.3a61,61,0,0,1-6-3.8A61,61,0,0,0,43,295.3Z"/><path class="cls-54" d="M46.1,296.8c-.9-.5-1.8-.9-2.7-1.4C44.3,295.9,45.2,296.4,46.1,296.8Z"/><path class="cls-54" d="M52.6,299.6a18.61,18.61,0,0,1-2.5-1A26,26,0,0,0,52.6,299.6Z"/><path class="cls-54" d="M36.8,291.3c-.9-.6-1.7-1.3-2.5-1.9C35.1,290.1,36,290.7,36.8,291.3Z"/><path class="cls-54" d="M60.2,301.9c-2.3-.6-4.6-1.2-6.8-2C55.6,300.7,57.9,301.3,60.2,301.9Z"/><path class="cls-54" d="M33.9,289.1a22,22,0,0,1-2.3-2C32.3,287.8,33.1,288.4,33.9,289.1Z"/><path class="cls-54" d="M63.6,302.6a22.11,22.11,0,0,1-2.5-.5C62,302.3,62.8,302.5,63.6,302.6Z"/><path class="cls-54" d="M67.2,303.2l-2.3-.3A9.69,9.69,0,0,1,67.2,303.2Z"/><path class="cls-54" d="M138.4,194.4a54.25,54.25,0,0,0-4.2-11,53.27,53.27,0,0,0-9.3-12.7C131.9,178.6,136.4,187.2,138.4,194.4Z"/><polygon class="cls-54" points="122.1 183.7 122.1 183.7 123.1 188.4 122.1 183.7"/><path class="cls-54" d="M82.3,146.8c1.4.3,2.7.6,4,.9A28.75,28.75,0,0,0,82.3,146.8Z"/><path class="cls-54" d="M24.1,279.2c10.5,8.9,24.4,11.2,39.6,11.2A60.89,60.89,0,0,0,92.6,283c0-.4.1-.8.1-1.3h1.1l4.3-2.3v.2a59.44,59.44,0,0,0,14.4-13.9l6-8.2,10.7.9c1.2.1,2.3.1,3.4.1,19.3,0,33-10.9,33-29,0-16.3-11-30.2-28.2-32.4l-12.8-1.6-1.6-7.1-1.1-4.7h0c-2.2-10-15.7-27.8-40-36.9l-2-.4a49,49,0,0,0-7.7-.5h0C43,153.8,39,182,38.6,193.1c6.4-1,13.2-.3,18.6,2.9a56.71,56.71,0,0,0-30.7,13.7,68.51,68.51,0,0,0-10.8,12.6,135.39,135.39,0,0,0-8.8,15.8,36.86,36.86,0,0,1,1.8-19.2,40.89,40.89,0,0,1,11.1-16.6c.6-.5,1.1-1,1.7-1.5v-4.4a50.79,50.79,0,0,1,50.7-50.5c-27.8,0-50.6,21.2-50.7,47.3v5.9l-4,4.6A52.7,52.7,0,0,0,4.6,238.2c0,16.2,7.6,30.8,19.5,41Zm107.2-35.5a26.78,26.78,0,0,1,1.1-4.9,16.18,16.18,0,0,1,2.7-5,11.33,11.33,0,0,1,2.5,5.3,16.39,16.39,0,0,1,.3,5.4,19.09,19.09,0,0,1-1.4,5.2,11.56,11.56,0,0,1-3.6,4.6,17.42,17.42,0,0,1-1.6-5.5A21.75,21.75,0,0,1,131.3,243.7Zm-49.7,32a19.16,19.16,0,0,1-3.2-.9,11.81,11.81,0,0,1-2.9-1.6,10.26,10.26,0,0,1-2.8-2.7,7.65,7.65,0,0,1,3.9-1.1,9.52,9.52,0,0,1,6.8,2.8,8.18,8.18,0,0,1,2.1,3.6,12.76,12.76,0,0,1-3.9-.1Zm7-7.8a14.38,14.38,0,0,1-2.8-2.7,16.09,16.09,0,0,1-1.7-2.8,16.29,16.29,0,0,1-1.1-3.1,12.86,12.86,0,0,1-.3-3.9,7.73,7.73,0,0,1,3.7,1.9,9.32,9.32,0,0,1,2.2,3,9.11,9.11,0,0,1,.9,3.6,7.32,7.32,0,0,1-.9,4ZM106,180.3a11,11,0,0,1-1.2,5.4,13.73,13.73,0,0,1-7.6,6.6,9.48,9.48,0,0,1-5.5.5,18,18,0,0,1,2.4-4.8,19.93,19.93,0,0,1,6.9-6A24.48,24.48,0,0,1,106,180.3Zm-16.7,4.9a15,15,0,0,1-.7,5.1,9.69,9.69,0,0,1-3.1,4.6,18,18,0,0,1-2.2-4.9,23.38,23.38,0,0,1-.7-4.5,21.31,21.31,0,0,1,2.1-9.7,9.91,9.91,0,0,1,3.4,4.4,14.64,14.64,0,0,1,1.2,5Zm-25.1,15a33.05,33.05,0,0,1,35.6,7.3c4.5,4.4,7.7,10.1,8.3,16.2a64,64,0,0,0-13.1-10,45.28,45.28,0,0,0-28.8-5.8,62.75,62.75,0,0,0-16,4.1C53.1,206.5,58.3,202.5,64.2,200.2Z"/><path class="cls-55" d="M94.1,188.2a15.45,15.45,0,0,0-2.4,4.8,11.29,11.29,0,0,0,5.5-.5,14.12,14.12,0,0,0,7.6-6.6,10.2,10.2,0,0,0,1.2-5.4,23,23,0,0,0-5,1.8,19.67,19.67,0,0,0-3.8,2.6A14,14,0,0,0,94.1,188.2Z"/><path class="cls-55" d="M84.7,175.8a18,18,0,0,0-1.7,5.1,17.53,17.53,0,0,0-.3,4.6,22.23,22.23,0,0,0,.7,4.5,18,18,0,0,0,2.2,4.9,11.73,11.73,0,0,0,3.1-4.6,14.08,14.08,0,0,0-.4-10.1A12.92,12.92,0,0,0,84.7,175.8Z"/><path class="cls-56" d="M65.2,291.1l3.5-.3L76,303.7c1.4,0,2.7,0,4.1-.1,3.6-.1,7.2-.4,10.8-.8.1-1.3.3-2.7.4-4l1.3-13.9c0-.6.1-1.3.1-2a60.89,60.89,0,0,1-28.9,7.4c-15.2,0-29.2-2.3-39.6-11.2h0a64.71,64.71,0,0,0,7.2,7.6l.3.3,2.3,2,.4.3c.8.7,1.7,1.3,2.5,1.9l.2.1a61,61,0,0,0,6,3.8l.4.2c.9.5,1.8.9,2.7,1.4l.8.4c.8.4,1.6.7,2.4,1.1l.9.4c.8.3,1.7.7,2.5,1l.7.3c2.2.8,4.5,1.4,6.8,2l1,.2a22.11,22.11,0,0,0,2.5.5l1.2.2,2.3.3c.4,0,.8.1,1.3.1.7.1,1.3.1,2,.2C68.6,299.2,66.7,294.8,65.2,291.1Z"/><path class="cls-56" d="M97.7,301.6a72.53,72.53,0,0,0,9.1-2.6l8.8-18.1,3.6-1.1L113,296.3a26,26,0,0,0,3.6-2.1,43.8,43.8,0,0,0,12-11.1c.9.1,1.9.1,2.8.2h1.4c13.2,0,25-7,33.1-17.1l.9-1.2a6.07,6.07,0,0,0,.7-1,48.57,48.57,0,0,0,9.1-23.4c.1-1.3.2-2.6.2-3.9a17.7,17.7,0,0,0-.1-2.3h0a39.8,39.8,0,0,0-3.1-13.1,36,36,0,0,0-3.3-6.1,42,42,0,0,0-8.4-9.4,45.26,45.26,0,0,0-23-9.8,9.36,9.36,0,0,0-.4-1.6c-1.9-7.2-6.4-15.7-13.6-23.7a59.52,59.52,0,0,0-6.2-6.1,78.22,78.22,0,0,0-32.4-16.9l-4-.9h-.2c24.3,9.1,37.8,26.9,40,36.9h0l1.1,4.7,1.6,7.1,12.7,1.6c17.2,2.2,28.2,16.1,28.2,32.4,0,18-13.7,29-33,29-1.1,0-2.2,0-3.4-.1l-10.7-.9-6,8.2a61.3,61.3,0,0,1-14.4,13.9C98,287.5,97.6,293.1,97.7,301.6Z"/><path class="cls-55" d="M81.1,208.3A46,46,0,0,1,95,213.6a64,64,0,0,1,13.1,10c-.6-6.1-3.8-11.8-8.3-16.2a33.32,33.32,0,0,0-35.6-7.3,27.36,27.36,0,0,0-14,11.7,67.19,67.19,0,0,1,16-4.1A46.66,46.66,0,0,1,81.1,208.3Z"/><path class="cls-55" d="M38.6,197.7l-20.4,9.2,3.3-4.1v-2c-.6.5-1.2,1-1.7,1.5A41.57,41.57,0,0,0,8.7,218.9a37,37,0,0,0-1.8,19.2,162.81,162.81,0,0,1,8.8-15.8,64.87,64.87,0,0,1,10.8-12.6,56.59,56.59,0,0,1,13.7-8.9,62.39,62.39,0,0,1,17-4.8c-5.4-3.2-12.2-4-18.6-2.9C38.5,195.9,38.6,197.7,38.6,197.7Z"/><path class="cls-55" d="M21.5,196.4v6.4l-3.3,4.1,20.4-9.2s-.1-1.7,0-4.6C39,182,43,153.8,72.3,145.8h-.1A51,51,0,0,0,21.5,196.4Z"/><path class="cls-56" d="M80.3,270.2a9.37,9.37,0,0,0-3.7-.7,7.39,7.39,0,0,0-3.9,1.1,17.89,17.89,0,0,0,2.8,2.7,26.94,26.94,0,0,0,2.9,1.6,14.57,14.57,0,0,0,7.1,1,7,7,0,0,0-2.1-3.5A6.15,6.15,0,0,0,80.3,270.2Z"/><path class="cls-56" d="M86.4,257.2a8.18,8.18,0,0,0-3.7-1.9,12.86,12.86,0,0,0,.3,3.9,11.47,11.47,0,0,0,1.1,3.1,16.09,16.09,0,0,0,1.7,2.8,14.38,14.38,0,0,0,2.8,2.7,7,7,0,0,0,.9-4,10.59,10.59,0,0,0-.9-3.6A8.94,8.94,0,0,0,86.4,257.2Z"/><path class="cls-56" d="M132.9,254.2a12.52,12.52,0,0,0,3.6-4.6,13.42,13.42,0,0,0,1.4-5.2,16.39,16.39,0,0,0-.3-5.4,13.6,13.6,0,0,0-2.5-5.3,16.18,16.18,0,0,0-2.7,5,20.47,20.47,0,0,0-1.1,4.9,20.91,20.91,0,0,0,0,5A17.27,17.27,0,0,0,132.9,254.2Z"/><path class="cls-57" d="M105.4,317.7c.2-.6.3-1.1.5-1.6C105.7,316.6,105.6,317.1,105.4,317.7Z"/><path class="cls-57" d="M83.2,331.9a56.1,56.1,0,0,1,3.1,12.7,59.16,59.16,0,0,1,.4,9.4l-.1,8.2-.1,5h.9a25.92,25.92,0,0,1,4.8.4c.5-17.9,2.7-43,2.7-48.5.1-8.8-3.7-20.3-3.7-20.3h0c-.1,1.3-.3,2.7-.4,4-.7,6.2-1.4,12.6-2.1,21,0,.3-.2.4-.5.4s-.3-.1-.4-.3c-2.5-4.7-5.2-8.8-7.8-13.2l-1.2-2-2.9-5.1-7.3-12.8-3.5.3c1.6,3.7,3.4,8.1,5.3,12.4h0c1.4,3.2,2.8,6.4,4,9.2,1.9,4.1,3.7,8,5.5,11.9,1,2.2,2,4.4,2.9,6.8Z"/><path class="cls-57" d="M104.9,319.6c.2-.6.3-1.2.5-1.7A8.45,8.45,0,0,0,104.9,319.6Z"/><path class="cls-57" d="M92.8,282.2l1.1-.6H92.8c0,.4-.1.8-.1,1.3,0,.7-.1,1.3-.1,2Z"/><path class="cls-58" d="M100.6,370.4c0-2,.1-4.6.1-8.2V351.6c0-3,.1-5.9.3-8.8a121.31,121.31,0,0,1,3.6-22.5c.1-.2.1-.4.2-.6.2-.6.3-1.2.5-1.7l.1-.2c.2-.6.3-1.1.5-1.6v-.1c1.2-3.8,2.4-7.5,3.8-11.2l3.2-8.5,6.3-16.5-3.6,1.1-8.8,18.1-.3.7s-4.8,9.9-7,14.4a.71.71,0,0,1-1,.3.67.67,0,0,1-.4-.7c-.2-4.7-.3-8.7-.3-12.1,0-8.5.3-14.1.5-22v-.2L94,281.8l-1.1.6-.2,2.7-1.3,14h0s3.8,11.5,3.7,20.3c0,5.5-2.2,30.6-2.7,48.5A22.26,22.26,0,0,1,100.6,370.4Z"/><path class="cls-59" d="M512.7,376.2a34.3,34.3,0,0,0-48.4-2.6,32.49,32.49,0,0,0-8.2,11.2,24.1,24.1,0,0,0-20.8-12,28.25,28.25,0,0,0-2.9.2,23.84,23.84,0,0,0-13.1,5.9c-.2.7-.4,1.3-.6,1.9-.4,1.8-.5,4,0,8.3l-4.9.1h-1.3c-.1.2-.1.4-.2.5-.2.7-.4,1.4-.6,2.2H520.8c-.2-.7-.3-1.5-.5-2.2,0-.2-.1-.3-.1-.5A40.17,40.17,0,0,0,512.7,376.2Z"/><path class="cls-59" d="M111.4,390.1h39.8c0-.1-.1-.2-.1-.4v-.1A20.32,20.32,0,0,0,131.3,374h0a20.61,20.61,0,0,0-17.6,10.1,29,29,0,0,0-21.5-16.5,25.92,25.92,0,0,0-4.8-.4h-.9a28.88,28.88,0,0,0-27.2,22.5c0,.1-.1.2-.1.4Z"/><path class="cls-60" d="M434.4,272.5a41.17,41.17,0,0,1,9.1,16,37.06,37.06,0,0,0-5.3-11.4A40.28,40.28,0,0,0,434.4,272.5Z"/><path class="cls-60" d="M383.4,358.6l-1.6-.7Z"/><path class="cls-60" d="M381.3,357.6l-1.8-.9Z"/><path class="cls-60" d="M379.3,356.5c-1.4-.8-2.7-1.6-4-2.5A33.36,33.36,0,0,0,379.3,356.5Z"/><path class="cls-60" d="M366.5,345.7h0a47.7,47.7,0,0,0,4.8,5.2A59.12,59.12,0,0,1,366.5,345.7Z"/><path class="cls-60" d="M373.1,352.4c-.5-.4-1-.9-1.6-1.3A10.1,10.1,0,0,1,373.1,352.4Z"/><path class="cls-60" d="M396.4,361.9c.4,0,.9.1,1.3.1h0A6.15,6.15,0,0,1,396.4,361.9Z"/><path class="cls-60" d="M390.8,361c-1.5-.4-3.1-.8-4.6-1.3C387.7,360.2,389.3,360.6,390.8,361Z"/><path class="cls-60" d="M393.1,361.5l-1.7-.3C392,361.3,392.6,361.4,393.1,361.5Z"/><path class="cls-60" d="M385.7,359.5c-.6-.2-1.1-.4-1.7-.6C384.6,359.1,385.2,359.3,385.7,359.5Z"/><path class="cls-60" d="M375.1,353.9c-.6-.4-1.1-.9-1.7-1.3C373.9,353,374.5,353.5,375.1,353.9Z"/><path class="cls-60" d="M395.6,361.8c-.5-.1-1-.1-1.6-.2A7.77,7.77,0,0,0,395.6,361.8Z"/><path class="cls-54" d="M364.7,291.6l-.7.9.7-.6v-2A34.31,34.31,0,0,1,399,255.8a34.85,34.85,0,0,0-28.6,14.5,30,30,0,0,0-5.6,17.3Z"/><path class="cls-54" d="M405.7,256.4l2.7.6Z"/><path class="cls-54" d="M376.3,287.1a18.28,18.28,0,0,1,12.5,2.5,45.35,45.35,0,0,0-11.3,3.7,40.91,40.91,0,0,0-8.9,6,51,51,0,0,0-7.2,8.2c-2.2,3.1-4.2,6.5-6.5,10.4a23.26,23.26,0,0,1-.3-9.1,32.56,32.56,0,0,0-1.2,7.6v2a35.41,35.41,0,0,0,4.7,17.1c.4.6.7,1.2,1.1,1.8a37.76,37.76,0,0,0,4.3,5.4,26.82,26.82,0,0,0,3,2.8h0c7.1,6,16.5,7.5,26.7,7.5a40.71,40.71,0,0,0,18.7-4.6l4.4-2.9v.3a41.21,41.21,0,0,0,9.7-9.4l4.1-5.6,7.2.6a18.48,18.48,0,0,0,2.3.1c13,0,22.3-7.4,22.3-19.5,0-11-7.4-20.4-19-21.9l-8.6-1.1-1.8-7.9c-1.5-6.8-10.6-18.8-27-24.9a36.83,36.83,0,0,0-6.6-.6h0C379.7,261,376.7,279.3,376.3,287.1Zm46.8,21.1a48.35,48.35,0,0,0-9.2-6.3,33.75,33.75,0,0,0-9.2-3.3,35.68,35.68,0,0,0-9.8-.5,50.19,50.19,0,0,0-10.9,2.2,17.75,17.75,0,0,1,9.3-8.4,22.14,22.14,0,0,1,24.5,5A16.94,16.94,0,0,1,423.1,308.2Z"/><path class="cls-56" d="M394.2,353.7l2.3-.2,4.9,8.7h.1a80.56,80.56,0,0,0,9.8-.6q.15-2.1.3-4.5v-1c0-.6.1-1.1.1-1.6q.15-2.85.3-6h0a40.71,40.71,0,0,1-18.7,4.6c-10.3,0-19.6-1.5-26.7-7.5h0a47.7,47.7,0,0,0,4.8,5.2l.2.2a10.1,10.1,0,0,0,1.6,1.3l.3.2c.6.4,1.1.9,1.7,1.3l.1.1a33.36,33.36,0,0,0,4,2.5l.2.1,1.8.9.5.2,1.6.7.6.2c.6.2,1.1.4,1.7.6l.5.2a34.71,34.71,0,0,0,4.6,1.3l.6.1,1.7.3.8.1a7.77,7.77,0,0,0,1.6.2l.9.1c.4,0,.9.1,1.3.1C396.5,359.2,395.2,356.2,394.2,353.7Z"/><path class="cls-56" d="M405.7,256.4h-.1c16.4,6.1,25.5,18.1,27,24.9l1.8,7.9,8.6,1.1c11.6,1.5,19,10.9,19,21.9,0,12.2-9.2,19.5-22.3,19.5a18.48,18.48,0,0,1-2.3-.1l-7.2-.6-4.1,5.6a43.27,43.27,0,0,1-9.7,9.4c-.1,4.6-.2,9.8-.3,14.9a14.62,14.62,0,0,0,2-.5c1.4-.4,2.8-.8,4.2-1.3l5.9-12.3,2.5-.7-4.2,11.1a33.5,33.5,0,0,0,5.9-3.9,31,31,0,0,0,4.6-5,27.21,27.21,0,0,0,14.4-2.7,32.58,32.58,0,0,0,4-2.4,40.31,40.31,0,0,0,3.2-2.6c6.5-6,10.7-14.6,10.8-23.1V317a28.09,28.09,0,0,0-2.5-11,27.56,27.56,0,0,0-6.6-8.9,29.44,29.44,0,0,0-4.1-3.1,30.86,30.86,0,0,0-10-4,18.66,18.66,0,0,0-2.5-.4c-.1-.4-.2-.7-.3-1.1a41.17,41.17,0,0,0-9.1-16l-.5-.6c-.5-.5-.9-1-1.4-1.5h0l-.1-.1a48.08,48.08,0,0,0-14.2-9.8,44.4,44.4,0,0,0-7.2-2.7c-.8-.2-1.6-.5-2.5-.7S406.6,256.6,405.7,256.4Z"/><path class="cls-55" d="M393.4,291.9a18.16,18.16,0,0,0-9.3,8.4,50.19,50.19,0,0,1,10.9-2.2,35.88,35.88,0,0,1,9.8.5,37.43,37.43,0,0,1,9.2,3.3,53.44,53.44,0,0,1,9.2,6.3,18.27,18.27,0,0,0-5.2-11.4,22.33,22.33,0,0,0-24.6-4.9Z"/><path class="cls-55" d="M359.7,296.9c-.7,1-1.4,2-2,3a20.57,20.57,0,0,0-2.1,4.8,30.59,30.59,0,0,0-1,4.1,23.26,23.26,0,0,0,.3,9.1,98.49,98.49,0,0,1,6.5-10.4,47,47,0,0,1,7.2-8.2,40.91,40.91,0,0,1,8.9-6,41.6,41.6,0,0,1,11.3-3.7,18.28,18.28,0,0,0-12.5-2.5,21.64,21.64,0,0,0,0,3.6l-13.8,6.2,2.2-2.8v-2.2l-.7.6a6.47,6.47,0,0,0-.9.8h0A29,29,0,0,0,359.7,296.9Z"/><path class="cls-55" d="M364.8,289.9v4.3l-2.2,2.8,13.8-6.2a21.64,21.64,0,0,1,0-3.6c.4-7.8,3.4-26.1,22.8-31.3h0A34.12,34.12,0,0,0,364.8,289.9Z"/><path class="cls-61" d="M414.3,372.6c0-5.9-2.8-14.6-2.8-14.6v-.9q-.15,2.4-.3,4.5v.6c-.3,3.6-.8,6.1-1.9,7.1-2.2,2-3.9-.3-5.9-3.7-.5-.9-1.2-2.1-2-3.4l-4.9-8.7-2.3.2c1,2.5,2.3,5.5,3.6,8.3h0a3.55,3.55,0,0,0,.4.9c.8,1.9,1.6,3.7,2.3,5.3,2,4.3,3.9,8.2,5.7,12.6,0,.1.1.2.1.4a37.76,37.76,0,0,1,2.1,8l3.9-.1h1.3C413.7,389,414.3,378.5,414.3,372.6Z"/><path class="cls-61" d="M418.6,380.8a8.24,8.24,0,0,1,.6-1.9c.3-1,.8-2.3,1.2-4C419.6,377.6,419,379,418.6,380.8Z"/><path class="cls-61" d="M421.1,372.3c0-.2.1-.3.1-.5A.75.75,0,0,1,421.1,372.3Z"/><path class="cls-61" d="M416.1,361v-.2c.1-5,.2-10.3.3-14.9v-.3C416.3,351.2,416.1,355,416.1,361Z"/><path class="cls-61" d="M411.6,354.6a47.4,47.4,0,0,0,.3-6Q411.75,351.75,411.6,354.6Z"/><path class="cls-62" d="M418.1,367.6l-.8,1.6a.52.52,0,0,1-.7.3.55.55,0,0,1-.3-.5c-.1-2.6-.1-4.8-.2-6.8V361c0-6,.2-9.8.3-15.3l-4.4,2.9h0s0,1.4-.3,6c0,.5-.1,1-.1,1.6v1.9s2.8,8.7,2.8,14.6-.6,16.4-.7,16.6h0l4.9-.1a31.28,31.28,0,0,1,0-8.3,58,58,0,0,1,1.8-5.9c.1-.3.2-.7.3-1.1h0c0-.2.1-.3.1-.5l.3-1c0-.2.1-.3.1-.5a6.47,6.47,0,0,1,.4-1.3h0c.8-2.5,1.6-5.1,2.6-7.6l2.2-5.7,4.2-11.1-2.5.7-5.9,12.2-.2.5S419.7,364.3,418.1,367.6Z"/><polygon class="cls-63" points="668.9 217.6 659.2 241.3 666.5 241.3 683.1 200.8 688.4 213.8 683.1 182.9 668.9 217.6"/><polygon class="cls-63" points="706.7 241.3 707 241.3 700.5 225.6 683.1 182.9 706.7 241.3"/><polygon class="cls-63" points="666.5 241.3 672.9 241.4 683.1 216.6 693 240.9 688.4 213.8 683.1 200.8 666.5 241.3 666.3 241.8 666.5 241.3"/><polygon class="cls-63" points="654.2 281.8 656.4 281.8 670.3 247.8 664.5 246.1 655.2 268.9 654 271.9 651.9 277.1 650 281.8 654.2 281.8"/><polygon class="cls-63" points="643.1 314.3 641.8 317.6 640 321.8 645.1 321.8 645.7 321.8 646.2 321.8 646.4 321.8 660.3 287.7 654.5 286.6 656.5 281.8 662.7 281.8 676 249.3 670.3 247.8 656.4 281.8 654.2 287 651.4 294 646.5 306.1 644.8 310.2 643.1 314.3"/><polygon class="cls-63" points="701.6 277.6 697.8 255.4 691.9 253.8 701.6 277.6"/><polygon class="cls-63" points="672.9 241.4 679.2 241.6 683.1 232.1 687 241.7 693.2 241.9 693 240.9 683.1 216.6 672.9 241.4"/><path class="cls-63" d="M644.6,327.1l2-4.8h65.7l-4.5-26.1-47.5-8.5-14,34.1-.2.5-.4,1.1-1,2.3-3.9,9.6-2.5,6.1-7.1,17.3-1,2.4H722l-4.1-24Z"/><polygon class="cls-63" points="687 241.7 683.1 232.1 679.2 241.6 687 241.7"/><polygon class="cls-63" points="662.7 281.8 702.4 281.8 701.7 277.6 692 253.8 676 249.3 662.7 281.8"/><polygon class="cls-64" points="693 240.9 693.2 241.9 695.6 241.9 695.6 241.9 692.3 222.8 700 241.9 700.5 241.9 707 241.9 706.7 241.3 683.1 182.9 688.4 213.8 693 240.9"/><polygon class="cls-64" points="700 242 699.9 241.9 692.2 222.8 695.5 241.9 695.5 241.9 700 242"/><polygon class="cls-64" points="697.8 255.4 701.6 277.6 702.3 281.8 705.2 281.8 702.1 263.4 709.5 281.8 709.7 281.8 716.1 281.8 706.4 257.8 697.8 255.4"/><polygon class="cls-64" points="707.7 296.2 712.2 322.3 715.3 322.3 711.8 302 720.1 322.4 725.9 322.4 725.7 321.8 715.9 297.7 707.7 296.2"/><polygon class="cls-64" points="714.71 292.6 709.82 281.8 701.98 262.9 705.05 281.8 709.82 281.8 714.71 292.6"/><polygon class="cls-64" points="711.8 302 715.3 322.3 719.5 322.3 725.9 338.2 717.8 337 721.9 361.1 735.7 361.1 731.7 351 729.6 346 720.1 322.4 711.8 302"/><polygon class="cls-65" points="679.2 241.6 672.9 241.4 666.5 241.3 666.3 241.8 664.5 246.1 664.5 246.1 670.3 247.8 676 249.3 692 253.8 697.9 255.4 706.5 257.8 706.6 257.8 700.5 242.9 700.2 242 700.1 242 695.6 241.9 695.6 241.9 693.2 241.9 687 241.7 679.2 241.6"/><polygon class="cls-65" points="662.7 281.8 656.5 281.8 654.5 286.6 660.3 287.7 707.8 296.2 716 297.7 716 297.7 714 292.6 709.6 281.8 705.3 281.8 702.4 281.8 662.7 281.8"/><polygon class="cls-65" points="646.6 322.3 644.6 327.1 717.9 337 726 338.2 719.6 322.3 715.4 322.3 712.3 322.3 646.6 322.3"/><path class="cls-61" d="M675.6,368.8v20.7h9.8V378C685.4,372.6,681,368.8,675.6,368.8Z"/><path class="cls-62" d="M690.3,362.2v-1.1H675.6v7.7c5.4,0,9.8,3.8,9.8,9.2v11.5h4.8V362.2Z"/><polygon class="cls-7" points="580.9 60.2 588.6 64.5 588.6 57 552.3 36 517.4 56.8 517.4 64.5 523.8 60.8 552.4 44.2 580.9 60.2"/><polygon class="cls-66" points="666.85 31 666.85 93.3 433.15 94 432.85 31 666.85 31"/><path class="cls-67" d="M668.55,28.9l-236.5-.5V95h236.5ZM435.05,72.8h13.5V91.1h-13.5Zm0-20.5h13.5V70.6h-13.5Zm0-20.4h13.5V50.2h-13.5Zm16.7,40.9h13.5V91.1h-13.5Zm0-20.5h13.5V70.6h-13.5Zm0-20.4h13.5V50.2h-13.5Zm16.5,40.9h13.5V91.1h-13.5Zm0-20.5h13.5V70.6h-13.5Zm0-20.4h13.5V50.2h-13.5Zm16.5,40.9h13.5V91.1h-13.5Zm0-20.5h13.5V70.6h-13.5Zm0-20.4h13.5V50.2h-13.5Zm16.6,40.9h13.5V91.1h-13.5Zm0-20.5h13.5V70.6h-13.5Zm0-20.4h13.5V50.2h-13.5Zm16.8,40.9h13.5V91.1h-13.5Zm0-20.5h13.5V70.6h-13.5Zm16.8,0h13.5V70.6H535Zm-16.8-20.4h13.5V50.2h-13.5ZM535,72.8h13.5V91.1H535Zm0-40.9h13.5V50.2H535Zm16.7,40.9h13.5V91.1h-13.5Zm0-20.5h13.5V70.6h-13.5Zm0-20.4h13.5V50.2h-13.5Zm16.5,40.9h13.5V91.1h-13.5Zm0-20.5h13.5V70.6h-13.5Zm0-20.4h13.5V50.2h-13.5Zm16.5,40.9h13.5V91.1h-13.5Zm0-20.5h13.5V70.6h-13.5Zm0-20.4h13.5V50.2h-13.5Zm16.7,40.9h13.5V91.1h-13.5Zm0-20.5h13.5V70.6h-13.5Zm0-20.4h13.5V50.2h-13.5Zm16.7,40.9h13.5V91.1h-13.5Zm0-20.5h13.5V70.6h-13.5Zm0-20.4h13.5V50.2h-13.5Zm17,40.9h13.5V91.1h-13.5Zm0-20.5h13.5V70.6h-13.5Zm0-20.4h13.5V50.2h-13.5ZM652,72.8h13.5V91.1H652Zm0-20.5h13.5V70.6H652Zm0-20.4h13.5V50.2H652Z"/><rect class="cls-68" x="283.15" y="356.2" width="2.6" height="47.3"/><rect class="cls-68" x="348.45" y="356.2" width="2.6" height="47.3"/><rect class="cls-69" x="278.95" y="354.4" width="77.1" height="5.5"/><rect class="cls-69" x="278.95" y="361.7" width="77.1" height="5.5"/><rect class="cls-69" x="278.95" y="369" width="77.1" height="5.5"/><rect class="cls-69" x="278.95" y="380" width="77.1" height="3.2"/><path class="cls-70" d="M299.05,339.3H297a3.48,3.48,0,0,0-3.5,3.5l-.7,11.5a2.84,2.84,0,0,0,2.9,2.5H300a2.84,2.84,0,0,0,2.9-2.5l-.4-11.5A3.46,3.46,0,0,0,299.05,339.3Z"/><path class="cls-71" d="M295.05,346.8a3.2,3.2,0,0,0,6.4,0v-3.9h-6.4Z"/><path class="cls-71" d="M296,351.7a1.9,1.9,0,1,0,3.8,0v-4.3h-3.9v4.3Z"/><polygon class="cls-70" points="294.05 347.8 295.45 349.6 295.95 350.5 296.35 341.9 294.45 342.8 294.05 347.8"/><path class="cls-70" d="M295.15,343.5l1.1.4a1,1,0,0,1,1-1v-.6h-2.1Z"/><path class="cls-72" d="M297.15,349.5a2.27,2.27,0,0,0,2.7.5v-.3A2.9,2.9,0,0,1,297.15,349.5Z"/><path class="cls-72" d="M299.85,346.8H299a.68.68,0,0,0,1.2.1l-.4-2.5Z"/><path class="cls-73" d="M292.75,368.1s-2.4,6.4-2.4,9.1c.1,3.4,1.9,4.1,6.2,4.1h3.6c4,0,5.6-1.4,5.6-4.1,0-3.3-2.5-9.1-2.5-9.1Z"/><path class="cls-72" d="M299.85,375.6h0a1.54,1.54,0,0,1-1.6.8c-2.7-.1-5.1-1.2-7.5-2.3a12.29,12.29,0,0,0-.4,2.9c.1,3.4,1.9,4.1,6.2,4.1h3.6c4,0,5.6-1.4,5.6-4.1a26.27,26.27,0,0,0-.9-4.8A12.39,12.39,0,0,1,299.85,375.6Z"/><path class="cls-74" d="M305.75,354h0a2.66,2.66,0,0,0-1.9-2.1l-3.8-1c-.1.3-4.4,0-4.4,0l-3.7,1a3.6,3.6,0,0,0-2.1,1.9l-.6,2.9c.2.1,2.9,3.6,2.9,3.6l.5,7.8-.6,1.5c3.9,0,8,.4,11.9.5-.4-1.1-.8-2-.8-2l-.2-6.5a2.28,2.28,0,0,0,1-1.9v-.1a10.3,10.3,0,0,0-.1-1.3c1.1-.7,1.7-1,2.2-1.3Z"/><path class="cls-71" d="M296,350.7l-3.4,1c1.4,3.4,9.8,2.2,11.3.2l-4-1.1A16.82,16.82,0,0,1,296,350.7Z"/><path class="cls-72" d="M292.15,360.3l.5,7.7-.6,1.5h1.4c-.1-1.5-.1-2.9-.3-4.4C293.15,363.5,293.25,361.8,292.15,360.3Z"/><path class="cls-72" d="M300.85,361.6a.35.35,0,0,1,.2.1,1.58,1.58,0,0,1,1.3,1.7c0,2.5-1.2,4.4-1.1,6.6.5,0,2.8.1,2.8.1-.4-1.1-.8-2-.8-2l-.2-6.5a2.28,2.28,0,0,0,1-1.9v-.1a9.66,9.66,0,0,1-2.6,1.9A1.27,1.27,0,0,1,300.85,361.6Z"/><path class="cls-71" d="M296.05,378.2l2.7,15.3-1.5,7.2s-.4,2.8.7,3.1c1.8.5,3.3-.3,3.5-3.2v-7.1l.7-11.9C302.25,381.6,301.85,372.8,296.05,378.2Z"/><path class="cls-72" d="M296.05,378.2l.1.4a.71.71,0,0,1,.6.3,1.61,1.61,0,0,1,1.1.5c3,2.7,3.2,6.9,3.2,10.7,0,2.5-.2,2.8-.1,5.2.1,2,.4,3.9.5,5.8a.9.9,0,0,1,.1-.5v-7.1l.7-11.9S301.85,372.8,296.05,378.2Z"/><path class="cls-75" d="M300.65,400.1c-1.1.7-2.9.9-3.1-.6l-.2,1.2s-.4,2.8.7,3.1c1.8.5,3.3-.3,3.5-3.2v-1.3A6.47,6.47,0,0,1,300.65,400.1Z"/><path class="cls-74" d="M306.25,356.9l-3,1.6,1.4,6.5-5.5,3.8,1.4,1.7,6-2.7c.8-.4,1.4-1,1.3-1.8Z"/><path class="cls-74" d="M292.65,358.7l-3.3-2.4-1.8,9.7c-.2.9.5,1.4,1.3,1.8l6.4,3.2,1.7-1.8-5.9-4Z"/><path class="cls-72" d="M289.15,360.4c.5-3.7.7-6.7.7-6.7l-.9,4.6-1.4,7.6c-.2.9.5,1.4,1.3,1.8l6.4,3.2,1-1c-1.6-.9-5.8-3.4-7.2-4.5C288.65,365.1,288.85,363.3,289.15,360.4Z"/><path class="cls-72" d="M307.45,363.7c0,2.3-.9,2.4-1.4,2.7-2.1,1.2-5.6,2.5-6.4,2.9l.9,1.1,6-2.7c.8-.4,1.4-1,1.3-1.8Z"/><path class="cls-74" d="M302.65,354.4s-9.4.3-9.4,1.5l-.2,3.8a2.48,2.48,0,0,0,2.4,2.2h6.7a2.12,2.12,0,0,0,2-2.2v-.1C304.15,359.5,303.75,354.4,302.65,354.4Z"/><path class="cls-72" d="M303.15,360.4a5.07,5.07,0,0,1-3.3,1.3h2.3a2.12,2.12,0,0,0,2-2.2v-.1a2.8,2.8,0,0,0-.1-.6A3.54,3.54,0,0,1,303.15,360.4Z"/><path class="cls-71" d="M309.35,388.6,305,377.7a12.81,12.81,0,0,0-2.1-3.3c-.9-.7-3.4-2.6-5.8-.6-3.2,2.6-.7,6.2-.7,6.2s-.8-1.5,1.8-1.2c.7.1,4,4.4,4,4.4l5.3,7.2,2.4,6.4c1.4,2.5,3.3,3,5.2,2.4,1.3-.4-1.3-3.6-1.3-3.6Z"/><path class="cls-75" d="M313.45,394.8v1c-.5,1.8-2.7,1-3.8,0l.3.8c1.4,2.5,3.3,3,5.2,2.4,1.3-.4-1.3-3.6-1.3-3.6Z"/><path class="cls-71" d="M299.55,368.5l-2.8.7-1.5,1.6a3.23,3.23,0,0,0,3.4,0l2.3.7c1.8.1,1.6-.7,1.6-.7Z"/><path class="cls-72" d="M299,370.1c-.1-.1-.2-.2-.2-.3a8,8,0,0,0-2,.7,1.15,1.15,0,0,1-1-.1l-.5.5a3.23,3.23,0,0,0,3.4,0l2.3.7h.2a5.51,5.51,0,0,1-1.4-.9A2.41,2.41,0,0,1,299,370.1Z"/><path class="cls-71" d="M298.75,368.2l-1.2-.6a1,1,0,0,0-.9.1l-2,1.4s1.3,1.1,2.2.6a13.07,13.07,0,0,1,2.1-.8S299.35,368.6,298.75,368.2Z"/><path class="cls-76" d="M343,350.8l-6.8-2.6H336l-6.8,2.6a3.67,3.67,0,0,0-2.5,2.2h0l2.8,7.8.1,6.1-.5,6.1h14l-.4-13.7,3.1-6.3C345.25,352.6,344.65,351.3,343,350.8Z"/><path class="cls-72" d="M342,359.8c-.2.9-1.2,10.9-1.8,13.3h2.6l-.4-13.7Z"/><path class="cls-72" d="M342.85,374c-.1,0-.1.1,0,0C342.75,374.1,342.75,374,342.85,374Z"/><path class="cls-77" d="M331.65,344.6a3.59,3.59,0,0,0,3.6,3.6c2,0,4.1-2.3,4.1-4.3v-3.6h-7.7Z"/><path class="cls-77" d="M333.55,350.1a1.68,1.68,0,0,0,.6,1.4,1.48,1.48,0,0,1,.7-.1,2.11,2.11,0,0,1,1.6.6,2.08,2.08,0,0,0,1.4-2v-4.9h-4.3v5Z"/><path class="cls-78" d="M336.25,337.5h-5.5c0,2.7.9,2.8.9,2.8h4.7a1,1,0,0,1,1.1,1.1h0v1.1h.6s.2-.5.5-.5.5,0,.5.7c0,2-1,1.9-1,1.9l-.3,2.4c1.7-.9,1.8-4,1.8-4v-2.8C339.65,337,336.25,337.5,336.25,337.5Z"/><path class="cls-72" d="M333.55,347.8v.4a2.77,2.77,0,0,0,3.2-.6C336.75,347.5,335,348.6,333.55,347.8Z"/><path class="cls-72" d="M333.35,341.6l-.4,2.6s.6.9,1.3-.1h-1Z"/><polygon class="cls-68" points="335.15 351.5 336.75 353.1 338.85 349.3 337.85 348.1 335.15 351.5"/><polygon class="cls-68" points="332.55 349.5 333.45 353 335.15 351.5 333.45 348.2 332.55 349.5"/><path class="cls-79" d="M327.65,377.4a3.59,3.59,0,0,0,3.6,3.6h8a3.59,3.59,0,0,0,3.6-3.6V373h-15.2Z"/><path class="cls-72" d="M342.25,374.1c-1.9,2.6-4.8,3.4-8,3.4-1.6,0-3.2-.1-4.9-.1h-1.8v.3a3.33,3.33,0,0,0,3.3,3.3h8.5a3.33,3.33,0,0,0,3.3-3.3v-3.6h-.4Z"/><path class="cls-80" d="M326.75,401.2l-3.2,1.4a2,2,0,0,0-1.9,1.6h8.7a5.87,5.87,0,0,0-.4-2.9l-3.2-.1Z"/><path class="cls-80" d="M335.45,401.2l-2.2,1.4a1.9,1.9,0,0,0-1.9,1.6h7.4a5.32,5.32,0,0,0-.5-2.9l-2.8-.1Z"/><polygon class="cls-76" points="324.95 367.7 323.35 377.5 326.05 377.5 328.45 369.1 329.75 359 326.45 353 324.95 367.7"/><path class="cls-72" d="M324.15,377.4h0l1.9.1,2.4-8.4.8-5.5A38.4,38.4,0,0,0,328,369S325.35,375.2,324.15,377.4Z"/><polygon class="cls-76" points="342.35 359.4 343.65 367.2 347.45 366.9 345.45 353 342.35 359.4"/><path class="cls-77" d="M323.35,377.5a8.6,8.6,0,0,0-1.3,2.1c-.1.6-.1,1.4.7,1.4h3.1l-.4-3.5Z"/><path class="cls-79" d="M327.65,373a2.78,2.78,0,0,0-2.7,2.8l1.6,25.3h3.9V375.8A2.93,2.93,0,0,0,327.65,373Z"/><path class="cls-72" d="M329.65,379.8c-.3,7.1-1.1,14.3-1.4,21.4h2.1V375.9a3.31,3.31,0,0,0-.4-1.5A14.08,14.08,0,0,1,329.65,379.8Z"/><path class="cls-79" d="M336.15,373a2.78,2.78,0,0,0-2.7,2.8l1.6,25.3H339V375.8A2.93,2.93,0,0,0,336.15,373Z"/><path class="cls-72" d="M337.55,373.5c2.1,2.2.3,7.4.1,10.3-.5,5.8-.6,11.6-1.1,17.4h2.3V375.9A2.81,2.81,0,0,0,337.55,373.5Z"/><path class="cls-76" d="M338.45,368.5a7,7,0,0,0,.1,2.5l7.2-1.6a1.65,1.65,0,0,0,1.7-1.8l-.3-2.6Z"/><path class="cls-81" d="M336.35,364.7c0-.2-.2-.3-.4-.3l-2.7.6c-.2,0-.3.2-.3.4l1.2,5.7c0,.2.2.3.4.3l2.7-.6c.2,0,.3-.2.3-.4Z"/><path class="cls-77" d="M337.05,367.7l.1.9h-3.8a.72.72,0,0,0,.7.8l1,1.4a1.05,1.05,0,0,0,.9.5h1.3a2.85,2.85,0,0,0,1.7-.4l-.2-2.1A4.55,4.55,0,0,0,337.05,367.7Z"/><path class="cls-10" d="M523.45,107.4v10.4h57.2V65.9l-28.4-16.3-28.8,16.2v41.6Zm13.3-43.2,3.6,3.6h0l-3.6-3.6,32-.1V90.4h-32Z"/><path class="cls-16" d="M540.75,90.4h24V68.2h-24l-.4-.4h0l.4.4Zm2.7-19.6H562V90.2h-18.5Z"/><rect class="cls-13" x="543.45" y="70.8" width="18.5" height="19.4"/><polygon class="cls-17" points="564.75 68.2 564.75 90.4 565.05 90.4 568.75 90.4 568.75 64.2 564.75 68.2"/><polygon class="cls-18" points="564.75 68.2 568.75 64.2 568.75 64.1 536.85 64.2 540.35 67.8 540.75 68.2 564.75 68.2"/><polygon class="cls-17" points="540.75 90.4 540.75 68.2 540.35 67.8 536.75 64.2 536.75 90.4 540.75 90.4"/><polygon class="cls-8" points="580.55 65.9 580.55 60.2 552.05 44.2 523.45 60.8 523.45 65.8 552.15 49.6 580.55 65.9"/><polygon class="cls-7" points="580.55 60.2 588.25 64.5 588.25 57 551.95 36 517.05 56.8 517.05 64.5 523.45 60.8 552.05 44.2 580.55 60.2"/></g></g></svg>