<svg xmlns="http://www.w3.org/2000/svg" viewBox="0 0 374.28 128.6"><defs><style>.cls-1{fill:#fff;}.cls-2{fill:#f39660;}.cls-3{fill:#6a4a4f;}.cls-4{fill:#5b4436;}.cls-5{fill:#faf8f6;}.cls-6{opacity:0.3;}.cls-7{fill:#eab99f;}.cls-8{opacity:0.08;}.cls-9{fill:#f3e7cb;}.cls-10{fill:#623e3b;}.cls-11{fill:#ec614e;}.cls-12{fill:#3f82a4;}.cls-13{fill:#595959;}.cls-14{fill:#434343;}.cls-15{fill:#127296;}.cls-16{fill:#f08172;}</style></defs><g id="Layer_2" data-name="Layer 2"><g id="Layer_1-2" data-name="Layer 1"><path class="cls-1" d="M203.36,46.41c2.93-1.3,4.88-3.42,9.28-.81s7,8.76,6.83,12c-.21,5.37-2.28,21.65-.16,20.68S233,65.79,245.19,66.44s24.58,7,24.58,7-1,2.28-2.93,2.28c0,0,.16,2.77,3.74.82s8.79-4.4,10.9-5.7-2.44,5.7-6.34,7.65c0,0-2.44,9-6.51,9H205.47s-1-6.51,3.75-16.44,4.07-13.19,2.28-17.59a34,34,0,0,1-5.86.65c-1.47-.16-4.27-3.76-4.27-3.76A3.1,3.1,0,0,1,203.36,46.41Z"/><path class="cls-2" d="M201.46,53.41c.31-.77.13-1.86,1-1.87s3,.92,2.78,2.42c0,0-3.77,3.52-4.38,3.93s-2.16,1.22-2.16,1.22-1.06-.49.37-2.11A12.85,12.85,0,0,0,201.46,53.41Z"/><path class="cls-3" d="M202.38,50.16c.65.1,2.18-.94,2.18-.94,1.52-.76,1.34,0,.79.33s-.23,1.36,0,2.18c.41,1.76-.05,2.23-.05,2.23,0-1.63-1.79-2.12-2.39-2.12s-.15.76-.45,1.41c-.51,1.1-.34-.41-.61-1.06a11.69,11.69,0,0,1-.51-1.93C201.3,50.05,201.73,50.05,202.38,50.16Z"/><path class="cls-4" d="M204.88,49c.76-.51,1.23-.25,1.23-.25.16,1.28-1.67.88-1.67.88S204.13,49.5,204.88,49Z"/><path class="cls-5" d="M306.16,51.91c2.54-1.13,4.23-3,8-.7s6,7.58,5.92,10.43c-.18,4.65-2,18.75-.14,17.91s11.84-10.86,22.41-10.3,21.29,6.07,21.29,6.07-.85,2-2.54,2c0,0,.14,2.4,3.24.71s7.61-3.81,9.44-4.94-2.11,4.94-5.49,6.63c0,0-2.12,7.75-5.64,7.75H308s-.84-5.64,3.24-14.24,3.53-11.42,2-15.23a30,30,0,0,1-5.08.57c-1.27-.14-3.7-3.26-3.7-3.26A2.69,2.69,0,0,1,306.16,51.91Z"/><path class="cls-2" d="M304.52,58c.27-.67.11-1.61.88-1.62s2.57.8,2.4,2.09c0,0-3.26,3.06-3.79,3.41s-1.87,1.06-1.87,1.06-.91-.42.32-1.83A11.29,11.29,0,0,0,304.52,58Z"/><path class="cls-3" d="M305.31,55.15c.57.1,1.89-.81,1.89-.81,1.32-.66,1.16,0,.69.28s-.2,1.19,0,1.9c.35,1.52-.05,1.92-.05,1.92,0-1.41-1.55-1.83-2.06-1.83s-.13.66-.39,1.22c-.44,1-.29-.35-.53-.91a10.26,10.26,0,0,1-.45-1.67C304.37,55.06,304.75,55.06,305.31,55.15Z"/><path class="cls-4" d="M307.48,54.15c.65-.44,1.06-.21,1.06-.21.14,1.11-1.45.76-1.45.76S306.83,54.59,307.48,54.15Z"/><g class="cls-6"><path class="cls-1" d="M205.64,119.33a37,37,0,0,1,5.86.62c1.79-4.2,2.44-7.31-2.28-16.79s-3.75-15.72-3.75-15.72h63.16c4.07,0,6.51,8.56,6.51,8.56,3.9,1.87,8.46,8.55,6.34,7.31s-7.32-3.58-10.9-5.44-3.74.77-3.74.77c2,0,2.93,2.18,2.93,2.18s-12.37,6.07-24.58,6.69-23.76-10.42-25.88-11.35-.05,14.62.16,19.75c.14,3.14-2.44,9-6.83,11.51s-6.35.47-9.28-.78-2-3.71-2-3.71S204.17,119.49,205.64,119.33Z"/><path class="cls-2" d="M198.72,114.51s1.55.78,2.16,1.17,4.38,3.76,4.38,3.76c.19,1.42-1.88,2.32-2.78,2.3s-.71-1-1-1.79a12.48,12.48,0,0,0-2.37-3.42C197.66,115,198.72,114.51,198.72,114.51Z"/><path class="cls-3" d="M202.42,120.11c.3.62-.15,1.35.45,1.35s2.39-.47,2.39-2c0,0,.46.44.05,2.12-.19.78-.5,1.78,0,2.09s.73,1-.79.31c0,0-1.53-1-2.18-.9s-1.08.11-1.08-.1a10.79,10.79,0,0,1,.51-1.84C202.08,120.5,201.91,119.06,202.42,120.11Z"/><path class="cls-4" d="M204.44,123.57s1.83-.39,1.67.84a1.27,1.27,0,0,1-1.23-.24C204.13,123.69,204.44,123.57,204.44,123.57Z"/></g><g class="cls-6"><path class="cls-1" d="M308.13,115.06a30.8,30.8,0,0,1,5.08.54c1.55-3.64,2.11-6.33-2-14.55S308,87.44,308,87.44h54.69c3.52,0,5.64,7.41,5.64,7.41,3.38,1.62,7.33,7.41,5.49,6.33s-6.34-3.09-9.44-4.71-3.24.67-3.24.67c1.69,0,2.54,1.89,2.54,1.89s-10.72,5.25-21.29,5.79S321.81,95.8,320,95s0,12.66.14,17.1c.12,2.73-2.11,7.82-5.92,10s-5.49.41-8-.67a2.53,2.53,0,0,1-1.73-3.22S306.86,115.19,308.13,115.06Z"/><path class="cls-2" d="M302.14,110.88s1.34.68,1.87,1,3.79,3.26,3.79,3.26c.17,1.23-1.62,2-2.4,2s-.61-.91-.88-1.55a10.79,10.79,0,0,0-2.06-3C301.23,111.29,302.14,110.88,302.14,110.88Z"/><path class="cls-3" d="M305.35,115.73c.26.54-.13,1.17.39,1.17s2.06-.4,2.06-1.75c0,0,.4.38.05,1.84-.16.68-.43,1.54,0,1.81s.63.89-.69.27c0,0-1.32-.87-1.89-.78s-.94.09-.94-.09a9.4,9.4,0,0,1,.45-1.59C305.06,116.07,304.91,114.82,305.35,115.73Z"/><path class="cls-4" d="M307.09,118.73s1.59-.34,1.45.72a1.09,1.09,0,0,1-1.06-.2C306.83,118.83,307.09,118.73,307.09,118.73Z"/></g><path class="cls-7" d="M22,79.35l-1.24,26.93-4.15.38-2-20.42.15-7.07L9.35,64.47a28.15,28.15,0,0,1-2.46-4,30.48,30.48,0,0,1-.62-5l16.23,1Z"/><g class="cls-8"><path d="M22,76.93l-.09,0c-5.33,2.76-5.31,8.3-5.47,13.75a41.83,41.83,0,0,0,.15,4.76,52.78,52.78,0,0,0,1.58,11.05l-1.62.15-2-20.42.15-7.07L9.35,64.47a28.15,28.15,0,0,1-2.46-4,30.48,30.48,0,0,1-.62-5l16.23,1Z"/></g><path class="cls-9" d="M23,76.29c-3.38-.23-7.21,0-10.6.1L9.35,64.47a28.77,28.77,0,0,1-2.46-4,30.48,30.48,0,0,1-.62-5l16.35,1Z"/><g class="cls-8"><path d="M24.76,65.33l-.74.44a1,1,0,0,0-1.06.39,27.44,27.44,0,0,0-4.48,12.13l-1.16.33L11.51,67.77A27.37,27.37,0,0,1,8.19,64.5a30.45,30.45,0,0,1-1.8-4.72l16.13-2.9Z"/></g><path class="cls-10" d="M15.65,0c1.78,0,4.42.17,6.6.28a1.7,1.7,0,0,1,1.12,2.89L16.63,13.59,13.13,12S10.78,9,10.86,6.51,12.16-.08,15.65,0Z"/><path class="cls-7" d="M15.08,12.12c1.39,0,1.47-1.87,1.47-1.87-.41-.27-.44-.89-.29-1.86.25-1.52,1.91-.17,1.91-.17.61-3.13,1.39-3.4,2.27-3.86a26,26,0,0,1,2.93-1.19l.9,3L24,7.4,26,10.74l-1.3.33-.57,5.12-3.57.33L19,21,13,16.78,13.13,12A8.2,8.2,0,0,0,15.08,12.12Z"/><polygon class="cls-7" points="5.95 82.39 4.13 59.95 9.13 59.97 21.37 59.74 18.11 66.87 16.43 69.53 12.74 87.42 5.48 106.71 1.73 106.34 4.2 88.81 5.95 82.39"/><g class="cls-8"><path d="M6,82.39,4.13,60l5,0,12.24-.23-3.26,7.13-1.68,2.66-1.88,9.13C7.37,78.64,5.28,89,4.76,92.6c-.37,2.54-.87,9.79-1,14l-2-.21L4.2,88.81Z"/></g><path class="cls-9" d="M3.68,67.2a19.61,19.61,0,0,1-.47-3.66l.09-6.41,15.13-3.28,2.68,6.73L21,66.51l-4.06,4-2,7.85c-3.41,0-7.09,0-10.49-.2L4,68.43Z"/><g class="cls-8"><path d="M3.68,67.2a19.61,19.61,0,0,1-.47-3.66l.09-6.41,15.13-3.28,2.68,6.73L21,66.51l-1.41,1.38c-4.72,2.71-9.49,5.67-11.93,10.35-1.08,0-2.15-.06-3.19-.11L4,68.43Z"/></g><path class="cls-11" d="M5.92,106.14l4.36,2.58a33.7,33.7,0,0,0,3.34.56,1.74,1.74,0,0,1,1.91,1.85l-7.31,1.12-8.07-.42c-.67-2.74,1.14-5.9,1.14-5.9Z"/><g class="cls-8"><path d="M3.8,106a.32.32,0,0,1,0,.09,12.14,12.14,0,0,0,.54,6l-4.16-.25c-.67-2.74,1.14-5.9,1.14-5.9Z"/></g><path class="cls-12" d="M6.05,33.49s.08-6,1.38-9.71S13,16.43,13,16.43s5.42,3,6.8,4.92c3.1,4.23,2.11,9.34,2.81,12.22.26,1-.1,15.58-.1,15.58L23,57.44a76.76,76.76,0,0,1-17,.31L6.9,47.46Z"/><rect class="cls-13" x="23.19" y="40.59" width="3.53" height="6.52"/><rect class="cls-14" x="26.68" y="42.08" width="1.23" height="3.31"/><polygon class="cls-13" points="28.81 43 28.81 43.54 28.81 45.93 27.91 45.36 27.91 43.54 27.91 43 27.91 42.08 28.81 41.51 28.81 43"/><path class="cls-13" d="M19.53,20a3.43,3.43,0,0,0,.31.36c4.26,4.82,5.5,11.63,5.52,20.23H24.23c0-12.54-3.72-17.77-5.24-19.48l-.37-.44c-.49-.66-4.28-2.91-6.55-4.16l.55-1C13.63,16.09,18.74,19,19.53,20Z"/><path class="cls-11" d="M5.11,51.36h16.8a2.87,2.87,0,0,1,2.87,2.87V65.64a2.87,2.87,0,0,1-2.87,2.87H5.11a2.88,2.88,0,0,1-2.88-2.88V54.23a2.87,2.87,0,0,1,2.87-2.87Z"/><path class="cls-11" d="M14.41,19.34c7,.75,7.77,8.48,7.78,8.57l1.92,25.87-1.46.11L20.74,28c0-.27-.72-6.63-6.48-7.25C9.34,20.23,8.12,27,8.08,27.31L4,53.1l-1.44-.23L6.64,27.08C7.13,24.16,9.4,18.79,14.41,19.34Z"/><path class="cls-7" d="M8.43,25.82s1.92-5.44,5-4.78,3.49,2.22,3.34,5.22-7.5,16.46-7.5,16.46a22.67,22.67,0,0,1-5.66-.89v0Z"/><g class="cls-8"><path d="M8.43,25.82s1.92-5.44,5-4.78,3.49,2.22,3.34,5.22-7.5,16.46-7.5,16.46a22.67,22.67,0,0,1-5.66-.89v0Z"/></g><path class="cls-15" d="M13.44,21c3,.64,3.49,2.22,3.34,5.22-.06,1.37-1.65,4.95-3.35,8.43-2.38-.57-4.76-1.18-7.12-1.81l2.12-7.06S10.35,20.38,13.44,21Z"/><path class="cls-7" d="M22.22,29.69a.8.8,0,0,1,.82.23,30.51,30.51,0,0,1,1.85,2.61.82.82,0,0,1,.05.89l-1.08,1.84-3.49,1.2-2-2.43,1.59-3.68Z"/><path class="cls-7" d="M20.05,28.39c1,.23.74,1.73.74,1.73l-2.3,3.68.69-3.86Z"/><path class="cls-7" d="M19.11,33.2l1.72,2.87L9.29,45.4c-4,1.88-6.41-.88-5.67-3.57Z"/><g class="cls-8"><path d="M6.4,40.26A4.23,4.23,0,0,0,4.45,45.1a3.27,3.27,0,0,1-.83-3.27Z"/></g><path class="cls-11" d="M20.61,106.26l5.54,3a33,33,0,0,0,3.27.87,1.72,1.72,0,0,1,1.72,2l-6.87.59-8.47-1.3a9.49,9.49,0,0,1,.76-5.12Z"/><g class="cls-8"><path d="M18.38,106.27a.74.74,0,0,0,0,.14,10.12,10.12,0,0,0,1,5.53l-3.51-.54a9.49,9.49,0,0,1,.76-5.12Z"/></g><path class="cls-16" d="M5,51.36h17.1a2.72,2.72,0,0,1,2.72,2.72V60a2.29,2.29,0,0,1-2.07,2.29c-2.79.27-7.63.71-9.66.71-1.84,0-6.17-.42-8.76-.7a2.28,2.28,0,0,1-2-2.28V54.08A2.72,2.72,0,0,1,5,51.36Z"/></g></g></svg>