<svg xmlns="http://www.w3.org/2000/svg" viewBox="0 0 175.14 56.1"><defs><style>.cls-1{fill:#ff6a4d;}.cls-1,.cls-2,.cls-3,.cls-4,.cls-5,.cls-6{fill-rule:evenodd;}.cls-2{fill:#ed5f4c;}.cls-3{fill:#686868;}.cls-4{fill:#ce3e30;}.cls-5{fill:#fff5e1;}.cls-6{fill:#a2d9f7;}</style></defs><g id="Layer_2" data-name="Layer 2"><g id="illustration"><path class="cls-1" d="M57.47,12.51C84.79-1.57,101.23-1.25,133,1.5c15.63,1.91,26.48,2.23,36.54,15.92C177.11,27.77,175.23,44,174,50l-9.55,2.84-31.59,2.37L16.4,56.1C5.18,56.13,0,54.34,0,41.94c0-5.5,2.07-10.69,6.71-12.11C22.72,24.93,43.62,19.65,57.47,12.51Z"/><path class="cls-2" d="M38.92,39.68S54.58,31.56,62.71,30s42-4.46,53.9-5.35c18.3-1.37,36.6-2.52,54.89-3.95,5.24,10.23,3.6,23.91,2.5,29.3l-9.55,2.84-31.59,2.37L32.34,56Z"/><path class="cls-3" d="M32.36,36.25a16.31,16.31,0,0,1,16.3,16.31,16.61,16.61,0,0,1-.32,3.26l-31.9.25A16.32,16.32,0,0,1,32.36,36.25Z"/><path class="cls-3" d="M148.79,36.25a16.31,16.31,0,0,1,16.3,16.31v.11l-.64.12-31.59,2.37h-.17a17.21,17.21,0,0,1-.21-2.6A16.31,16.31,0,0,1,148.79,36.25Z"/><path class="cls-1" d="M94.82,26a2.94,2.94,0,0,1-.64,1.87c-1.38,1.68-4.44,1.66-6.32,1C87,28.55,85.92,28,85.74,27s.64-1.87,1.34-2.45a7.57,7.57,0,0,1,2-1.19,5,5,0,0,1,4.29,0,2.87,2.87,0,0,1,1.21,1.45A3,3,0,0,1,94.82,26Z"/><path class="cls-2" d="M94,26c0,2.63-3.59,3-5.83,2.21-2-.71-2.23-1.81-.58-3.18s5.28-2.38,6.23,0A2.23,2.23,0,0,1,94,26Z"/><path class="cls-4" d="M84.87,25.92,95.53,25a.75.75,0,0,1,.82.68h0a.75.75,0,0,1-.68.82L85,27.43a.74.74,0,0,1-.81-.69h0A.76.76,0,0,1,84.87,25.92Z"/><path class="cls-1" d="M140.6,22.49a3,3,0,0,1-.65,1.87c-1.37,1.68-4.43,1.66-6.31,1-.86-.31-1.94-.86-2.12-1.85s.64-1.87,1.33-2.45a7.62,7.62,0,0,1,2-1.19,5,5,0,0,1,4.29,0,2.92,2.92,0,0,1,1.21,1.45A3.19,3.19,0,0,1,140.6,22.49Z"/><path class="cls-2" d="M139.8,22.54c-.05,2.63-3.63,2.95-5.85,2.12-2-.74-2.21-1.85-.55-3.19,1.82-1.48,5.32-2.3,6.23.11A2.3,2.3,0,0,1,139.8,22.54Z"/><path class="cls-4" d="M130.65,22.32l10.68-.78a.76.76,0,0,1,.81.69h0a.76.76,0,0,1-.7.81l-10.67.79a.76.76,0,0,1-.81-.7h0A.75.75,0,0,1,130.65,22.32Z"/><path class="cls-4" d="M167.51,21a2.66,2.66,0,0,0-2.36,2.66l.13,3.49A2.47,2.47,0,0,0,168,29.4l6.26-.48a31.73,31.73,0,0,0-2.78-8.25Z"/><path class="cls-5" d="M3.37,31.88l1.77-.14c1.46-.12,3.24.41,3.24,1.78v3.36c0,1.37-.49,2.71-1.92,3L0,41.22C.14,37.55,1.2,34.09,3.37,31.88Z"/><path class="cls-4" d="M174.83,44.4l-2.66.2a1.75,1.75,0,0,0-1.65,1.74l.09,2.27a1.61,1.61,0,0,0,1.78,1.48L174,50C174.28,48.58,174.6,46.66,174.83,44.4Z"/><path class="cls-6" d="M44,24.87,152.3,17.3C144.46,3.51,111.57,1.27,90.44,5,73.84,8,58.22,15.89,44,24.87Z"/><path class="cls-4" d="M169.93,18c-6.74-.56-15.52-8.63-19.25-13.79,7,1.88,13.06,5.34,18.82,13.18C169.65,17.62,169.79,17.82,169.93,18Z"/><path class="cls-6" d="M152.34,4.72l1.75,1.93c3.44,3.75,8.45,7.94,13,9.58l2.18.82C164,10.08,158.56,6.67,152.34,4.72Z"/><path class="cls-4" d="M101.68,3.68,99.15,21l7-.48L107,3.44C105.2,3.48,103.42,3.56,101.68,3.68Z"/><path class="cls-4" d="M135.34,6.51,142.21,18l2.93-.2L139.06,7.71Q137.26,7,135.34,6.51Z"/><path class="cls-4" d="M61,16.18l-2.39,7.67-13.12.91a1.61,1.61,0,0,1,.31-1c4.57-2.82,9.27-5.53,14.1-8Z"/><path class="cls-4" d="M51.49,21.05,54.56,52l69.82-.73L146.16,22.5l-9-14.82.63-.38,9.29,15.24Q135.91,37.27,124.75,52q-35.44.41-70.91.75L50.76,21.07Z"/><polygon class="cls-4" points="104.69 4.08 102.94 20.28 103.77 51.84 103.04 51.83 102.21 20.32 103.94 4.43 104.69 4.08"/><path class="cls-4" d="M44,24.87,152.3,17.3C144.46,3.51,111.57,1.27,90.44,5,73.84,8,58.22,15.89,44,24.87Zm4.38-1.41c13-7.9,27.23-14.68,42.26-17.35a113.3,113.3,0,0,1,22.9-1.55A85.94,85.94,0,0,1,136.9,8.13c4.74,1.53,10.27,4.07,13.43,8.2Z"/><path class="cls-1" d="M60.88,16.19c1.58,0,1.82,2.09,1.89,3.39.15,2.57-.88,3.8-3.73,3.74A3.23,3.23,0,0,1,56.4,21.9C54.59,19.17,58.69,16.15,60.88,16.19Z"/><path class="cls-2" d="M62.76,20.61a16.66,16.66,0,0,0-4,0,19.61,19.61,0,0,0-2.55,1,3.21,3.21,0,0,1-1.19.38l0,1.43a4.21,4.21,0,0,0,1.93-.4c1-.48,1.16-1,3.06-1.08a10.89,10.89,0,0,1,2.17.16,3.25,3.25,0,0,0,.49-1.52Z"/><path class="cls-4" d="M62.27,22.14c-.56.82-1.59,1.21-3.23,1.18a3.27,3.27,0,0,1-1.64-.47A4,4,0,0,1,60.1,22a10.89,10.89,0,0,1,2.17.16Z"/></g></g></svg>