<svg xmlns="http://www.w3.org/2000/svg" viewBox="0 0 27.45 27.45"><defs><style>.cls-1{fill:#565555;}.cls-2{fill:#e2e2e2;}.cls-2,.cls-3{fill-rule:evenodd;}.cls-3{fill:#686868;}</style></defs><g id="Layer_2" data-name="Layer 2"><g id="illustration"><circle class="cls-1" cx="13.72" cy="13.72" r="13.72" transform="matrix(1, -0.05, 0.05, 1, -0.65, 0.69)"/><path class="cls-2" d="M4.93,8.65A10.15,10.15,0,1,1,8.65,22.52,10.14,10.14,0,0,1,4.93,8.65Z"/><path class="cls-3" d="M6.3,9.45a8.48,8.48,0,0,1,2.33-2.6L8.7,7a17.25,17.25,0,0,1,1.5,3.8c.18.89.05,1.13-.82,1.41a17.33,17.33,0,0,1-4,.6H5.21A8.5,8.5,0,0,1,6.3,9.45Zm4-3.56a.34.34,0,0,0,.06.12A17.25,17.25,0,0,0,12.88,9.2c.69.61,1,.61,1.64,0A17.29,17.29,0,0,0,17.06,6l.06-.12a8.5,8.5,0,0,0-6.83,0Zm8.49,1a8.53,8.53,0,0,1,3.42,5.92h-.14a17.33,17.33,0,0,1-4-.6c-.87-.28-1-.52-.82-1.41A16.77,16.77,0,0,1,18.71,7a.41.41,0,0,1,.07-.11Zm3.42,7.83a8.51,8.51,0,0,1-3.42,5.92.41.41,0,0,1-.07-.11,16.77,16.77,0,0,1-1.5-3.8c-.19-.89-.05-1.13.82-1.41a16.81,16.81,0,0,1,4-.6Zm-5.08,6.88a8.54,8.54,0,0,1-6.83,0,.34.34,0,0,1,.06-.12,17.25,17.25,0,0,1,2.53-3.19c.69-.61,1-.61,1.64,0a17.29,17.29,0,0,1,2.54,3.19l.06.12Zm-8.49-1a8.51,8.51,0,0,1-3.42-5.92h.14a16.81,16.81,0,0,1,4,.6c.87.28,1,.52.82,1.41a17.25,17.25,0,0,1-1.5,3.8l-.07.11Zm5.07-5.39a1.36,1.36,0,1,1,1.36-1.36,1.35,1.35,0,0,1-1.36,1.36Z"/></g></g></svg>