<svg xmlns="http://www.w3.org/2000/svg" viewBox="0 0 28.75 28.75"><defs><style>.cls-1{fill:#565555;}.cls-2{fill:#dae9ef;}.cls-2,.cls-3{fill-rule:evenodd;}.cls-3{fill:#686868;}</style></defs><g id="Layer_2" data-name="Layer 2"><g id="illustration"><circle class="cls-1" cx="14.37" cy="14.37" r="14.37"/><path class="cls-2" d="M14.37,25.11A10.74,10.74,0,1,1,25.11,14.37,10.75,10.75,0,0,1,14.37,25.11Z"/><path class="cls-3" d="M16.64,6.49l-1.33,4.25a3.74,3.74,0,0,0-1.88,0c-.19-.63-.07-.23-1.33-4.25A8.24,8.24,0,0,1,16.64,6.49Zm-1,7.89a1.24,1.24,0,0,1-2.48,0A1.24,1.24,0,0,1,15.62,14.38Zm.49,0a.52.52,0,1,1,1,0,.52.52,0,0,1-1,0ZM14.9,12.13a.52.52,0,0,1-1,0A.52.52,0,0,1,14.9,12.13Zm-3.28,2.25a.52.52,0,0,1,1,0,.52.52,0,0,1-1,0Zm3.28,2.24a.52.52,0,0,1-1,0A.52.52,0,0,1,14.9,16.62ZM10.41,7.2A8.32,8.32,0,0,0,7.2,10.41l4,2.06a3.71,3.71,0,0,1,1.32-1.32c-.6-1.14-.15-.28-2.06-3.95ZM6.5,12.11l4.25,1.33a3.7,3.7,0,0,0,0,1.87L6.5,16.64a8.3,8.3,0,0,1,0-4.53Zm.7,6.23a8.32,8.32,0,0,0,3.21,3.21c1.75-3.35,1.46-2.81,2.06-3.95a3.71,3.71,0,0,1-1.32-1.32L7.2,18.34Zm4.9,3.91L13.43,18a3.74,3.74,0,0,0,1.88,0c.36,1.14.08.28,1.33,4.25a8.34,8.34,0,0,1-4.54,0Zm6.24-.7a8.23,8.23,0,0,0,3.21-3.2l-3.94-2.07a3.85,3.85,0,0,1-1.33,1.33c.59,1.14,0,0,2.06,3.94Zm3.92-4.9L18,15.32a3.74,3.74,0,0,0,0-1.88l4.25-1.34a8.37,8.37,0,0,1,0,4.55ZM18.34,7.2c-1.91,3.64-1.53,2.92-2.06,3.94a3.85,3.85,0,0,1,1.33,1.33l3.94-2.07A8.23,8.23,0,0,0,18.34,7.2Z"/></g></g></svg>