<svg xmlns="http://www.w3.org/2000/svg" viewBox="0 0 174.47 69.22"><defs><style>.cls-1{fill:#dd8d36;}.cls-1,.cls-2,.cls-3,.cls-4,.cls-5,.cls-6{fill-rule:evenodd;}.cls-2{fill:#f29e38;}.cls-3{fill:#ffb448;}.cls-4{fill:#bbdcf9;}.cls-5,.cls-7{fill:#686868;}.cls-6{fill:#fff5e1;}</style></defs><g id="Layer_2" data-name="Layer 2"><g id="illustration"><path class="cls-1" d="M55.5,8.64H83.57L82.46,4.1A5.4,5.4,0,0,0,77.22,0H61.85a5.38,5.38,0,0,0-5.23,4.1Z"/><path class="cls-2" d="M50.11,8.64H78.19L77.07,4.1A5.38,5.38,0,0,0,71.84,0H56.46a5.38,5.38,0,0,0-5.23,4.1Z"/><path class="cls-3" d="M163.58,68.59H11.35C5.13,68.59-.53,63.47,0,57.28,1.51,41.23,6.72,10.52,26.49,7.62,39,5.78,83.83,6.19,94.81,9.86c16.45,5.5,25.2,18.58,47.91,22,11.67,1.75,29.65,2.83,31.09,16.45C174.73,56.89,176.61,68.59,163.58,68.59Z"/><path class="cls-4" d="M27.25,27.39C31.08,18.47,37,11.46,46,11.46H78c18.86,0,32.06,9.51,43.13,23.63Z"/><path class="cls-2" d="M173.82,48.37c-14.77-.17-14.48.33-18.24-2.15-4-2.64-8.86-3.76-14-4.18L5.15,31A120.47,120.47,0,0,0,0,57.28c-.57,6.19,5.09,11.31,11.31,11.31H163.58C176.56,68.59,174.74,57,173.82,48.37Z"/><path class="cls-5" d="M141.56,46.78a18.43,18.43,0,0,0-18,22.38h36A18.42,18.42,0,0,0,141.56,46.78Z"/><path class="cls-5" d="M23.46,46.78A18.42,18.42,0,0,0,5.17,67.39C9,69.74,8.92,69.16,41.45,69.16A18.43,18.43,0,0,0,23.46,46.78Z"/><path class="cls-6" d="M170.8,41.08h-3.54c-4.72,0-4.82,7.15,0,7.21l6.56.08A12.93,12.93,0,0,0,170.8,41.08Z"/><path class="cls-1" d="M77.45,35.2a3.45,3.45,0,0,0-.72,3.73c1.46,3.62,10.62,3.56,10.69-.18C87.49,35.19,79.64,33.05,77.45,35.2Z"/><path class="cls-3" d="M78.22,36c1.49-1.46,8,.21,8.09,2.64a22.27,22.27,0,0,0-8.73-1.08A2.21,2.21,0,0,1,78.22,36Zm7.35,3.84c-2,1-6.37.88-7.61-.93A15.51,15.51,0,0,1,85.57,39.83Z"/><polygon class="cls-1" points="68.68 11.46 66.84 30.64 75.85 31.38 73.99 11.46 68.68 11.46"/><polygon class="cls-1" points="69.84 11.46 68 30.73 74.69 31.28 72.83 11.46 69.84 11.46"/><path class="cls-1" d="M105.51,19.89l1.59,14,14.05,1.15A71.69,71.69,0,0,0,105.51,19.89Z"/><path class="cls-2" d="M106.78,20.79,108.26,34l12.89,1.14A73.64,73.64,0,0,0,106.78,20.79Z"/><path class="cls-1" d="M112.6,29.25s2.64.6,2.43,1.87-2.09,1.31-2.89,1.46A1.94,1.94,0,0,1,112.6,29.25Z"/><path class="cls-3" d="M106.33,25.79c-2.6.76-3.2,5.2-.82,6.6a8.3,8.3,0,0,0,6.39.35A2.74,2.74,0,0,0,113,30C112.82,27,108.64,25.12,106.33,25.79Z"/><path class="cls-2" d="M113,30.63a83.76,83.76,0,0,1-9-1.09c.12,4.52,6.64,3.9,7.89,3.2A2.43,2.43,0,0,0,113,30.63Z"/><path class="cls-1" d="M39.18,13l-1.7,15.25,4.71.39,1.86-17A15.15,15.15,0,0,0,39.18,13Z"/><path class="cls-1" d="M40.41,12.46,38.64,28.33l2.4.16,1.82-16.73A15.32,15.32,0,0,0,40.41,12.46Z"/><path class="cls-1" d="M126.14,40.79l-6-6.95-.71.65L125,41,115.9,63.35,72.76,61.06c0-29,.32-22.82-.91-31.19L70.9,30c1.21,8.29.95,2.17.9,31L49.31,59.82,25.84,32.65l2.73-5.8-.87-.42-3,6.37c8,9.36,16.09,18.6,24.15,28l67.69,3.59Z"/><path class="cls-1" d="M31.83,31.53a3.47,3.47,0,0,0-.71,3.73c1.46,3.62,10.62,3.56,10.69-.17C41.88,31.53,34,29.39,31.83,31.53Z"/><path class="cls-3" d="M32.61,32.32c1.49-1.46,8,.21,8.09,2.64A22.27,22.27,0,0,0,32,33.88a2.23,2.23,0,0,1,.64-1.56ZM40,36.16c-2,1-6.37.89-7.61-.93A15.63,15.63,0,0,1,40,36.16Z"/><path class="cls-2" d="M25.46,7.8C21.41,17.09,14.78,33.53,4,34.68,7.57,22.1,13.94,10.12,25.46,7.8Z"/><path class="cls-1" d="M10.35,19.5h3.77a3,3,0,0,0,3-3h0A3,3,0,0,0,15,13.6,32,32,0,0,0,10.35,19.5Z"/><path class="cls-1" d="M10.53,22.28H8.78a55.29,55.29,0,0,0-2.67,6h4.42a3,3,0,0,0,3-3h0A3,3,0,0,0,10.53,22.28Z"/><path class="cls-1" d="M121.15,35.09C110.08,21,96.88,11.46,78,11.46H46c-9,0-14.93,7-18.76,15.93ZM46,12.62H78c17.42,0,29.93,8.29,40.53,21.09L29,26.37C32.28,19.33,37.51,12.62,46,12.62Z"/><rect class="cls-7" x="104.39" y="46.31" width="3.48" height="3.48" transform="translate(212.25 96.1) rotate(180)"/><rect class="cls-7" x="97.43" y="46.31" width="3.48" height="3.48" transform="translate(198.34 96.1) rotate(180)"/><rect class="cls-7" x="90.47" y="46.31" width="3.48" height="3.48" transform="translate(184.43 96.1) rotate(180)"/><rect class="cls-7" x="83.52" y="46.31" width="3.48" height="3.48" transform="translate(170.52 96.1) rotate(180)"/><rect class="cls-7" x="100.91" y="49.78" width="3.48" height="3.48" transform="translate(205.29 103.04) rotate(180)"/><rect class="cls-7" x="93.95" y="49.78" width="3.48" height="3.48" transform="translate(191.38 103.04) rotate(180)"/><rect class="cls-7" x="87" y="49.78" width="3.48" height="3.48" transform="translate(177.47 103.04) rotate(180)"/><rect class="cls-7" x="66.06" y="46.31" width="3.48" height="3.48" transform="translate(135.59 96.1) rotate(180)"/><rect class="cls-7" x="59.1" y="46.31" width="3.48" height="3.48" transform="translate(121.68 96.1) rotate(180)"/><rect class="cls-7" x="52.15" y="46.31" width="3.48" height="3.48" transform="translate(107.77 96.1) rotate(180)"/><rect class="cls-7" x="45.19" y="46.31" width="3.48" height="3.48" transform="translate(93.86 96.1) rotate(180)"/><rect class="cls-7" x="62.58" y="49.78" width="3.48" height="3.48" transform="translate(128.63 103.04) rotate(180)"/><rect class="cls-7" x="55.62" y="49.78" width="3.48" height="3.48" transform="translate(114.72 103.04) rotate(180)"/><rect class="cls-7" x="48.67" y="49.78" width="3.48" height="3.48" transform="translate(100.81 103.04) rotate(180)"/></g></g></svg>