<svg xmlns="http://www.w3.org/2000/svg" viewBox="0 0 1033 1033"><defs><style>.cls-1{fill:#f9ae28;}.cls-2{fill:#353535;}</style></defs><g id="Layer_2" data-name="Layer 2"><g id="Layer_2-2" data-name="Layer 2"><circle class="cls-1" cx="516.5" cy="516.5" r="516.5"/><polygon class="cls-2" points="712.6 344.35 562.25 344.35 562.25 194 712.6 344.35"/><path class="cls-2" d="M523.3,725.07H281.62V697.3H518a186.15,186.15,0,0,1,6.26-73.15H281.62V596.38H534.88a186.5,186.5,0,0,1,62.6-73.15H281.62V495.47H660.53a186.12,186.12,0,0,1,41.91-4.75q5.91,0,11.71.37V364.68H540V195.91H231.43V819.6h353A185.76,185.76,0,0,1,523.3,725.07ZM281.62,286.69H476v27.76H281.62Zm0,107.86H664v27.77H281.62Z"/><path class="cls-2" d="M702.44,513.68A162.66,162.66,0,1,0,865.1,676.34,162.65,162.65,0,0,0,702.44,513.68Zm20.84,238.08v8c0,6.59-2.28,8.87-8.65,8.87H691c-6.6,0-8.65-2.28-8.65-8.87v-7.51c-23-3.42-37.32-13.88-43.69-31.4-2.27-6.37-.45-9.78,5.92-12.06l21.16-7.51c6.6-2.5,9.78-1.82,13,4.78,3.41,7.28,10,11.15,22.53,11.15,14.1,0,21.61-2.73,21.61-10.92,0-7.74-9.55-9.79-22.07-11.38-24.8-3.64-61.66-7.74-61.66-49.6,0-24.12,14.79-39.82,43.23-44.83v-7.73c0-6.6,2-8.65,8.65-8.65h23.66c6.37,0,8.65,2,8.65,8.65v7.73c19.56,3.42,31.62,12.52,39.13,27.76,3.19,6.37,1.59,9.56-5.23,12.52l-22.07,9.78c-6.15,2.73-8.65,1.82-12.06-4.78-4.1-7.5-8.88-11.15-20.48-11.15-13.65,0-18.89,3.19-18.89,10.24,0,7.74,10.24,9.79,23.44,11.61,24.8,3.18,60.07,7.05,60.07,49.37C767.19,730.83,751.49,746.53,723.28,751.76Z"/></g></g></svg>