<svg xmlns="http://www.w3.org/2000/svg" viewBox="0 0 777.61 348.1"><defs><style>.cls-1{fill:#f9ae28;}</style></defs><g id="Layer_2" data-name="Layer 2"><g id="Layer_2-2" data-name="Layer 2"><path class="cls-1" d="M655.22,295.9a7.78,7.78,0,0,0-3.79-6.66,1.88,1.88,0,0,1-1-1.55v-6.1a4.83,4.83,0,0,0-1.52-3.52l-10.48-9.86a5.27,5.27,0,0,0-3.61-1.43h-5.12a1.9,1.9,0,0,1-1.56-1,7.75,7.75,0,0,0-13.83,1H568.6a1.88,1.88,0,0,1-1.55-1,7.76,7.76,0,1,0-7.66,11.66l2,.07a0,0,0,0,0,0-.05c0-.1.16,0,.26-.05a7.78,7.78,0,0,0,5.47-3.82,1.71,1.71,0,0,1,1.48-.89h6.22a1.08,1.08,0,0,1,1,1.11V278a1.91,1.91,0,0,1-1,1.56,7.75,7.75,0,1,0,11.66,7.66l.06-2a0,0,0,0,0,0,0c-.1,0,0-.16-.06-.26a7.75,7.75,0,0,0-3.82-5.47,1.72,1.72,0,0,1-.89-1.48V273.8a1.09,1.09,0,0,1,1-1.12h31.48a7.77,7.77,0,0,0,6.17,4.74l2,.07a0,0,0,0,0,0,0c0-.11.16-.05.26-.06a7.8,7.8,0,0,0,5.47-3.82,1.7,1.7,0,0,1,1.48-.89h3.83a2.63,2.63,0,0,1,1.81.72l8.44,7.94a2.42,2.42,0,0,1,.76,1.76v4.59a1.75,1.75,0,0,1-.91,1.5,7.74,7.74,0,0,0-3.83,5.71l-.07,2a0,0,0,0,0,0,0c.07,0,0,.11,0,.18a7.76,7.76,0,0,0,15.43-1.18Zm-73.08-9.71a3.33,3.33,0,1,1-3.33-3.34A3.34,3.34,0,0,1,582.14,286.19Zm-21.75-13.13a3.33,3.33,0,1,1,3.34-3.33A3.33,3.33,0,0,1,560.39,273.06Zm61.07,0a3.33,3.33,0,1,1,3.33-3.33A3.33,3.33,0,0,1,621.46,273.06Zm22.67,22.84a3.33,3.33,0,1,1,3.33,3.34A3.33,3.33,0,0,1,644.13,295.9Z"/><path class="cls-1" d="M533,39.53A7.76,7.76,0,0,0,519.78,45a7.86,7.86,0,0,0,.34,2.28,1.51,1.51,0,0,1-.48,1.45L482.07,86.31a1.05,1.05,0,0,1-1.47,0L451.09,56.8a5.07,5.07,0,0,0-3.57-1.48H372.24a1.89,1.89,0,0,1-1.55-1,7.75,7.75,0,1,0-7.84,11.63c.07,0,.18,0,.18,0a0,0,0,0,0,0,0l2-.06a7.77,7.77,0,0,0,5.71-3.83,1.74,1.74,0,0,1,1.49-.92h73.89a2.54,2.54,0,0,1,1.79.74l31.95,31.95a2.08,2.08,0,0,0,2.95,0l41-41a1.61,1.61,0,0,1,1.55-.45,7.82,7.82,0,0,0,5.82-.59,6.07,6.07,0,0,0,.91-.48c.07-.06.11-.16.2-.17h0l.47-.47a1.14,1.14,0,0,0,.11-.11s.18-.12.12-.12h0l.7-.69v0c-.07-.08.1-.13.16-.21l.13-.18c.18-.3.31-.63.47-.94A7.86,7.86,0,0,0,533,39.53ZM364,61.61a3.34,3.34,0,1,1,3.33-3.34A3.35,3.35,0,0,1,364,61.61Zm165.86-19a3.28,3.28,0,0,1,1,2.35,3.34,3.34,0,0,1-5.69,2.36,3.41,3.41,0,0,1,0-4.7l0,0A3.33,3.33,0,0,1,529.89,42.66Z"/><path class="cls-1" d="M351.17,117.74h7a1.73,1.73,0,0,1,1.48.89,7.76,7.76,0,0,0,5.46,3.82c.1,0,.26,0,.26.06a0,0,0,0,0,.05,0l1.95-.07a7.76,7.76,0,1,0-7.66-11.66,1.87,1.87,0,0,1-1.55,1h-7a1.88,1.88,0,0,1-1.56-1,7.76,7.76,0,1,0-7.84,11.64c.07,0,.18,0,.18.05a0,0,0,0,0,0,0l2-.07a7.72,7.72,0,0,0,5.71-3.83A1.75,1.75,0,0,1,351.17,117.74ZM363,114.79a3.34,3.34,0,1,1,3.33,3.33A3.34,3.34,0,0,1,363,114.79ZM343,118.12a3.33,3.33,0,1,1,3.33-3.33A3.33,3.33,0,0,1,343,118.12Z"/><path class="cls-1" d="M538.5,318.3a7.75,7.75,0,1,0,7.66-11.66l-2-.06a0,0,0,0,0,0,0c0,.1-.16,0-.27.06a7.75,7.75,0,0,0-5.46,3.82,1.72,1.72,0,0,1-1.48.88H520a1,1,0,0,1-1.05-1V291.6a5.09,5.09,0,0,0-1.47-3.57l-18.14-18.14a1.5,1.5,0,0,1-.49-1.45,7.85,7.85,0,0,0,.34-2.27,7.73,7.73,0,0,0-.72-3.27,9.25,9.25,0,0,0-.84-1.51,6.86,6.86,0,0,0-1.34-1.35s-.06-.09-.08-.05-.12-.09-.21-.15a8.21,8.21,0,0,0-.91-.52,7.76,7.76,0,0,0-9.14,12.33,7.93,7.93,0,0,0,7.36,2,1.94,1.94,0,0,1,1.82.4l17.18,17.19A2.48,2.48,0,0,1,513,293v22.19a2.09,2.09,0,0,0,2.09,2.09h21.83A1.9,1.9,0,0,1,538.5,318.3Zm6.66-7.3a3.34,3.34,0,1,1-3.34,3.34A3.34,3.34,0,0,1,545.16,311Zm-51.4-42.48a3.33,3.33,0,0,1-4.7,0l0,0a3.34,3.34,0,0,1,0-4.7,3.41,3.41,0,0,1,4.71,0,3.32,3.32,0,0,1,0,4.71Z"/><path class="cls-1" d="M594.15,140.69h89a1.91,1.91,0,0,1,1.56,1,7.75,7.75,0,1,0,7.83-11.63c-.06,0-.17,0-.17,0a0,0,0,0,0,0,0l-2,.06a7.75,7.75,0,0,0-5.71,3.83,1.79,1.79,0,0,1-1.5.92H594.14a1.7,1.7,0,0,1-1.48-.89,7.78,7.78,0,0,0-5.47-3.82c-.1,0-.26,0-.26-.06a0,0,0,0,0,0,0l-2,.06a7.76,7.76,0,1,0,7.66,11.66A1.91,1.91,0,0,1,594.15,140.69Zm-4.88-2.95a3.34,3.34,0,1,1-3.34-3.34A3.34,3.34,0,0,1,589.27,137.74Zm98.79,0a3.34,3.34,0,1,1,3.34,3.33A3.35,3.35,0,0,1,688.06,137.74Z"/><path class="cls-1" d="M655.59,299.06h34.72a1.9,1.9,0,0,1,1.56,1,7.75,7.75,0,1,0,7.83-11.64c-.06,0-.18,0-.18,0a0,0,0,0,0,0,0l-2,.07a7.74,7.74,0,0,0-5.72,3.83,1.75,1.75,0,0,1-1.49.91H655.58a1.72,1.72,0,0,1-1.48-.88,7.73,7.73,0,0,0-5.47-3.82c-.09,0-.26,0-.26-.06a0,0,0,0,0,0,0l-2,.07A7.76,7.76,0,1,0,654,300.08,1.9,1.9,0,0,1,655.59,299.06Zm-4.88-2.95a3.34,3.34,0,1,1-3.34-3.33A3.35,3.35,0,0,1,650.71,296.11Zm44.48,0a3.34,3.34,0,1,1,3.34,3.34A3.34,3.34,0,0,1,695.19,296.11Z"/><path class="cls-1" d="M609.24,203.45H761.63a1.9,1.9,0,0,1,1.56,1A7.76,7.76,0,1,0,771,192.83c-.07,0-.18,0-.18-.05a0,0,0,0,0,0,0l-2,.07a7.72,7.72,0,0,0-5.71,3.83,1.75,1.75,0,0,1-1.5.91H609.23a1.7,1.7,0,0,1-1.48-.89,7.8,7.8,0,0,0-5.47-3.82c-.1,0-.26,0-.26-.06a0,0,0,0,0,0,0l-2,.07a7.76,7.76,0,1,0,7.66,11.66A1.88,1.88,0,0,1,609.24,203.45Zm-4.89-2.95a3.33,3.33,0,1,1-3.33-3.33A3.33,3.33,0,0,1,604.35,200.5Zm162.16,0a3.34,3.34,0,1,1,3.34,3.33A3.34,3.34,0,0,1,766.51,200.5Z"/><path class="cls-1" d="M553.11,317.2h16.62a1.88,1.88,0,0,1,1.55,1,7.76,7.76,0,1,0,7.84-11.64c-.07,0-.18,0-.18,0a0,0,0,0,0,0,0l-2,.06a7.77,7.77,0,0,0-5.71,3.83,1.75,1.75,0,0,1-1.49.91H553.1a1.74,1.74,0,0,1-1.48-.88,7.73,7.73,0,0,0-5.46-3.82c-.1,0-.26,0-.26-.06a0,0,0,0,0,0,0l-2,.06a7.76,7.76,0,1,0,7.66,11.66A1.87,1.87,0,0,1,553.11,317.2Zm-4.88-2.95a3.34,3.34,0,1,1-3.33-3.33A3.34,3.34,0,0,1,548.23,314.25Zm26.38,0a3.34,3.34,0,1,1,3.33,3.34A3.34,3.34,0,0,1,574.61,314.25Z"/><path class="cls-1" d="M567.18,217.73a7.76,7.76,0,0,0,0,11,7.9,7.9,0,0,0,7.36,2,2,2,0,0,1,1.82.4l10.11,9.25a5,5,0,0,0,3.57,1.48H719.4a1.9,1.9,0,0,1,1.56,1,7.75,7.75,0,1,0,7.83-11.64c-.06,0-.17,0-.17,0a.05.05,0,0,0,0-.05l-2,.07a7.72,7.72,0,0,0-5.71,3.83,1.76,1.76,0,0,1-1.5.91h-128a2.54,2.54,0,0,1-1.79-.74l-9.11-8.25a1.61,1.61,0,0,1-.45-1.55,7.79,7.79,0,0,0-.59-5.81,5.41,5.41,0,0,0-.49-.92c0-.07-.14-.11-.16-.2h0l-.47-.47-.11-.11s-.12-.18-.12-.12h0l-.7-.7h0c-.08.07-.13-.11-.21-.18a1.4,1.4,0,0,0-.18-.12c-.26-.15-.54-.25-.81-.39a7.74,7.74,0,0,0-9.06,1.39Zm157.1,21.13a3.34,3.34,0,1,1,3.34,3.33A3.34,3.34,0,0,1,724.28,238.86Zm-154-18a3.41,3.41,0,0,1,4.71,0,3.33,3.33,0,0,1,0,4.71,3.4,3.4,0,0,1-4.7,0l0,0A3.33,3.33,0,0,1,570.31,220.86Z"/><path class="cls-1" d="M550.85,124.37a7.66,7.66,0,0,0,3.57-.88c.27-.14.55-.24.81-.39a1.58,1.58,0,0,0,.18-.13c.08-.06.13-.24.21-.17h0l.7-.7h0c0,.06.08-.08.12-.12l.11-.12.47-.46h0c0-.1.11-.13.17-.2a6.18,6.18,0,0,0,.48-.92,7.79,7.79,0,0,0,.59-5.81,1.62,1.62,0,0,1,.45-1.56l8.82-8.81a2.52,2.52,0,0,1,1.78-.74h48.15a1.76,1.76,0,0,1,1.49.92,7.77,7.77,0,0,0,5.71,3.83l2,.06a0,0,0,0,0,0,0c0-.07.11,0,.18-.05A7.76,7.76,0,1,0,619,96.44a1.86,1.86,0,0,1-1.55,1H567.92a5.1,5.1,0,0,0-3.57,1.48l-9.81,9.81a1.9,1.9,0,0,1-1.82.4,7.93,7.93,0,0,0-7.36,2,7.76,7.76,0,0,0,5.49,13.25Zm74.82-27.3a3.34,3.34,0,1,1-3.33,3.33A3.34,3.34,0,0,1,625.67,97.07Zm-77.19,17.2,0,0a3.42,3.42,0,0,1,4.7,0,3.34,3.34,0,0,1,0,4.72,3.41,3.41,0,0,1-4.71,0A3.33,3.33,0,0,1,548.48,114.27Z"/><path class="cls-1" d="M278.88,107.83a0,0,0,0,0,0,0l.06,2a7.76,7.76,0,1,0,11.66-7.66,1.88,1.88,0,0,1-1-1.55V90.85h5.92a1.74,1.74,0,0,1,1.48.88,7.7,7.7,0,0,0,5.46,3.82c.1,0,.26,0,.26.06a0,0,0,0,0,.05,0l1.95-.07A7.76,7.76,0,1,0,297,83.93a1.87,1.87,0,0,1-1.55,1H251.68a1.9,1.9,0,0,1-1.55-1,7.76,7.76,0,1,0-7.84,11.64c.07,0,.18,0,.18,0a0,0,0,0,0,0,0l2-.07a7.72,7.72,0,0,0,5.71-3.83,1.75,1.75,0,0,1,1.5-.91h32v9.78a1.73,1.73,0,0,1-.89,1.48,7.76,7.76,0,0,0-3.82,5.46C278.93,107.67,279,107.83,278.88,107.83Zm24.79-23.26a3.33,3.33,0,1,1-3.33,3.33A3.34,3.34,0,0,1,303.67,84.57Zm-60.2,6.66a3.33,3.33,0,1,1,3.33-3.33A3.33,3.33,0,0,1,243.47,91.23ZM286.6,105.5a3.34,3.34,0,1,1-3.33,3.33A3.34,3.34,0,0,1,286.6,105.5Z"/><path class="cls-1" d="M381.45,89.26a1.75,1.75,0,0,1-1.5.91H342.5a2.52,2.52,0,0,1-1.78-.74l-9.11-8.25a1.58,1.58,0,0,1-.46-1.55,7.78,7.78,0,0,0-.58-5.81,6.23,6.23,0,0,0-.49-.92c-.06-.07-.15-.11-.17-.2s0,0,0,0l-.46-.47-.11-.11s-.12-.18-.12-.12h0l-.7-.7h0c-.09.07-.13-.11-.22-.18a.94.94,0,0,0-.18-.12c-.25-.15-.54-.25-.8-.39A7.75,7.75,0,0,0,318.24,72a7.77,7.77,0,0,0,0,11,7.89,7.89,0,0,0,7.37,2,2,2,0,0,1,1.82.4l10.11,9.25a5,5,0,0,0,3.56,1.48H380a1.88,1.88,0,0,1,1.55,1,7.76,7.76,0,1,0,7.84-11.64c-.07,0-.18,0-.18,0a0,0,0,0,0,0,0l-2,.07A7.74,7.74,0,0,0,381.45,89.26Zm-55.36-9.43a3.43,3.43,0,0,1-4.71,0l0,0a3.34,3.34,0,0,1,0-4.7,3.42,3.42,0,0,1,4.72,0A3.33,3.33,0,0,1,326.09,79.83Zm62.07,10a3.33,3.33,0,1,1-3.33,3.33A3.33,3.33,0,0,1,388.16,89.79Z"/><path class="cls-1" d="M442.63,134.28c-.68.38-1.5.05-2.26-.07a8.28,8.28,0,0,0-1.23-.1,7.77,7.77,0,0,0-7.69,6.76l-.06,2s0,0,0,0,0,.16.06.26a7.71,7.71,0,0,0,1.21,3l.06.09a2.43,2.43,0,0,1,.14.2,9.35,9.35,0,0,0,.82,1,7.6,7.6,0,0,0,1.73,1.28,1.67,1.67,0,0,1,.74,1.37v8.66a1.13,1.13,0,0,1-1.15,1.12H404.22a1.76,1.76,0,0,1-1.49-.92,7.79,7.79,0,0,0-5.72-3.83l-1.95-.06a0,0,0,0,0,0,0c0,.07-.12,0-.18,0a7.75,7.75,0,1,0,7.83,11.63,1.89,1.89,0,0,1,1.56-1H448a1.89,1.89,0,0,1,1.56,1,7.76,7.76,0,1,0,7.66-11.66l-2-.06a0,0,0,0,0,0,0c0,.1-.16,0-.26.06a7.75,7.75,0,0,0-5.47,3.82,1.72,1.72,0,0,1-1.48.89h-4.76a1.14,1.14,0,0,1-1.16-1.12v-8.65a1.36,1.36,0,0,1,.05-.36c.18-.74,1-1,1.64-1.47a7.49,7.49,0,0,0,2.65-3.52,8,8,0,0,0,.47-2.83v0a7.46,7.46,0,0,0-.32-2.18,1.66,1.66,0,0,1,.48-1.44L460.32,125a2.48,2.48,0,0,1,1.78-.74h8.77a1.91,1.91,0,0,1,1.59,1A7.78,7.78,0,0,0,478,129c.07,0,.18,0,.18,0a0,0,0,0,0,0,.05l2-.07a7.74,7.74,0,0,0,5.71-3.83,1.75,1.75,0,0,1,1.49-.91h1a2,2,0,0,1,1.67,1,7.76,7.76,0,0,0,13.25,0,2,2,0,0,1,1.67-1h2.53a2.52,2.52,0,0,1,1.78.74l8.81,8.81c.55.55.31,1.43.15,2.19a7.69,7.69,0,0,0-.17,1.6,7.73,7.73,0,0,0,11.31,6.88l.31-.15.06,0a7.54,7.54,0,0,0,1.71-1.29,7.32,7.32,0,0,0,.77-.9c.46-.63.87-1.44,1.65-1.54h25.83a1.88,1.88,0,0,1,1.56,1,7.76,7.76,0,1,0,7.66-11.66l-2-.07a0,0,0,0,0,0,.05c0,.1-.16,0-.26.06a7.77,7.77,0,0,0-5.47,3.82,1.71,1.71,0,0,1-1.48.88h-4.76a1.14,1.14,0,0,1-1.16-1.11v-8.66a1.88,1.88,0,0,1,1-1.55,7.76,7.76,0,1,0-11.66-7.66l-.06,1.95a0,0,0,0,0,0,.05c.1,0,0,.16.06.26a7.77,7.77,0,0,0,3.82,5.47,1.72,1.72,0,0,1,.89,1.47v8.66a1.14,1.14,0,0,1-1.16,1.12H534c-.76,0-1.19-.78-1.6-1.42a7.91,7.91,0,0,0-1-1.2,7.82,7.82,0,0,0-6-2.17l-.61,0a0,0,0,0,0,0,.05c0,.07-.11,0-.18,0-.23,0-.46.08-.69.14a1.85,1.85,0,0,1-1.68-.42l-9.82-9.81a5,5,0,0,0-3.56-1.48H505a2,2,0,0,1-1.65-1,7.91,7.91,0,0,0-2.84-2.82,1.75,1.75,0,0,1-.91-1.49v-4.6a2.38,2.38,0,0,1,.76-1.76l8.44-7.94a2.61,2.61,0,0,1,1.8-.72h3.84a1.73,1.73,0,0,1,1.48.89,7.76,7.76,0,0,0,5.47,3.82c.09,0,.26,0,.26.06a0,0,0,0,0,0,0l2-.07A7.76,7.76,0,1,0,516,91.1a1.91,1.91,0,0,1-1.56,1h-5.12a5.34,5.34,0,0,0-3.62,1.43l-10.47,9.86a4.83,4.83,0,0,0-1.52,3.52V113a1.87,1.87,0,0,1-1,1.55,7.9,7.9,0,0,0-2.75,2.79,1.91,1.91,0,0,1-1.64,1h-.9a1.87,1.87,0,0,1-1.55-1,7.75,7.75,0,0,0-13.32,0,2,2,0,0,1-1.65,1H460.7a5,5,0,0,0-3.56,1.47l-14.21,14.22A3,3,0,0,1,442.63,134.28ZM396,166.14a3.34,3.34,0,1,1,3.34-3.33A3.34,3.34,0,0,1,396,166.14Zm60.21-6.67a3.34,3.34,0,1,1-3.34,3.34A3.34,3.34,0,0,1,456.22,159.47Zm-17.08-14.26a3.3,3.3,0,0,1-2.34-1,3.41,3.41,0,0,1,0-4.63l.05-.05a3.35,3.35,0,0,1,4.67,0,3.51,3.51,0,0,1,.29.36.87.87,0,0,1,.08.1,3.29,3.29,0,0,1,.57,1.85A3.35,3.35,0,0,1,439.14,145.21Zm128.72-10.93a3.34,3.34,0,1,1-3.33,3.33A3.33,3.33,0,0,1,567.86,134.28Zm-20.41-17.6a3.34,3.34,0,1,1,3.34,3.33A3.35,3.35,0,0,1,547.45,116.68Zm-23.91,18.49a3.81,3.81,0,0,1,.5-.4l.16-.09a3,3,0,0,1,.31-.15,3.28,3.28,0,0,1,1.25-.25,3.33,3.33,0,0,1,1.91,6.06,3.43,3.43,0,0,1-4.13-.46A3.35,3.35,0,0,1,523.54,135.17Zm-.94-43.44a3.33,3.33,0,1,1-3.33,3.33A3.34,3.34,0,0,1,522.6,91.73Zm-27.67,26.64a3.31,3.31,0,0,1,1.68-.47,3.28,3.28,0,0,1,1.67.47,3.33,3.33,0,0,1-1.67,6.2,3.26,3.26,0,0,1-1.36-.3,3.31,3.31,0,0,1-.32-5.9ZM479.14,118a3.33,3.33,0,1,1-3.34,3.33A3.33,3.33,0,0,1,479.14,118Z"/><path class="cls-1" d="M226.91,156.29a1.9,1.9,0,0,1-1.56,1h-9.93a1.9,1.9,0,0,1-1.56-1A7.76,7.76,0,1,0,206,167.93c.07,0,.18,0,.18,0a0,0,0,0,0,.05,0l1.95-.06a7.75,7.75,0,0,0,5.71-3.83,1.76,1.76,0,0,1,1.5-.91h10a1.71,1.71,0,0,1,1.48.88,7.75,7.75,0,0,0,5.47,3.82c.1,0,.26,0,.26.06a0,0,0,0,0,0,0l2-.06a7.76,7.76,0,1,0-7.66-11.66Zm-19.71,7.3a3.34,3.34,0,1,1,3.34-3.34A3.34,3.34,0,0,1,207.2,163.59Zm29.7-3.34a3.34,3.34,0,1,1-3.33-3.33A3.34,3.34,0,0,1,236.9,160.25Z"/><path class="cls-1" d="M0,167.11H35.53A1.7,1.7,0,0,1,37,168a7.74,7.74,0,0,0,5.47,3.81c.1,0,.26,0,.26.07a0,0,0,0,0,0,0l2-.07A7.63,7.63,0,0,0,48,170.62a4,4,0,0,0,.47-.34l.08-.06a7.86,7.86,0,0,0,2-2.23,1.74,1.74,0,0,1,1.5-.92H80.08a1.7,1.7,0,0,1,1.47.89A7.8,7.8,0,0,0,87,171.78c.1,0,.26,0,.26.06a0,0,0,0,0,0,0l2-.06a7.76,7.76,0,1,0-7.66-11.66,1.87,1.87,0,0,1-1.55,1H52a1.89,1.89,0,0,1-1.56-1A7.72,7.72,0,0,0,40,157.38l-.35.22-.27.18a7.83,7.83,0,0,0-2.28,2.41,1.9,1.9,0,0,1-1.56,1H0Zm88.28-6.32A3.33,3.33,0,1,1,85,164.12,3.34,3.34,0,0,1,88.28,160.79Zm-45.83.3a3.27,3.27,0,0,1,1.29-.26,3.24,3.24,0,1,1-1.29.26Z"/><path class="cls-1" d="M549.62,218.49c-.07,0-.18,0-.18-.05a0,0,0,0,0,0,0l-2,.07a7.74,7.74,0,0,0-5.71,3.83,1.75,1.75,0,0,1-1.5.91h-25.1a1.7,1.7,0,0,1-1.48-.89,7.78,7.78,0,0,0-5.47-3.82c-.1,0-.26.05-.26-.06a0,0,0,0,0,0,0l-2,.07a2.63,2.63,0,0,0-.39.06c-.76.14-1.6.43-2.21-.05l-.12-.11-9.82-9.81a5,5,0,0,0-3.56-1.48H440.28a1.87,1.87,0,0,1-1.55-1,7.76,7.76,0,1,0-7.84,11.64c.07,0,.18,0,.18.05a0,0,0,0,0,0,0l1.95-.07a7.74,7.74,0,0,0,5.72-3.83,1.75,1.75,0,0,1,1.49-.91h48.15a2.52,2.52,0,0,1,1.78.74l8.82,8.81a1.6,1.6,0,0,1,.46,1.43,8.31,8.31,0,0,0-.29,1.58c0,.2,0,.4,0,.61h0a7.78,7.78,0,0,0,.89,3.74,7.21,7.21,0,0,0,.49.91c0,.06.11.09.14.14a.11.11,0,0,1,0,.07h0l.37.36c.22.23.45.46.68.68a3.63,3.63,0,0,0,.75.66c.26.15.54.25.81.38a7.55,7.55,0,0,0,3.57.88,7.66,7.66,0,0,0,6.77-4,1.84,1.84,0,0,1,1.48-.91h25.09a1.89,1.89,0,0,1,1.55,1,7.75,7.75,0,1,0,7.84-11.63Zm-117.55-5.13A3.33,3.33,0,1,1,435.4,210,3.34,3.34,0,0,1,432.07,213.36ZM510,227.47a3.33,3.33,0,1,1-5.46-3.59,3.43,3.43,0,0,1,4.71,0l0,0A3.35,3.35,0,0,1,510,227.47Zm38.45,2a3.33,3.33,0,1,1,3.33-3.33A3.33,3.33,0,0,1,548.44,229.49Z"/><path class="cls-1" d="M0,187.27H212.57a1.9,1.9,0,0,1,1.56,1A7.76,7.76,0,1,0,222,176.65c-.07,0-.18,0-.18-.05a0,0,0,0,0,0,0l-2,.07a7.72,7.72,0,0,0-5.71,3.83,1.75,1.75,0,0,1-1.5.91h-28a1.12,1.12,0,0,1-1-1.19v-4.42a1.74,1.74,0,0,1,.88-1.48,7.75,7.75,0,0,0,3.82-5.46c0-.1,0-.27.06-.27s.05,0,0,0l-.06-2a7.76,7.76,0,1,0-11.66,7.66,1.9,1.9,0,0,1,1,1.56v4.41a1.12,1.12,0,0,1-1,1.19H0ZM220.79,181a3.33,3.33,0,1,1-3.33,3.33A3.33,3.33,0,0,1,220.79,181Zm-40.24-10.1a3.34,3.34,0,1,1,3.33-3.34A3.35,3.35,0,0,1,180.55,170.89Z"/><path class="cls-1" d="M245.74,41.69a7.78,7.78,0,0,0,6.66-3.79,1.88,1.88,0,0,1,1.56-1h44.55a2,2,0,0,1,1.64,1,7.75,7.75,0,0,0,13.32,0,1.9,1.9,0,0,1,1.56-1h5.12a5.25,5.25,0,0,0,3.61-1.43l10.48-9.86a4.83,4.83,0,0,0,1.52-3.52V16a1.86,1.86,0,0,1,1-1.52,8.78,8.78,0,0,0,.77-.54l.13-.09.43-.39c.12-.11.24-.22.35-.34l0,0a8.19,8.19,0,0,0,1.14-1.54,1.72,1.72,0,0,1,1.39-.78H369a1.75,1.75,0,0,1,1.48.89A7.73,7.73,0,0,0,376,15.46c.1,0,.26,0,.26.06a0,0,0,0,0,0,0l2-.06a7.76,7.76,0,1,0-7.66-11.66,1.86,1.86,0,0,1-1.55,1H341a1.37,1.37,0,0,1-.36,0c-.73-.19-1.09-1-1.53-1.59a7.73,7.73,0,0,0-11.7-1l-.14.13-.08.09A7.71,7.71,0,0,0,325.3,5.7,8.5,8.5,0,0,0,325,7.94a7.75,7.75,0,0,0,3.29,6.2c.65.45,1.46.87,1.55,1.65a1,1,0,0,1,0,.17v4.6a2.42,2.42,0,0,1-.76,1.76l-8.44,7.94a2.65,2.65,0,0,1-1.81.72H315a1.7,1.7,0,0,1-1.48-.89,7.78,7.78,0,0,0-5.47-3.82c-.1,0-.26.05-.26-.06a0,0,0,0,0,0,0l-2,.07A7.73,7.73,0,0,0,300.16,30a2,2,0,0,1-1.71,1H268.16a1.09,1.09,0,0,1-1.05-1.12V25.68A1.73,1.73,0,0,1,268,24.2a7.75,7.75,0,0,0,3.82-5.47c0-.1-.05-.26.06-.26a0,0,0,0,0,0,0l-.06-2a7.76,7.76,0,1,0-11.66,7.66,1.91,1.91,0,0,1,1,1.56v4.18a1.08,1.08,0,0,1-1,1.11H254a1.71,1.71,0,0,1-1.48-.89A7.78,7.78,0,0,0,247,26.27c-.1,0-.26.05-.26-.05a0,0,0,0,0,0,0l-2,.07a7.76,7.76,0,0,0,1,15.45ZM377.23,4.47A3.34,3.34,0,1,1,373.9,7.8,3.34,3.34,0,0,1,377.23,4.47ZM329.48,7.76a3.26,3.26,0,0,1,3.28-3.29,3.31,3.31,0,1,1-3.28,3.29ZM306.81,30.6a3.33,3.33,0,1,1-3.33,3.33A3.33,3.33,0,0,1,306.81,30.6Zm-46-13.13a3.34,3.34,0,1,1,3.33,3.34A3.34,3.34,0,0,1,260.83,17.47ZM245.74,30.6a3.33,3.33,0,1,1-3.33,3.33A3.34,3.34,0,0,1,245.74,30.6Z"/><path class="cls-1" d="M645.23,160.22c-.07,0-.18,0-.18-.05a0,0,0,0,0,0,0l-2,.06a7.77,7.77,0,0,0-5.72,3.83,1.76,1.76,0,0,1-1.49.92H583.59a1.71,1.71,0,0,1-1.48-.89,7.66,7.66,0,0,0-4.66-3.67,7.58,7.58,0,0,0-2.22-.3,7.69,7.69,0,0,0-3.46.88c-.27.14-.55.24-.81.39a3.9,3.9,0,0,0-.75.65l-.68.68-.37.37h0a.14.14,0,0,1,0,.06s-.1.09-.15.14a7.34,7.34,0,0,0-.49.92,7.73,7.73,0,0,0-.84,4.47l0,.24c0,.14,0,.29.07.43s.1.44.16.66h0a1.6,1.6,0,0,1-.45,1.55l-8.82,8.82a2.51,2.51,0,0,1-1.78.73H508.72a1.75,1.75,0,0,1-1.49-.91,7.77,7.77,0,0,0-5.71-3.83l-2-.06a0,0,0,0,0,0,0c0,.07-.11,0-.18,0a7.76,7.76,0,0,0-5.54,3.79,1.85,1.85,0,0,1-1.52,1h-28a1.89,1.89,0,0,1-1.56-1,7.69,7.69,0,0,0-1.45-1.76l-.45-.4-.13-.09a7.73,7.73,0,0,0-11.36,2.19,1.9,1.9,0,0,1-1.56,1H365.38a1.87,1.87,0,0,1-1.55-1,7.75,7.75,0,0,0-12.85-.7l-.2.27-.12.18c-.1.15-.2.29-.28.44a1.75,1.75,0,0,1-1.5.91h-4.6a2.45,2.45,0,0,1-1.76-.76L334.58,172a2.62,2.62,0,0,1-.71-1.8v-3.84s0-.08,0-.12a2,2,0,0,1,1-1.4,7.71,7.71,0,0,0,1.85-1.56l0,0c.17-.2.33-.4.48-.61l.1-.15c.13-.19.25-.38.36-.58s.11-.21.17-.32.16-.31.22-.47a9.18,9.18,0,0,0,.31-.88s0-.08,0-.11c.06-.24.12-.47.16-.72,0,0,0-.11,0-.16s0-.1,0-.1a0,0,0,0,0,0,0l0-.69c0-.08,0-.16,0-.24a6.4,6.4,0,0,0-.06-.88v-.15a7.75,7.75,0,0,0-14.7-2.3,1.86,1.86,0,0,0-.1.2c-.05.11-.09.22-.13.33s-.1.25-.14.38-.05.17-.08.25-.09.33-.13.5l0,.18a2.84,2.84,0,0,0-.06.31.34.34,0,0,0,0,.1v0s0,.06,0,.06a0,0,0,0,0,0,0l0,.65c0,.1,0,.19,0,.28s0,.45,0,.68v.35a7.77,7.77,0,0,0,3.83,5.71,2.13,2.13,0,0,1,.34.25,1.81,1.81,0,0,1,.18.21.88.88,0,0,1,.12.15.44.44,0,0,1,.08.15,1.57,1.57,0,0,1,.2.73V171a2.42,2.42,0,0,1-.76,1.76l-8.44,7.94a2.65,2.65,0,0,1-1.81.72h-3.84a1.7,1.7,0,0,1-1.47-.89,7.8,7.8,0,0,0-5.47-3.82c-.1,0-.26.05-.26-.06a0,0,0,0,0,0,0l-2,.07a7.77,7.77,0,0,0-5.66,3.72,2,2,0,0,1-1.7,1H266.26a1.08,1.08,0,0,1-1.05-1.11v-4.19a1.7,1.7,0,0,1,.89-1.48,7.78,7.78,0,0,0,3.82-5.47c0-.1-.05-.26.06-.26a0,0,0,0,0,0,0l-.07-2a7.76,7.76,0,1,0-11.66,7.66,1.9,1.9,0,0,1,1,1.56v4.18a1.08,1.08,0,0,1-1,1.11h-6.22a1.7,1.7,0,0,1-1.48-.89,7.78,7.78,0,0,0-5.47-3.82c-.1,0-.26.05-.26,0a0,0,0,0,0,0-.05l-2,.07a7.76,7.76,0,1,0,7.66,11.66,1.88,1.88,0,0,1,1.55-1H296.6a2,2,0,0,1,1.65,1,7.75,7.75,0,0,0,13.32,0,1.88,1.88,0,0,1,1.55-1h5.13a5.27,5.27,0,0,0,3.61-1.43l8.53-8a1.15,1.15,0,0,1,1.63.05l7.23,7.69a4.87,4.87,0,0,0,3.53,1.52h6.09a1.9,1.9,0,0,1,1.56,1,7.74,7.74,0,0,0,12.85.69l.19-.26a2.14,2.14,0,0,0,.13-.19c.09-.14.19-.28.28-.43a1.75,1.75,0,0,1,1.49-.91h82.37a1.71,1.71,0,0,1,1.48.88,7.82,7.82,0,0,0,1.27,1.64l.23.24.22.19a7.66,7.66,0,0,0,3.91,1.82s.09,0,.14,0,0,0,0,0a0,0,0,0,0,.05,0l1.95-.06a7.75,7.75,0,0,0,5.71-3.83,1.75,1.75,0,0,1,1.5-.92h28.06a1.75,1.75,0,0,1,1.48.89,7.76,7.76,0,0,0,5.46,3.82c.1,0,.26,0,.26.06a0,0,0,0,0,.05,0l1.95-.06A7.77,7.77,0,0,0,507.2,188a1.86,1.86,0,0,1,1.53-1h49.54a5.06,5.06,0,0,0,3.56-1.48l9.82-9.82.13-.11c.64-.5,1.54-.19,2.34-.05a7.47,7.47,0,0,0,1.26.11,7.75,7.75,0,0,0,6.66-3.8,1.87,1.87,0,0,1,1.56-1h52.24a1.86,1.86,0,0,1,1.55,1,7.75,7.75,0,1,0,7.84-11.63ZM243.84,187.65a3.33,3.33,0,1,1,3.33-3.33A3.33,3.33,0,0,1,243.84,187.65Zm18.42-16.45a3.34,3.34,0,1,1,3.33-3.34A3.34,3.34,0,0,1,262.26,171.2Zm42.65,16.45a3.33,3.33,0,1,1,3.33-3.33A3.33,3.33,0,0,1,304.91,187.65Zm26-26.19a3.35,3.35,0,0,1-3.34-3.34,3.17,3.17,0,0,1,.26-1.27,3.33,3.33,0,1,1,3.08,4.61Zm28.57,25a3.33,3.33,0,0,1-4.73-4.68,3.33,3.33,0,0,1,5.66,2.38A3.34,3.34,0,0,1,359.49,186.42Zm96.46,1a3.36,3.36,0,0,1-1.85-.56,3.33,3.33,0,1,1,1.85.56Zm47.62-2a3.33,3.33,0,0,1-6.39-1.32,3.45,3.45,0,0,1,.26-1.29,3.33,3.33,0,0,1,6.13,2.61Zm74.14-15.19,0,0a3.36,3.36,0,0,1-5.09-.48,3.34,3.34,0,1,1,5.11.45Zm66.34,1a3.34,3.34,0,1,1,3.34-3.33A3.34,3.34,0,0,1,644.05,171.22Z"/><path class="cls-1" d="M206.44,120.14c.07,0,.18,0,.18,0a0,0,0,0,0,0,0l.81,0h.18c.26,0,.51,0,.76,0h.21l.42-.08h.06q.32-.06.63-.15l.12,0c.27-.08.52-.17.77-.27l.49-.22.2-.11a5.51,5.51,0,0,0,.61-.37l.05,0a7.71,7.71,0,0,0,2.48-2.72,1.74,1.74,0,0,1,1.38-.74h19a1.72,1.72,0,0,1,1.48.88,7.72,7.72,0,0,0,5.46,3.82c.11,0,.27,0,.27.06a0,0,0,0,0,0,0l2-.07a7.76,7.76,0,1,0-7.66-11.66,1.9,1.9,0,0,1-1.56,1h-19a1.78,1.78,0,0,1-1.4-.82,7.83,7.83,0,0,0-2.92-3,1.75,1.75,0,0,1-.91-1.5V92.45s0-.07,0-.07,0,0,0-.06V87.09a2.54,2.54,0,0,1,.74-1.78L234.68,62a2.51,2.51,0,0,1,1.78-.73h39.29a1.87,1.87,0,0,1,1.55,1A7.75,7.75,0,0,0,290.78,62a1.73,1.73,0,0,1,1.42-.81h37.11a1.7,1.7,0,0,1,1.48.89,7.78,7.78,0,0,0,5.47,3.82c.1,0,.26,0,.26.06a0,0,0,0,0,0,0l2-.06a7.76,7.76,0,1,0-7.66-11.66,1.89,1.89,0,0,1-1.56,1H292.21a1.86,1.86,0,0,1-1.55-1,7.75,7.75,0,0,0-13.48.25,1.73,1.73,0,0,1-1.42.83h-40.7a5.09,5.09,0,0,0-3.57,1.47L206.17,82.13a5.06,5.06,0,0,0-1.48,3.56V95s0,.06,0,.06,0,0,0,.06v9.1a1.9,1.9,0,0,1-1,1.56l-.06,0a7.75,7.75,0,0,0,2.82,14.31Zm36.6-11a3.33,3.33,0,1,1-3.34,3.33A3.34,3.34,0,0,1,243,109.14Zm94.48-54.26a3.33,3.33,0,1,1-3.34,3.33A3.34,3.34,0,0,1,337.52,54.88Zm-56.6,2a3.33,3.33,0,0,1,6.38,1.36,3.4,3.4,0,0,1-.26,1.28,3.33,3.33,0,0,1-6.38-1.35A3.27,3.27,0,0,1,280.92,56.92ZM205.77,109.7a3.28,3.28,0,0,1,1.85-.56,3.33,3.33,0,0,1,1.87,6.08,3.25,3.25,0,0,1-1.84.56,3.33,3.33,0,0,1-1.88-6.08Z"/><path class="cls-1" d="M384.12,127.63c-.61.48-1.46.17-2.22,0a8.55,8.55,0,0,0-1.25-.1,7.64,7.64,0,0,0-3.94,1.09,7.82,7.82,0,0,0-1.68,1.27,8,8,0,0,0-.77.89c-.46.63-.87,1.45-1.65,1.55H327.89a2,2,0,0,1-1.64-1,7.76,7.76,0,0,0-13.33,0,1.88,1.88,0,0,1-1.55,1h-5.13a5.29,5.29,0,0,0-3.61,1.43l-10.47,9.86a4.84,4.84,0,0,0-1.53,3.52v6.1a1.87,1.87,0,0,1-1,1.55,7.75,7.75,0,1,0,11.63,7.84c0-.07,0-.18.05-.18a0,0,0,0,0,0,0l-.06-2a7.77,7.77,0,0,0-3.83-5.71,1.76,1.76,0,0,1-.92-1.5V148.7a2.46,2.46,0,0,1,.76-1.77l8.44-7.94a2.64,2.64,0,0,1,1.81-.71h3.84a1.74,1.74,0,0,1,1.48.88,7.7,7.7,0,0,0,5.46,3.82c.1,0,.26,0,.26.06a0,0,0,0,0,.05.05l1.95-.07a7.76,7.76,0,0,0,5.66-3.72,2,2,0,0,1,1.7-1h30.29a1.08,1.08,0,0,1,1,1.11v4.19a1.73,1.73,0,0,1-.89,1.48,7.72,7.72,0,0,0-3.81,5.46c0,.1,0,.27-.06.27a0,0,0,0,0,0,0l.06,1.95a7.76,7.76,0,1,0,11.66-7.65,1.9,1.9,0,0,1-1-1.56v-4.18a1.08,1.08,0,0,1,1.05-1.11h6.21c.76,0,1.19.79,1.61,1.42a7.45,7.45,0,0,0,1,1.2,7.36,7.36,0,0,0,2.47,1.64,7.91,7.91,0,0,0,4.56.42l.16,0,.3-.07.38-.1a8.1,8.1,0,0,0,1.48-.62c.18-.09.35-.17.52-.27l.19-.13c.07,0,.13-.2.2-.14h0l.35-.35a8,8,0,0,0,.92-.92l.12-.11s0,0,0,0,0,0,0-.05l0,0a.93.93,0,0,0,.1-.1l.08-.15a7.66,7.66,0,0,0,1.46-4.51,7.5,7.5,0,0,0-.17-1.58c-.15-.74-.29-1.6.24-2.13l13.15-13.15a2.54,2.54,0,0,1,1.79-.74H420.2a2.09,2.09,0,0,0,2.09-2.09V101.25a.91.91,0,0,1,0-.17c.08-.76.86-1.17,1.48-1.59a7.89,7.89,0,0,0,2.29-2.42,1.9,1.9,0,0,1,1.56-1h9.93a1.9,1.9,0,0,1,1.56,1,7.75,7.75,0,1,0,7.66-11.66l-2-.07a0,0,0,0,0,0,0c0,.1-.17.05-.27.06a7.76,7.76,0,0,0-5.46,3.82,1.73,1.73,0,0,1-1.48.89h-9.95a1.75,1.75,0,0,1-1.5-.91,8.27,8.27,0,0,0-.68-1l-.22-.26-.22-.24A7.74,7.74,0,0,0,413.4,98l.12.14a4.73,4.73,0,0,0,.37.4,7.45,7.45,0,0,0,1.6,1.24,1.83,1.83,0,0,1,.9,1.47v9.54a1,1,0,0,1-1.05,1H402a5.07,5.07,0,0,0-3.57,1.48l-14.21,14.21Zm-87.2,33.87a3.34,3.34,0,1,1-3.34-3.33A3.34,3.34,0,0,1,296.92,161.5Zm22.66-22.84a3.33,3.33,0,1,1,3.34-3.33A3.33,3.33,0,0,1,319.58,138.66Zm46,13.13a3.34,3.34,0,1,1-3.34-3.34A3.34,3.34,0,0,1,365.57,151.79Zm17.3-14a4.11,4.11,0,0,1-.45.38,3.33,3.33,0,1,1,.45-5.09A3.41,3.41,0,0,1,382.87,137.77Zm62.91-48a3.33,3.33,0,1,1-3.34,3.33A3.34,3.34,0,0,1,445.78,89.77Zm-29.7,3.33a3.23,3.23,0,1,1,1,2.35A3.33,3.33,0,0,1,416.08,93.1Z"/><path class="cls-1" d="M418.59,267.31l-1.95-.07a0,0,0,0,0,0,.05c0,.1-.17,0-.27.06a7.7,7.7,0,0,0-5.46,3.82,1.74,1.74,0,0,1-1.48.88h-4.77a1.14,1.14,0,0,1-1.15-1.11v-8.66a1.88,1.88,0,0,1,1-1.55,7.76,7.76,0,1,0-11.66-7.66l-.07,2a0,0,0,0,0,.05,0c.1,0,0,.16.05.26a7.76,7.76,0,0,0,3.82,5.46,1.73,1.73,0,0,1,.89,1.48v8.66a1.14,1.14,0,0,1-1.15,1.12H365.6a1.75,1.75,0,0,1-1.5-.91,7.72,7.72,0,0,0-5.71-3.83l-2-.07a0,0,0,0,0,0,.05c0,.06-.11,0-.17,0A7.76,7.76,0,1,0,364.05,279a1.9,1.9,0,0,1,1.56-1h43.77a1.87,1.87,0,0,1,1.55,1,7.76,7.76,0,1,0,7.66-11.66Zm-61.2,11a3.33,3.33,0,1,1,3.34-3.33A3.33,3.33,0,0,1,357.39,278.33Zm43.13-20.93a3.34,3.34,0,1,1,3.33-3.33A3.34,3.34,0,0,1,400.52,257.4Zm17.07,20.93a3.33,3.33,0,1,1,3.34-3.33A3.34,3.34,0,0,1,417.59,278.33Z"/><path class="cls-1" d="M300.84,332.52a7.73,7.73,0,0,0-6.66,3.8,1.91,1.91,0,0,1-1.56,1h-28a1.89,1.89,0,0,1-1.55-1,7.71,7.71,0,0,0-2.29-2.43c-.63-.42-1.4-.83-1.48-1.59a.91.91,0,0,1,0-.17V317.74a2.09,2.09,0,0,0-2.09-2.09H240.37a2.52,2.52,0,0,1-1.78-.74l-13.26-13.26a1.6,1.6,0,0,1-.46-1.55,8,8,0,0,0-.19-5,7.45,7.45,0,0,0-2.63-3.48l-.19-.13c-.31-.18-.64-.32-1-.48a7.74,7.74,0,1,0-1.51,14.44,1.87,1.87,0,0,1,1.81.38l14.22,14.21a5.06,5.06,0,0,0,3.56,1.48H252.3a1,1,0,0,1,1,1v9.54a1.84,1.84,0,0,1-.9,1.47,7.15,7.15,0,0,0-1.6,1.24,4.73,4.73,0,0,0-.37.4l-.12.14A7.74,7.74,0,0,0,262,345.63l.22-.24.21-.27a7.5,7.5,0,0,0,.69-1,1.75,1.75,0,0,1,1.49-.91h28.06a1.7,1.7,0,0,1,1.48.89,7.74,7.74,0,0,0,5.47,3.81c.1,0,.26,0,.26.07a0,0,0,0,0,0,0l2-.07a7.76,7.76,0,0,0-1-15.45Zm-81-32.2a3.35,3.35,0,0,1-4.69,0l0-.06a3.41,3.41,0,0,1,0-4.68,3.28,3.28,0,0,1,2.35-1,3.32,3.32,0,0,1,2.36,1A3.43,3.43,0,0,1,219.83,300.32Zm38.83,42.37a3.33,3.33,0,0,1-5.63-2.41,3.37,3.37,0,0,1,1-2.35,3.33,3.33,0,0,1,4.66,4.76Zm42.18.92a3.33,3.33,0,1,1,3.33-3.33A3.34,3.34,0,0,1,300.84,343.61Z"/><path class="cls-1" d="M0,224.61H86.74a2.52,2.52,0,0,1,1.78.74l8.82,8.81a1.61,1.61,0,0,1,.45,1.55,7.81,7.81,0,0,0,.59,5.82,6.07,6.07,0,0,0,.48.91c0,.06.11.09.14.14a.11.11,0,0,1,0,.07h0l.35.35.7.7.34.34h0c.08-.07.13.11.21.17l.18.12a3.73,3.73,0,0,0,.4.2,1.44,1.44,0,0,1,.87,1.29v7.32a5.1,5.1,0,0,0,1.48,3.57l9,9.93a5.07,5.07,0,0,0,3.57,1.48H157c.73.08,1.14.82,1.56,1.42a7.88,7.88,0,0,0,3.58,2.81l.33.12.18.06a8,8,0,0,0,1.39.32L166,273a0,0,0,0,0,.05-.05c0-.06.1,0,.17,0a7.79,7.79,0,0,0,5.24-3.31c.44-.65.9-1.46,1.69-1.46h6.22a1.08,1.08,0,0,1,1,1.12v4.18a1.89,1.89,0,0,1-1,1.55,7.76,7.76,0,1,0,11.66,7.66l.06-2a0,0,0,0,0,0,0c-.11,0-.05-.16-.06-.26a7.8,7.8,0,0,0-3.82-5.47,1.7,1.7,0,0,1-.89-1.48v-4.18a1.09,1.09,0,0,1,1-1.12h30.29a2,2,0,0,1,1.7,1,7.8,7.8,0,0,0,5.66,3.72l2,.06a0,0,0,0,0,0,0c0-.1.16,0,.26-.06a7.77,7.77,0,0,0,5.47-3.82,1.69,1.69,0,0,1,1.48-.88h3.83a2.64,2.64,0,0,1,1.81.71l8.44,7.94a2.44,2.44,0,0,1,.76,1.76v4.6a1.74,1.74,0,0,1-.92,1.5,7.75,7.75,0,0,0-3.83,5.71l-.06,1.95a0,0,0,0,0,0,.05c.07,0,0,.11.05.17s.06.3.09.45a1.29,1.29,0,0,0,0,.19l0,.13a7.74,7.74,0,0,0,14.2,2.19,1.9,1.9,0,0,1,1.56-1h46.14a1.9,1.9,0,0,1,1.56,1,7.74,7.74,0,0,0,6.66,3.79,8.12,8.12,0,0,0,1.57-.16c.75-.16,1.63-.44,2.18.11l6.86,6.86a5.07,5.07,0,0,0,3.57,1.48h48.75a1.89,1.89,0,0,1,1.55,1,7.76,7.76,0,1,0,7.66-11.66l-2-.06a0,0,0,0,0,0,0c0,.1-.16,0-.26.06a7.8,7.8,0,0,0-5.47,3.82,1.72,1.72,0,0,1-1.48.89H330.23a2.56,2.56,0,0,1-1.79-.74L322.58,295a1.68,1.68,0,0,1-.45-1.55,5.63,5.63,0,0,0,.14-.59,7.77,7.77,0,0,0-.52-4.82,7.63,7.63,0,0,0-.58-1.14,3.3,3.3,0,0,0-.34-.41c-.05-.07-.19-.1-.15-.17s0,0,0,0l-1.17-1.17a0,0,0,0,0-.06,0s-.09-.05-.14-.08a7.75,7.75,0,0,0-10.09.75,8,8,0,0,0-.82,1c-.46.65-.8,1.5-1.57,1.69a1.74,1.74,0,0,1-.39,0H260.28a1.58,1.58,0,0,1-.38,0c-.73-.19-1.08-1-1.51-1.58a7.53,7.53,0,0,0-2.39-2.24,1.91,1.91,0,0,1-1-1.56V277a4.91,4.91,0,0,0-1.52-3.53L243,263.63a5.28,5.28,0,0,0-3.61-1.44h-5.13a1.87,1.87,0,0,1-1.55-1,7.75,7.75,0,0,0-13.32,0,2,2,0,0,1-1.65,1H173c-.8-.1-1.21-.94-1.69-1.59A7.75,7.75,0,0,0,168,258l-.31-.12-.38-.13a7.85,7.85,0,0,0-2.34-.37,7.76,7.76,0,0,0-6.41,3.4c-.41.61-.81,1.35-1.53,1.44H117.57a2.54,2.54,0,0,1-1.78-.74l-7.05-8a2.52,2.52,0,0,1-.74-1.78v-5.49a2,2,0,0,1,1.09-1.68,8,8,0,0,0,1.61-1.24,7.76,7.76,0,0,0,0-11,7.93,7.93,0,0,0-7.36-2,1.89,1.89,0,0,1-1.82-.4l-9.81-9.81a5.1,5.1,0,0,0-3.57-1.48H0Zm102.86,15.61a3.33,3.33,0,0,1,0-4.71,3.41,3.41,0,0,1,4.7,0l0,0a3.34,3.34,0,0,1,0,4.7A3.41,3.41,0,0,1,102.86,240.22ZM165,268.48a3.19,3.19,0,0,1-1.24-.25,3.32,3.32,0,0,1,1.35-6.37,3.38,3.38,0,0,1,1.24.24,3.33,3.33,0,0,1-1.35,6.38Zm21.75,13.12a3.33,3.33,0,1,1-3.33-3.33A3.33,3.33,0,0,1,186.72,281.6ZM226,268.48a3.34,3.34,0,1,1,3.33-3.33A3.34,3.34,0,0,1,226,268.48Zm26,26.17a3.33,3.33,0,0,1-3.24-2.57,3.81,3.81,0,0,1-.06-.6,3.33,3.33,0,0,1,6.57-.76,2.91,2.91,0,0,1,.06.6A3.34,3.34,0,0,1,252,294.65Zm65.73-2a3.4,3.4,0,0,1-.71,1.06,3.31,3.31,0,0,1-2.36,1,3.27,3.27,0,0,1-2.32-.94l-.07-.07a3.25,3.25,0,1,1,5.46-1Zm68,15.29a3.34,3.34,0,1,1,3.33-3.33A3.34,3.34,0,0,1,385.79,307.91Z"/><path class="cls-1" d="M151.25,117.14a5,5,0,0,0-1.48,3.57v18.73a1,1,0,0,1-1.05,1.05h-17a1.7,1.7,0,0,1-1.47-.89,7.8,7.8,0,0,0-5.47-3.82c-.1,0-.26,0-.26-.06a0,0,0,0,0-.05,0l-1.95.06a7.76,7.76,0,1,0,7.66,11.66,1.89,1.89,0,0,1,1.55-1h21.83a2.09,2.09,0,0,0,2.09-2.09V122.1a2.54,2.54,0,0,1,.74-1.78l17.18-17.18a1.93,1.93,0,0,1,1.82-.41,7.9,7.9,0,0,0,7.36-2,7.76,7.76,0,0,0-9.14-12.34c-.31.17-.62.33-.91.52-.08.06-.18.25-.21.15s0,0-.07.06a6.58,6.58,0,0,0-1.35,1.34,9.69,9.69,0,0,0-.84,1.51,7.77,7.77,0,0,0-.38,5.54,1.52,1.52,0,0,1-.48,1.46Zm-27.71,29.63a3.34,3.34,0,1,1,3.33-3.33A3.34,3.34,0,0,1,123.54,146.77Zm51.39-53.86a3.43,3.43,0,0,1,4.71,0,3.35,3.35,0,0,1,0,4.71l0,0a3.32,3.32,0,0,1-2.34,1,3.35,3.35,0,0,1-2.36-1,3.36,3.36,0,0,1,0-4.72Z"/><path class="cls-1" d="M513.58,153.1a7.74,7.74,0,0,0-6.66,3.79,1.88,1.88,0,0,1-1.55,1h-9.94a1.87,1.87,0,0,1-1.55-1A7.76,7.76,0,1,0,486,168.53c.07,0,.18,0,.18,0a0,0,0,0,0,0,.05l2-.07a7.76,7.76,0,0,0,5.71-3.83,1.75,1.75,0,0,1,1.49-.91h9.95a1.7,1.7,0,0,1,1.48.89,7.76,7.76,0,0,0,5.47,3.81c.1,0,.26,0,.26.06a0,0,0,0,0,0,.05l2-.07a7.76,7.76,0,0,0-1-15.45Zm-26.36,11.09a3.33,3.33,0,1,1,3.33-3.33A3.34,3.34,0,0,1,487.22,164.19Zm26.36,0a3.33,3.33,0,1,1,3.34-3.33A3.33,3.33,0,0,1,513.58,164.19Z"/><path class="cls-1" d="M0,206.49H129.18a1.11,1.11,0,0,1,1,1.18v4.42a1.84,1.84,0,0,1-.94,1.5,8.17,8.17,0,0,0-1.61,1.25l-.08.09a5.72,5.72,0,0,0-.45.53c-.1.12-.19.24-.28.37a1.43,1.43,0,0,0-.16.24,7.64,7.64,0,0,0-1.28,4.23,7.75,7.75,0,0,0,3.16,6.25c.62.46,1.43.81,1.63,1.55a1.65,1.65,0,0,1,0,.38v1.57a4.91,4.91,0,0,0,1.52,3.53l10.48,9.85a5.28,5.28,0,0,0,3.61,1.44H151a1.87,1.87,0,0,1,1.56,1,7.75,7.75,0,0,0,13.32,0,2,2,0,0,1,1.64-1h44.56a1.87,1.87,0,0,1,1.55,1,7.76,7.76,0,1,0,7.66-11.66l-2-.06s0,0,0,0-.16,0-.26.06a7.75,7.75,0,0,0-5.47,3.82,1.72,1.72,0,0,1-1.48.88h-6.22a1.07,1.07,0,0,1-1-1.11v-4.18a1.89,1.89,0,0,1,1-1.55,7.76,7.76,0,1,0-11.66-7.66l-.06,1.95a0,0,0,0,0,0,.05c.11,0,.05.16.06.26a7.8,7.8,0,0,0,3.82,5.47,1.7,1.7,0,0,1,.89,1.48v4.18a1.08,1.08,0,0,1-1,1.11H167.57a2,2,0,0,1-1.7-1,7.8,7.8,0,0,0-5.66-3.72l-2-.06s0,0,0,0-.16,0-.26.06a7.77,7.77,0,0,0-5.47,3.82A1.71,1.71,0,0,1,151,239h-3.83a2.64,2.64,0,0,1-1.81-.71l-8.44-7.94a2.45,2.45,0,0,1-.76-1.76v-.08a1.75,1.75,0,0,1,.8-1.41,7.79,7.79,0,0,0,2.06-1.68l.14-.16.28-.36a7.73,7.73,0,0,0,1.47-3.59l.06-2a0,0,0,0,0,0,0c-.07,0,0-.11-.05-.18a7.74,7.74,0,0,0-3.19-5.15c-.6-.42-1.36-.77-1.53-1.49a2,2,0,0,1,0-.35v-4.43a1.12,1.12,0,0,1,1-1.18h55.2a1.75,1.75,0,0,1,1.4.78,7.75,7.75,0,0,0,5.62,3.95c.07,0,.18,0,.18.05s0,0,0,0l1.26,0a5.17,5.17,0,0,0,1.41-.15,8.36,8.36,0,0,0,1.41-.48l.05,0,0,0a7.29,7.29,0,0,0,1.47-.89l.24-.18.26-.23c.13-.12.25-.23.37-.36l.17-.17a8.36,8.36,0,0,0,1-1.36,1.73,1.73,0,0,1,1.47-.89h48.15a2.51,2.51,0,0,1,1.78.73l8.82,8.82a1.61,1.61,0,0,1,.45,1.55v0a7.91,7.91,0,0,0-.36,2.35,7.77,7.77,0,0,0,6.58,7.67c.07,0,.18,0,.18,0a0,0,0,0,0,0,0l2-.07a7.74,7.74,0,0,0,5.71-3.83,1.75,1.75,0,0,1,1.49-.91h28.06a1.7,1.7,0,0,1,1.48.89,7.78,7.78,0,0,0,5.47,3.82c.1,0,.26,0,.26.06a0,0,0,0,0,0,0l2-.07a7.51,7.51,0,0,0,3.28-1.23,4,4,0,0,0,.47-.34l.08-.06a7.86,7.86,0,0,0,1.95-2.23,1.74,1.74,0,0,1,1.5-.92h28.06a1.7,1.7,0,0,1,1.47.89,7.77,7.77,0,0,0,5.47,3.82c.1,0,.26,0,.26.06a0,0,0,0,0,0,0l2-.06A7.76,7.76,0,1,0,357.71,216a1.87,1.87,0,0,1-1.55,1h-28a1.89,1.89,0,0,1-1.56-1,7.72,7.72,0,0,0-10.49-2.78l-.35.22-.27.18a7.75,7.75,0,0,0-2.28,2.42,1.91,1.91,0,0,1-1.56,1h-28.2c-.75-.09-1.13-.9-1.55-1.53a7,7,0,0,0-1-1.21,7.88,7.88,0,0,0-7.36-2,1.94,1.94,0,0,1-1.82-.4l-9.81-9.82a5.09,5.09,0,0,0-3.57-1.47H208.78a1.83,1.83,0,0,1-1.47-.9,7.72,7.72,0,0,0-11-2.65l-.18.13-.46.34-.26.23c-.14.13-.29.26-.42.4a4.69,4.69,0,0,0-.47.53,2,2,0,0,0-.18.23c-.13.18-.25.35-.37.54a.76.76,0,0,1-.08.11,1.87,1.87,0,0,1-1.55,1H0Zm220.28,32.09a3.34,3.34,0,1,1-3.34,3.33A3.34,3.34,0,0,1,220.28,238.58Zm-21.75-13.12a3.33,3.33,0,1,1,3.33,3.33A3.34,3.34,0,0,1,198.53,225.46Zm-39.32,13.12a3.34,3.34,0,1,1-3.33,3.33A3.34,3.34,0,0,1,159.21,238.58Zm205.16-22a3.34,3.34,0,1,1-3.33,3.33A3.34,3.34,0,0,1,364.37,216.61Zm-45.83.3a3.27,3.27,0,0,1,1.29-.26,3.24,3.24,0,1,1-1.29.26Zm-46.43,2.34a3.33,3.33,0,0,1,6.58.73,2.73,2.73,0,0,1-.05.5,3.24,3.24,0,0,1-.89,1.64,3.41,3.41,0,0,1-4.71,0A3.31,3.31,0,0,1,272.11,219.25Zm-74.61-17a3.33,3.33,0,0,1,6.4,1.3,2.9,2.9,0,0,1-.07.66,3.33,3.33,0,0,1-6.59-.68A3.18,3.18,0,0,1,197.5,202.26ZM133.17,217a3.28,3.28,0,1,1-2.33,1A3.34,3.34,0,0,1,133.17,217Z"/><path class="cls-1" d="M0,145.43H93a2.52,2.52,0,0,1,1.78.74l21.63,21.63a5.06,5.06,0,0,0,3.57,1.48h34.4A5,5,0,0,0,158,167.8l27.66-27.65a2.52,2.52,0,0,1,1.78-.74h70.39a1.88,1.88,0,0,1,1.55,1,7.76,7.76,0,1,0,7.84-11.64c-.07,0-.18,0-.18,0a0,0,0,0,0,0-.05l-2,.07a7.74,7.74,0,0,0-5.71,3.83,1.75,1.75,0,0,1-1.5.91H186a5.06,5.06,0,0,0-3.57,1.48l-27.65,27.65a2.54,2.54,0,0,1-1.79.74h-31.6a2.52,2.52,0,0,1-1.78-.74L98,141a5.1,5.1,0,0,0-3.57-1.48H0Zm266-12.3a3.33,3.33,0,1,1-3.33,3.33A3.33,3.33,0,0,1,266,133.13Z"/><path class="cls-1" d="M0,127.58H105.06a5.06,5.06,0,0,0,3.57-1.47l33-33a1.72,1.72,0,0,1,1.65-.41,7.73,7.73,0,0,0,6.57-1.16c.08-.06.15-.21.22-.14a.06.06,0,0,0,.06,0L151.43,90a7.76,7.76,0,1,0-13.66-2.83,1.89,1.89,0,0,1-.38,1.82l-13,13s0,0,0,0,0,0,0,0l-18.85,18.85a2.5,2.5,0,0,1-1.79.74H0ZM142.93,82.92a3.33,3.33,0,1,1,0,4.71A3.33,3.33,0,0,1,142.93,82.92Z"/><path class="cls-1" d="M491.16,258.22A7.74,7.74,0,0,0,484.5,262a1.9,1.9,0,0,1-1.56,1h-28a1.88,1.88,0,0,1-1.55-1,7.74,7.74,0,0,0-8.89-3.46l-.14,0a1.61,1.61,0,0,1-1.55-.45l-41-41a2.08,2.08,0,0,0-2.95,0l-21.25,21.25a2.54,2.54,0,0,1-1.79.74H265.67a1.76,1.76,0,0,1-1.5-.92,7.77,7.77,0,0,0-5.71-3.83l-2-.06a0,0,0,0,0,0,0c0,.07-.11,0-.18,0A7.76,7.76,0,1,0,264.12,246a1.87,1.87,0,0,1,1.55-1H377.16a5.07,5.07,0,0,0,3.57-1.48l18.81-18.81a1.05,1.05,0,0,1,1.47,0l37.57,37.57a1.49,1.49,0,0,1,.48,1.45,7.86,7.86,0,0,0-.34,2.28,7.75,7.75,0,0,0,5.88,7.52,7.56,7.56,0,0,0,2.32.21c.22,0,.43,0,.64-.06h.13a7.77,7.77,0,0,0,5.71-3.83,1.75,1.75,0,0,1,1.5-.91H483a1.71,1.71,0,0,1,1.48.88,7.75,7.75,0,0,0,5.47,3.82c.1,0,.26,0,.26.06s0,.05,0,0l2-.06a7.76,7.76,0,0,0-1-15.45Zm-233.7-12.84a3.34,3.34,0,1,1,3.33-3.33A3.34,3.34,0,0,1,257.46,245.38Zm191.37,23a3.19,3.19,0,0,1-1.68.9,3.41,3.41,0,0,1-.46.05,3.33,3.33,0,0,1-.69-6.59,3.32,3.32,0,0,1,2.83,5.64Zm42.33.95a3.34,3.34,0,1,1,3.33-3.33A3.34,3.34,0,0,1,491.16,269.31Z"/></g></g></svg>