<svg xmlns="http://www.w3.org/2000/svg" viewBox="0 0 1033 1033"><defs><style>.cls-1{fill:#f9ae28;}.cls-2{fill:#353535;fill-rule:evenodd;}</style></defs><g id="Layer_2" data-name="Layer 2"><g id="Layer_2-2" data-name="Layer 2"><circle class="cls-1" cx="516.5" cy="516.5" r="516.5"/><path class="cls-2" d="M890.47,591.23h.76A411.93,411.93,0,0,1,902.45,706,410.14,410.14,0,0,0,914,609c0-225.91-183.13-409-409-409-163,0-307.81,96.6-372.77,240.39C120.66,465.83,95,574.78,102.05,591.23a348.44,348.44,0,0,1,29.24-92.63A411,411,0,0,1,260.23,352.45l-38-38,38.5,38.5a349,349,0,0,1,98.44-42.77l-28.34-68.42L356.18,303q11.55-4.12,23.41-7.56l3.87,9.34a352.35,352.35,0,0,1,64.42-5.91q17.1,0,33.79,1.63v-21q6-.18,12.11-.17t12.41.18V303.7a348.11,348.11,0,0,1,87.52,26.85l14.53-35.05q11.85,3.44,23.4,7.58L657,241.76,615.7,341.57A351.72,351.72,0,0,1,687,393.07l40.49-40.49q10.17,7.1,19.89,14.79L783,331.79l-78.62,78.62a351.72,351.72,0,0,1,51.5,71.32l99.81-41.34-28,11.59q7.23,10.18,13.83,20.82l-74.63,30.91a348,348,0,0,1,23.47,70.06l3.38,17.46h96.74ZM411,534.53a43.28,43.28,0,0,1,9,3.47l246.14-72.71L441.45,588.85A43.24,43.24,0,1,1,411,534.53Z"/></g></g></svg>