<svg xmlns="http://www.w3.org/2000/svg" viewBox="0 0 1033 1033"><defs><style>.cls-1{fill:#f9ae28;}.cls-2{fill:#353535;}</style></defs><g id="Layer_2" data-name="Layer 2"><g id="Layer_2-2" data-name="Layer 2"><circle class="cls-1" cx="516.5" cy="516.5" r="516.5"/><path class="cls-2" d="M858,553.66V791H570.69L551.56,553.62l102.7-81.46v80.58l101.88-80.58v80.58L858,472.16v80.58m-203.76.92v.07h.09Zm101.88,0v.18h.23Zm101.88,0v.28h.36ZM727.73,705h70.86V637.68H727.73Zm-124.64,0H674V637.68H603.09Z"/><path class="cls-2" d="M502.38,225H221.71l-46.3,566H548.69Zm-178,323-.23-.11,31.8-92H294.49L400.2,327.28l.23.1-31.79,91.94H430.1Z"/></g></g></svg>