<svg xmlns="http://www.w3.org/2000/svg" viewBox="0 0 1033 1033"><defs><style>.cls-1{fill:#f9ae28;}.cls-2{fill:#353535;}</style></defs><g id="Layer_2" data-name="Layer 2"><g id="Layer_2-2" data-name="Layer 2"><circle class="cls-1" cx="516.5" cy="516.5" r="516.5"/><path class="cls-2" d="M472.43,467.74l-127.13,339h343l-127.13-339a69.12,69.12,0,1,0-88.74,0Zm-60.62,293,44.06-117.5H577.73l44.06,117.5ZM560.45,597.12h-87.3l42.39-113c.45,0,.81.14,1.26.14s.81-.1,1.26-.14Zm-228,232.69H701.12v46.08H332.48Zm70.29-531.09,32.58,32.58a115.32,115.32,0,0,0,0,162.9l-32.58,32.58c-62.82-62.86-62.82-165.15,0-228.06ZM337.6,233.56l32.59,32.58c-80.82,80.82-80.82,212.4,0,293.22L337.6,591.94c-98.81-98.82-98.81-259.56,0-358.38ZM305,624.61l-32.58,32.58c-134.73-134.82-134.73-354.06,0-488.79L305,201C188.3,317.71,188.3,507.79,305,624.61ZM598.25,494.25a115.36,115.36,0,0,0,0-162.86l32.58-32.58c62.82,62.82,62.82,165.15,0,228Zm65.15-228L696,233.65C794.8,332.43,794.8,493.21,696,592L663.4,559.45c80.83-80.87,80.83-212.4,0-293.22Zm97.75,391-32.58-32.58C845.3,507.83,845.3,317.8,728.57,201l32.58-32.58c134.73,134.78,134.73,354.06,0,488.79Z"/></g></g></svg>