<svg xmlns="http://www.w3.org/2000/svg" viewBox="0 0 201.53 222.65"><defs><style>.cls-1{fill:#c9ccd4;}.cls-2{fill:#fff;opacity:0.5;}.cls-3{fill:#ed403b;}</style></defs><g id="Layer_2" data-name="Layer 2"><g id="Power_Plants" data-name="Power Plants"><polygon class="cls-1" points="75.23 105.68 61.04 61.87 3.54 0 0 2.41 71.69 108.08 75.23 105.68"/><rect class="cls-2" x="35.48" y="-9.81" width="4.28" height="127.7" transform="translate(-23.85 30.44) rotate(-34.15)"/><polygon class="cls-3" points="15.79 13.18 9.99 17.12 6.6 12.13 11.64 8.71 15.79 13.18"/><polygon class="cls-3" points="7.69 4.47 3.38 7.39 0 2.41 3.54 0 7.69 4.47"/><polygon class="cls-1" points="74.16 107.9 119.2 117.51 201.53 98.66 201.21 94.39 73.84 103.64 74.16 107.9"/><rect class="cls-2" x="73.83" y="99.01" width="127.7" height="4.28" transform="translate(-6.96 10.23) rotate(-4.15)"/><polygon class="cls-3" points="183.98 102.68 183.48 95.68 189.49 95.24 189.91 101.31 183.98 102.68"/><polygon class="cls-3" points="195.58 100.02 195.21 94.82 201.21 94.39 201.53 98.66 195.58 100.02"/><polygon class="cls-1" points="72.77 105.86 41.92 140.07 17.09 220.78 20.94 222.65 76.62 107.72 72.77 105.86"/><rect class="cls-2" x="-17" y="162.11" width="127.71" height="4.28" transform="translate(-121.39 134.79) rotate(-64.15)"/><polygon class="cls-3" points="22.37 203.59 28.69 206.63 26.06 212.06 20.59 209.41 22.37 203.59"/><polygon class="cls-3" points="18.88 214.96 23.57 217.23 20.94 222.65 17.09 220.78 18.88 214.96"/></g></g></svg>