<svg xmlns="http://www.w3.org/2000/svg" xmlns:xlink="http://www.w3.org/1999/xlink" viewBox="0 0 446.98 244.45"><defs><style>.cls-1{fill:#91b63f;}.cls-2{fill:#504943;}.cls-3,.cls-34{fill:#e5e884;}.cls-16,.cls-3,.cls-32,.cls-4,.cls-8{opacity:0.5;}.cls-5{fill:#385a27;}.cls-6{fill:#5c666e;}.cls-13,.cls-30,.cls-7{fill:#fff;}.cls-7{opacity:0.3;}.cls-9{fill:#131a1d;}.cls-10{fill:#424d54;}.cls-11{fill:#e5e6ec;}.cls-12{fill:#007a94;}.cls-13{opacity:0.4;}.cls-14{fill:#493b34;}.cls-15{fill:#87ad54;}.cls-16{fill:#a86f41;}.cls-17{fill:#f0f1f7;}.cls-18{fill:#b3bdcc;}.cls-19{fill:#30404b;}.cls-20{fill:#cbd2de;}.cls-21{fill:#485967;}.cls-22{fill:#25343e;}.cls-23{fill:#304650;}.cls-24{fill:#152830;}.cls-25{fill:url(#linear-gradient);}.cls-26{fill:#113442;}.cls-26,.cls-27,.cls-30,.cls-33{opacity:0.2;}.cls-27{fill:#f1f9fb;}.cls-28{fill:url(#linear-gradient-2);}.cls-29{fill:#404041;opacity:0.1;}.cls-31{fill:#3c8848;}.cls-32,.cls-35{fill:#364a31;}</style><linearGradient id="linear-gradient" x1="131.7" y1="183.7" x2="99.43" y2="222.16" gradientUnits="userSpaceOnUse"><stop offset="0" stop-color="#9cc5e8"/><stop offset="0.12" stop-color="#94bee1"/><stop offset="0.31" stop-color="#80aacd"/><stop offset="0.53" stop-color="#5e89ac"/><stop offset="0.78" stop-color="#2f5c7e"/><stop offset="1" stop-color="#002f51"/></linearGradient><linearGradient id="linear-gradient-2" x1="25.02" y1="215.72" x2="7.78" y2="195.17" gradientUnits="userSpaceOnUse"><stop offset="0" stop-color="#002f51"/><stop offset="0.11" stop-color="#124063"/><stop offset="1" stop-color="#9cc5e8"/></linearGradient></defs><g id="Layer_2" data-name="Layer 2"><g id="Power_Plants" data-name="Power Plants"><path class="cls-1" d="M300,226.13a5.21,5.21,0,0,0-5.68-.9,10.16,10.16,0,0,0-8.34-7.42,10.4,10.4,0,0,0,1.88-6.3,10.06,10.06,0,0,0-20.12-.38,9.88,9.88,0,0,0-3.66-.61,10.33,10.33,0,0,0-9.14,13.91,10.56,10.56,0,0,0-1.31,5.37,10.21,10.21,0,0,0,10.36,10,9.78,9.78,0,0,0,4.79-1.41,3.08,3.08,0,0,0,.24.27,6.35,6.35,0,0,0,9-.4,6.43,6.43,0,0,0,1.11-1.66,9.9,9.9,0,0,0,5.81,1.7,10,10,0,0,0,3.56-.78,3.77,3.77,0,0,0,1.08,1.9,3.86,3.86,0,0,0,5.45-.27,3.94,3.94,0,0,0,.89-3.84,5.41,5.41,0,0,0,4.29-1.73A5.29,5.29,0,0,0,300,226.13Z"/><path class="cls-2" d="M275.56,242.51c-.06.76-.08,1.37-.09,1.94h6.39a95.54,95.54,0,0,0,10.68-10.06c-1.3,1.43-6.82,4.92-7.92,6-.51-.29.57-3.45.64-5.83,0,0-2.5,4.41-1.72,6.65a33.61,33.61,0,0,1-4.53,2.69c-.28-3.64-.51-6.15-.69-7.88-.05-.44,4.25-8.12,4-7.84-1.77,2.23-2.58,2.64-4.07,5.27-.48.84-1.62-6.74-1.62-6.74-.6.48.09,5.67-.14,6.82a21.78,21.78,0,0,0-.28,2.56c-.07,1.06-.23,3.58-.36,4.64-1.13-.27-3.3-2.79-6-7.73C269.86,233,272,241.46,275.56,242.51Z"/><path class="cls-2" d="M274.74,244.45h2.88c-3.26-1.53-13.75-4.2-17.57-7.36C260.05,237.09,261.55,240.9,274.74,244.45Z"/><path class="cls-3" d="M280.85,207.77a1.87,1.87,0,1,1-1.87-1.88A1.87,1.87,0,0,1,280.85,207.77Z"/><path class="cls-3" d="M276.45,206.89a.88.88,0,1,1-.88-.88A.87.87,0,0,1,276.45,206.89Z"/><path class="cls-3" d="M297.05,226.72a.88.88,0,1,1-.88-.89A.88.88,0,0,1,297.05,226.72Z"/><g class="cls-4"><path class="cls-5" d="M264,239.83a9.78,9.78,0,0,0,4.79-1.41,3.08,3.08,0,0,0,.24.27,6.35,6.35,0,0,0,9-.4,6.43,6.43,0,0,0,1.11-1.66,9.9,9.9,0,0,0,5.81,1.7,10,10,0,0,0,3.56-.78,3.77,3.77,0,0,0,1.08,1.9,3.86,3.86,0,0,0,5.45-.27,3.94,3.94,0,0,0,.89-3.84,5.41,5.41,0,0,0,4.29-1.73,5.31,5.31,0,0,0,.58-6.56,12.73,12.73,0,0,1-2.6,4.37c-1.8,1.49-3.78-1.86-5.61-3.66s-2.67.18-5.19,1.46-5-1-8.83-2.23-10.44,4.19-12.6,4.92-5.4,2.7-9.36.89a7.92,7.92,0,0,1-2.88-2.19A10.16,10.16,0,0,0,264,239.83Z"/><path class="cls-5" d="M286.32,226.34a2.16,2.16,0,1,1-2.15-2.16A2.16,2.16,0,0,1,286.32,226.34Z"/><path class="cls-5" d="M261.87,223.88a1.82,1.82,0,1,1-1.82-1.81A1.82,1.82,0,0,1,261.87,223.88Z"/><path class="cls-5" d="M289,225.69a1,1,0,1,1-1-1A1,1,0,0,1,289,225.69Z"/><path class="cls-5" d="M257.41,223.72a1,1,0,1,1-1-1A1,1,0,0,1,257.41,223.72Z"/><path class="cls-5" d="M262.9,220.94a1,1,0,1,1-1-1A1,1,0,0,1,262.9,220.94Z"/></g><path class="cls-3" d="M277.48,201.49a10.17,10.17,0,0,0-9.76,9.64,9.88,9.88,0,0,0-3.66-.61,10.06,10.06,0,0,0-8.75,5.76c4.35-3.24,11.14-2.32,14.44-1.6a.63.63,0,0,0,.68-.29.65.65,0,0,0-.06-.74l-1-1.19a1.12,1.12,0,0,1-.12-1.31c1.46-2.45,6.94-10,16.75-5.32A10,10,0,0,0,277.48,201.49Z"/><path class="cls-3" d="M286,217.78a20.68,20.68,0,0,0-9.52,3.68,37.34,37.34,0,0,1,12.16-1.24,16.87,16.87,0,0,1,3.44.87,10,10,0,0,0-6.09-3.28Z"/><path class="cls-1" d="M275,231.91a1.88,1.88,0,1,1-1.88-1.87A1.88,1.88,0,0,1,275,231.91Z"/><path class="cls-1" d="M275.57,228.75a.88.88,0,1,1-.88-.88A.87.87,0,0,1,275.57,228.75Z"/><rect class="cls-6" x="135.44" y="219.72" width="6.79" height="24.73"/><rect class="cls-7" x="136.32" y="219.72" width="1.04" height="24.73"/><rect class="cls-8" x="139.74" y="219.72" width="1.6" height="24.73"/><polygon class="cls-9" points="165.98 229.85 106.56 234 106.02 233.12 165.63 221.63 166.75 227.68 165.98 229.85"/><polygon class="cls-10" points="180.56 155.54 179.18 155.27 126.8 186.57 106.02 233.12 166.75 227.68 180.56 155.54"/><path class="cls-11" d="M126.32,186.21l52.86-30.94-3.42,17.56L120.61,199ZM113.7,214.49l57.54-18.39,4.33-22.3-55.26,25.89Zm-8.07,18.09,59.67-6L171,197.34l-57.64,17.93Z"/><path class="cls-12" d="M168.32,165.16l-.77.13.67-2.67.94-.84,6.8-3.95.88-.19-.57,2.75-1.05.92Zm-1.27.41.68-2.66L167,163l-6,3.47-.85.78-.76,2.57.66-.08,6.05-3.38ZM159,170.11l.76-2.57-.64.09-5.29,3.07-.78.72-.82,2.48.57,0,5.35-3Zm-7.16,4,.82-2.48-.55.06-4.72,2.74-.71.67-.87,2.39h.49l4.77-2.66Zm-6.37,3.58.86-2.4-.48,0-4.24,2.46-.66.62-.89,2.32h.43l4.27-2.39Zm-5.72,3.2.89-2.31h-.41l-3.83,2.22-.61.58-.91,2.24.37,0,3.85-2.16Zm-5.15,2.9.91-2.24h-.36l-3.48,2-.56.55-.92,2.16.32,0,3.48-1.95Zm-4.67,2.62.92-2.17-.31,0-3.17,1.84-.53.51-.93,2.1.28.05,3.18-1.77Zm44.51-21.25,1.07-.92.6-2.89-.89.17-6.91,3.85-1,.84L166.6,169l.79-.09ZM159,173.4l6.13-3.28,1-.84.71-2.78-.76.11L160,170l-.87.78-.79,2.68Zm-7.1,1.37-.86,2.59.57,0,5.42-2.89.86-.77.79-2.67-.64.06-5.35,3Zm-6.44,3.57-.89,2.49h.49l4.81-2.57.78-.7.86-2.58-.56,0-4.76,2.66Zm-5.76,3.2-.92,2.4.42,0,4.3-2.3.72-.65.9-2.48h-.48l-4.27,2.38Zm-5.19,2.88-.93,2.31.36.05,3.87-2.06.66-.61.92-2.4H139l-3.85,2.14Zm-4.7,2.61-.95,2.23.32.07,3.5-1.87.61-.57.94-2.32-.36,0-3.48,2Zm-3.74,1.86-.53.51-1,2.16.28.08,3.18-1.7.57-.54.95-2.23-.32,0Zm47.46-19.67,1.1-.93.63-3-.92.14-7,3.74-1,.85-.73,2.91.79-.05Zm-8.43,3.95.74-2.92-.77.09L159,173.61l-.89.78-.82,2.8.67,0,6.22-3.17Zm-14.35,5.09-.89,2.69h.57l5.47-2.78.88-.77.83-2.79-.65,0-5.41,2.88Zm-6.49,3.44-.93,2.59.49,0,4.85-2.47.8-.71.88-2.68h-.55L145,181Zm-5.8,3.08-.95,2.49.42,0,4.32-2.2.73-.65.93-2.58-.48,0-4.3,2.29Zm-5.21,2.77-1,2.39.37.07,3.88-2,.67-.62,1-2.48-.42,0L133.88,187Zm-4.72,2.5-1,2.3.31.09,3.51-1.78.62-.58,1-2.39-.36-.05-3.49,1.86Zm-3.75,1.76-.53.5-1,2.23.28.1,3.18-1.62.57-.54,1-2.3-.3-.07Zm47.86-18.34,1.11-.93.66-3.18-.93.1-7.14,3.62-1,.85-.77,3,.8,0Zm-8.58,3.76.77-3-.77,0-6.23,3.16-.89.78-.86,2.92.68,0,6.3-3Zm-8.43,4.07.86-2.91h-.65l-5.47,2.77-.82.72-.92,2.8.57,0,5.53-2.65ZM143,185.19l-1,2.69.49.06,4.89-2.35.8-.7.93-2.8-.56,0-4.85,2.46Zm-5.84,2.94-1,2.59.42.08,4.35-2.09.74-.66,1-2.68-.48-.05-4.33,2.2ZM132,190.78l-1,2.47.36.1,3.9-1.88.68-.6,1-2.58-.41-.06-3.89,2Zm-4.73,2.38-1,2.39.31.1L130,194l.62-.56,1-2.48-.35-.08-3.51,1.78Zm-4.29,2.16-1,2.3.27.12,3.19-1.53.57-.54,1-2.38-.31-.09-3.18,1.61Zm48.19-14.65,1.16-.93.71-3.45-1,0-7.34,3.39-1,.85-.83,3.3.81,0Zm-8.81,3.41.85-3.27-.79,0L156,183.73l-.92.78-.93,3.13.68.08,6.45-2.79Zm-8.61,3.77.92-3.13-.65-.05-5.57,2.57-.83.72-1,3,.58.09,5.62-2.43Zm-7.52,3.28,1-3-.56-.08-4.91,2.28-.76.66-1,2.86.49.11,4.95-2.14ZM135,193.71l-1,2.74.42.13,4.39-1.91.75-.64,1-2.86-.48-.09-4.37,2Zm-5.27,2.43-1.07,2.62.36.14,3.92-1.7.69-.61,1.05-2.73-.41-.1-3.9,1.8ZM125,198.31,124,200.83l.31.15,3.52-1.53.64-.57,1.06-2.61-.35-.12-3.52,1.63Zm-.55,0-3.19,1.47-.55.5-1.07,2.43.26.14,3.19-1.37.59-.54,1.06-2.51Zm45.62-12.79,1.18-.92L172,181h-1l-7.46,3.22-1,.85-.87,3.46.82.09Zm-9,3.17.88-3.45-.8-.05L154.78,188l-.94.78-1,3.28.69.12,6.53-2.62Zm-8.74,3.53,1-3.28-.66-.08-5.63,2.43-.84.71-1,3.13.58.13,5.68-2.28Zm-7.6,3.07,1-3.11-.56-.11-5,2.14-.77.66-1.06,3,.48.15,5-2Zm-11.18,2.12-1.09,2.84.42.16,4.41-1.77.76-.65,1.07-3-.47-.13-4.4,1.9Zm-5.29,2.26-1.1,2.72.35.17,3.93-1.58.7-.6,1.1-2.84-.41-.13L129,199.1Zm-4.75,2-1.11,2.6.3.18,3.53-1.42.64-.56,1.1-2.71-.34-.15-3.53,1.53Zm-3.74,1.34-.55.5-1.11,2.5.26.17,3.18-1.27.59-.53,1.11-2.6-.3-.15ZM169,190.65l1.21-.93.79-3.84-1-.07-7.59,3-1.07.85-.92,3.64.83.14Zm-9.11,2.88.93-3.62-.81-.11-6.54,2.61-.95.77-1,3.44.69.17,6.62-2.42Zm-8.85,3.27,1-3.43-.67-.13-5.68,2.27-.86.71-1.07,3.26.57.18,5.75-2.1Zm-7.69,2.84,1.08-3.26-.56-.14-5,2-.78.66L137,202l.48.18,5-1.84Zm-11.21,1.6-1.13,3,.41.19,4.43-1.62.78-.65,1.11-3.09-.47-.16-4.42,1.76Zm-1.45,3.08,1.13-2.95-.4-.16-3.94,1.56-.65.57-1.14,2.82.34.2,4-1.44Zm-8.62.9-1.14,2.7.29.2,3.53-1.29.65-.56,1.15-2.82-.35-.17-3.53,1.41Zm-3.73,1.2-.55.5-1.15,2.58.25.21,3.18-1.17.6-.53,1.15-2.69-.3-.17Zm49.51-10.36,1.24-.92.83-4.06-1-.13-7.73,2.81-1.09.85-1,3.83.85.2Zm-9.26,2.56,1-3.81-.81-.16-6.63,2.41-1,.77-1.06,3.62.7.21,6.71-2.2Zm-9,3,1.07-3.59-.67-.18-5.75,2.09-.87.71L142.28,204l.57.23,5.81-1.91Zm-7.76,2.58,1.13-3.4-.56-.19-5,1.83-.79.65-1.16,3.24.48.23,5.07-1.66Zm-6.78,2.25,1.17-3.22-.47-.2-4.44,1.62-.72.6-1.18,3.07.4.23,4.46-1.46Zm-6,2,1.18-3.06-.4-.2-4,1.43-.65.57-1.19,2.93.34.22,4-1.29Zm-5.3,1.76,1.19-2.92-.34-.2-3.53,1.28-.6.53-1.19,2.8.29.22,3.53-1.16Zm-4.73,1.57,1.19-2.78-.29-.21-3.18,1.16-.56.49-1.18,2.67.24.24,3.18-1.05Zm46.81-6.44,1.29-.91.91-4.45-1-.23-8,2.4L158,203l-1,4.17.85.31Zm-9.51,2,1.06-4.16-.83-.25-6.77,2-1,.76-1.15,3.91.7.31,6.86-1.8Zm-9.18,2.44,1.16-3.89-.68-.26-5.84,1.77-.89.7-1.2,3.67.57.31,5.9-1.55Zm-7.88,2.1,1.21-3.66-.55-.26-5.09,1.54-.81.65-1.23,3.46.47.3,5.12-1.34Zm-6.84,1.83,1.24-3.45-.47-.26-4.46,1.35-.73.6-1.26,3.27.39.3,4.49-1.18Zm-6,1.6,1.25-3.27-.39-.26-4,1.2-.66.56-1.27,3.11.34.29,4-1Zm-5.32,1.42,1.27-3.1-.33-.26-3.53,1.07-.61.52-1.26,3,.27.28,3.53-.92Zm-4.72,1.26,1.26-3-.28-.25-3.17,1-.56.5L112.45,219l.23.27,3.16-.83Zm48.12-6.33,1.31-.91,1-4.72-1-.31-8.1,2.1-1.15.83L155.47,213l.87.38Zm-9.68,1.53,1.12-4.39-.83-.31-6.87,1.78-1,.76-1.21,4.11.7.37,7-1.51Zm-9.29,2.05,1.21-4.09-.68-.32-5.9,1.54-.9.69-1.26,3.85.57.36,5.94-1.28Zm-8,1.77,1.27-3.84-.56-.31-5.12,1.33-.81.64-1.3,3.62.47.35,5.15-1.12Zm-6.89,1.52,1.3-3.61-.46-.3-4.49,1.16-.73.59-1.32,3.42.39.34,4.5-1Zm-6,1.33,1.31-3.4-.38-.3-4,1-.68.56-1.31,3.23.32.33,4-.85ZM119.42,221l1.31-3.23-.32-.29-3.52.92-.62.51L115,222l.27.32,3.52-.76Zm-4.71,1L116,219l-.27-.29-3.16.83L112,220l-1.29,2.92.22.31,3.15-.68Zm48.44-3.73,1.35-.89,1-5-1-.4-8.25,1.76-1.16.83-1.19,4.67.88.46Zm-11,1.84,1.17-.8,1.19-4.65-.84-.39-7,1.49-1,.74-1.27,4.33.7.45Zm-8.24.81,1.28-4.31-.68-.38-6,1.27-.92.69-1.33,4,.57.42,6-1Zm-8,1.38,1.33-4-.55-.36-5.15,1.1-.82.63-1.36,3.79.46.4L135,223Zm-6.92,1.19,1.36-3.77-.46-.36-4.5,1-.75.59-1.36,3.56.38.39,4.51-.75Zm-6,1,1.37-3.55-.38-.35-4,.85-.68.55-1.37,3.36.32.38,4-.67Zm-5.3.91,1.36-3.35-.31-.34-3.52.76-.63.51-1.35,3.19.26.35,3.51-.58Zm-4.7.81,1.35-3.18-.26-.32-3.15.67-.57.49-1.34,3,.21.35,3.13-.52Zm40.57-5.4-1.25,4.95.88.56,8.54-1,1.39-.88,1.1-5.36-1.06-.5-8.4,1.38Zm-9.53,1.51L142.59,227l.7.52,7.14-.8,1.19-.79,1.26-4.92-.84-.48-7,1.16Zm-8.12,1.29-1.4,4.25.57.49,6-.67,1.05-.72,1.35-4.56-.68-.45-6,1Zm-7,1.11-1.42,4,.46.46,5.19-.58L134,228l1.4-4.23-.55-.43-5.18.85Zm-6.08,1-1.43,3.72.37.44,4.52-.51.83-.6,1.42-4-.45-.42-4.51.75Zm-5.35.84L116,230.1l.31.42,3.95-.45.75-.56,1.43-3.71-.37-.4-4,.65Zm-4.73.75-1.41,3.31.26.41,3.49-.4.68-.53,1.43-3.49-.31-.38-3.51.58Zm-4.21.67-1.39,3.14.2.38,3.12-.35.62-.49,1.41-3.31-.25-.36-3.13.51Z"/><polygon class="cls-13" points="150.63 171.99 126.32 186.21 105.63 232.58 150.63 171.99"/><rect class="cls-6" x="209.17" y="202.92" width="11.41" height="41.53"/><rect class="cls-7" x="210.65" y="202.92" width="1.75" height="41.53"/><rect class="cls-8" x="216.39" y="202.92" width="2.68" height="41.53"/><polygon class="cls-9" points="260.47 219.94 160.67 226.91 159.78 225.42 259.88 206.12 261.75 216.28 260.47 219.94"/><polygon class="cls-10" points="284.95 95.15 282.63 94.7 194.67 147.26 159.78 225.42 261.75 216.28 284.95 95.15"/><path class="cls-11" d="M193.87,146.65,282.63,94.7l-5.74,29.49-92.62,44Zm-21.19,47.5,96.61-30.89,7.28-37.45-92.8,43.48Zm-13.56,30.37,100.2-10,9.56-49.15-96.79,30.12Z"/><path class="cls-12" d="M264.39,111.31l-1.29.21,1.13-4.48,1.58-1.42L277.22,99l1.48-.33-1,4.62L276,104.83Zm-2.13.67,1.14-4.46-1.26.23-10,5.82-1.44,1.3-1.27,4.33,1.11-.13,10.16-5.68Zm-13.59,7.63,1.29-4.32-1.08.16L240,120.61l-1.31,1.2L237.31,126l.95-.07,9-5Zm-12,6.73,1.37-4.16-.92.1-7.94,4.61L228,128l-1.45,4,.82,0,8-4.46Zm-10.71,6,1.45-4-.8,0-7.12,4.14-1.11,1-1.5,3.9h.72l7.17-4Zm-9.6,5.38,1.5-3.89h-.7l-6.43,3.73-1,1-1.54,3.76.62,0,6.46-3.61Zm-8.65,4.85,1.53-3.75-.61,0-5.83,3.38-.95.92-1.55,3.63.54.08,5.85-3.27ZM199.86,147l1.55-3.64-.53-.05-5.32,3.09-.89.86-1.55,3.52.46.09,5.33-3Zm74.75-35.68,1.8-1.55,1-4.85-1.5.28-11.6,6.46-1.62,1.43-1.18,4.68,1.32-.16Zm-25.86,13.81,10.31-5.5,1.61-1.41,1.19-4.67-1.27.19-10.17,5.66L249,120.71l-1.32,4.5Zm-11.92,2.31-1.43,4.34,1,0,9.08-4.86,1.46-1.29,1.33-4.49-1.08.11-9,5Zm-10.8,6-1.5,4.18.82,0,8.07-4.32,1.32-1.19,1.43-4.32-.93,0-8,4.47Zm-9.68,5.36-1.54,4,.71,0,7.21-3.86,1.22-1.1,1.5-4.17h-.81l-7.17,4Zm-8.71,4.84-1.57,3.89.61.08,6.49-3.46,1.11-1,1.55-4-.69,0-6.47,3.6ZM199.75,148l-1.6,3.76.54.1,5.87-3.13,1-1,1.58-3.89-.61-.05-5.85,3.26Zm-6.29,3.13-.89.86L191,155.64l.47.12,5.33-2.85,1-.9,1.6-3.75-.53-.08Zm79.71-33,1.84-1.55,1.05-5.08-1.53.22L262.74,118l-1.65,1.43-1.24,4.9,1.34-.1ZM259,124.75l1.25-4.89L259,120l-10.31,5.49-1.48,1.31-1.38,4.7,1.13,0,10.44-5.31Zm-24.1,8.55-1.49,4.52,1,0,9.19-4.67,1.48-1.29,1.39-4.69-1.1.06-9.08,4.85ZM224,139.08l-1.56,4.34.82.07,8.14-4.15,1.34-1.19,1.49-4.5h-.93L225.24,138Zm-9.74,5.16-1.6,4.18.7.09,7.27-3.69,1.22-1.1,1.56-4.33-.8,0-7.22,3.85Zm-8.76,4.66-1.63,4,.61.12,6.52-3.31,1.13-1,1.6-4.17-.69-.06-6.5,3.46Zm-7.92,4.19L196,157l.52.14,5.89-3,1-1,1.64-4-.61-.09-5.87,3.13Zm-6.29,3-.89.85-1.67,3.75.47.15,5.34-2.71,1-.9,1.65-3.87-.52-.12Zm80.36-30.8,1.87-1.55,1.11-5.35-1.56.17-12,6.07L259.42,126l-1.29,5.12,1.34,0Zm-14.41,6.32,1.31-5.11-1.3.08-10.46,5.29-1.5,1.31-1.44,4.91,1.13,0L255.58,133Zm-14.15,6.84,1.45-4.89-1.1,0-9.19,4.65-1.36,1.21-1.55,4.7,1,.07,9.29-4.45Zm-21.19,6.53-1.62,4.51.82.11,8.21-3.95,1.36-1.18,1.55-4.7-.94,0-8.14,4.13Zm-9.8,4.94-1.67,4.34.7.13,7.31-3.51,1.25-1.1,1.62-4.5-.81-.08-7.26,3.69Zm-8.8,4.44-1.69,4.16.6.16,6.55-3.15,1.14-1,1.67-4.32-.69-.11-6.53,3.31Zm-7.94,4-1.7,4,.51.18,5.91-2.84,1-.95,1.69-4.16-.59-.13-5.89,3Zm-7.2,3.63-1.71,3.86.45.2,5.35-2.57,1-.9,1.71-4-.52-.15-5.34,2.71Zm80.93-24.61,1.93-1.56,1.2-5.79-1.59,0-12.32,5.69-1.72,1.43-1.4,5.54,1.38.07Zm-14.79,5.74,1.41-5.51-1.32,0-10.69,4.94-1.54,1.3-1.55,5.27,1.14.13,10.83-4.69Zm-14.47,6.32,1.56-5.25-1.11-.08-9.35,4.32-1.4,1.2-1.65,5,1,.16,9.44-4.09Zm-12.63,5.51,1.66-5-.94-.12-8.25,3.81-1.27,1.12-1.73,4.8.83.19,8.31-3.6Zm-18.7,4.34-1.76,4.59.69.22,7.38-3.2,1.27-1.09,1.72-4.79-.8-.15-7.34,3.39Zm-8.85,4.07-1.79,4.4.59.23,6.59-2.85,1.16-1,1.76-4.59-.68-.17-6.57,3Zm-8,3.66-1.8,4.22.51.25,5.92-2.57,1.07-.95,1.78-4.39-.59-.2-5.9,2.73Zm-.94,0-5.35,2.46-.92.86-1.8,4.06.44.25,5.35-2.32,1-.89,1.79-4.22Zm76.62-21.48,2-1.55,1.26-6.12-1.62,0-12.54,5.41-1.75,1.43-1.47,5.81,1.39.15Zm-15,5.33,1.48-5.79-1.33-.1-10.83,4.67-1.58,1.31-1.62,5.51,1.16.2,11-4.39Zm-14.66,5.92,1.63-5.5-1.12-.14-9.46,4.08-1.41,1.2-1.72,5.24,1,.23L236.1,158ZM224.9,161.9l1.73-5.23-.94-.18-8.32,3.59-1.28,1.11-1.79,5,.81.25,8.38-3.36Zm-18.77,3.55-1.83,4.78.69.26,7.42-3,1.28-1.09,1.79-5-.8-.21-7.38,3.19Zm-8.89,3.81-1.85,4.57.59.28,6.61-2.66,1.17-1,1.83-4.76-.67-.23-6.6,2.85Zm-8,3.41-1.86,4.38.51.29,5.92-2.37,1.08-.95,1.85-4.55-.58-.25-5.92,2.56ZM183,174.92l-.92.85-1.87,4.2.44.28,5.34-2.14,1-.88,1.86-4.37-.5-.25Zm82.57-20.82,2-1.56,1.33-6.45-1.64-.11-12.76,5.08-1.79,1.44-1.54,6.1,1.4.24Zm-15.3,4.84,1.56-6.09-1.35-.17-11,4.38-1.6,1.3-1.7,5.78,1.16.28,11.13-4.07Zm-14.87,5.49,1.71-5.76-1.12-.21-9.55,3.8-1.44,1.2-1.8,5.48,1,.3,9.65-3.53Zm-12.9,4.77,1.81-5.47-.94-.24L215,166.83l-1.3,1.11-1.87,5.2.81.32,8.44-3.09Zm-18.82,2.69-1.91,5,.69.33,7.45-2.72,1.3-1.09,1.87-5.19-.8-.26-7.41,3Zm-2.45,5.16,1.91-5-.68-.27-6.61,2.63-1.09,1-1.92,4.74.58.33,6.63-2.42Zm-14.46,1.53-1.92,4.53.49.33,5.93-2.17,1.09-.94,1.92-4.72-.58-.29-5.92,2.36Zm-6.27,2-.93.84-1.92,4.33.42.34,5.34-1.95,1-.88,1.93-4.52-.49-.3Zm83.14-17.4,2.08-1.55,1.4-6.82-1.66-.22-13,4.73-1.82,1.42L249,167.19l1.42.33Zm-15.55,4.31,1.64-6.42-1.37-.26-11.13,4.05-1.63,1.3-1.78,6.06,1.16.36,11.28-3.7Zm-15.07,5,1.78-6-1.12-.29L224,169.68l-1.46,1.18-1.89,5.74,1,.37,9.75-3.2Zm-13,4.32,1.88-5.71-.94-.31-8.45,3.07-1.31,1.1-2,5.43.81.39,8.5-2.79Zm-11.38,3.78,1.94-5.41-.78-.33-7.46,2.72-1.2,1-2,5.16.67.39,7.49-2.46Zm-10,3.33,2-5.15-.67-.33-6.63,2.41-1.1.95-2,4.91.58.39,6.64-2.18Zm-8.89,2.95,2-4.9-.57-.34-5.93,2.16-1,.89-2,4.69.48.39,5.93-2Zm-7.95,2.64,2-4.68-.48-.34-5.34,1.94-.94.84-2,4.48.41.39,5.33-1.75Zm78.61-10.81,2.16-1.53,1.54-7.47-1.7-.39-13.36,4-1.89,1.41-1.77,7,1.44.51Zm-16,3.32,1.79-7-1.39-.42-11.38,3.44-1.67,1.28-1.93,6.56,1.18.52,11.52-3Zm-15.4,4.1,1.94-6.54-1.13-.43-9.81,3-1.5,1.18-2,6.16,1,.52,9.9-2.6Zm-13.23,3.53,2-6.15-.94-.43-8.54,2.58-1.35,1.09-2.08,5.82.8.5,8.59-2.26Zm-11.5,3.07,2.09-5.8-.79-.44-7.5,2.27-1.22,1-2.12,5.5.67.5,7.53-2Zm-10.08,2.69,2.11-5.49-.65-.43-6.65,2-1.12.93-2.12,5.23.56.48,6.65-1.74Zm-8.92,2.37,2.13-5.2-.56-.43L180.87,194l-1,.88-2.12,5,.47.47,5.92-1.55Zm-7.93,2.12L179.4,195l-.46-.42-5.32,1.6-1,.83-2.1,4.74.39.46,5.31-1.39Zm80.8-10.63,2.21-1.52,1.64-7.93-1.73-.53-13.6,3.54-1.92,1.4-1.88,7.4,1.46.64Zm-16.25,2.57,1.88-7.36-1.39-.54-11.53,3-1.71,1.27-2,6.9,1.18.63,11.68-2.53Zm-15.61,3.46,2-6.88-1.13-.53-9.91,2.58-1.51,1.16-2.13,6.46,1,.61,10-2.16Zm-13.36,2.95,2.13-6.44-.93-.52-8.59,2.23-1.37,1.08-2.18,6.07.79.6,8.65-1.88Zm-11.56,2.56,2.18-6.06-.78-.51-7.53,2-1.24,1-2.2,5.74.65.57,7.56-1.63Zm-10.11,2.24,2.2-5.72-.64-.51-6.66,1.73-1.14.94-2.2,5.43.54.55L190,204Zm-8.92,2,2.2-5.41-.53-.5L178,200.66l-1,.87-2.19,5.16.46.53,5.91-1.28Zm-7.92,1.76,2.19-5.15-.45-.48-5.31,1.38-1,.82-2.16,4.91.37.51,5.29-1.14Zm81.36-6.27L258,199l1.75-8.44-1.77-.67-13.84,3-2,1.38-2,7.84,1.47.78Zm-18.51,3.09,2-1.35,2-7.8-1.4-.66-11.69,2.5-1.73,1.25-2.14,7.28,1.17.75ZM223.37,205l2.14-7.25-1.13-.64-10,2.14-1.54,1.15-2.24,6.79,1,.71,10.08-1.68Zm-13.48,2.31,2.24-6.76-.94-.62-8.65,1.85-1.38,1.06-2.28,6.36.78.68,8.69-1.45Zm-11.63,2,2.28-6.34-.76-.6L192.22,204,191,205l-2.3,6,.64.65,7.57-1.26ZM188.12,211l2.3-6-.63-.59-6.66,1.43-1.14.92-2.29,5.65.52.63,6.65-1.12Zm-8.91,1.53,2.3-5.63-.53-.56-5.91,1.26-1,.87-2.27,5.35.43.6,5.9-1Zm-7.89,1.36,2.28-5.34-.44-.54-5.29,1.13-1,.81-2.25,5.09.36.57,5.26-.87Zm68.14-9.06-2.1,8.3,1.48.94,14.34-1.61L255.5,211l1.86-9-1.79-.84-14.09,2.31Zm-16,2.54-2.26,7.67,1.18.88,12-1.35,2-1.31,2.11-8.28-1.42-.79-11.84,1.94Zm-13.63,2.16-2.35,7.14.95.82,10.17-1.14,1.75-1.21,2.27-7.64-1.14-.76-10.09,1.65Zm-11.74,1.86-2.39,6.67.77.78,8.73-1,1.56-1.11,2.35-7.11-.93-.72-8.69,1.42ZM187.87,213l-2.41,6.25.63.75,7.58-.86,1.4-1,2.39-6.64-.76-.69-7.57,1.24Zm-9,1.42-2.39,5.89.52.71,6.63-.75,1.27-1,2.4-6.22-.62-.66L180,213.55ZM171,215.72l-2.37,5.56.43.68,5.86-.67,1.15-.88,2.39-5.87-.51-.64-5.9,1Zm-7.08,1.12-2.34,5.28.35.63,5.23-.58,1-.83,2.36-5.55-.42-.61-5.26.86Z"/><polygon class="cls-13" points="234.68 122.77 193.87 146.65 159.12 224.52 234.68 122.77"/><rect class="cls-6" x="323.29" y="176.66" width="18.63" height="67.79"/><rect class="cls-7" x="325.71" y="176.66" width="2.85" height="67.79"/><rect class="cls-8" x="335.08" y="176.66" width="4.38" height="67.79"/><polygon class="cls-9" points="407.03 204.45 244.13 215.81 242.66 213.38 406.06 181.89 409.12 198.47 407.03 204.45"/><polygon class="cls-10" points="446.98 0.74 443.19 0 299.62 85.8 242.66 213.38 409.12 198.47 446.98 0.74"/><path class="cls-11" d="M298.31,84.8,443.2,0l-9.37,48.14L282.65,119.91Zm-34.59,77.54,157.7-50.42,11.89-61.14-151.49,71Zm-22.13,49.58,163.57-16.38,15.6-80.22-158,49.16Z"/><path class="cls-12" d="M413.44,27.11l-2.13.34,1.85-7.31,2.58-2.32L434.37,7l2.42-.54L435.22,14l-2.88,2.52ZM410,28.21l1.86-7.29-2.06.38-16.37,9.5-2.34,2.13L389,40l1.81-.21,16.59-9.26ZM387.77,40.66l2.09-7-1.75.25L373.59,42.3l-2.13,2-2.24,6.81,1.55-.12,14.67-8.19Zm-19.61,11,2.24-6.79-1.51.16-12.95,7.51L354,54.36l-2.36,6.58,1.34,0L366,53.6Zm-17.48,9.81L353,54.91l-1.3.08-11.63,6.75-1.8,1.68-2.44,6.36,1.16,0,11.7-6.53ZM335,70.26l2.44-6.34h-1.14L325.83,70l-1.67,1.58-2.5,6.14,1,.08,10.55-5.89Zm-14.13,7.93,2.5-6.14-1,0-9.52,5.52L311.32,79,308.8,85l.87.12,9.56-5.34Zm-12.8,7.18,2.53-5.93-.87-.08-8.68,5-1.45,1.4-2.54,5.75.76.15,8.71-4.86Zm122-58.24,2.94-2.53,1.62-7.91-2.45.45L413.29,27.69,410.66,30l-1.93,7.64,2.15-.26ZM387.9,49.68l16.82-9,2.62-2.3,2-7.63-2.07.31-16.6,9.25-2.37,2.13-2.17,7.35Zm-19.46,3.77-2.34,7.09,1.56,0,14.84-7.92,2.37-2.11L387,43.12l-1.77.19L370.6,51.49Zm-17.63,9.79-2.45,6.82,1.34,0,13.18-7L365,61.11,367.37,54l-1.52.1-13.06,7.28ZM335,72l-2.53,6.58,1.16.09,11.78-6.29,2-1.8,2.45-6.81h-1.32l-11.7,6.52Zm-14.23,7.9-2.57,6.35,1,.13,10.6-5.66L331.63,79l2.53-6.56-1.13,0-10.56,5.88Zm-12.88,7.15-2.61,6.13.87.17,9.59-5.12,1.68-1.57L320,80.32l-1-.09-9.56,5.33Zm-10.26,5.11-1.46,1.39-2.62,5.93.76.2L303,95l1.56-1.48,2.61-6.12-.86-.13ZM427.76,38.22l3-2.54,1.72-8.3-2.49.37L410.73,38,408,40.34l-2,8,2.18-.16ZM404.63,49.05l2-8-2.09.22-16.83,9-2.42,2.13-2.26,7.68L384.9,60,402,51.35ZM365.29,63l-2.42,7.37,1.56,0,15-7.62,2.41-2.11L384.1,53l-1.78.1-14.83,7.91Zm-17.78,9.43L345,79.53l1.34.11,13.28-6.76,2.19-1.94,2.43-7.35-1.52,0-13.18,7Zm-15.9,8.43L329,87.7l1.16.15,11.86-6,2-1.8L346.55,73l-1.31,0-11.79,6.28Zm-14.3,7.59L314.65,95l1,.2,10.64-5.42,1.84-1.67,2.62-6.81-1.13-.1L319,86.88Zm-12.92,6.85-2.68,6.32.86.24L312.18,97l1.7-1.56,2.66-6.56-1-.15L306,93.83Zm-10.27,4.82-1.47,1.41-2.7,6.11.75.25,8.72-4.44L301,102l2.7-6.32-.85-.19ZM425.29,49.88l3.06-2.54,1.8-8.73-2.53.27L408.05,48.8l-2.73,2.33-2.12,8.38,2.2-.06ZM401.77,60.19l2.14-8.35-2.13.13-17.06,8.65-2.45,2.13-2.36,8,1.85,0,17.29-8.31Zm-23.1,11.18,2.37-8-1.8,0-15,7.6L362,73l-2.52,7.67,1.57.13,15.16-7.29ZM344.08,82l-2.64,7.37,1.34.18,13.4-6.45,2.21-1.93,2.54-7.66-1.53-.06L346.11,80.2Zm-16,8.07-2.72,7.07,1.15.23,11.94-5.73,2-1.8,2.64-7.35-1.31-.12-11.86,6Zm-14.36,7.24-2.76,6.8,1,.26,10.69-5.14,1.86-1.67,2.71-7-1.13-.18-10.64,5.4Zm-13,6.54L298,110.4l.85.29,9.64-4.63,1.71-1.56,2.76-6.79-1-.21-9.62,4.87ZM289,109.78l-2.79,6.3.74.32,8.73-4.2,1.59-1.46,2.79-6.53-.85-.24-8.72,4.42ZM421.11,69.61l3.16-2.54,2-9.47-2.6.09L403.53,67l-2.82,2.34-2.28,9,2.24.12ZM397,79l2.3-9-2.16,0L379.68,78l-2.52,2.13-2.54,8.6,1.87.21,17.67-7.66Zm-23.61,10.3,2.53-8.57-1.81-.13-15.26,7-2.27,2-2.7,8.2,1.58.27,15.41-6.68Zm-20.62,9,2.7-8.18-1.53-.19-13.47,6.22L338.36,98l-2.81,7.83,1.34.32,13.58-5.88Zm-30.53,7.09-2.88,7.5,1.14.35,12-5.22,2.07-1.79,2.81-7.81-1.3-.25-12,5.53ZM307.76,112l-2.93,7.19,1,.38,10.76-4.66,1.89-1.67,2.88-7.47-1.12-.29-10.72,5Zm-13,6-2.93,6.9.83.39,9.67-4.19,1.74-1.55,2.92-7.17-1-.32-9.64,4.46Zm-1.54,0L284.49,122,283,123.39,280,130l.73.41,8.73-3.78,1.61-1.45,2.93-6.89Zm125.08-35,3.24-2.54,2.06-10-2.64,0-20.46,8.83-2.87,2.34L395.23,91l2.26.26ZM393.74,91.6l2.42-9.45L394,82,376.3,89.63l-2.57,2.13-2.65,9,1.89.32,17.91-7.17Zm-23.94,9.68,2.66-9-1.82-.23-15.43,6.65-2.3,2-2.83,8.56,1.58.38,15.59-6.25ZM349,109.7l2.83-8.54-1.54-.29-13.57,5.86-2.1,1.81-2.93,8.15,1.33.42,13.68-5.49Zm-30.64,5.8-3,7.79,1.13.44,12.11-4.85,2.09-1.78,2.93-8.14-1.31-.34-12,5.2Zm-14.5,6.21-3,7.45,1,.46,10.8-4.32,1.91-1.65,3-7.78-1.11-.37-10.76,4.64Zm-13,5.59-3,7.13.82.48,9.68-3.88,1.76-1.55,3-7.43-.95-.4-9.66,4.18ZM280.54,131,279,132.33l-3,6.85.7.48,8.72-3.5,1.62-1.44,3-7.12-.81-.41ZM415.31,97l3.32-2.54L420.8,83.9l-2.68-.2L397.31,92l-2.93,2.34-2.52,10,2.29.4Zm-24.95,7.9,2.53-9.94-2.2-.28-17.92,7.15-2.62,2.12-2.78,9.44,1.91.45,18.15-6.64Zm-24.28,9,2.79-9.4-1.84-.35-15.59,6.22-2.34,2-2.94,8.94,1.57.49,15.75-5.75ZM345,121.61l3-8.92-1.53-.4-13.69,5.46-2.12,1.8-3.05,8.5,1.32.52,13.78-5ZM314.29,126l-3.11,8.1,1.12.53,12.16-4.45,2.12-1.77,3.05-8.48-1.29-.43-12.11,4.83Zm-4,8.42,3.11-8.07-1.1-.46-10.8,4.31-1.78,1.56-3.13,7.73.95.54,10.82-4Zm-23.61,2.5-3.14,7.39.8.54,9.69-3.54,1.77-1.53,3.14-7.71-.94-.47-9.67,3.85Zm-10.23,3.27-1.53,1.38-3.13,7.08.68.55L281.2,146l1.64-1.44L286,137.2l-.81-.48Zm135.71-28.39,3.4-2.53,2.29-11.14-2.72-.35-21.2,7.71-3,2.33-2.65,10.5,2.31.55Zm-25.39,7,2.68-10.47-2.23-.43-18.17,6.61-2.66,2.12-2.91,9.89,1.9.6,18.41-6ZM362.18,127l2.92-9.86-1.84-.48-15.76,5.73-2.37,1.94-3.08,9.35,1.57.62,15.91-5.22Zm-21.27,7.06,3.08-9.32-1.53-.52-13.79,5L326.51,131l-3.18,8.87,1.32.62L338.54,136Zm-18.58,6.17,3.18-8.84-1.28-.53-12.17,4.42-2,1.66-3.23,8.43,1.1.63,12.22-4ZM306,145.66l3.24-8.4-1.09-.55-10.82,3.94-1.79,1.55-3.26,8,.93.63L304,147.3Zm-14.51,4.82,3.25-8-.92-.56-9.68,3.52-1.66,1.45-3.26,7.65.79.63,9.69-3.17Zm-13,4.31,3.25-7.64-.78-.56-8.72,3.17-1.53,1.37-3.25,7.32.67.63,8.7-2.86Zm128.32-17.64,3.51-2.51,2.52-12.2-2.78-.64-21.8,6.59-3.08,2.31-2.9,11.43,2.36.83Zm-26.1,5.4,2.92-11.39-2.26-.68L362.8,136.1l-2.73,2.09-3.15,10.71,1.92.84,18.8-4.94Zm-25.13,6.7,3.16-10.66-1.85-.71-16,4.84-2.44,1.93-3.3,10,1.57.85,16.15-4.24ZM334,155l3.31-10-1.53-.72-13.94,4.22-2.2,1.77-3.4,9.49,1.3.83,14-3.68Zm-18.77,5,3.4-9.46-1.28-.71-12.24,3.7-2,1.64-3.45,9,1.08.81,12.3-3.23Zm-16.46,4.39,3.45-8.95-1.07-.72L290.28,158l-1.83,1.53L285,168.08l.91.8L296.76,166ZM284.2,168.3l3.46-8.5-.89-.71L277.09,162l-1.68,1.44-3.45,8.1.75.78,9.68-2.54Zm-12.95,3.45,3.45-8.09-.76-.69-8.68,2.63L263.7,167l-3.43,7.73.65.76,8.66-2.28Zm131.9-17.35,3.6-2.47,2.68-13-2.83-.86-22.19,5.77-3.15,2.28-3.06,12.08,2.38,1Zm-26.54,4.19,3.07-12-2.27-.87-18.82,4.89-2.78,2.08-3.32,11.27,1.92,1,19.06-4.13Zm-25.47,5.64L354.47,153l-1.86-.87-16.16,4.2-2.48,1.9L330.5,168.8l1.56,1,16.31-3.52Zm-21.81,4.83,3.48-10.52-1.52-.86-14,3.65L315,163.09,311.47,173l1.28,1,14.12-3.06Zm-18.88,4.18,3.57-9.9-1.27-.84-12.3,3.2-2,1.63-3.6,9.36,1.08.94L308.23,175ZM294,176.89l3.59-9.34-1.05-.82-10.86,2.82-1.85,1.52-3.6,8.86.89.91,10.86-2.35Zm-14.55,3.22,3.59-8.84-.88-.8L272.44,173l-1.7,1.42-3.57,8.41.74.88,9.65-2.09ZM266.47,183l3.57-8.39-.73-.79-8.66,2.26-1.57,1.33-3.54,8,.61.84,8.63-1.86Zm132.8-10.23L403,170.3l2.85-13.78-2.87-1.1-22.61,4.83-3.21,2.26-3.23,12.79,2.39,1.27Zm-30.21,5,3.21-2.2,3.25-12.73-2.29-1.08-19.08,4.08-2.83,2.06-3.49,11.87,1.92,1.22ZM346.46,180,350,168.19l-1.86-1-16.32,3.48-2.51,1.88-3.65,11.08,1.56,1.17L343.64,182Zm-22,3.79,3.65-11.05-1.52-1-14.12,3-2.26,1.74-3.72,10.38,1.28,1.12L322,185.63Zm-19,3.26,3.72-10.35-1.25-1-12.33,2.64-2,1.61-3.75,9.77,1.05,1.07,12.35-2.06Zm-16.55,2.85,3.76-9.75-1-.95-10.87,2.33-1.86,1.5-3.74,9.23.86,1,10.86-1.82Zm-14.54,2.49,3.74-9.19-.86-.92-9.64,2.06-1.72,1.41-3.71,8.74.71,1,9.63-1.61Zm-12.89,2.22,3.71-8.72-.71-.88-8.63,1.84-1.57,1.33-3.67,8.3.59.93L259.8,196Zm111.24-14.8-3.44,13.56,2.42,1.53,23.41-2.63,3.79-2.39,3-14.7L399,173.83l-23,3.77ZM346.6,184l-3.69,12.53,1.92,1.44,19.56-2.2,3.28-2.16,3.45-13.5-2.32-1.3-19.32,3.16Zm-22.25,3.52-3.83,11.65,1.55,1.35,16.59-1.86,2.86-2,3.7-12.48L343.37,183l-16.47,2.68Zm-19.16,3-3.9,10.88,1.25,1.28,14.25-1.6,2.55-1.81,3.84-11.6-1.52-1.18-14.19,2.32Zm-16.68,2.65-3.92,10.2,1,1.22L298,203.2l2.28-1.66,3.9-10.84-1.23-1.14-12.36,2Zm-14.65,2.32-3.9,9.62.84,1.14L281.64,205l2.06-1.55,3.92-10.17-1-1.08L275.74,194Zm-13,2.06L257,206.64l.69,1.09,9.58-1.08,1.87-1.44,3.91-9.58-.84-1-9.62,1.58Zm-11.56,1.83-3.81,8.6.56,1,8.53-1,1.72-1.36,3.85-9.05-.68-1-8.58,1.41Z"/><polygon class="cls-13" points="364.93 45.81 298.31 84.81 241.59 211.92 364.93 45.81"/><path class="cls-1" d="M193.1,226.13a5.22,5.22,0,0,0-5.69-.9,10.16,10.16,0,0,0-8.34-7.42,10.4,10.4,0,0,0,1.88-6.3,10.06,10.06,0,0,0-20.11-.38,10,10,0,0,0-3.66-.61,10.21,10.21,0,0,0-9.79,10.6,10.58,10.58,0,0,0,.65,3.31,10.46,10.46,0,0,0-1.32,5.37,10.21,10.21,0,0,0,10.36,10,9.78,9.78,0,0,0,4.79-1.41,3.2,3.2,0,0,0,.25.27,6.35,6.35,0,0,0,9-.4,6.15,6.15,0,0,0,1.1-1.66,9.9,9.9,0,0,0,5.81,1.7,10,10,0,0,0,3.56-.78,3.79,3.79,0,0,0,1.09,1.9,3.86,3.86,0,0,0,5.45-.27,3.91,3.91,0,0,0,.88-3.84,5.41,5.41,0,0,0,4.29-1.73A5.3,5.3,0,0,0,193.1,226.13Z"/><path class="cls-2" d="M168.67,242.51c-.06.76-.08,1.37-.09,1.94H175a94.55,94.55,0,0,0,10.68-10.06c-1.3,1.43-6.82,4.92-7.92,6-.51-.29.57-3.45.65-5.83,0,0-2.51,4.41-1.73,6.65a34.12,34.12,0,0,1-4.52,2.69c-.29-3.64-.52-6.15-.7-7.88-.05-.44,4.25-8.12,4-7.84-1.77,2.23-2.58,2.64-4.07,5.27-.48.84-1.61-6.74-1.61-6.74-.61.49.08,5.67-.15,6.82a21.78,21.78,0,0,0-.28,2.56c-.07,1-.23,3.58-.35,4.64-1.13-.27-3.31-2.79-6-7.73C163,233,165.06,241.46,168.67,242.51Z"/><path class="cls-2" d="M167.85,244.45h2.88c-3.26-1.53-13.74-4.2-17.56-7.36C153.17,237.09,154.67,240.9,167.85,244.45Z"/><path class="cls-3" d="M174,207.77a1.88,1.88,0,1,1-1.88-1.88A1.88,1.88,0,0,1,174,207.77Z"/><path class="cls-3" d="M169.56,206.89a.87.87,0,0,1-.87.88.88.88,0,1,1,0-1.76A.87.87,0,0,1,169.56,206.89Z"/><path class="cls-3" d="M190.17,226.72a.89.89,0,1,1-.89-.89A.89.89,0,0,1,190.17,226.72Z"/><g class="cls-4"><path class="cls-5" d="M157.08,239.83a9.78,9.78,0,0,0,4.79-1.41,3.2,3.2,0,0,0,.25.27,6.35,6.35,0,0,0,9-.4,6.15,6.15,0,0,0,1.1-1.66,9.9,9.9,0,0,0,5.81,1.7,10,10,0,0,0,3.56-.78,3.79,3.79,0,0,0,1.09,1.9,3.86,3.86,0,0,0,5.45-.27,3.91,3.91,0,0,0,.88-3.84,5.41,5.41,0,0,0,4.29-1.73,5.31,5.31,0,0,0,.59-6.56,12.74,12.74,0,0,1-2.61,4.37c-1.8,1.49-3.78-1.86-5.61-3.66s-2.67.18-5.19,1.46-5-1-8.82-2.23-10.45,4.19-12.61,4.92-5.4,2.7-9.36.89a8.09,8.09,0,0,1-2.88-2.19A10.16,10.16,0,0,0,157.08,239.83Z"/><path class="cls-5" d="M179.44,226.34a2.16,2.16,0,1,1-2.16-2.16A2.16,2.16,0,0,1,179.44,226.34Z"/><path class="cls-5" d="M155,223.88a1.82,1.82,0,1,1-1.81-1.81A1.81,1.81,0,0,1,155,223.88Z"/><path class="cls-5" d="M182.06,225.69a1,1,0,1,1-1-1A1,1,0,0,1,182.06,225.69Z"/><path class="cls-5" d="M150.52,223.72a1,1,0,1,1-1-1A1,1,0,0,1,150.52,223.72Z"/><path class="cls-5" d="M156,220.94a1,1,0,1,1-1-1A1,1,0,0,1,156,220.94Z"/></g><path class="cls-3" d="M170.6,201.49a10.16,10.16,0,0,0-9.76,9.64,9.88,9.88,0,0,0-12.41,5.15c4.35-3.24,11.13-2.32,14.43-1.6a.63.63,0,0,0,.62-1l-1-1.19a1.13,1.13,0,0,1-.12-1.32c1.46-2.44,6.95-10,16.76-5.31A10,10,0,0,0,170.6,201.49Z"/><path class="cls-3" d="M179.09,217.78a20.68,20.68,0,0,0-9.53,3.68,37.34,37.34,0,0,1,12.16-1.24,16.71,16.71,0,0,1,3.44.87,10,10,0,0,0-6.09-3.28Z"/><path class="cls-1" d="M168.11,231.91a1.88,1.88,0,1,1-1.88-1.87A1.88,1.88,0,0,1,168.11,231.91Z"/><path class="cls-1" d="M168.69,228.75a.89.89,0,1,1-.89-.88A.88.88,0,0,1,168.69,228.75Z"/><path class="cls-1" d="M366.34,210.47a11.57,11.57,0,0,0-.79-19.14,14.64,14.64,0,0,0-14.06-14.58,14.24,14.24,0,0,0-5.27.87,14.49,14.49,0,0,0-29,.56,15,15,0,0,0,2.69,9,.17.17,0,0,0,0,.05,14.75,14.75,0,0,0-12.51,14.29,15.18,15.18,0,0,0,.27,3.25,6.13,6.13,0,0,0,4.5,9.34,11.45,11.45,0,0,0,22.4,1.82,9.22,9.22,0,0,0,7.68-.88,14.21,14.21,0,0,0,16.26,2.3,5.21,5.21,0,1,0,7.81-6.89Z"/><path class="cls-14" d="M340.07,225.14a42.88,42.88,0,0,0-.07-4.46c4.11-1.42,6.5-12.82,6.5-12.82-3.1,6.67-5.59,10.08-6.87,10.44-.15-1.44-.33-4.84-.41-6.26a32.26,32.26,0,0,0-.32-3.46c-.26-1.55.53-8.55-.17-9.21,0,0-1.29,10.24-1.83,9.1-1.7-3.56-2.63-4.1-4.65-7.11-.25-.38,4.65,10,4.6,10.58-.2,2.34-.47,5.73-.8,10.64a40.37,40.37,0,0,1-5.16-3.62c.89-3-2-9-2-9,.08,3.2,1.31,7.47.73,7.87-1.25-1.49-7.55-6.2-9-8.14,0,0,8.81,11.56,15.2,16-.29,3.75-.41,9.93-.56,11.13-.33,2.51-.83,5.4-1.33,7.59h7.46c-.13-1.08-.4-2.12-.43-3.28,0-2.31-.11-10.44-.38-12.06,9.3-4.62,17.1-15.76,17.1-15.76C351,219.89,342.85,224.92,340.07,225.14Z"/><path class="cls-3" d="M330,168.13c6.68-1.52,9.37-.19,13.69,1.94a14.4,14.4,0,0,0-11.47-6.33,14.68,14.68,0,0,0-14.91,14.44,15,15,0,0,0,2.69,9,.17.17,0,0,0,0,.05,14.75,14.75,0,0,0-12.51,14.29,15.19,15.19,0,0,0,.1,2.14c1.26-2.79,7.13-13.15,15.55-11.23,5.13,1.17,6.21,1,9-.87,1-.68,0-1.07-4.21-2.39C318.63,186.31,317.32,171,330,168.13Z"/><path class="cls-3" d="M340.09,180.38c-1.53,2.1.22,2.24,4.31,1.14a35.25,35.25,0,0,1,11-1.33c1.49.12,5,.92,6,.94a14.15,14.15,0,0,0-15.14-3.51S341.63,178.27,340.09,180.38Z"/><g class="cls-4"><path class="cls-5" d="M371,201.17a11.53,11.53,0,0,0-5.48-9.84,15.13,15.13,0,0,0-.59-3.94,6.41,6.41,0,0,1-3.62,2.94c-4,1.21-1.54,3.32-1.54,3.32s5.36,9.23-3.44,14.54c-3.71,2.24-9.24,2.69-13.9,1.59-5.56-1.31-10.21-8.42-10.21-8.42s.89,10.08-9.18,12.82c-4.77,1.3-9.65-3.45-9.65-3.45a13.18,13.18,0,0,1-3.37.34l-2.44,0a6.36,6.36,0,0,0,.79,1.1,6.12,6.12,0,0,0,3.79,1.92,11.45,11.45,0,0,0,22.4,1.82,9.22,9.22,0,0,0,7.68-.88,14.21,14.21,0,0,0,16.26,2.3,5.21,5.21,0,1,0,7.81-6.89A11.54,11.54,0,0,0,371,201.17Z"/><path class="cls-5" d="M358.5,202.88a3.15,3.15,0,1,1-3.14-3.14A3.14,3.14,0,0,1,358.5,202.88Z"/><path class="cls-5" d="M352.1,206a2,2,0,1,1-2-2A2,2,0,0,1,352.1,206Z"/><path class="cls-5" d="M320.62,209.36a2,2,0,1,1-2-2A2,2,0,0,1,320.62,209.36Z"/><path class="cls-5" d="M357.35,197.82a1.47,1.47,0,1,1-1.47-1.46A1.47,1.47,0,0,1,357.35,197.82Z"/><path class="cls-5" d="M323.55,205.84a1.47,1.47,0,1,1-1.46-1.47A1.46,1.46,0,0,1,323.55,205.84Z"/></g><path class="cls-15" d="M363.33,212.72a2,2,0,1,1-2-2A2,2,0,0,1,363.33,212.72Z"/><path class="cls-15" d="M365.16,209.52a1.28,1.28,0,1,1-1.28-1.28A1.28,1.28,0,0,1,365.16,209.52Z"/><path class="cls-3" d="M328.45,174.75a2,2,0,1,1-2-2A2,2,0,0,1,328.45,174.75Z"/><path class="cls-3" d="M323.14,196.36a3.25,3.25,0,1,1-3.25-3.25A3.25,3.25,0,0,1,323.14,196.36Z"/><path class="cls-3" d="M329.53,171.14a.94.94,0,1,1-.94-.94A.93.93,0,0,1,329.53,171.14Z"/><path class="cls-3" d="M339.83,183.71a.94.94,0,1,1-.94-.94A.94.94,0,0,1,339.83,183.71Z"/><path class="cls-16" d="M336.5,227.26v-1.4l-.7.18c-.28,3.77-.4,9.65-.54,10.82-.33,2.51-.83,5.4-1.33,7.59h1.64l.93-5.32Z"/><path class="cls-1" d="M278.62,215.7a9.79,9.79,0,0,0-.67-16.2,12.4,12.4,0,0,0-11.9-12.34,12,12,0,0,0-4.46.74,12.26,12.26,0,0,0-24.5.47,12.66,12.66,0,0,0,2.27,7.63l0,0A12.58,12.58,0,0,0,229,210.88a5.2,5.2,0,0,0,3.8,7.91,9.7,9.7,0,0,0,19,1.54,7.82,7.82,0,0,0,6.5-.75A12,12,0,0,0,272,221.52a4.37,4.37,0,0,0,3.39,1.6,4.42,4.42,0,0,0,4.41-4.42A4.35,4.35,0,0,0,278.62,215.7Z"/><path class="cls-14" d="M256.38,228.11a35,35,0,0,0-.05-3.78c3.48-1.19,5.5-10.84,5.5-10.84-2.62,5.64-4.73,8.53-5.82,8.83-.12-1.21-.28-4.09-.34-5.3a28.35,28.35,0,0,0-.27-2.92c-.22-1.32.44-7.24-.14-7.8,0,0-1.1,8.67-1.56,7.71-1.44-3-2.22-3.47-3.93-6-.21-.32,3.94,8.45,3.89,8.95-.17,2-.39,4.85-.67,9a33.14,33.14,0,0,1-4.37-3.06c.76-2.57-1.66-7.6-1.66-7.6.07,2.71,1.11,6.32.62,6.66-1.06-1.26-6.39-5.25-7.65-6.89,0,0,7.45,9.78,12.86,13.56-.25,3.18-.35,8.4-.48,9.42-.27,2.12-.69,4.57-1.12,6.42h6.31c-.1-.92-.33-1.79-.36-2.78,0-1.95-.09-8.83-.32-10.2,7.87-3.91,14.47-13.33,14.47-13.33C265.64,223.67,258.74,227.92,256.38,228.11Z"/><path class="cls-3" d="M247.83,179.87c5.65-1.29,7.92-.16,11.58,1.64a12.16,12.16,0,0,0-9.71-5.35,12.41,12.41,0,0,0-12.61,12.21,12.66,12.66,0,0,0,2.27,7.63l0,0a12.47,12.47,0,0,0-10.58,12.09,13.48,13.48,0,0,0,.08,1.81c1.07-2.36,6-11.13,13.16-9.5,4.34,1,5.25.83,7.61-.74.86-.57,0-.9-3.56-2C238.25,195.25,237.14,182.3,247.83,179.87Z"/><path class="cls-3" d="M256.41,190.23c-1.3,1.78.18,1.9,3.64,1a30,30,0,0,1,9.27-1.13c1.26.11,4.23.78,5.09.8a12,12,0,0,0-12.82-3S257.7,188.45,256.41,190.23Z"/><g class="cls-4"><path class="cls-5" d="M282.59,207.82A9.77,9.77,0,0,0,278,199.5a12.65,12.65,0,0,0-.5-3.33,5.38,5.38,0,0,1-3.07,2.48c-3.4,1-1.29,2.81-1.29,2.81s4.53,7.82-2.92,12.31c-3.14,1.89-7.81,2.27-11.76,1.34-4.71-1.1-8.64-7.12-8.64-7.12s.76,8.53-7.77,10.85c-4,1.1-8.16-2.92-8.16-2.92a11.1,11.1,0,0,1-2.85.28l-2.07,0a5.33,5.33,0,0,0,.67.93,5.2,5.2,0,0,0,3.2,1.63,9.7,9.7,0,0,0,19,1.54,7.82,7.82,0,0,0,6.5-.75A12,12,0,0,0,272,221.52a4.37,4.37,0,0,0,3.39,1.6,4.42,4.42,0,0,0,4.41-4.42,4.35,4.35,0,0,0-1.19-3A9.8,9.8,0,0,0,282.59,207.82Z"/><path class="cls-5" d="M272,209.28a2.66,2.66,0,1,1-2.66-2.66A2.66,2.66,0,0,1,272,209.28Z"/><path class="cls-5" d="M266.57,211.93a1.69,1.69,0,1,1-1.69-1.68A1.69,1.69,0,0,1,266.57,211.93Z"/><path class="cls-5" d="M239.93,214.75a1.69,1.69,0,1,1-1.68-1.68A1.68,1.68,0,0,1,239.93,214.75Z"/><path class="cls-5" d="M271,205a1.24,1.24,0,1,1-1.24-1.24A1.25,1.25,0,0,1,271,205Z"/><path class="cls-5" d="M242.41,211.78a1.24,1.24,0,1,1-1.24-1.24A1.24,1.24,0,0,1,242.41,211.78Z"/></g><path class="cls-15" d="M276.07,217.6a1.69,1.69,0,1,1-3.37,0,1.69,1.69,0,0,1,3.37,0Z"/><path class="cls-15" d="M277.62,214.89a1.09,1.09,0,1,1-1.09-1.08A1.08,1.08,0,0,1,277.62,214.89Z"/><path class="cls-3" d="M246.56,185.47a1.69,1.69,0,1,1-1.69-1.68A1.69,1.69,0,0,1,246.56,185.47Z"/><path class="cls-3" d="M242.06,203.76a2.75,2.75,0,1,1-2.75-2.75A2.75,2.75,0,0,1,242.06,203.76Z"/><circle class="cls-3" cx="246.67" cy="182.41" r="0.79"/><path class="cls-3" d="M256.18,193.05a.79.79,0,0,1-.79.79.79.79,0,0,1-.8-.79.8.8,0,0,1,.8-.8A.79.79,0,0,1,256.18,193.05Z"/><path class="cls-16" d="M253.37,229.9v-1.18l-.6.15c-.23,3.19-.33,8.17-.46,9.16-.27,2.12-.69,4.57-1.12,6.42h1.39l.79-4.5Z"/><path class="cls-1" d="M393.24,226.13a5.22,5.22,0,0,0-5.69-.9,10.16,10.16,0,0,0-8.34-7.42,10.47,10.47,0,0,0,1.89-6.3,10.06,10.06,0,0,0-20.12-.38,9.92,9.92,0,0,0-3.66-.61,10.33,10.33,0,0,0-9.14,13.91,10.36,10.36,0,0,0-1.31,5.37,10.21,10.21,0,0,0,10.36,10,9.75,9.75,0,0,0,4.78-1.41c.09.09.16.19.25.27a6.35,6.35,0,0,0,9-.4,6.43,6.43,0,0,0,1.11-1.66,9.84,9.84,0,0,0,5.8,1.7,10,10,0,0,0,3.56-.78,3.79,3.79,0,0,0,1.09,1.9,3.86,3.86,0,0,0,5.45-.27,3.91,3.91,0,0,0,.88-3.84,5.41,5.41,0,0,0,4.29-1.73A5.29,5.29,0,0,0,393.24,226.13Z"/><path class="cls-2" d="M368.81,242.51c-.06.76-.08,1.37-.08,1.94h6.38a95.07,95.07,0,0,0,10.69-10.06c-1.31,1.43-6.83,4.92-7.93,6-.51-.29.57-3.45.65-5.83,0,0-2.51,4.41-1.73,6.65a34.12,34.12,0,0,1-4.52,2.69c-.29-3.64-.52-6.15-.7-7.88,0-.44,4.25-8.12,4-7.84-1.77,2.23-2.58,2.64-4.07,5.27-.47.84-1.61-6.74-1.61-6.74-.61.49.08,5.67-.15,6.82a24.15,24.15,0,0,0-.28,2.56c-.07,1-.22,3.58-.35,4.64-1.13-.27-3.31-2.79-6-7.73C363.11,233,365.21,241.46,368.81,242.51Z"/><path class="cls-2" d="M368,244.45h2.87c-3.25-1.53-13.74-4.2-17.56-7.36C353.31,237.09,354.81,240.9,368,244.45Z"/><path class="cls-3" d="M374.11,207.77a1.88,1.88,0,1,1-1.87-1.88A1.87,1.87,0,0,1,374.11,207.77Z"/><path class="cls-3" d="M369.71,206.89a.88.88,0,1,1-.88-.88A.88.88,0,0,1,369.71,206.89Z"/><path class="cls-3" d="M390.31,226.72a.89.89,0,1,1-.88-.89A.89.89,0,0,1,390.31,226.72Z"/><g class="cls-4"><path class="cls-5" d="M357.23,239.83a9.75,9.75,0,0,0,4.78-1.41c.09.09.16.19.25.27a6.35,6.35,0,0,0,9-.4,6.43,6.43,0,0,0,1.11-1.66,9.84,9.84,0,0,0,5.8,1.7,10,10,0,0,0,3.56-.78,3.79,3.79,0,0,0,1.09,1.9,3.86,3.86,0,0,0,5.45-.27,3.91,3.91,0,0,0,.88-3.84,5.41,5.41,0,0,0,4.29-1.73,5.31,5.31,0,0,0,.59-6.56,12.88,12.88,0,0,1-2.6,4.37c-1.8,1.49-3.79-1.86-5.61-3.66s-2.67.18-5.2,1.46-5-1-8.82-2.23-10.44,4.19-12.61,4.92-5.4,2.7-9.36.89a8.09,8.09,0,0,1-2.88-2.19A10.18,10.18,0,0,0,357.23,239.83Z"/><path class="cls-5" d="M379.58,226.34a2.16,2.16,0,1,1-2.16-2.16A2.16,2.16,0,0,1,379.58,226.34Z"/><path class="cls-5" d="M355.12,223.88a1.82,1.82,0,1,1-1.81-1.81A1.81,1.81,0,0,1,355.12,223.88Z"/><path class="cls-5" d="M382.21,225.69a1,1,0,1,1-1-1A1,1,0,0,1,382.21,225.69Z"/><path class="cls-5" d="M350.67,223.72a1,1,0,0,1-2,0,1,1,0,1,1,2,0Z"/><path class="cls-5" d="M356.16,220.94a1,1,0,1,1-1-1A1,1,0,0,1,356.16,220.94Z"/></g><path class="cls-3" d="M370.74,201.49a10.16,10.16,0,0,0-9.76,9.64,9.92,9.92,0,0,0-3.66-.61,10,10,0,0,0-8.75,5.76c4.35-3.24,11.13-2.32,14.43-1.6a.63.63,0,0,0,.62-1l-1-1.19a1.13,1.13,0,0,1-.11-1.32c1.45-2.44,6.94-10,16.75-5.31A10,10,0,0,0,370.74,201.49Z"/><path class="cls-3" d="M379.23,217.78a20.61,20.61,0,0,0-9.52,3.68,37.26,37.26,0,0,1,12.15-1.24,16.55,16.55,0,0,1,3.44.87,10,10,0,0,0-6.09-3.28Z"/><path class="cls-1" d="M368.25,231.91a1.88,1.88,0,1,1-1.87-1.87A1.87,1.87,0,0,1,368.25,231.91Z"/><path class="cls-1" d="M368.83,228.75a.89.89,0,1,1-.88-.88A.88.88,0,0,1,368.83,228.75Z"/><rect class="cls-17" x="88.05" y="150.34" width="3.37" height="23.64"/><rect class="cls-18" x="91.42" y="150.34" width="3.38" height="23.64"/><rect class="cls-18" x="80.26" y="134.03" width="3.38" height="35.55"/><rect class="cls-17" x="76.88" y="134.03" width="3.38" height="35.55"/><polygon class="cls-19" points="148.85 234.36 76.57 231.88 76.57 244.45 148.85 244.45 148.85 234.36"/><polygon class="cls-17" points="0 234.5 76.57 231.88 76.57 163.45 0 180.37 0 197.65 1.77 198.13 1.77 216.28 0 217.03 0 234.5"/><polygon class="cls-20" points="76.57 163.45 76.57 231.88 153.15 234.5 153.15 217.09 151.71 216.32 151.71 198.18 153.15 197.81 153.15 180.41 76.57 163.45"/><polygon class="cls-19" points="151.71 198.18 76.57 186.25 76.57 209.06 151.71 216.32 151.71 198.18"/><polygon class="cls-21" points="1.77 198.13 1.77 216.28 76.57 209.06 76.57 186.25 1.77 198.13"/><polygon class="cls-21" points="5.51 234.31 76.57 231.88 76.57 244.45 5.51 244.45 5.51 234.31"/><polygon class="cls-22" points="1.77 198.13 0 197.65 76.57 184.04 153.15 197.81 151.71 198.18 76.57 186.25 1.77 198.13"/><polygon class="cls-20" points="46.92 232.89 33.92 233.34 33.92 193.02 46.92 194.58 46.92 232.89"/><polygon class="cls-23" points="70.82 187.16 46.92 190.96 46.92 232.89 70.82 232.07 70.82 187.16"/><polygon class="cls-24" points="70.82 197.07 61.12 198.34 61.12 231.3 70.82 230.95 70.82 197.07"/><polygon class="cls-22" points="70.82 187.16 64.49 186.19 29.32 192.44 33.92 193.02 46.92 194.58 70.82 191.05 70.82 187.16"/><polygon class="cls-24" points="48.51 200.03 48.51 231.8 59.46 231.39 59.46 198.59 48.51 200.03"/><polygon class="cls-22" points="55.07 184.77 18.55 191.09 33.92 193.02 70.82 187.16 55.07 184.77"/><polygon class="cls-20" points="64.49 183.16 55.07 181.63 55.07 184.77 64.49 186.19 64.49 183.16"/><polygon class="cls-17" points="18.55 188.28 55.07 181.63 55.07 184.77 18.55 191.09 18.55 188.28"/><polygon class="cls-17" points="29.12 238.74 63.69 238.16 63.69 231.84 29.08 233.07 29.12 238.74"/><polygon class="cls-20" points="63.69 231.84 63.69 238.16 57.32 238.06 57.32 244.45 70.82 244.45 70.82 238.28 70.82 232.07 63.69 231.84"/><polygon class="cls-17" points="23.57 238.74 57.32 238.06 57.32 244.45 23.57 244.45 23.57 238.74"/><path class="cls-20" d="M63.86,216.69a1.46,1.46,0,1,1-1.45-1.46A1.45,1.45,0,0,1,63.86,216.69Z"/><path class="cls-20" d="M59.14,217a1.46,1.46,0,1,1-1.46-1.46A1.46,1.46,0,0,1,59.14,217Z"/><path class="cls-25" d="M134,214.61,148.31,216V197.64L134,195.37Zm-22.51-2.18,17.58,1.7V194.59l-17.58-2.8Zm-26.71-2.58,20.92,2v-21l-20.92-3.33Z"/><rect class="cls-26" x="150.1" y="177.36" width="1.71" height="22.82"/><rect class="cls-27" x="148.39" y="177.36" width="1.71" height="22.82"/><rect class="cls-26" x="108.9" y="168.83" width="1.71" height="22.82"/><rect class="cls-27" x="107.19" y="168.83" width="1.71" height="22.82"/><rect class="cls-26" x="81.86" y="183.91" width="1.71" height="26.12"/><rect class="cls-27" x="80.15" y="183.91" width="1.71" height="26.12"/><rect class="cls-26" x="131.96" y="192.71" width="1.71" height="22.82"/><rect class="cls-27" x="130.25" y="192.71" width="1.71" height="22.82"/><path class="cls-28" d="M4.83,197.64V216l22.45-2.17V194.08Z"/><polygon class="cls-29" points="153.15 180.41 153.14 234.5 107.33 232.89 132 175.73 153.15 180.41"/><polygon class="cls-30" points="0 180.37 39.17 172.33 0 234.5 0 180.37"/><polygon class="cls-29" points="33.94 193.02 46.94 194.58 46.94 216.32 33.94 193.02"/><polygon class="cls-31" points="119.81 162.39 111.58 172.85 113.72 172.41 112.83 175.01 104.11 183.39 108.92 183.43 104.56 189.67 99.49 193.92 104.03 196.88 93.18 205.71 102.96 208.84 88.88 219.51 98.16 223.8 85.62 233.23 95.16 233.15 97.62 234.29 111.76 237.02 136.03 235.34 154.43 229.81 142.43 226.2 147.76 223.8 135.76 211.55 140.56 210.65 133.63 198.44 140.29 195.92 131.53 188.45 138.07 186.44 128.6 181.02 132.03 179.58 125.89 173.15 127.76 170.93 119.81 162.39"/><polygon class="cls-14" points="122.18 244.45 114.41 244.45 116.02 234.35 121.36 234.35 121.42 238.81 122.18 244.45"/><polygon class="cls-32" points="111.76 237.02 136.03 235.34 154.43 229.81 142.43 226.2 147.76 223.8 135.76 211.55 140.56 210.65 133.63 198.44 138.67 196.53 131.53 188.45 132.65 186.44 128.6 181.02 132.03 179.58 125.89 173.15 127.76 170.93 120.39 163.31 121.09 169.97 117.36 172.13 122.96 174.3 122.43 181.26 116.38 183.18 122.96 189.43 118.29 198.44 131.31 206.59 128.8 209.14 118.4 212.34 125.86 222.39 133.63 227.54 97.29 234.2 97.62 234.29 111.76 237.02"/><g class="cls-33"><polygon class="cls-34" points="102.96 208.84 88.88 219.51 118.4 212.34 105.57 211.19 102.96 208.84"/><polygon class="cls-34" points="104.03 196.88 93.18 205.71 102.96 208.84 108.87 197.75 104.03 196.88"/><polygon class="cls-34" points="99.49 193.92 101.26 195.08 114.25 186.44 107.03 186.13 104.56 189.67 99.49 193.92"/><polygon class="cls-34" points="98.16 223.8 85.62 233.23 110.45 224.52 98.16 223.8"/><polygon class="cls-34" points="113.03 174.43 112.83 175.01 104.11 183.39 105.57 183.4 116.78 174.43 113.03 174.43"/><polygon class="cls-34" points="112.94 172.57 117.45 168.98 119.81 162.39 111.58 172.85 112.94 172.57"/></g><polygon class="cls-16" points="116.01 244.45 116.78 234.35 116.02 234.35 114.41 244.45 116.01 244.45"/><g class="cls-33"><polygon class="cls-34" points="107.42 196.2 110.33 193.95 110.33 195.89 107.42 196.2"/><polygon class="cls-34" points="122.6 195.08 125.51 192.83 125.51 194.77 122.6 195.08"/><polygon class="cls-34" points="114.83 180.56 114.83 182.6 116.35 181.58 114.83 180.56"/><polygon class="cls-34" points="105.57 206.59 108.87 206.59 108.87 204 105.57 206.59"/><polygon class="cls-34" points="121.75 171.94 125.05 171.94 125.05 169.35 121.75 171.94"/><polygon class="cls-34" points="130.02 202.42 133.32 202.42 133.32 199.83 130.02 202.42"/><polygon class="cls-34" points="105.76 222.49 102.52 219.66 100.94 221.74 105.76 222.49"/><polygon class="cls-34" points="107.79 228.52 106.02 231.35 103.35 231.35 107.79 228.52"/><polygon class="cls-34" points="113.21 182.66 111.47 184.15 109.96 182.66 113.21 182.66"/><polygon class="cls-34" points="114.5 208.66 117.4 207.91 113.79 206.42 114.5 208.66"/></g><g class="cls-4"><polygon class="cls-35" points="142.87 223.58 139.67 223.58 142.87 225.54 142.87 223.58"/><polygon class="cls-35" points="126.6 214.17 123.4 214.17 126.6 216.13 126.6 214.17"/><polygon class="cls-35" points="133.27 231.78 130.07 231.78 133.27 233.75 133.27 231.78"/><polygon class="cls-35" points="133.63 208.84 129.71 209.82 133.63 211.37 133.63 208.84"/><polygon class="cls-35" points="122.25 198.44 125.86 199.43 122.96 201.13 122.25 198.44"/><polygon class="cls-35" points="125 175.41 128.62 176.4 125.71 178.1 125 175.41"/><polygon class="cls-35" points="128.71 190.6 126.81 190.6 128.71 192.43 128.71 190.6"/></g></g></g></svg>