<svg xmlns="http://www.w3.org/2000/svg" viewBox="0 0 88.05 111.2"><defs><style>.cls-1{fill:#333;fill-rule:evenodd;}</style></defs><g id="Layer_2" data-name="Layer 2"><g id="Power_Plants" data-name="Power Plants"><path class="cls-1" d="M27.18,73.15a4.13,4.13,0,1,0,4.12,4.13A4.13,4.13,0,0,0,27.18,73.15Z"/><path class="cls-1" d="M44,94.24a5.71,5.71,0,0,0,0,11.41,5.71,5.71,0,1,0,0-11.41Z"/><path class="cls-1" d="M33.48,88.26a2.94,2.94,0,1,0,2.93,2.94A2.92,2.92,0,0,0,33.48,88.26Z"/><path class="cls-1" d="M83.91,42.83a4.07,4.07,0,0,0-3.18,1.59A13.93,13.93,0,0,0,66.85,31.2a13.76,13.76,0,0,0-4.37.72,14.41,14.41,0,0,0-11-6.33A16.41,16.41,0,1,0,20,34.41a6.81,6.81,0,0,0-4.52,6.35,6.66,6.66,0,0,0,6.63,6.63,6.75,6.75,0,0,0,6.15-3.92,16.37,16.37,0,0,0,7.12,1.64c.52,0,1,0,1.54-.08a14.51,14.51,0,0,0,1.19,2.48,13.14,13.14,0,0,0-9.7,7.92,8.92,8.92,0,1,0-.52,8.17,13.1,13.1,0,0,0,12.59,9.66,11.43,11.43,0,0,0,1.32-.07,11.28,11.28,0,0,0,1.17,3.7,8.92,8.92,0,1,0,13.74,5.54,11.46,11.46,0,0,0,6.72-6.21,6.5,6.5,0,0,0,4.12,1.5A6.78,6.78,0,0,0,74.24,71,6.72,6.72,0,0,0,63,66.15a11.33,11.33,0,0,0-9.58-5.92A13.2,13.2,0,0,0,52,54.49a14.33,14.33,0,0,0,3.88-1A13.83,13.83,0,0,0,80.23,48.9a4.12,4.12,0,0,0,7.82-1.84A4.23,4.23,0,0,0,83.91,42.83Z"/><path class="cls-1" d="M65,83.26a2.88,2.88,0,1,0,2.93,2.83A2.9,2.9,0,0,0,65,83.26Z"/><path class="cls-1" d="M5.76,30A5.71,5.71,0,0,0,0,35.65a5.8,5.8,0,0,0,5.76,5.76,5.78,5.78,0,0,0,5.65-5.76A5.68,5.68,0,0,0,5.76,30Z"/><path class="cls-1" d="M67.5,27.18a4.14,4.14,0,1,0,0-8.27,4.14,4.14,0,0,0,0,8.27Z"/><path class="cls-1" d="M51.09,5.76A2.92,2.92,0,0,0,54,2.82a2.88,2.88,0,0,0-5.76,0A2.9,2.9,0,0,0,51.09,5.76Z"/><path class="cls-1" d="M38,106.63a2.21,2.21,0,0,0-2.17,2.28,2.23,2.23,0,1,0,4.46,0A2.23,2.23,0,0,0,38,106.63Z"/></g></g></svg>