<svg xmlns="http://www.w3.org/2000/svg" viewBox="0 0 78.74 99.44"><defs><style>.cls-1{fill:#333;fill-rule:evenodd;}</style></defs><g id="Layer_2" data-name="Layer 2"><g id="Power_Plants" data-name="Power Plants"><path class="cls-1" d="M54.44,65.42a3.7,3.7,0,1,1-3.7,3.69A3.69,3.69,0,0,1,54.44,65.42Z"/><path class="cls-1" d="M39.37,84.28a5.1,5.1,0,0,1,0,10.2,5.1,5.1,0,1,1,0-10.2Z"/><path class="cls-1" d="M48.8,78.93a2.63,2.63,0,1,1-2.63,2.62A2.61,2.61,0,0,1,48.8,78.93Z"/><path class="cls-1" d="M3.69,38.3a3.61,3.61,0,0,1,2.85,1.43A12.46,12.46,0,0,1,19,27.9a12,12,0,0,1,3.9.65,12.94,12.94,0,0,1,9.88-5.67,14.68,14.68,0,0,1,29.09,2.78,14.46,14.46,0,0,1-.94,5.12,6.07,6.07,0,0,1,4,5.67,6,6,0,0,1-11.42,2.42,14.57,14.57,0,0,1-6.37,1.47,12.81,12.81,0,0,1-1.39-.07,12.57,12.57,0,0,1-1.06,2.22,11.73,11.73,0,0,1,8.68,7.08,8,8,0,1,1,.46,7.31,11.71,11.71,0,0,1-11.26,8.64,11.51,11.51,0,0,1-1.18-.06,10,10,0,0,1-1,3.3A8,8,0,1,1,27.9,75.34a8.56,8.56,0,0,1,.16-1.62,10.21,10.21,0,0,1-6-5.56,5.77,5.77,0,0,1-3.69,1.34,6.06,6.06,0,0,1-6-6,6,6,0,0,1,6-5.93,5.89,5.89,0,0,1,4.07,1.62A10.11,10.11,0,0,1,31,53.87a11.8,11.8,0,0,1,1.23-5.14,12.7,12.7,0,0,1-3.47-.86A12.37,12.37,0,0,1,7,43.73a3.69,3.69,0,0,1-7-1.64A3.77,3.77,0,0,1,3.69,38.3Z"/><path class="cls-1" d="M20.61,74.46a2.58,2.58,0,1,1,0,5.15,2.58,2.58,0,1,1,0-5.15Z"/><path class="cls-1" d="M73.59,26.83a5.1,5.1,0,0,1,5.15,5.05,5.11,5.11,0,1,1-10.21,0A5.08,5.08,0,0,1,73.59,26.83Z"/><path class="cls-1" d="M18.37,24.3a3.7,3.7,0,1,1,0-7.39,3.7,3.7,0,1,1,0,7.39Z"/><path class="cls-1" d="M33.05,5.16a2.62,2.62,0,0,1-2.62-2.63,2.58,2.58,0,0,1,5.15,0A2.61,2.61,0,0,1,33.05,5.16Z"/><path class="cls-1" d="M44.72,95.36a2,2,0,0,1,1.94,2,2,2,0,1,1-4,0A2,2,0,0,1,44.72,95.36Z"/></g></g></svg>