<svg xmlns="http://www.w3.org/2000/svg" viewBox="0 0 110.8 139.94"><defs><style>.cls-1{fill:#333;fill-rule:evenodd;}</style></defs><g id="Layer_2" data-name="Layer 2"><g id="Power_Plants" data-name="Power Plants"><path class="cls-1" d="M76.6,92.06a5.2,5.2,0,1,1-5.19,5.2A5.2,5.2,0,0,1,76.6,92.06Z"/><path class="cls-1" d="M55.4,118.6a7.19,7.19,0,0,1,0,14.37,7.19,7.19,0,1,1,0-14.37Z"/><path class="cls-1" d="M68.67,111.08A3.69,3.69,0,1,1,65,114.77,3.67,3.67,0,0,1,68.67,111.08Z"/><path class="cls-1" d="M5.2,53.9a5.13,5.13,0,0,1,4,2A17.52,17.52,0,0,1,26.67,39.26a17,17,0,0,1,5.49.92,18.2,18.2,0,0,1,13.91-8A20.65,20.65,0,1,1,85.69,43.31a8.53,8.53,0,0,1,5.69,8,8.41,8.41,0,0,1-16.07,3.41,20.65,20.65,0,0,1-9,2.06c-.65,0-1.3,0-1.94-.1a17.24,17.24,0,0,1-1.5,3.12,16.53,16.53,0,0,1,12.21,10A11.24,11.24,0,1,1,75.77,80,16.49,16.49,0,0,1,59.91,92.2c-.55,0-1.11,0-1.65-.08a14.45,14.45,0,0,1-1.47,4.65A11.21,11.21,0,1,1,39.26,106a11.37,11.37,0,0,1,.23-2.28A14.37,14.37,0,0,1,31,95.93a8.16,8.16,0,0,1-5.19,1.88,8.52,8.52,0,0,1-8.48-8.48A8.41,8.41,0,0,1,25.85,81a8.32,8.32,0,0,1,5.73,2.27,14.23,14.23,0,0,1,12.06-7.44,16.53,16.53,0,0,1,1.73-7.23,17.83,17.83,0,0,1-4.88-1.22A17.4,17.4,0,0,1,9.83,61.54,5.18,5.18,0,0,1,0,59.23,5.31,5.31,0,0,1,5.2,53.9Z"/><path class="cls-1" d="M29,104.79A3.62,3.62,0,1,1,29,112a3.62,3.62,0,1,1,0-7.24Z"/><path class="cls-1" d="M103.55,37.75a7.18,7.18,0,0,1,7.25,7.12,7.18,7.18,0,1,1-14.36,0A7.15,7.15,0,0,1,103.55,37.75Z"/><path class="cls-1" d="M25.85,34.2a5.2,5.2,0,1,1,0-10.4,5.2,5.2,0,1,1,0,10.4Z"/><path class="cls-1" d="M46.51,7.25a3.68,3.68,0,0,1-3.69-3.7,3.63,3.63,0,0,1,7.25,0A3.66,3.66,0,0,1,46.51,7.25Z"/><path class="cls-1" d="M62.93,134.19a2.78,2.78,0,0,1,2.73,2.88,2.81,2.81,0,1,1-5.61,0A2.81,2.81,0,0,1,62.93,134.19Z"/></g></g></svg>