<svg xmlns="http://www.w3.org/2000/svg" viewBox="0 0 276.12 53.15"><defs><style>.cls-1{opacity:0.3;}</style></defs><g id="Layer_2" data-name="Layer 2"><g id="Power_Plants" data-name="Power Plants"><path class="cls-1" d="M88.06,19.4c4-.15,7.94-.22,11.8-.26C102.65,10.29,140.82,2,187.67.3c48.69-1.74,88.2,4.32,88.28,13.56,0,5.29-12.94,10.48-33.16,14.27,19.84,1.36,33.3,4.88,33.33,9.48,0,6.74-28.68,13.23-64.17,14.5-28.84,1-53.28-1.7-61.44-6.37C134.59,49.32,112.6,52,88.3,52.85,39.6,54.6.07,48.53,0,39.29S39.36,21.15,88.06,19.4Z"/></g></g></svg>