<svg xmlns="http://www.w3.org/2000/svg" viewBox="0 0 218.18 48.6"><defs><style>.cls-1{opacity:0.5;}</style></defs><g id="Layer_2" data-name="Layer 2"><g id="Power_Plants" data-name="Power Plants"><path class="cls-1" d="M148.61,17.4c-3.18-.11-6.27-.15-9.32-.17C137.09,9,106.94,1.53,69.93.2,31.45-1.18.23,4.64.16,13.2c0,4.9,10.21,9.64,26.19,13.05C10.66,27.61,0,30.94,0,35.2c0,6.24,22.65,12.11,50.69,13.11,22.79.82,42.1-1.83,48.55-6.2,12.58,3.24,30,5.6,49.16,6.29,38.47,1.38,69.71-4.44,69.78-13S187.09,18.79,148.61,17.4Z"/></g></g></svg>