<svg xmlns="http://www.w3.org/2000/svg" viewBox="0 0 411.31 51.34"><defs><style>.cls-1{opacity:0.3;}</style></defs><g id="Layer_2" data-name="Layer 2"><g id="Power_Plants" data-name="Power Plants"><path class="cls-1" d="M1.33,13.53C11.53,4.9,77.25-1.08,148.1.16c40.63.72,74,3.66,93.33,7.65C261.5,4.59,295,2.74,330.28,3.37c51.66.91,87.53,6.74,80,13-6,5.11-38.81,9-78.59,9.72,19.8,3.23,29.53,7.37,24.47,11.68C346,46.44,280.26,52.42,209.41,51.17S89.34,41.92,99.54,33.29a16.25,16.25,0,0,1,3.73-2.07C36.74,29.54-8.46,21.83,1.33,13.53Z"/></g></g></svg>